<?xml version="1.0" encoding="UTF-8" standalone="no"?>
<svg
   xmlns:dc="http://purl.org/dc/elements/1.1/"
   xmlns:cc="http://creativecommons.org/ns#"
   xmlns:rdf="http://www.w3.org/1999/02/22-rdf-syntax-ns#"
   xmlns:svg="http://www.w3.org/2000/svg"
   xmlns="http://www.w3.org/2000/svg"
   xmlns:sodipodi="http://sodipodi.sourceforge.net/DTD/sodipodi-0.dtd"
   xmlns:inkscape="http://www.inkscape.org/namespaces/inkscape"
   viewBox="0 0 846.22748 280.59581"
   height="100%"
   width="100%"
   id="svg2"
   version="1.1"
   inkscape:version="0.48.4 r9939"
   sodipodi:docname="change_states_before2.svg">
  <metadata
     id="metadata297">
    <rdf:RDF>
      <cc:Work
         rdf:about="">
        <dc:format>image/svg+xml</dc:format>
        <dc:type
           rdf:resource="http://purl.org/dc/dcmitype/StillImage" />
      </cc:Work>
    </rdf:RDF>
  </metadata>
  <sodipodi:namedview
     pagecolor="#ffffff"
     bordercolor="#666666"
     borderopacity="1"
     objecttolerance="10"
     gridtolerance="10"
     guidetolerance="10"
     inkscape:pageopacity="0"
     inkscape:pageshadow="2"
     inkscape:window-width="1274"
     inkscape:window-height="775"
     id="namedview295"
     showgrid="false"
     inkscape:zoom="0.74520191"
     inkscape:cx="394.06964"
     inkscape:cy="183.63722"
     inkscape:window-x="388"
     inkscape:window-y="217"
     inkscape:window-maximized="0"
     inkscape:current-layer="svg2"
     fit-margin-top="0"
     fit-margin-left="0"
     fit-margin-right="0"
     fit-margin-bottom="0" />
  <defs
     id="defs4">
    <clipPath
       id="a">
      <path
         d="M 0,0 H 33867 V 19050 H 0 z"
         id="path7"
         inkscape:connector-curvature="0" />
    </clipPath>
  </defs>
  <g
     class="com.sun.star.drawing.CustomShape"
     id="g13"
     transform="matrix(0.03543,0,0,0.03543,-15.404513,-28.829286)">
    <path
       d="M 893,4264 H 4235 V 8554 H 893 V 4264 z m 417,1504 v 496 h 169 l 52,-57 h 49 v 758 h 1704 v -262 h 270 l 146,144 h 117 v -922 h -117 l -101,100 h -315 v -100 l -99,-105 H 1531 l -52,-52 H 1310 z M 893,4264 z m 3342,4290 z"
       id="path15"
       inkscape:connector-curvature="0"
       style="fill:#ffffff" />
    <path
       d="m 1310,5768 v 496 h 169 l 52,-57 h 49 v 758 h 1704 v -262 h 270 l 146,144 h 117 v -922 h -117 l -101,100 h -315 v -100 l -99,-105 H 1531 l -52,-52 H 1310 z M 893,4264 z m 3342,4290 z"
       id="path17"
       inkscape:connector-curvature="0"
       style="fill:#aaaaaa" />
    <path
       d="m 1310,5768 h 169 l 52,52 h 1654 l 99,105 v 100 h 315 l 101,-100 h 117 v 922 h -117 l -146,-144 h -270 v 262 H 1580 v -758 h -49 l -52,57 h -169 v -496 z"
       id="path19"
       inkscape:connector-curvature="0"
       style="fill:none;stroke:#ed7d31;stroke-width:35" />
    <path
       d="M 893,4264 H 4235 V 8554 H 893 V 4264 z"
       id="path21"
       inkscape:connector-curvature="0"
       style="fill:none;stroke:#ed7d31;stroke-width:35" />
  </g>
  <g
     class="com.sun.star.drawing.CustomShape"
     id="g53"
     transform="matrix(0.03543,0,0,0.03543,-15.404513,-28.829286)">
    <path
       d="m 12790,896 h 4363 V 4721 H 12790 V 896 z m 0,0 z m 4363,3825 z"
       id="path55"
       inkscape:connector-curvature="0"
       style="fill:#a7c9e8" />
    <path
       d="m 12790,896 h 4363 V 4721 H 12790 V 896 z"
       id="path57"
       inkscape:connector-curvature="0"
       style="fill:none;stroke:#43729d;stroke-width:35" />
  </g>
  <g
     class="com.sun.star.drawing.CustomShape"
     id="g87"
     transform="matrix(0.04714314,0,0,0.03543,-175.31813,-28.829286)">
    <path
       d="m 13670,5570 h 2600 V 7961 H 13670 V 5570 z m 0,0 z m 2600,2391 z"
       id="path89"
       inkscape:connector-curvature="0"
       style="fill:#a7c9e8" />
    <path
       d="m 13670,5570 h 2600 V 7961 H 13670 V 5570 z"
       id="path91"
       inkscape:connector-curvature="0"
       style="fill:none;stroke:#43729d;stroke-width:35" />
  </g>
  <g
     class="com.sun.star.drawing.CustomShape"
     id="g121"
     transform="matrix(0.03543,0,0,0.03543,-15.404513,-28.829286)">
    <path
       d="m 3910,3753 38,-11 41,-5 41,-1 42,3 44,7 44,12 46,16 45,21 46,26 47,29 47,33 47,37 47,41 47,45 47,49 46,52 47,56 45,59 45,63 44,65 43,68 43,71 41,73 40,76 39,77 37,79 36,82 33,83 33,84 30,85 29,86 26,86 25,88 23,87 21,87 18,86 16,88 14,85 12,85 9,83 7,82 5,81 2,78 -1,77 -2,76 -5,72 -7,69 -10,67 -12,64 -14,61 -17,58 -18,54 -22,51 -22,48 -25,43 -28,40 -29,35 -31,32 -32,27 -34,24 -36,19 -38,14 16,-80 13,-84 11,-88 7,-91 4,-94 1,-97 -2,-100 -6,-102 -8,-104 -11,-106 -14,-108 -18,-109 -20,-110 -23,-110 -26,-110 -28,-112 -32,-110 -34,-110 -36,-109 -39,-109 -42,-106 -43,-106 -46,-103 -47,-100 -49,-99 -51,-96 -52,-93 -54,-89 -56,-86 -56,-83 -57,-78 -58,-74 -59,-71 -59,-65 -60,-60 -60,-57 -1,1 z M 5757,6920 z M 3910,3753 z"
       id="path123"
       inkscape:connector-curvature="0"
       style="fill:#a5a5a5" />
    <path
       d="m 3910,3753 38,-11 41,-5 41,-1 42,3 44,7 44,12 46,16 45,21 46,26 47,29 47,33 47,37 47,41 47,45 47,49 46,52 47,56 45,59 45,63 44,65 43,68 43,71 41,73 40,76 39,77 37,79 36,82 33,83 33,84 30,85 29,86 26,86 25,88 23,87 21,87 18,86 16,88 14,85 12,85 9,83 7,82 5,81 2,78 -1,77 -2,76 -5,72 -7,69 -10,67 -12,64 -14,61 -17,58 -18,54 -22,51 -22,48 -25,43 -28,40 -29,35 -31,32 -32,27 -34,24 -36,19 -38,14 16,-80 13,-84 11,-88 7,-91 4,-94 1,-97 -2,-100 -6,-102 -8,-104 -11,-106 -14,-108 -18,-109 -20,-110 -23,-110 -26,-110 -28,-112 -32,-110 -34,-110 -36,-109 -39,-109 -42,-106 -43,-106 -46,-103 -47,-100 -49,-99 -51,-96 -52,-93 -54,-89 -56,-86 -56,-83 -57,-78 -58,-74 -59,-71 -59,-65 -60,-60 -60,-57 -1,1 z"
       id="path125"
       inkscape:connector-curvature="0"
       style="fill:none;stroke:#7a7a7a;stroke-width:35" />
  </g>
  <g
     class="com.sun.star.drawing.CustomShape"
     id="g127"
     transform="matrix(0.03543,0,0,0.03543,-15.404513,-28.829286)">
    <path
       d="m 4785,3426 38,-11 41,-5 41,-1 42,3 44,7 44,12 46,16 45,21 46,26 47,29 47,33 47,37 47,41 47,45 47,49 46,52 47,56 45,59 45,63 44,65 43,68 43,71 41,73 40,76 39,77 37,79 36,82 33,83 33,84 30,85 29,86 26,86 25,88 23,87 21,87 18,86 16,88 14,85 12,85 9,83 7,82 5,81 2,78 -1,77 -2,76 -5,72 -7,69 -10,67 -12,64 -14,61 -17,58 -18,54 -22,51 -22,48 -25,43 -28,40 -29,35 -31,32 -32,27 -34,24 -36,19 -38,14 16,-80 13,-84 11,-88 7,-91 4,-94 1,-97 -2,-100 -6,-102 -8,-104 -11,-106 -14,-108 -18,-109 -20,-110 -23,-110 -26,-110 -28,-112 -32,-110 -34,-110 -36,-109 -39,-109 -42,-106 -43,-106 -46,-103 -47,-100 -49,-99 -51,-96 -52,-93 -54,-89 -56,-86 -56,-83 -57,-78 -58,-74 -59,-71 -59,-65 -60,-60 -60,-57 -1,1 z M 6632,6593 z M 4785,3426 z"
       id="path129"
       inkscape:connector-curvature="0"
       style="fill:#a5a5a5" />
    <path
       d="m 4785,3426 38,-11 41,-5 41,-1 42,3 44,7 44,12 46,16 45,21 46,26 47,29 47,33 47,37 47,41 47,45 47,49 46,52 47,56 45,59 45,63 44,65 43,68 43,71 41,73 40,76 39,77 37,79 36,82 33,83 33,84 30,85 29,86 26,86 25,88 23,87 21,87 18,86 16,88 14,85 12,85 9,83 7,82 5,81 2,78 -1,77 -2,76 -5,72 -7,69 -10,67 -12,64 -14,61 -17,58 -18,54 -22,51 -22,48 -25,43 -28,40 -29,35 -31,32 -32,27 -34,24 -36,19 -38,14 16,-80 13,-84 11,-88 7,-91 4,-94 1,-97 -2,-100 -6,-102 -8,-104 -11,-106 -14,-108 -18,-109 -20,-110 -23,-110 -26,-110 -28,-112 -32,-110 -34,-110 -36,-109 -39,-109 -42,-106 -43,-106 -46,-103 -47,-100 -49,-99 -51,-96 -52,-93 -54,-89 -56,-86 -56,-83 -57,-78 -58,-74 -59,-71 -59,-65 -60,-60 -60,-57 -1,1 z"
       id="path131"
       inkscape:connector-curvature="0"
       style="fill:none;stroke:#7a7a7a;stroke-width:35" />
  </g>
  <g
     class="com.sun.star.drawing.CustomShape"
     id="g133"
     transform="matrix(0.03543,0,0,0.03543,-15.404513,-28.829286)">
    <path
       d="m 5660,3100 38,-11 41,-5 41,-1 42,3 44,7 44,12 46,16 45,21 46,26 47,29 47,33 47,37 47,41 47,45 47,49 46,52 47,56 45,59 45,63 44,65 43,68 43,71 41,73 40,76 39,77 37,79 36,82 33,83 33,84 30,85 29,86 26,86 25,88 23,87 21,87 18,86 16,88 14,85 12,85 9,83 7,82 5,81 2,78 -1,77 -2,76 -5,72 -7,69 -10,67 -12,64 -14,61 -17,58 -18,54 -22,51 -22,48 -25,43 -28,40 -29,35 -31,32 -32,27 -34,24 -36,19 -38,14 16,-80 13,-84 11,-88 7,-91 4,-94 1,-97 -2,-100 -6,-102 -8,-104 -11,-106 -14,-108 -18,-109 -20,-110 -23,-110 -26,-110 -28,-112 -32,-110 -34,-110 -36,-109 -39,-109 -42,-106 -43,-106 -46,-103 -47,-100 -49,-99 -51,-96 -52,-93 -54,-89 -56,-86 -56,-83 -57,-78 -58,-74 -59,-71 -59,-65 -60,-60 -60,-57 -1,1 z M 7507,6267 z M 5660,3100 z"
       id="path135"
       inkscape:connector-curvature="0"
       style="fill:#a5a5a5" />
    <path
       d="m 5660,3100 38,-11 41,-5 41,-1 42,3 44,7 44,12 46,16 45,21 46,26 47,29 47,33 47,37 47,41 47,45 47,49 46,52 47,56 45,59 45,63 44,65 43,68 43,71 41,73 40,76 39,77 37,79 36,82 33,83 33,84 30,85 29,86 26,86 25,88 23,87 21,87 18,86 16,88 14,85 12,85 9,83 7,82 5,81 2,78 -1,77 -2,76 -5,72 -7,69 -10,67 -12,64 -14,61 -17,58 -18,54 -22,51 -22,48 -25,43 -28,40 -29,35 -31,32 -32,27 -34,24 -36,19 -38,14 16,-80 13,-84 11,-88 7,-91 4,-94 1,-97 -2,-100 -6,-102 -8,-104 -11,-106 -14,-108 -18,-109 -20,-110 -23,-110 -26,-110 -28,-112 -32,-110 -34,-110 -36,-109 -39,-109 -42,-106 -43,-106 -46,-103 -47,-100 -49,-99 -51,-96 -52,-93 -54,-89 -56,-86 -56,-83 -57,-78 -58,-74 -59,-71 -59,-65 -60,-60 -60,-57 -1,1 z"
       id="path137"
       inkscape:connector-curvature="0"
       style="fill:none;stroke:#7a7a7a;stroke-width:35" />
  </g>
  <g
     class="com.sun.star.drawing.CustomShape"
     id="g139"
     transform="matrix(0.03543,0,0,0.03543,-15.404513,-28.829286)">
    <path
       d="m 6536,2773 38,-11 41,-5 41,-1 42,3 44,7 44,12 46,16 45,21 46,26 47,29 47,33 47,37 47,41 47,45 47,49 46,52 47,56 45,59 45,63 44,65 43,68 43,71 41,73 40,76 39,77 37,79 36,82 33,83 33,84 30,85 29,86 26,86 25,88 23,87 21,87 18,86 16,88 14,85 12,85 9,83 7,82 5,81 2,78 -1,77 -2,76 -5,72 -7,69 -10,67 -12,64 -14,61 -17,58 -18,54 -22,51 -22,48 -25,43 -28,40 -29,35 -31,32 -32,27 -34,24 -36,19 -38,14 16,-80 13,-84 11,-88 7,-91 4,-94 1,-97 -2,-100 -6,-102 -8,-104 -11,-106 -14,-108 -18,-109 -20,-110 -23,-110 -26,-110 -28,-112 -32,-110 -34,-110 -36,-109 -39,-109 -42,-106 -43,-106 -46,-103 -47,-100 -49,-99 -51,-96 -52,-93 -54,-89 -56,-86 -56,-83 -57,-78 -58,-74 -59,-71 -59,-65 -60,-60 -60,-57 -1,1 z M 8383,5940 z M 6536,2773 z"
       id="path141"
       inkscape:connector-curvature="0"
       style="fill:#a5a5a5" />
    <path
       d="m 6536,2773 38,-11 41,-5 41,-1 42,3 44,7 44,12 46,16 45,21 46,26 47,29 47,33 47,37 47,41 47,45 47,49 46,52 47,56 45,59 45,63 44,65 43,68 43,71 41,73 40,76 39,77 37,79 36,82 33,83 33,84 30,85 29,86 26,86 25,88 23,87 21,87 18,86 16,88 14,85 12,85 9,83 7,82 5,81 2,78 -1,77 -2,76 -5,72 -7,69 -10,67 -12,64 -14,61 -17,58 -18,54 -22,51 -22,48 -25,43 -28,40 -29,35 -31,32 -32,27 -34,24 -36,19 -38,14 16,-80 13,-84 11,-88 7,-91 4,-94 1,-97 -2,-100 -6,-102 -8,-104 -11,-106 -14,-108 -18,-109 -20,-110 -23,-110 -26,-110 -28,-112 -32,-110 -34,-110 -36,-109 -39,-109 -42,-106 -43,-106 -46,-103 -47,-100 -49,-99 -51,-96 -52,-93 -54,-89 -56,-86 -56,-83 -57,-78 -58,-74 -59,-71 -59,-65 -60,-60 -60,-57 -1,1 z"
       id="path143"
       inkscape:connector-curvature="0"
       style="fill:none;stroke:#7a7a7a;stroke-width:35" />
  </g>
  <g
     class="com.sun.star.drawing.CustomShape"
     id="g145"
     transform="matrix(0.03543,0,0,0.03543,-15.404513,-28.829286)">
    <path
       d="m 7411,2446 38,-11 41,-5 41,-1 42,3 44,7 44,12 46,16 45,21 46,26 47,29 47,33 47,37 47,41 47,45 47,49 46,52 47,56 45,59 45,63 44,65 43,68 43,71 41,73 40,76 39,77 37,79 36,82 33,83 33,84 30,85 29,86 26,86 25,88 23,87 21,87 18,86 16,88 14,85 12,85 9,83 7,82 5,81 2,78 -1,77 -2,76 -5,72 -7,69 -10,67 -12,64 -14,61 -17,58 -18,54 -22,51 -22,48 -25,43 -28,40 -29,35 -31,32 -32,27 -34,24 -36,19 -38,14 16,-80 13,-84 11,-88 7,-91 4,-94 1,-97 -2,-100 -6,-102 -8,-104 -11,-106 -14,-108 -18,-109 -20,-110 -23,-110 -26,-110 -28,-112 -32,-110 -34,-110 -36,-109 -39,-109 -42,-106 -43,-106 -46,-103 -47,-100 -49,-99 -51,-96 -52,-93 -54,-89 -56,-86 -56,-83 -57,-78 -58,-74 -59,-71 -59,-65 -60,-60 -60,-57 -1,1 z M 9258,5613 z M 7411,2446 z"
       id="path147"
       inkscape:connector-curvature="0"
       style="fill:#a5a5a5" />
    <path
       d="m 7411,2446 38,-11 41,-5 41,-1 42,3 44,7 44,12 46,16 45,21 46,26 47,29 47,33 47,37 47,41 47,45 47,49 46,52 47,56 45,59 45,63 44,65 43,68 43,71 41,73 40,76 39,77 37,79 36,82 33,83 33,84 30,85 29,86 26,86 25,88 23,87 21,87 18,86 16,88 14,85 12,85 9,83 7,82 5,81 2,78 -1,77 -2,76 -5,72 -7,69 -10,67 -12,64 -14,61 -17,58 -18,54 -22,51 -22,48 -25,43 -28,40 -29,35 -31,32 -32,27 -34,24 -36,19 -38,14 16,-80 13,-84 11,-88 7,-91 4,-94 1,-97 -2,-100 -6,-102 -8,-104 -11,-106 -14,-108 -18,-109 -20,-110 -23,-110 -26,-110 -28,-112 -32,-110 -34,-110 -36,-109 -39,-109 -42,-106 -43,-106 -46,-103 -47,-100 -49,-99 -51,-96 -52,-93 -54,-89 -56,-86 -56,-83 -57,-78 -58,-74 -59,-71 -59,-65 -60,-60 -60,-57 -1,1 z"
       id="path149"
       inkscape:connector-curvature="0"
       style="fill:none;stroke:#7a7a7a;stroke-width:35" />
  </g>
  <g
     class="com.sun.star.drawing.CustomShape"
     id="g151"
     transform="matrix(0.03543,0,0,0.03543,-15.404513,-28.829286)">
    <path
       d="m 8286,2120 38,-11 41,-5 41,-1 42,3 44,7 44,12 46,16 45,21 46,26 47,29 47,33 47,37 47,41 47,45 47,49 46,52 47,56 45,59 45,63 44,65 43,68 43,71 41,73 40,76 39,77 37,79 36,82 33,83 33,84 30,85 29,86 26,86 25,88 23,87 21,87 18,86 16,88 14,85 12,85 9,83 7,82 5,81 2,78 -1,77 -2,76 -5,72 -7,69 -10,67 -12,64 -14,61 -17,58 -18,54 -22,51 -22,48 -25,43 -28,40 -29,35 -31,32 -32,27 -34,24 -36,19 -38,14 16,-80 13,-84 11,-88 7,-91 4,-94 1,-97 -2,-100 -6,-102 -8,-104 -11,-106 -14,-108 -18,-109 -20,-110 -23,-110 -26,-110 -28,-112 -32,-110 -34,-110 -36,-109 -39,-109 -42,-106 -43,-106 -46,-103 -47,-100 -49,-99 -51,-96 -52,-93 -54,-89 -56,-86 -56,-83 -57,-78 -58,-74 -59,-71 -59,-65 -60,-60 -60,-57 -1,1 z m 1847,3167 z M 8286,2120 z"
       id="path153"
       inkscape:connector-curvature="0"
       style="fill:#a5a5a5" />
    <path
       d="m 8286,2120 38,-11 41,-5 41,-1 42,3 44,7 44,12 46,16 45,21 46,26 47,29 47,33 47,37 47,41 47,45 47,49 46,52 47,56 45,59 45,63 44,65 43,68 43,71 41,73 40,76 39,77 37,79 36,82 33,83 33,84 30,85 29,86 26,86 25,88 23,87 21,87 18,86 16,88 14,85 12,85 9,83 7,82 5,81 2,78 -1,77 -2,76 -5,72 -7,69 -10,67 -12,64 -14,61 -17,58 -18,54 -22,51 -22,48 -25,43 -28,40 -29,35 -31,32 -32,27 -34,24 -36,19 -38,14 16,-80 13,-84 11,-88 7,-91 4,-94 1,-97 -2,-100 -6,-102 -8,-104 -11,-106 -14,-108 -18,-109 -20,-110 -23,-110 -26,-110 -28,-112 -32,-110 -34,-110 -36,-109 -39,-109 -42,-106 -43,-106 -46,-103 -47,-100 -49,-99 -51,-96 -52,-93 -54,-89 -56,-86 -56,-83 -57,-78 -58,-74 -59,-71 -59,-65 -60,-60 -60,-57 -1,1 z"
       id="path155"
       inkscape:connector-curvature="0"
       style="fill:none;stroke:#7a7a7a;stroke-width:35" />
  </g>
  <g
     class="com.sun.star.drawing.CustomShape"
     id="g157"
     transform="matrix(0.03543,0,0,0.03543,-15.404513,-28.829286)">
    <path
       d="m 9161,1793 38,-11 41,-5 41,-1 42,3 44,7 44,12 46,16 45,21 46,26 47,29 47,33 47,37 47,41 47,45 47,49 46,52 47,56 45,59 45,63 44,65 43,68 43,71 41,73 40,76 39,77 37,79 36,82 33,83 33,84 30,85 29,86 26,86 25,88 23,87 21,87 18,86 16,88 14,85 12,85 9,83 7,82 5,81 2,78 -1,77 -2,76 -5,72 -7,69 -10,67 -12,64 -14,61 -17,58 -18,54 -22,51 -22,48 -25,43 -28,40 -29,35 -31,32 -32,27 -34,24 -36,19 -38,14 16,-80 13,-84 11,-88 7,-91 4,-94 1,-97 -2,-100 -6,-102 -8,-104 -11,-106 -14,-108 -18,-109 -20,-110 -23,-110 -26,-110 -28,-112 -32,-110 -34,-110 -36,-109 -39,-109 -42,-106 -43,-106 -46,-103 -47,-100 -49,-99 -51,-96 -52,-93 -54,-89 -56,-86 -56,-83 -57,-78 -58,-74 -59,-71 -59,-65 -60,-60 -60,-57 -1,1 z m 1847,3167 z M 9161,1793 z"
       id="path159"
       inkscape:connector-curvature="0"
       style="fill:#a5a5a5" />
    <path
       d="m 9161,1793 38,-11 41,-5 41,-1 42,3 44,7 44,12 46,16 45,21 46,26 47,29 47,33 47,37 47,41 47,45 47,49 46,52 47,56 45,59 45,63 44,65 43,68 43,71 41,73 40,76 39,77 37,79 36,82 33,83 33,84 30,85 29,86 26,86 25,88 23,87 21,87 18,86 16,88 14,85 12,85 9,83 7,82 5,81 2,78 -1,77 -2,76 -5,72 -7,69 -10,67 -12,64 -14,61 -17,58 -18,54 -22,51 -22,48 -25,43 -28,40 -29,35 -31,32 -32,27 -34,24 -36,19 -38,14 16,-80 13,-84 11,-88 7,-91 4,-94 1,-97 -2,-100 -6,-102 -8,-104 -11,-106 -14,-108 -18,-109 -20,-110 -23,-110 -26,-110 -28,-112 -32,-110 -34,-110 -36,-109 -39,-109 -42,-106 -43,-106 -46,-103 -47,-100 -49,-99 -51,-96 -52,-93 -54,-89 -56,-86 -56,-83 -57,-78 -58,-74 -59,-71 -59,-65 -60,-60 -60,-57 -1,1 z"
       id="path161"
       inkscape:connector-curvature="0"
       style="fill:none;stroke:#7a7a7a;stroke-width:35" />
  </g>
  <g
     class="com.sun.star.drawing.CustomShape"
     id="g163"
     transform="matrix(0.03543,0,0,0.03543,-15.404513,-28.829286)">
    <path
       d="m 10036,1467 38,-11 41,-5 41,-1 42,3 44,7 44,12 46,16 45,21 46,26 47,29 47,33 47,37 47,41 47,45 47,49 46,52 47,56 45,59 45,63 44,65 43,68 43,71 41,73 40,76 39,77 37,79 36,82 33,83 33,84 30,85 29,86 26,86 25,88 23,87 21,87 18,86 16,88 14,85 12,85 9,83 7,82 5,81 2,78 -1,77 -2,76 -5,72 -7,69 -10,67 -12,64 -14,61 -17,58 -18,54 -22,51 -22,48 -25,43 -28,40 -29,35 -31,32 -32,27 -34,24 -36,19 -38,14 16,-80 13,-84 11,-88 7,-91 4,-94 1,-97 -2,-100 -6,-102 -8,-104 -11,-106 -14,-108 -18,-109 -20,-110 -23,-110 -26,-110 -28,-112 -32,-110 -34,-110 -36,-109 -39,-109 -42,-106 -43,-106 -46,-103 -47,-100 -49,-99 -51,-96 -52,-93 -54,-89 -56,-86 -56,-83 -57,-78 -58,-74 -59,-71 -59,-65 -60,-60 -60,-57 -1,1 z m 1847,3167 z M 10036,1467 z"
       id="path165"
       inkscape:connector-curvature="0"
       style="fill:#a5a5a5" />
    <path
       d="m 10036,1467 38,-11 41,-5 41,-1 42,3 44,7 44,12 46,16 45,21 46,26 47,29 47,33 47,37 47,41 47,45 47,49 46,52 47,56 45,59 45,63 44,65 43,68 43,71 41,73 40,76 39,77 37,79 36,82 33,83 33,84 30,85 29,86 26,86 25,88 23,87 21,87 18,86 16,88 14,85 12,85 9,83 7,82 5,81 2,78 -1,77 -2,76 -5,72 -7,69 -10,67 -12,64 -14,61 -17,58 -18,54 -22,51 -22,48 -25,43 -28,40 -29,35 -31,32 -32,27 -34,24 -36,19 -38,14 16,-80 13,-84 11,-88 7,-91 4,-94 1,-97 -2,-100 -6,-102 -8,-104 -11,-106 -14,-108 -18,-109 -20,-110 -23,-110 -26,-110 -28,-112 -32,-110 -34,-110 -36,-109 -39,-109 -42,-106 -43,-106 -46,-103 -47,-100 -49,-99 -51,-96 -52,-93 -54,-89 -56,-86 -56,-83 -57,-78 -58,-74 -59,-71 -59,-65 -60,-60 -60,-57 -1,1 z"
       id="path167"
       inkscape:connector-curvature="0"
       style="fill:none;stroke:#7a7a7a;stroke-width:35" />
  </g>
  <g
     class="com.sun.star.drawing.CustomShape"
     id="g169"
     transform="matrix(0.03543,0,0,0.03543,-15.404513,-28.829286)">
    <path
       d="m 10912,1140 38,-11 41,-5 41,-1 42,3 44,7 44,12 46,16 45,21 46,26 47,29 47,33 47,37 47,41 47,45 47,49 46,52 47,56 45,59 45,63 44,65 43,68 43,71 41,73 40,76 39,77 37,79 36,82 33,83 33,84 30,85 29,86 26,86 25,88 23,87 21,87 18,86 16,88 14,85 12,85 9,83 7,82 5,81 2,78 -1,77 -2,76 -5,72 -7,69 -10,67 -12,64 -14,61 -17,58 -18,54 -22,51 -22,48 -25,43 -28,40 -29,35 -31,32 -32,27 -34,24 -36,19 -38,14 16,-80 13,-84 11,-88 7,-91 4,-94 1,-97 -2,-100 -6,-102 -8,-104 -11,-106 -14,-108 -18,-109 -20,-110 -23,-110 -26,-110 -28,-112 -32,-110 -34,-110 -36,-109 -39,-109 -42,-106 -43,-106 -46,-103 -47,-100 -49,-99 -51,-96 -52,-93 -54,-89 -56,-86 -56,-83 -57,-78 -58,-74 -59,-71 -59,-65 -60,-60 -60,-57 -1,1 z m 1847,3167 z M 10912,1140 z"
       id="path171"
       inkscape:connector-curvature="0"
       style="fill:#a5a5a5" />
    <path
       d="m 10912,1140 38,-11 41,-5 41,-1 42,3 44,7 44,12 46,16 45,21 46,26 47,29 47,33 47,37 47,41 47,45 47,49 46,52 47,56 45,59 45,63 44,65 43,68 43,71 41,73 40,76 39,77 37,79 36,82 33,83 33,84 30,85 29,86 26,86 25,88 23,87 21,87 18,86 16,88 14,85 12,85 9,83 7,82 5,81 2,78 -1,77 -2,76 -5,72 -7,69 -10,67 -12,64 -14,61 -17,58 -18,54 -22,51 -22,48 -25,43 -28,40 -29,35 -31,32 -32,27 -34,24 -36,19 -38,14 16,-80 13,-84 11,-88 7,-91 4,-94 1,-97 -2,-100 -6,-102 -8,-104 -11,-106 -14,-108 -18,-109 -20,-110 -23,-110 -26,-110 -28,-112 -32,-110 -34,-110 -36,-109 -39,-109 -42,-106 -43,-106 -46,-103 -47,-100 -49,-99 -51,-96 -52,-93 -54,-89 -56,-86 -56,-83 -57,-78 -58,-74 -59,-71 -59,-65 -60,-60 -60,-57 -1,1 z"
       id="path173"
       inkscape:connector-curvature="0"
       style="fill:none;stroke:#7a7a7a;stroke-width:35" />
  </g>
  <g
     class="com.sun.star.drawing.CustomShape"
     id="g175"
     transform="matrix(0.03543,0,0,0.03543,-15.404513,-28.829286)">
    <path
       d="m 5510,4976 40,2 40,7 40,12 39,16 39,20 39,25 38,29 37,34 36,38 36,42 34,46 34,50 32,53 31,57 30,61 28,64 27,68 25,70 24,73 22,76 20,78 19,80 17,82 15,85 13,85 11,87 9,89 7,89 5,90 3,90 1,91 -1,90 -3,91 -5,90 -7,89 -9,88 -11,88 -13,85 -15,85 -17,82 -18,80 -20,79 -22,75 -24,73 -25,71 -27,67 -28,64 -30,61 -31,57 -32,54 -34,50 -34,46 -36,42 -36,38 -37,34 -38,29 -39,25 -39,21 -39,16 -40,12 -40,7 -40,2 40,-71 38,-76 37,-81 34,-84 33,-89 31,-92 28,-96 26,-98 24,-102 22,-104 19,-107 17,-109 14,-111 12,-112 9,-113 7,-115 4,-114 1,-116 -1,-115 -4,-115 -7,-114 -9,-114 -12,-112 -14,-110 -17,-109 -19,-107 -21,-104 -24,-102 -27,-99 -28,-96 -31,-92 -32,-88 -35,-85 -36,-80 -39,-76 -40,-72 h -1 z m 791,3580 z M 5510,4976 z"
       id="path177"
       inkscape:connector-curvature="0"
       style="fill:#a5a5a5" />
    <path
       d="m 5510,4976 40,2 40,7 40,12 39,16 39,20 39,25 38,29 37,34 36,38 36,42 34,46 34,50 32,53 31,57 30,61 28,64 27,68 25,70 24,73 22,76 20,78 19,80 17,82 15,85 13,85 11,87 9,89 7,89 5,90 3,90 1,91 -1,90 -3,91 -5,90 -7,89 -9,88 -11,88 -13,85 -15,85 -17,82 -18,80 -20,79 -22,75 -24,73 -25,71 -27,67 -28,64 -30,61 -31,57 -32,54 -34,50 -34,46 -36,42 -36,38 -37,34 -38,29 -39,25 -39,21 -39,16 -40,12 -40,7 -40,2 40,-71 38,-76 37,-81 34,-84 33,-89 31,-92 28,-96 26,-98 24,-102 22,-104 19,-107 17,-109 14,-111 12,-112 9,-113 7,-115 4,-114 1,-116 -1,-115 -4,-115 -7,-114 -9,-114 -12,-112 -14,-110 -17,-109 -19,-107 -21,-104 -24,-102 -27,-99 -28,-96 -31,-92 -32,-88 -35,-85 -36,-80 -39,-76 -40,-72 h -1 z"
       id="path179"
       inkscape:connector-curvature="0"
       style="fill:none;stroke:#7a7a7a;stroke-width:35" />
  </g>
  <g
     class="com.sun.star.drawing.CustomShape"
     id="g181"
     transform="matrix(0.03543,0,0,0.03543,-15.404513,-28.829286)">
    <path
       d="m 6482,4976 40,2 40,7 40,12 39,16 39,20 39,25 38,29 37,34 36,38 36,42 34,46 34,50 32,53 31,57 30,61 28,64 27,68 25,70 24,73 22,76 20,78 19,80 17,82 15,85 13,85 11,87 9,89 7,89 5,90 3,90 1,91 -1,90 -3,91 -5,90 -7,89 -9,88 -11,88 -13,85 -15,85 -17,82 -18,80 -20,79 -22,75 -24,73 -25,71 -27,67 -28,64 -30,61 -31,57 -32,54 -34,50 -34,46 -36,42 -36,38 -37,34 -38,29 -39,25 -39,21 -39,16 -40,12 -40,7 -40,2 40,-71 38,-76 37,-81 34,-84 33,-89 31,-92 28,-96 26,-98 24,-102 22,-104 19,-107 17,-109 14,-111 12,-112 9,-113 7,-115 4,-114 1,-116 -1,-115 -4,-115 -7,-114 -9,-114 -12,-112 -14,-110 -17,-109 -19,-107 -21,-104 -24,-102 -27,-99 -28,-96 -31,-92 -32,-88 -35,-85 -36,-80 -39,-76 -40,-72 h -1 z m 791,3580 z M 6482,4976 z"
       id="path183"
       inkscape:connector-curvature="0"
       style="fill:#a5a5a5" />
    <path
       d="m 6482,4976 40,2 40,7 40,12 39,16 39,20 39,25 38,29 37,34 36,38 36,42 34,46 34,50 32,53 31,57 30,61 28,64 27,68 25,70 24,73 22,76 20,78 19,80 17,82 15,85 13,85 11,87 9,89 7,89 5,90 3,90 1,91 -1,90 -3,91 -5,90 -7,89 -9,88 -11,88 -13,85 -15,85 -17,82 -18,80 -20,79 -22,75 -24,73 -25,71 -27,67 -28,64 -30,61 -31,57 -32,54 -34,50 -34,46 -36,42 -36,38 -37,34 -38,29 -39,25 -39,21 -39,16 -40,12 -40,7 -40,2 40,-71 38,-76 37,-81 34,-84 33,-89 31,-92 28,-96 26,-98 24,-102 22,-104 19,-107 17,-109 14,-111 12,-112 9,-113 7,-115 4,-114 1,-116 -1,-115 -4,-115 -7,-114 -9,-114 -12,-112 -14,-110 -17,-109 -19,-107 -21,-104 -24,-102 -27,-99 -28,-96 -31,-92 -32,-88 -35,-85 -36,-80 -39,-76 -40,-72 h -1 z"
       id="path185"
       inkscape:connector-curvature="0"
       style="fill:none;stroke:#7a7a7a;stroke-width:35" />
  </g>
  <g
     class="com.sun.star.drawing.CustomShape"
     id="g187"
     transform="matrix(0.03543,0,0,0.03543,-15.404513,-28.829286)">
    <path
       d="m 7453,4976 40,2 40,7 40,12 39,16 39,20 39,25 38,29 37,34 36,38 36,42 34,46 34,50 32,53 31,57 30,61 28,64 27,68 25,70 24,73 22,76 20,78 19,80 17,82 15,85 13,85 11,87 9,89 7,89 5,90 3,90 1,91 -1,90 -3,91 -5,90 -7,89 -9,88 -11,88 -13,85 -15,85 -17,82 -18,80 -20,79 -22,75 -24,73 -25,71 -27,67 -28,64 -30,61 -31,57 -32,54 -34,50 -34,46 -36,42 -36,38 -37,34 -38,29 -39,25 -39,21 -39,16 -40,12 -40,7 -40,2 40,-71 38,-76 37,-81 34,-84 33,-89 31,-92 28,-96 26,-98 24,-102 22,-104 19,-107 17,-109 14,-111 12,-112 9,-113 7,-115 4,-114 1,-116 -1,-115 -4,-115 -7,-114 -9,-114 -12,-112 -14,-110 -17,-109 -19,-107 -21,-104 -24,-102 -27,-99 -28,-96 -31,-92 -32,-88 -35,-85 -36,-80 -39,-76 -40,-72 h -1 z m 791,3580 z M 7453,4976 z"
       id="path189"
       inkscape:connector-curvature="0"
       style="fill:#a5a5a5" />
    <path
       d="m 7453,4976 40,2 40,7 40,12 39,16 39,20 39,25 38,29 37,34 36,38 36,42 34,46 34,50 32,53 31,57 30,61 28,64 27,68 25,70 24,73 22,76 20,78 19,80 17,82 15,85 13,85 11,87 9,89 7,89 5,90 3,90 1,91 -1,90 -3,91 -5,90 -7,89 -9,88 -11,88 -13,85 -15,85 -17,82 -18,80 -20,79 -22,75 -24,73 -25,71 -27,67 -28,64 -30,61 -31,57 -32,54 -34,50 -34,46 -36,42 -36,38 -37,34 -38,29 -39,25 -39,21 -39,16 -40,12 -40,7 -40,2 40,-71 38,-76 37,-81 34,-84 33,-89 31,-92 28,-96 26,-98 24,-102 22,-104 19,-107 17,-109 14,-111 12,-112 9,-113 7,-115 4,-114 1,-116 -1,-115 -4,-115 -7,-114 -9,-114 -12,-112 -14,-110 -17,-109 -19,-107 -21,-104 -24,-102 -27,-99 -28,-96 -31,-92 -32,-88 -35,-85 -36,-80 -39,-76 -40,-72 h -1 z"
       id="path191"
       inkscape:connector-curvature="0"
       style="fill:none;stroke:#7a7a7a;stroke-width:35" />
  </g>
  <g
     class="com.sun.star.drawing.CustomShape"
     id="g193"
     transform="matrix(0.03543,0,0,0.03543,-15.404513,-28.829286)">
    <path
       d="m 8425,4976 40,2 40,7 40,12 39,16 39,20 39,25 38,29 37,34 36,38 36,42 34,46 34,50 32,53 31,57 30,61 28,64 27,68 25,70 24,73 22,76 20,78 19,80 17,82 15,85 13,85 11,87 9,89 7,89 5,90 3,90 1,91 -1,90 -3,91 -5,90 -7,89 -9,88 -11,88 -13,85 -15,85 -17,82 -18,80 -20,79 -22,75 -24,73 -25,71 -27,67 -28,64 -30,61 -31,57 -32,54 -34,50 -34,46 -36,42 -36,38 -37,34 -38,29 -39,25 -39,21 -39,16 -40,12 -40,7 -40,2 40,-71 38,-76 37,-81 34,-84 33,-89 31,-92 28,-96 26,-98 24,-102 22,-104 19,-107 17,-109 14,-111 12,-112 9,-113 7,-115 4,-114 1,-116 -1,-115 -4,-115 -7,-114 -9,-114 -12,-112 -14,-110 -17,-109 -19,-107 -21,-104 -24,-102 -27,-99 -28,-96 -31,-92 -32,-88 -35,-85 -36,-80 -39,-76 -40,-72 h -1 z m 791,3580 z M 8425,4976 z"
       id="path195"
       inkscape:connector-curvature="0"
       style="fill:#a5a5a5" />
    <path
       d="m 8425,4976 40,2 40,7 40,12 39,16 39,20 39,25 38,29 37,34 36,38 36,42 34,46 34,50 32,53 31,57 30,61 28,64 27,68 25,70 24,73 22,76 20,78 19,80 17,82 15,85 13,85 11,87 9,89 7,89 5,90 3,90 1,91 -1,90 -3,91 -5,90 -7,89 -9,88 -11,88 -13,85 -15,85 -17,82 -18,80 -20,79 -22,75 -24,73 -25,71 -27,67 -28,64 -30,61 -31,57 -32,54 -34,50 -34,46 -36,42 -36,38 -37,34 -38,29 -39,25 -39,21 -39,16 -40,12 -40,7 -40,2 40,-71 38,-76 37,-81 34,-84 33,-89 31,-92 28,-96 26,-98 24,-102 22,-104 19,-107 17,-109 14,-111 12,-112 9,-113 7,-115 4,-114 1,-116 -1,-115 -4,-115 -7,-114 -9,-114 -12,-112 -14,-110 -17,-109 -19,-107 -21,-104 -24,-102 -27,-99 -28,-96 -31,-92 -32,-88 -35,-85 -36,-80 -39,-76 -40,-72 h -1 z"
       id="path197"
       inkscape:connector-curvature="0"
       style="fill:none;stroke:#7a7a7a;stroke-width:35" />
  </g>
  <g
     class="com.sun.star.drawing.CustomShape"
     id="g199"
     transform="matrix(0.03543,0,0,0.03543,-15.404513,-28.829286)">
    <path
       d="m 9397,4976 40,2 40,7 40,12 39,16 39,20 39,25 38,29 37,34 36,38 36,42 34,46 34,50 32,53 31,57 30,61 28,64 27,68 25,70 24,73 22,76 20,78 19,80 17,82 15,85 13,85 11,87 9,89 7,89 5,90 3,90 1,91 -1,90 -3,91 -5,90 -7,89 -9,88 -11,88 -13,85 -15,85 -17,82 -18,80 -20,79 -22,75 -24,73 -25,71 -27,67 -28,64 -30,61 -31,57 -32,54 -34,50 -34,46 -36,42 -36,38 -37,34 -38,29 -39,25 -39,21 -39,16 -40,12 -40,7 -40,2 40,-71 38,-76 37,-81 34,-84 33,-89 31,-92 28,-96 26,-98 24,-102 22,-104 19,-107 17,-109 14,-111 12,-112 9,-113 7,-115 4,-114 1,-116 -1,-115 -4,-115 -7,-114 -9,-114 -12,-112 -14,-110 -17,-109 -19,-107 -21,-104 -24,-102 -27,-99 -28,-96 -31,-92 -32,-88 -35,-85 -36,-80 -39,-76 -40,-72 h -1 z m 791,3580 z M 9397,4976 z"
       id="path201"
       inkscape:connector-curvature="0"
       style="fill:#a5a5a5" />
    <path
       d="m 9397,4976 40,2 40,7 40,12 39,16 39,20 39,25 38,29 37,34 36,38 36,42 34,46 34,50 32,53 31,57 30,61 28,64 27,68 25,70 24,73 22,76 20,78 19,80 17,82 15,85 13,85 11,87 9,89 7,89 5,90 3,90 1,91 -1,90 -3,91 -5,90 -7,89 -9,88 -11,88 -13,85 -15,85 -17,82 -18,80 -20,79 -22,75 -24,73 -25,71 -27,67 -28,64 -30,61 -31,57 -32,54 -34,50 -34,46 -36,42 -36,38 -37,34 -38,29 -39,25 -39,21 -39,16 -40,12 -40,7 -40,2 40,-71 38,-76 37,-81 34,-84 33,-89 31,-92 28,-96 26,-98 24,-102 22,-104 19,-107 17,-109 14,-111 12,-112 9,-113 7,-115 4,-114 1,-116 -1,-115 -4,-115 -7,-114 -9,-114 -12,-112 -14,-110 -17,-109 -19,-107 -21,-104 -24,-102 -27,-99 -28,-96 -31,-92 -32,-88 -35,-85 -36,-80 -39,-76 -40,-72 h -1 z"
       id="path203"
       inkscape:connector-curvature="0"
       style="fill:none;stroke:#7a7a7a;stroke-width:35" />
  </g>
  <g
     class="com.sun.star.drawing.CustomShape"
     id="g205"
     transform="matrix(0.03543,0,0,0.03543,-15.404513,-28.829286)">
    <path
       d="m 10368,4976 40,2 40,7 40,12 39,16 39,20 39,25 38,29 37,34 36,38 36,42 34,46 34,50 32,53 31,57 30,61 28,64 27,68 25,70 24,73 22,76 20,78 19,80 17,82 15,85 13,85 11,87 9,89 7,89 5,90 3,90 1,91 -1,90 -3,91 -5,90 -7,89 -9,88 -11,88 -13,85 -15,85 -17,82 -18,80 -20,79 -22,75 -24,73 -25,71 -27,67 -28,64 -30,61 -31,57 -32,54 -34,50 -34,46 -36,42 -36,38 -37,34 -38,29 -39,25 -39,21 -39,16 -40,12 -40,7 -40,2 40,-71 38,-76 37,-81 34,-84 33,-89 31,-92 28,-96 26,-98 24,-102 22,-104 19,-107 17,-109 14,-111 12,-112 9,-113 7,-115 4,-114 1,-116 -1,-115 -4,-115 -7,-114 -9,-114 -12,-112 -14,-110 -17,-109 -19,-107 -21,-104 -24,-102 -27,-99 -28,-96 -31,-92 -32,-88 -35,-85 -36,-80 -39,-76 -40,-72 h -1 z m 791,3580 z m -791,-3580 z"
       id="path207"
       inkscape:connector-curvature="0"
       style="fill:#a5a5a5" />
    <path
       d="m 10368,4976 40,2 40,7 40,12 39,16 39,20 39,25 38,29 37,34 36,38 36,42 34,46 34,50 32,53 31,57 30,61 28,64 27,68 25,70 24,73 22,76 20,78 19,80 17,82 15,85 13,85 11,87 9,89 7,89 5,90 3,90 1,91 -1,90 -3,91 -5,90 -7,89 -9,88 -11,88 -13,85 -15,85 -17,82 -18,80 -20,79 -22,75 -24,73 -25,71 -27,67 -28,64 -30,61 -31,57 -32,54 -34,50 -34,46 -36,42 -36,38 -37,34 -38,29 -39,25 -39,21 -39,16 -40,12 -40,7 -40,2 40,-71 38,-76 37,-81 34,-84 33,-89 31,-92 28,-96 26,-98 24,-102 22,-104 19,-107 17,-109 14,-111 12,-112 9,-113 7,-115 4,-114 1,-116 -1,-115 -4,-115 -7,-114 -9,-114 -12,-112 -14,-110 -17,-109 -19,-107 -21,-104 -24,-102 -27,-99 -28,-96 -31,-92 -32,-88 -35,-85 -36,-80 -39,-76 -40,-72 h -1 z"
       id="path209"
       inkscape:connector-curvature="0"
       style="fill:none;stroke:#7a7a7a;stroke-width:35" />
  </g>
  <g
     class="com.sun.star.drawing.CustomShape"
     id="g211"
     transform="matrix(0.03543,0,0,0.03543,-15.404513,-28.829286)">
    <path
       d="m 11340,4976 40,2 40,7 40,12 39,16 39,20 39,25 38,29 37,34 36,38 36,42 34,46 34,50 32,53 31,57 30,61 28,64 27,68 25,70 24,73 22,76 20,78 19,80 17,82 15,85 13,85 11,87 9,89 7,89 5,90 3,90 1,91 -1,90 -3,91 -5,90 -7,89 -9,88 -11,88 -13,85 -15,85 -17,82 -18,80 -20,79 -22,75 -24,73 -25,71 -27,67 -28,64 -30,61 -31,57 -32,54 -34,50 -34,46 -36,42 -36,38 -37,34 -38,29 -39,25 -39,21 -39,16 -40,12 -40,7 -40,2 40,-71 38,-76 37,-81 34,-84 33,-89 31,-92 28,-96 26,-98 24,-102 22,-104 19,-107 17,-109 14,-111 12,-112 9,-113 7,-115 4,-114 1,-116 -1,-115 -4,-115 -7,-114 -9,-114 -12,-112 -14,-110 -17,-109 -19,-107 -21,-104 -24,-102 -27,-99 -28,-96 -31,-92 -32,-88 -35,-85 -36,-80 -39,-76 -40,-72 h -1 z m 791,3580 z m -791,-3580 z"
       id="path213"
       inkscape:connector-curvature="0"
       style="fill:#a5a5a5" />
    <path
       d="m 11340,4976 40,2 40,7 40,12 39,16 39,20 39,25 38,29 37,34 36,38 36,42 34,46 34,50 32,53 31,57 30,61 28,64 27,68 25,70 24,73 22,76 20,78 19,80 17,82 15,85 13,85 11,87 9,89 7,89 5,90 3,90 1,91 -1,90 -3,91 -5,90 -7,89 -9,88 -11,88 -13,85 -15,85 -17,82 -18,80 -20,79 -22,75 -24,73 -25,71 -27,67 -28,64 -30,61 -31,57 -32,54 -34,50 -34,46 -36,42 -36,38 -37,34 -38,29 -39,25 -39,21 -39,16 -40,12 -40,7 -40,2 40,-71 38,-76 37,-81 34,-84 33,-89 31,-92 28,-96 26,-98 24,-102 22,-104 19,-107 17,-109 14,-111 12,-112 9,-113 7,-115 4,-114 1,-116 -1,-115 -4,-115 -7,-114 -9,-114 -12,-112 -14,-110 -17,-109 -19,-107 -21,-104 -24,-102 -27,-99 -28,-96 -31,-92 -32,-88 -35,-85 -36,-80 -39,-76 -40,-72 h -1 z"
       id="path215"
       inkscape:connector-curvature="0"
       style="fill:none;stroke:#7a7a7a;stroke-width:35" />
  </g>
  <g
     class="com.sun.star.drawing.CustomShape"
     id="g217"
     transform="matrix(0.03543,0,0,0.03543,-15.404513,-28.829286)">
    <path
       d="m 12311,4976 40,2 40,7 40,12 39,16 39,20 39,25 38,29 37,34 36,38 36,42 34,46 34,50 32,53 31,57 30,61 28,64 27,68 25,70 24,73 22,76 20,78 19,80 17,82 15,85 13,85 11,87 9,89 7,89 5,90 3,90 1,91 -1,90 -3,91 -5,90 -7,89 -9,88 -11,88 -13,85 -15,85 -17,82 -18,80 -20,79 -22,75 -24,73 -25,71 -27,67 -28,64 -30,61 -31,57 -32,54 -34,50 -34,46 -36,42 -36,38 -37,34 -38,29 -39,25 -39,21 -39,16 -40,12 -40,7 -40,2 40,-71 38,-76 37,-81 34,-84 33,-89 31,-92 28,-96 26,-98 24,-102 22,-104 19,-107 17,-109 14,-111 12,-112 9,-113 7,-115 4,-114 1,-116 -1,-115 -4,-115 -7,-114 -9,-114 -12,-112 -14,-110 -17,-109 -19,-107 -21,-104 -24,-102 -27,-99 -28,-96 -31,-92 -32,-88 -35,-85 -36,-80 -39,-76 -40,-72 h -1 z m 791,3580 z m -791,-3580 z"
       id="path219"
       inkscape:connector-curvature="0"
       style="fill:#a5a5a5" />
    <path
       d="m 12311,4976 40,2 40,7 40,12 39,16 39,20 39,25 38,29 37,34 36,38 36,42 34,46 34,50 32,53 31,57 30,61 28,64 27,68 25,70 24,73 22,76 20,78 19,80 17,82 15,85 13,85 11,87 9,89 7,89 5,90 3,90 1,91 -1,90 -3,91 -5,90 -7,89 -9,88 -11,88 -13,85 -15,85 -17,82 -18,80 -20,79 -22,75 -24,73 -25,71 -27,67 -28,64 -30,61 -31,57 -32,54 -34,50 -34,46 -36,42 -36,38 -37,34 -38,29 -39,25 -39,21 -39,16 -40,12 -40,7 -40,2 40,-71 38,-76 37,-81 34,-84 33,-89 31,-92 28,-96 26,-98 24,-102 22,-104 19,-107 17,-109 14,-111 12,-112 9,-113 7,-115 4,-114 1,-116 -1,-115 -4,-115 -7,-114 -9,-114 -12,-112 -14,-110 -17,-109 -19,-107 -21,-104 -24,-102 -27,-99 -28,-96 -31,-92 -32,-88 -35,-85 -36,-80 -39,-76 -40,-72 h -1 z"
       id="path221"
       inkscape:connector-curvature="0"
       style="fill:none;stroke:#7a7a7a;stroke-width:35" />
  </g>
  <g
     class="com.sun.star.drawing.CustomShape"
     id="g253"
     transform="matrix(0.03057223,0,0,0.03543,69.147474,-28.829286)">
    <path
       d="m 19173,1733 h 6226 v 2532 h -6226 v -422 l -1750,-640 1750,7 V 1733 z m 0,0 z m 6226,2532 z"
       id="path255"
       inkscape:connector-curvature="0"
       style="fill:#ffc000" />
    <path
       d="m 19173,1733 h 6226 v 2532 h -6226 v -422 l -1750,-640 1750,7 V 1733 z"
       id="path257"
       inkscape:connector-curvature="0"
       style="fill:none;stroke:#bc8e00;stroke-width:35" />
  </g>
  <text
     xml:space="preserve"
     style="font-size:40px;font-style:normal;font-weight:normal;line-height:125%;letter-spacing:0px;word-spacing:0px;fill:#000000;fill-opacity:1;stroke:none;font-family:Sans"
     x="686.25903"
     y="53.927704"
     id="text3580"
     sodipodi:linespacing="125%"><tspan
       sodipodi:role="line"
       x="686.25903"
       y="53.927704"
       id="tspan3596"
       style="font-size:16px;font-style:normal;font-variant:normal;font-weight:normal;font-stretch:normal;text-align:start;line-height:125%;writing-mode:lr-tb;text-anchor:start;font-family:Sans;-inkscape-font-specification:Sans">Video element is</tspan><tspan
       sodipodi:role="line"
       x="686.25903"
       y="73.927704"
       style="font-size:16px;font-style:normal;font-variant:normal;font-weight:normal;font-stretch:normal;text-align:start;line-height:125%;writing-mode:lr-tb;text-anchor:start;font-family:Sans;-inkscape-font-specification:Sans"
       id="tspan3148">manipulated to</tspan><tspan
       sodipodi:role="line"
       x="686.25903"
       y="93.927704"
       style="font-size:16px;font-style:normal;font-variant:normal;font-weight:normal;font-stretch:normal;text-align:start;line-height:125%;writing-mode:lr-tb;text-anchor:start;font-family:Sans;-inkscape-font-specification:Sans"
       id="tspan3150">render at only</tspan><tspan
       sodipodi:role="line"
       x="686.25903"
       y="113.9277"
       style="font-size:16px;font-style:normal;font-variant:normal;font-weight:normal;font-stretch:normal;text-align:start;line-height:125%;writing-mode:lr-tb;text-anchor:start;font-family:Sans;-inkscape-font-specification:Sans"
       id="tspan3152">1024x768</tspan></text>
  <text
     xml:space="preserve"
     style="font-size:40px;font-style:normal;font-weight:normal;line-height:100%;letter-spacing:0px;word-spacing:0px;fill:#000000;fill-opacity:1;stroke:none;font-family:Sans"
     x="456.02591"
     y="55.183193"
     id="text3610"
     sodipodi:linespacing="100%"><tspan
       sodipodi:role="line"
       id="tspan3612"
       x="456.02591"
       y="55.183193"
       style="font-size:16px;font-style:normal;font-variant:normal;font-weight:normal;font-stretch:normal;text-align:start;line-height:100%;writing-mode:lr-tb;text-anchor:start;font-family:Sans;-inkscape-font-specification:Sans">&lt;video</tspan><tspan
       sodipodi:role="line"
       x="456.02591"
       y="71.183189"
       id="tspan3614"
       style="font-size:16px;font-style:normal;font-variant:normal;font-weight:normal;font-stretch:normal;text-align:start;line-height:100%;writing-mode:lr-tb;text-anchor:start;font-family:Sans;-inkscape-font-specification:Sans">width=1920</tspan><tspan
       sodipodi:role="line"
       x="456.02591"
       y="87.183189"
       id="tspan3616"
       style="font-size:16px;font-style:normal;font-variant:normal;font-weight:normal;font-stretch:normal;text-align:start;line-height:100%;writing-mode:lr-tb;text-anchor:start;font-family:Sans;-inkscape-font-specification:Sans">height=1200&gt;</tspan></text>
  <text
     sodipodi:linespacing="100%"
     id="text3641"
     y="202.16187"
     x="478.18982"
     style="font-size:40px;font-style:normal;font-weight:normal;line-height:100%;letter-spacing:0px;word-spacing:0px;fill:#000000;fill-opacity:1;stroke:none;font-family:Sans"
     xml:space="preserve"><tspan
       style="font-size:16px;font-style:normal;font-variant:normal;font-weight:normal;font-stretch:normal;text-align:start;line-height:100%;writing-mode:lr-tb;text-anchor:start;font-family:Sans;-inkscape-font-specification:Sans"
       y="202.16187"
       x="478.18982"
       id="tspan3643"
       sodipodi:role="line">&lt;video</tspan><tspan
       style="font-size:16px;font-style:normal;font-variant:normal;font-weight:normal;font-stretch:normal;text-align:start;line-height:100%;writing-mode:lr-tb;text-anchor:start;font-family:Sans;-inkscape-font-specification:Sans"
       id="tspan3647"
       y="218.16187"
       x="478.18982"
       sodipodi:role="line">width=320</tspan><tspan
       style="font-size:16px;font-style:normal;font-variant:normal;font-weight:normal;font-stretch:normal;text-align:start;line-height:100%;writing-mode:lr-tb;text-anchor:start;font-family:Sans;-inkscape-font-specification:Sans"
       y="234.16187"
       x="478.18982"
       sodipodi:role="line"
       id="tspan3651">height=200&gt;</tspan></text>
  <text
     sodipodi:linespacing="125%"
     id="text3225"
     y="280.2843"
     x="452.91306"
     style="font-size:40px;font-style:normal;font-weight:normal;line-height:125%;letter-spacing:0px;word-spacing:0px;fill:#000000;fill-opacity:1;stroke:none;font-family:Sans"
     xml:space="preserve"><tspan
       style="font-size:22px;font-style:normal;font-variant:normal;font-weight:normal;font-stretch:normal;text-align:start;line-height:125%;writing-mode:lr-tb;text-anchor:start;font-family:Sans;-inkscape-font-specification:Sans"
       y="280.2843"
       x="452.91306"
       id="tspan3227"
       sodipodi:role="line">Home client video sinks</tspan></text>
  <text
     xml:space="preserve"
     style="font-size:40px;font-style:normal;font-weight:normal;line-height:125%;letter-spacing:0px;word-spacing:0px;fill:#000000;fill-opacity:1;stroke:none;font-family:Sans"
     x="603.22614"
     y="208.11655"
     id="text3205"
     sodipodi:linespacing="125%"><tspan
       sodipodi:role="line"
       id="tspan3207"
       x="603.22614"
       y="208.11655"
       style="font-size:24px;font-style:normal;font-variant:normal;font-weight:normal;font-stretch:normal;text-align:start;line-height:125%;writing-mode:lr-tb;text-anchor:start;font-family:Sans;-inkscape-font-specification:Sans">B</tspan></text>
  <text
     xml:space="preserve"
     style="font-size:40px;font-style:normal;font-weight:normal;line-height:125%;letter-spacing:0px;word-spacing:0px;fill:#000000;fill-opacity:1;stroke:none;font-family:Sans"
     x="603.22607"
     y="52.95512"
     id="text3213"
     sodipodi:linespacing="125%"><tspan
       sodipodi:role="line"
       id="tspan3215"
       x="603.22607"
       y="52.95512"
       style="font-size:24px;font-style:normal;font-variant:normal;font-weight:normal;font-stretch:normal;text-align:start;line-height:125%;writing-mode:lr-tb;text-anchor:start;font-family:Sans;-inkscape-font-specification:Sans">A</tspan></text>
  <text
     sodipodi:linespacing="125%"
     id="text3225-2"
     y="70.945061"
     x="-0.65527701"
     style="font-size:40px;font-style:normal;font-weight:normal;line-height:125%;letter-spacing:0px;word-spacing:0px;fill:#000000;fill-opacity:1;stroke:none;font-family:Sans"
     xml:space="preserve"><tspan
       style="font-size:22px;font-style:normal;font-variant:normal;font-weight:normal;font-stretch:normal;text-align:start;line-height:125%;writing-mode:lr-tb;text-anchor:start;font-family:Sans;-inkscape-font-specification:Sans"
       y="70.945061"
       x="-0.65527701"
       id="tspan3227-0"
       sodipodi:role="line">Home client</tspan><tspan
       style="font-size:22px;font-style:normal;font-variant:normal;font-weight:normal;font-stretch:normal;text-align:start;line-height:125%;writing-mode:lr-tb;text-anchor:start;font-family:Sans;-inkscape-font-specification:Sans"
       y="98.445061"
       x="-0.65527701"
       sodipodi:role="line"
       id="tspan3223">video source</tspan></text>
  <text
     sodipodi:linespacing="100%"
     id="text3626"
     y="240.76465"
     x="23.809843"
     style="font-size:40px;font-style:normal;font-weight:normal;line-height:100%;letter-spacing:0px;word-spacing:0px;fill:#000000;fill-opacity:1;stroke:none;font-family:Sans"
     xml:space="preserve"><tspan
       style="font-size:14px;font-style:normal;font-variant:normal;font-weight:normal;font-stretch:normal;text-align:start;line-height:100%;writing-mode:lr-tb;text-anchor:start;font-family:Sans;-inkscape-font-specification:Sans"
       y="240.76465"
       x="23.809843"
       sodipodi:role="line"
       id="tspan3639">width: 1920</tspan><tspan
       style="font-size:14px;font-style:normal;font-variant:normal;font-weight:normal;font-stretch:normal;text-align:start;line-height:100%;writing-mode:lr-tb;text-anchor:start;font-family:Sans;-inkscape-font-specification:Sans"
       y="254.76466"
       x="23.809843"
       sodipodi:role="line"
       id="tspan3240">height: 1200</tspan></text>
  <text
     xml:space="preserve"
     style="font-size:40px;font-style:normal;font-weight:normal;line-height:100%;letter-spacing:0px;word-spacing:0px;fill:#000000;fill-opacity:1;stroke:none;font-family:Sans"
     x="21.125999"
     y="140.12077"
     id="text3244"
     sodipodi:linespacing="100%"><tspan
       sodipodi:role="line"
       x="21.125999"
       y="140.12077"
       style="font-size:14px;font-style:normal;font-variant:normal;font-weight:normal;font-stretch:normal;text-align:start;line-height:100%;writing-mode:lr-tb;text-anchor:start;font-family:Sans;-inkscape-font-specification:Sans"
       id="tspan3252">(no</tspan><tspan
       sodipodi:role="line"
       x="21.125999"
       y="154.12077"
       style="font-size:14px;font-style:normal;font-variant:normal;font-weight:normal;font-stretch:normal;text-align:start;line-height:100%;writing-mode:lr-tb;text-anchor:start;font-family:Sans;-inkscape-font-specification:Sans"
       id="tspan3258">constraints set)</tspan><tspan
       sodipodi:role="line"
       x="21.125999"
       y="168.12077"
       style="font-size:14px;font-style:normal;font-variant:normal;font-weight:normal;font-stretch:normal;text-align:start;line-height:100%;writing-mode:lr-tb;text-anchor:start;font-family:Sans;-inkscape-font-specification:Sans"
       id="tspan3254" /></text>
  <text
     xml:space="preserve"
     style="font-size:40px;font-style:normal;font-weight:normal;line-height:125%;letter-spacing:0px;word-spacing:0px;fill:#000000;fill-opacity:1;stroke:none;font-family:Sans"
     x="98.560234"
     y="24.3125"
     id="text3197"
     sodipodi:linespacing="125%"><tspan
       sodipodi:role="line"
       id="tspan3199"
       x="98.560234"
       y="24.3125"
       style="font-size:32px;font-style:normal;font-variant:normal;font-weight:normal;font-stretch:normal;text-align:start;line-height:125%;writing-mode:lr-tb;text-anchor:start;font-family:Sans;-inkscape-font-specification:Sans">Home Client</tspan></text>
</svg>
