<?xml version="1.0" encoding="UTF-8" standalone="no"?>
<svg
   xmlns:dc="http://purl.org/dc/elements/1.1/"
   xmlns:cc="http://creativecommons.org/ns#"
   xmlns:rdf="http://www.w3.org/1999/02/22-rdf-syntax-ns#"
   xmlns:svg="http://www.w3.org/2000/svg"
   xmlns="http://www.w3.org/2000/svg"
   xmlns:sodipodi="http://sodipodi.sourceforge.net/DTD/sodipodi-0.dtd"
   xmlns:inkscape="http://www.inkscape.org/namespaces/inkscape"
   width="689.92633"
   height="277.76028"
   id="svg2"
   version="1.1"
   inkscape:version="0.48.4 r9939"
   sodipodi:docname="change_states_after2.svg">
  <metadata
     id="metadata271">
    <rdf:RDF>
      <cc:Work
         rdf:about="">
        <dc:format>image/svg+xml</dc:format>
        <dc:type
           rdf:resource="http://purl.org/dc/dcmitype/StillImage" />
      </cc:Work>
    </rdf:RDF>
  </metadata>
  <sodipodi:namedview
     pagecolor="#ffffff"
     bordercolor="#666666"
     borderopacity="1"
     objecttolerance="10"
     gridtolerance="10"
     guidetolerance="10"
     inkscape:pageopacity="0"
     inkscape:pageshadow="2"
     inkscape:window-width="1325"
     inkscape:window-height="655"
     id="namedview269"
     showgrid="false"
     inkscape:zoom="1.3472384"
     inkscape:cx="362.59879"
     inkscape:cy="169.83915"
     inkscape:window-x="423"
     inkscape:window-y="264"
     inkscape:window-maximized="0"
     inkscape:current-layer="svg2"
     fit-margin-top="0"
     fit-margin-left="0"
     fit-margin-right="0"
     fit-margin-bottom="0" />
  <defs
     id="defs4">
    <clipPath
       id="a">
      <path
         d="M 0,0 H 33867 V 19050 H 0 z"
         id="path7"
         inkscape:connector-curvature="0" />
    </clipPath>
  </defs>
  <path
     style="fill:#ffffff"
     inkscape:connector-curvature="0"
     id="path15"
     d="M 0.62002498,113.55586 H 119.02708 v 151.9947 H 0.62002498 V 113.55586 z M 15.394335,166.84258 v 17.57328 h 5.98767 l 1.84236,-2.01951 h 1.73607 v 26.85594 h 60.37272 v -9.28266 h 9.5661 l 5.172775,5.10192 h 4.14531 v -32.66646 h -4.14531 l -3.578425,3.543 h -11.16045 v -3.543 l -3.50757,-3.72015 h -58.60122 l -1.84236,-1.84236 h -5.98767 z M 0.62002498,113.55586 z M 119.02708,265.55056 z" />
  <path
     style="fill:#aaaaaa"
     inkscape:connector-curvature="0"
     id="path17"
     d="m 15.394335,166.84258 v 17.57328 h 5.98767 l 1.84236,-2.01951 h 1.73607 v 26.85594 h 60.37272 v -9.28266 h 9.5661 l 5.172775,5.10192 h 4.14531 v -32.66646 h -4.14531 l -3.578425,3.543 h -11.16045 v -3.543 l -3.50757,-3.72015 h -58.60122 l -1.84236,-1.84236 h -5.98767 z M 0.62002498,113.55586 z M 119.02708,265.55056 z" />
  <path
     style="fill:none;stroke:#ed7d31;stroke-width:1.24004996"
     inkscape:connector-curvature="0"
     id="path19"
     d="m 15.394335,166.84258 h 5.98767 l 1.84236,1.84236 h 58.60122 l 3.50757,3.72015 v 3.543 h 11.16045 l 3.578425,-3.543 h 4.14531 v 32.66646 h -4.14531 l -5.172775,-5.10192 h -9.5661 v 9.28266 h -60.37272 v -26.85594 h -1.73607 l -1.84236,2.01951 h -5.98767 v -17.57328 z" />
  <path
     style="fill:none;stroke:#ed7d31;stroke-width:1.24004996"
     inkscape:connector-curvature="0"
     id="path21"
     d="M 0.62002498,113.55586 H 119.02708 v 151.9947 H 0.62002498 v -151.9947 z" />
  <g
     class="com.sun.star.drawing.CustomShape"
     id="g53"
     transform="matrix(0.03543,0,0,0.03543,-32.577885,-35.781587)">
    <path
       d="m 13192,1260 h 3915 V 3911 H 13192 V 1260 z m 0,0 z m 3915,2651 z"
       id="path55"
       inkscape:connector-curvature="0"
       style="fill:#a7c9e8" />
    <path
       d="m 13192,1260 h 3915 V 3911 H 13192 V 1260 z"
       id="path57"
       inkscape:connector-curvature="0"
       style="fill:none;stroke:#43729d;stroke-width:35" />
  </g>
  <g
     class="com.sun.star.drawing.CustomShape"
     id="g87"
     transform="matrix(0.04500754,0,0,0.03543,-163.33522,-35.781587)">
    <path
       d="m 13670,5570 h 2600 V 7961 H 13670 V 5570 z m 0,0 z m 2600,2391 z"
       id="path89"
       inkscape:connector-curvature="0"
       style="fill:#a7c9e8" />
    <path
       d="m 13670,5570 h 2600 V 7961 H 13670 V 5570 z"
       id="path91"
       inkscape:connector-curvature="0"
       style="fill:none;stroke:#43729d;stroke-width:35" />
  </g>
  <g
     class="com.sun.star.drawing.CustomShape"
     id="g121"
     transform="matrix(0.03543,0,0,0.03543,-32.577885,-35.781587)">
    <path
       d="m 4352,4493 44,-13 45,-9 45,-7 47,-5 47,-1 47,1 46,5 48,7 47,9 47,12 46,15 46,18 46,21 44,24 44,25 44,28 42,31 41,32 40,36 38,37 38,39 35,41 34,44 32,44 31,47 29,48 26,49 25,51 23,51 21,53 18,53 16,55 14,54 12,56 10,55 6,57 5,55 3,56 -1,54 -3,56 -5,54 -7,54 -9,52 -13,53 -14,50 -15,49 -20,49 -20,46 -24,45 -25,43 -26,41 -30,40 -30,37 -33,36 -34,33 -35,30 -38,29 -38,26 -41,24 -41,20 -42,19 -44,15 30,-57 28,-58 23,-61 23,-62 19,-64 16,-66 12,-67 10,-67 7,-70 4,-69 v -71 l -2,-69 -6,-72 -8,-71 -12,-69 -15,-71 -18,-69 -20,-69 -23,-69 -26,-67 -29,-65 -32,-64 -34,-63 -37,-61 -39,-58 -41,-58 -43,-54 -46,-51 -48,-50 -49,-47 -51,-44 -52,-42 -54,-37 -55,-36 -56,-32 -58,-28 -2,-1 z M 5900,6345 z M 4352,4493 z"
       id="path123"
       inkscape:connector-curvature="0"
       style="fill:#4472c4" />
    <path
       d="m 4352,4493 44,-13 45,-9 45,-7 47,-5 47,-1 47,1 46,5 48,7 47,9 47,12 46,15 46,18 46,21 44,24 44,25 44,28 42,31 41,32 40,36 38,37 38,39 35,41 34,44 32,44 31,47 29,48 26,49 25,51 23,51 21,53 18,53 16,55 14,54 12,56 10,55 6,57 5,55 3,56 -1,54 -3,56 -5,54 -7,54 -9,52 -13,53 -14,50 -15,49 -20,49 -20,46 -24,45 -25,43 -26,41 -30,40 -30,37 -33,36 -34,33 -35,30 -38,29 -38,26 -41,24 -41,20 -42,19 -44,15 30,-57 28,-58 23,-61 23,-62 19,-64 16,-66 12,-67 10,-67 7,-70 4,-69 v -71 l -2,-69 -6,-72 -8,-71 -12,-69 -15,-71 -18,-69 -20,-69 -23,-69 -26,-67 -29,-65 -32,-64 -34,-63 -37,-61 -39,-58 -41,-58 -43,-54 -46,-51 -48,-50 -49,-47 -51,-44 -52,-42 -54,-37 -55,-36 -56,-32 -58,-28 -2,-1 z"
       id="path125"
       inkscape:connector-curvature="0"
       style="fill:none;stroke:#325490;stroke-width:35" />
  </g>
  <g
     class="com.sun.star.drawing.CustomShape"
     id="g127"
     transform="matrix(0.03543,0,0,0.03543,-32.577885,-35.781587)">
    <path
       d="m 5228,4167 44,-13 45,-9 45,-7 47,-5 47,-1 47,1 46,5 48,7 47,9 47,12 46,15 46,18 46,21 44,24 44,25 44,28 42,31 41,32 40,36 38,37 38,39 35,41 34,44 32,44 31,47 29,48 26,49 25,51 23,51 21,53 18,53 16,55 14,54 12,56 10,55 6,57 5,55 3,56 -1,54 -3,56 -5,54 -7,54 -9,52 -13,53 -14,50 -15,49 -20,49 -20,46 -24,45 -25,43 -26,41 -30,40 -30,37 -33,36 -34,33 -35,30 -38,29 -38,26 -41,24 -41,20 -42,19 -44,15 30,-57 28,-58 23,-61 23,-62 19,-64 16,-66 12,-67 10,-67 7,-70 4,-69 v -71 l -2,-69 -6,-72 -8,-71 -12,-69 -15,-71 -18,-69 -20,-69 -23,-69 -26,-67 -29,-65 -32,-64 -34,-63 -37,-61 -39,-58 -41,-58 -43,-54 -46,-51 -48,-50 -49,-47 -51,-44 -52,-42 -54,-37 -55,-36 -56,-32 -58,-28 -2,-1 z M 6776,6019 z M 5228,4167 z"
       id="path129"
       inkscape:connector-curvature="0"
       style="fill:#4472c4" />
    <path
       d="m 5228,4167 44,-13 45,-9 45,-7 47,-5 47,-1 47,1 46,5 48,7 47,9 47,12 46,15 46,18 46,21 44,24 44,25 44,28 42,31 41,32 40,36 38,37 38,39 35,41 34,44 32,44 31,47 29,48 26,49 25,51 23,51 21,53 18,53 16,55 14,54 12,56 10,55 6,57 5,55 3,56 -1,54 -3,56 -5,54 -7,54 -9,52 -13,53 -14,50 -15,49 -20,49 -20,46 -24,45 -25,43 -26,41 -30,40 -30,37 -33,36 -34,33 -35,30 -38,29 -38,26 -41,24 -41,20 -42,19 -44,15 30,-57 28,-58 23,-61 23,-62 19,-64 16,-66 12,-67 10,-67 7,-70 4,-69 v -71 l -2,-69 -6,-72 -8,-71 -12,-69 -15,-71 -18,-69 -20,-69 -23,-69 -26,-67 -29,-65 -32,-64 -34,-63 -37,-61 -39,-58 -41,-58 -43,-54 -46,-51 -48,-50 -49,-47 -51,-44 -52,-42 -54,-37 -55,-36 -56,-32 -58,-28 -2,-1 z"
       id="path131"
       inkscape:connector-curvature="0"
       style="fill:none;stroke:#325490;stroke-width:35" />
  </g>
  <g
     class="com.sun.star.drawing.CustomShape"
     id="g133"
     transform="matrix(0.03543,0,0,0.03543,-32.577885,-35.781587)">
    <path
       d="m 6103,3840 44,-13 45,-9 45,-7 47,-5 47,-1 47,1 46,5 48,7 47,9 47,12 46,15 46,18 46,21 44,24 44,25 44,28 42,31 41,32 40,36 38,37 38,39 35,41 34,44 32,44 31,47 29,48 26,49 25,51 23,51 21,53 18,53 16,55 14,54 12,56 10,55 6,57 5,55 3,56 -1,54 -3,56 -5,54 -7,54 -9,52 -13,53 -14,50 -15,49 -20,49 -20,46 -24,45 -25,43 -26,41 -30,40 -30,37 -33,36 -34,33 -35,30 -38,29 -38,26 -41,24 -41,20 -42,19 -44,15 30,-57 28,-58 23,-61 23,-62 19,-64 16,-66 12,-67 10,-67 7,-70 4,-69 v -71 l -2,-69 -6,-72 -8,-71 -12,-69 -15,-71 -18,-69 -20,-69 -23,-69 -26,-67 -29,-65 -32,-64 -34,-63 -37,-61 -39,-58 -41,-58 -43,-54 -46,-51 -48,-50 -49,-47 -51,-44 -52,-42 -54,-37 -55,-36 -56,-32 -58,-28 -2,-1 z M 7651,5692 z M 6103,3840 z"
       id="path135"
       inkscape:connector-curvature="0"
       style="fill:#4472c4" />
    <path
       d="m 6103,3840 44,-13 45,-9 45,-7 47,-5 47,-1 47,1 46,5 48,7 47,9 47,12 46,15 46,18 46,21 44,24 44,25 44,28 42,31 41,32 40,36 38,37 38,39 35,41 34,44 32,44 31,47 29,48 26,49 25,51 23,51 21,53 18,53 16,55 14,54 12,56 10,55 6,57 5,55 3,56 -1,54 -3,56 -5,54 -7,54 -9,52 -13,53 -14,50 -15,49 -20,49 -20,46 -24,45 -25,43 -26,41 -30,40 -30,37 -33,36 -34,33 -35,30 -38,29 -38,26 -41,24 -41,20 -42,19 -44,15 30,-57 28,-58 23,-61 23,-62 19,-64 16,-66 12,-67 10,-67 7,-70 4,-69 v -71 l -2,-69 -6,-72 -8,-71 -12,-69 -15,-71 -18,-69 -20,-69 -23,-69 -26,-67 -29,-65 -32,-64 -34,-63 -37,-61 -39,-58 -41,-58 -43,-54 -46,-51 -48,-50 -49,-47 -51,-44 -52,-42 -54,-37 -55,-36 -56,-32 -58,-28 -2,-1 z"
       id="path137"
       inkscape:connector-curvature="0"
       style="fill:none;stroke:#325490;stroke-width:35" />
  </g>
  <g
     class="com.sun.star.drawing.CustomShape"
     id="g139"
     transform="matrix(0.03543,0,0,0.03543,-32.577885,-35.781587)">
    <path
       d="m 6978,3514 44,-13 45,-9 45,-7 47,-5 47,-1 47,1 46,5 48,7 47,9 47,12 46,15 46,18 46,21 44,24 44,25 44,28 42,31 41,32 40,36 38,37 38,39 35,41 34,44 32,44 31,47 29,48 26,49 25,51 23,51 21,53 18,53 16,55 14,54 12,56 10,55 6,57 5,55 3,56 -1,54 -3,56 -5,54 -7,54 -9,52 -13,53 -14,50 -15,49 -20,49 -20,46 -24,45 -25,43 -26,41 -30,40 -30,37 -33,36 -34,33 -35,30 -38,29 -38,26 -41,24 -41,20 -42,19 -44,15 30,-57 28,-58 23,-61 23,-62 19,-64 16,-66 12,-67 10,-67 7,-70 4,-69 v -71 l -2,-69 -6,-72 -8,-71 -12,-69 -15,-71 -18,-69 -20,-69 -23,-69 -26,-67 -29,-65 -32,-64 -34,-63 -37,-61 -39,-58 -41,-58 -43,-54 -46,-51 -48,-50 -49,-47 -51,-44 -52,-42 -54,-37 -55,-36 -56,-32 -58,-28 -2,-1 z M 8526,5366 z M 6978,3514 z"
       id="path141"
       inkscape:connector-curvature="0"
       style="fill:#4472c4" />
    <path
       d="m 6978,3514 44,-13 45,-9 45,-7 47,-5 47,-1 47,1 46,5 48,7 47,9 47,12 46,15 46,18 46,21 44,24 44,25 44,28 42,31 41,32 40,36 38,37 38,39 35,41 34,44 32,44 31,47 29,48 26,49 25,51 23,51 21,53 18,53 16,55 14,54 12,56 10,55 6,57 5,55 3,56 -1,54 -3,56 -5,54 -7,54 -9,52 -13,53 -14,50 -15,49 -20,49 -20,46 -24,45 -25,43 -26,41 -30,40 -30,37 -33,36 -34,33 -35,30 -38,29 -38,26 -41,24 -41,20 -42,19 -44,15 30,-57 28,-58 23,-61 23,-62 19,-64 16,-66 12,-67 10,-67 7,-70 4,-69 v -71 l -2,-69 -6,-72 -8,-71 -12,-69 -15,-71 -18,-69 -20,-69 -23,-69 -26,-67 -29,-65 -32,-64 -34,-63 -37,-61 -39,-58 -41,-58 -43,-54 -46,-51 -48,-50 -49,-47 -51,-44 -52,-42 -54,-37 -55,-36 -56,-32 -58,-28 -2,-1 z"
       id="path143"
       inkscape:connector-curvature="0"
       style="fill:none;stroke:#325490;stroke-width:35" />
  </g>
  <g
     class="com.sun.star.drawing.CustomShape"
     id="g145"
     transform="matrix(0.03543,0,0,0.03543,-32.577885,-35.781587)">
    <path
       d="m 7853,3187 44,-13 45,-9 45,-7 47,-5 47,-1 47,1 46,5 48,7 47,9 47,12 46,15 46,18 46,21 44,24 44,25 44,28 42,31 41,32 40,36 38,37 38,39 35,41 34,44 32,44 31,47 29,48 26,49 25,51 23,51 21,53 18,53 16,55 14,54 12,56 10,55 6,57 5,55 3,56 -1,54 -3,56 -5,54 -7,54 -9,52 -13,53 -14,50 -15,49 -20,49 -20,46 -24,45 -25,43 -26,41 -30,40 -30,37 -33,36 -34,33 -35,30 -38,29 -38,26 -41,24 -41,20 -42,19 -44,15 30,-57 28,-58 23,-61 23,-62 19,-64 16,-66 12,-67 10,-67 7,-70 4,-69 v -71 l -2,-69 -6,-72 -8,-71 -12,-69 -15,-71 -18,-69 -20,-69 -23,-69 -26,-67 -29,-65 -32,-64 -34,-63 -37,-61 -39,-58 -41,-58 -43,-54 -46,-51 -48,-50 -49,-47 -51,-44 -52,-42 -54,-37 -55,-36 -56,-32 -58,-28 -2,-1 z M 9401,5039 z M 7853,3187 z"
       id="path147"
       inkscape:connector-curvature="0"
       style="fill:#4472c4" />
    <path
       d="m 7853,3187 44,-13 45,-9 45,-7 47,-5 47,-1 47,1 46,5 48,7 47,9 47,12 46,15 46,18 46,21 44,24 44,25 44,28 42,31 41,32 40,36 38,37 38,39 35,41 34,44 32,44 31,47 29,48 26,49 25,51 23,51 21,53 18,53 16,55 14,54 12,56 10,55 6,57 5,55 3,56 -1,54 -3,56 -5,54 -7,54 -9,52 -13,53 -14,50 -15,49 -20,49 -20,46 -24,45 -25,43 -26,41 -30,40 -30,37 -33,36 -34,33 -35,30 -38,29 -38,26 -41,24 -41,20 -42,19 -44,15 30,-57 28,-58 23,-61 23,-62 19,-64 16,-66 12,-67 10,-67 7,-70 4,-69 v -71 l -2,-69 -6,-72 -8,-71 -12,-69 -15,-71 -18,-69 -20,-69 -23,-69 -26,-67 -29,-65 -32,-64 -34,-63 -37,-61 -39,-58 -41,-58 -43,-54 -46,-51 -48,-50 -49,-47 -51,-44 -52,-42 -54,-37 -55,-36 -56,-32 -58,-28 -2,-1 z"
       id="path149"
       inkscape:connector-curvature="0"
       style="fill:none;stroke:#325490;stroke-width:35" />
  </g>
  <g
     class="com.sun.star.drawing.CustomShape"
     id="g151"
     transform="matrix(0.03543,0,0,0.03543,-32.577885,-35.781587)">
    <path
       d="m 8728,2665 44,-13 45,-9 45,-7 47,-5 47,-1 47,1 46,5 48,7 47,9 47,12 46,15 46,18 46,21 44,24 44,25 44,28 42,31 41,32 40,36 38,37 38,39 35,41 34,44 32,44 31,47 29,48 26,49 25,51 23,51 21,53 18,53 16,55 14,54 12,56 10,55 6,57 5,55 3,56 -1,54 -3,56 -5,54 -7,54 -9,52 -13,53 -14,50 -15,49 -20,49 -20,46 -24,45 -25,43 -26,41 -30,40 -30,37 -33,36 -34,33 -35,30 -38,29 -38,26 -41,24 -41,20 -42,19 -44,15 30,-57 28,-58 23,-61 23,-62 19,-64 16,-66 12,-67 10,-67 7,-70 4,-69 v -71 l -2,-69 -6,-72 -8,-71 -12,-69 -15,-71 -18,-69 -20,-69 -23,-69 -26,-67 -29,-65 -32,-64 -34,-63 -37,-61 -39,-58 -41,-58 -43,-54 -46,-51 -48,-50 -49,-47 -51,-44 -52,-42 -54,-37 -55,-36 -56,-32 -58,-28 -2,-1 z m 1548,1852 z M 8728,2665 z"
       id="path153"
       inkscape:connector-curvature="0"
       style="fill:#4472c4" />
    <path
       d="m 8728,2665 44,-13 45,-9 45,-7 47,-5 47,-1 47,1 46,5 48,7 47,9 47,12 46,15 46,18 46,21 44,24 44,25 44,28 42,31 41,32 40,36 38,37 38,39 35,41 34,44 32,44 31,47 29,48 26,49 25,51 23,51 21,53 18,53 16,55 14,54 12,56 10,55 6,57 5,55 3,56 -1,54 -3,56 -5,54 -7,54 -9,52 -13,53 -14,50 -15,49 -20,49 -20,46 -24,45 -25,43 -26,41 -30,40 -30,37 -33,36 -34,33 -35,30 -38,29 -38,26 -41,24 -41,20 -42,19 -44,15 30,-57 28,-58 23,-61 23,-62 19,-64 16,-66 12,-67 10,-67 7,-70 4,-69 v -71 l -2,-69 -6,-72 -8,-71 -12,-69 -15,-71 -18,-69 -20,-69 -23,-69 -26,-67 -29,-65 -32,-64 -34,-63 -37,-61 -39,-58 -41,-58 -43,-54 -46,-51 -48,-50 -49,-47 -51,-44 -52,-42 -54,-37 -55,-36 -56,-32 -58,-28 -2,-1 z"
       id="path155"
       inkscape:connector-curvature="0"
       style="fill:none;stroke:#325490;stroke-width:35" />
  </g>
  <g
     class="com.sun.star.drawing.CustomShape"
     id="g157"
     transform="matrix(0.03543,0,0,0.03543,-32.577885,-35.781587)">
    <path
       d="m 9604,2534 44,-13 45,-9 45,-7 47,-5 47,-1 47,1 46,5 48,7 47,9 47,12 46,15 46,18 46,21 44,24 44,25 44,28 42,31 41,32 40,36 38,37 38,39 35,41 34,44 32,44 31,47 29,48 26,49 25,51 23,51 21,53 18,53 16,55 14,54 12,56 10,55 6,57 5,55 3,56 -1,54 -3,56 -5,54 -7,54 -9,52 -13,53 -14,50 -15,49 -20,49 -20,46 -24,45 -25,43 -26,41 -30,40 -30,37 -33,36 -34,33 -35,30 -38,29 -38,26 -41,24 -41,20 -42,19 -44,15 30,-57 28,-58 23,-61 23,-62 19,-64 16,-66 12,-67 10,-67 7,-70 4,-69 v -71 l -2,-69 -6,-72 -8,-71 -12,-69 -15,-71 -18,-69 -20,-69 -23,-69 -26,-67 -29,-65 -32,-64 -34,-63 -37,-61 -39,-58 -41,-58 -43,-54 -46,-51 -48,-50 -49,-47 -51,-44 -52,-42 -54,-37 -55,-36 -56,-32 -58,-28 -2,-1 z m 1548,1852 z M 9604,2534 z"
       id="path159"
       inkscape:connector-curvature="0"
       style="fill:#4472c4" />
    <path
       d="m 9604,2534 44,-13 45,-9 45,-7 47,-5 47,-1 47,1 46,5 48,7 47,9 47,12 46,15 46,18 46,21 44,24 44,25 44,28 42,31 41,32 40,36 38,37 38,39 35,41 34,44 32,44 31,47 29,48 26,49 25,51 23,51 21,53 18,53 16,55 14,54 12,56 10,55 6,57 5,55 3,56 -1,54 -3,56 -5,54 -7,54 -9,52 -13,53 -14,50 -15,49 -20,49 -20,46 -24,45 -25,43 -26,41 -30,40 -30,37 -33,36 -34,33 -35,30 -38,29 -38,26 -41,24 -41,20 -42,19 -44,15 30,-57 28,-58 23,-61 23,-62 19,-64 16,-66 12,-67 10,-67 7,-70 4,-69 v -71 l -2,-69 -6,-72 -8,-71 -12,-69 -15,-71 -18,-69 -20,-69 -23,-69 -26,-67 -29,-65 -32,-64 -34,-63 -37,-61 -39,-58 -41,-58 -43,-54 -46,-51 -48,-50 -49,-47 -51,-44 -52,-42 -54,-37 -55,-36 -56,-32 -58,-28 -2,-1 z"
       id="path161"
       inkscape:connector-curvature="0"
       style="fill:none;stroke:#325490;stroke-width:35" />
  </g>
  <g
     class="com.sun.star.drawing.CustomShape"
     id="g163"
     transform="matrix(0.03543,0,0,0.03543,-32.577885,-35.781587)">
    <path
       d="m 10479,2208 44,-13 45,-9 45,-7 47,-5 47,-1 47,1 46,5 48,7 47,9 47,12 46,15 46,18 46,21 44,24 44,25 44,28 42,31 41,32 40,36 38,37 38,39 35,41 34,44 32,44 31,47 29,48 26,49 25,51 23,51 21,53 18,53 16,55 14,54 12,56 10,55 6,57 5,55 3,56 -1,54 -3,56 -5,54 -7,54 -9,52 -13,53 -14,50 -15,49 -20,49 -20,46 -24,45 -25,43 -26,41 -30,40 -30,37 -33,36 -34,33 -35,30 -38,29 -38,26 -41,24 -41,20 -42,19 -44,15 30,-57 28,-58 23,-61 23,-62 19,-64 16,-66 12,-67 10,-67 7,-70 4,-69 v -71 l -2,-69 -6,-72 -8,-71 -12,-69 -15,-71 -18,-69 -20,-69 -23,-69 -26,-67 -29,-65 -32,-64 -34,-63 -37,-61 -39,-58 -41,-58 -43,-54 -46,-51 -48,-50 -49,-47 -51,-44 -52,-42 -54,-37 -55,-36 -56,-32 -58,-28 -2,-1 z m 1548,1852 z M 10479,2208 z"
       id="path165"
       inkscape:connector-curvature="0"
       style="fill:#4472c4" />
    <path
       d="m 10479,2208 44,-13 45,-9 45,-7 47,-5 47,-1 47,1 46,5 48,7 47,9 47,12 46,15 46,18 46,21 44,24 44,25 44,28 42,31 41,32 40,36 38,37 38,39 35,41 34,44 32,44 31,47 29,48 26,49 25,51 23,51 21,53 18,53 16,55 14,54 12,56 10,55 6,57 5,55 3,56 -1,54 -3,56 -5,54 -7,54 -9,52 -13,53 -14,50 -15,49 -20,49 -20,46 -24,45 -25,43 -26,41 -30,40 -30,37 -33,36 -34,33 -35,30 -38,29 -38,26 -41,24 -41,20 -42,19 -44,15 30,-57 28,-58 23,-61 23,-62 19,-64 16,-66 12,-67 10,-67 7,-70 4,-69 v -71 l -2,-69 -6,-72 -8,-71 -12,-69 -15,-71 -18,-69 -20,-69 -23,-69 -26,-67 -29,-65 -32,-64 -34,-63 -37,-61 -39,-58 -41,-58 -43,-54 -46,-51 -48,-50 -49,-47 -51,-44 -52,-42 -54,-37 -55,-36 -56,-32 -58,-28 -2,-1 z"
       id="path167"
       inkscape:connector-curvature="0"
       style="fill:none;stroke:#325490;stroke-width:35" />
  </g>
  <g
     class="com.sun.star.drawing.CustomShape"
     id="g169"
     transform="matrix(0.03543,0,0,0.03543,-32.577885,-35.781587)">
    <path
       d="m 11354,1881 44,-13 45,-9 45,-7 47,-5 47,-1 47,1 46,5 48,7 47,9 47,12 46,15 46,18 46,21 44,24 44,25 44,28 42,31 41,32 40,36 38,37 38,39 35,41 34,44 32,44 31,47 29,48 26,49 25,51 23,51 21,53 18,53 16,55 14,54 12,56 10,55 6,57 5,55 3,56 -1,54 -3,56 -5,54 -7,54 -9,52 -13,53 -14,50 -15,49 -20,49 -20,46 -24,45 -25,43 -26,41 -30,40 -30,37 -33,36 -34,33 -35,30 -38,29 -38,26 -41,24 -41,20 -42,19 -44,15 30,-57 28,-58 23,-61 23,-62 19,-64 16,-66 12,-67 10,-67 7,-70 4,-69 v -71 l -2,-69 -6,-72 -8,-71 -12,-69 -15,-71 -18,-69 -20,-69 -23,-69 -26,-67 -29,-65 -32,-64 -34,-63 -37,-61 -39,-58 -41,-58 -43,-54 -46,-51 -48,-50 -49,-47 -51,-44 -52,-42 -54,-37 -55,-36 -56,-32 -58,-28 -2,-1 z m 1548,1852 z M 11354,1881 z"
       id="path171"
       inkscape:connector-curvature="0"
       style="fill:#4472c4" />
    <path
       d="m 11354,1881 44,-13 45,-9 45,-7 47,-5 47,-1 47,1 46,5 48,7 47,9 47,12 46,15 46,18 46,21 44,24 44,25 44,28 42,31 41,32 40,36 38,37 38,39 35,41 34,44 32,44 31,47 29,48 26,49 25,51 23,51 21,53 18,53 16,55 14,54 12,56 10,55 6,57 5,55 3,56 -1,54 -3,56 -5,54 -7,54 -9,52 -13,53 -14,50 -15,49 -20,49 -20,46 -24,45 -25,43 -26,41 -30,40 -30,37 -33,36 -34,33 -35,30 -38,29 -38,26 -41,24 -41,20 -42,19 -44,15 30,-57 28,-58 23,-61 23,-62 19,-64 16,-66 12,-67 10,-67 7,-70 4,-69 v -71 l -2,-69 -6,-72 -8,-71 -12,-69 -15,-71 -18,-69 -20,-69 -23,-69 -26,-67 -29,-65 -32,-64 -34,-63 -37,-61 -39,-58 -41,-58 -43,-54 -46,-51 -48,-50 -49,-47 -51,-44 -52,-42 -54,-37 -55,-36 -56,-32 -58,-28 -2,-1 z"
       id="path173"
       inkscape:connector-curvature="0"
       style="fill:none;stroke:#325490;stroke-width:35" />
  </g>
  <g
     class="com.sun.star.drawing.CustomShape"
     id="g175"
     transform="matrix(0.03543,0,0,0.03543,-32.577885,-35.781587)">
    <path
       d="m 5542,5781 46,1 46,5 45,7 46,10 45,13 44,15 43,19 43,21 42,23 41,26 39,29 39,31 37,34 35,36 34,37 33,41 31,42 29,43 27,46 25,47 24,49 21,50 19,52 17,52 15,54 13,54 10,55 8,56 6,56 4,57 1,56 -1,57 -4,56 -5,57 -8,55 -11,56 -12,54 -15,54 -17,52 -20,52 -21,50 -23,49 -25,47 -28,46 -29,44 -30,42 -33,40 -34,38 -36,35 -37,34 -38,31 -40,29 -40,26 -42,24 -43,21 -43,18 -45,16 -44,13 -46,10 -45,7 -46,5 -46,1 46,-45 44,-47 41,-51 40,-52 38,-55 35,-58 32,-60 30,-61 28,-64 25,-65 22,-67 19,-67 16,-70 14,-70 10,-70 8,-72 4,-71 2,-72 -1,-72 -5,-72 -7,-71 -11,-71 -13,-70 -17,-69 -19,-68 -22,-67 -24,-65 -28,-63 -30,-62 -33,-60 -35,-57 -37,-56 -40,-52 -41,-51 -44,-47 -46,-45 -2,-1 z m 908,2236 z M 5542,5781 z"
       id="path177"
       inkscape:connector-curvature="0"
       style="fill:#4472c4" />
    <path
       d="m 5542,5781 46,1 46,5 45,7 46,10 45,13 44,15 43,19 43,21 42,23 41,26 39,29 39,31 37,34 35,36 34,37 33,41 31,42 29,43 27,46 25,47 24,49 21,50 19,52 17,52 15,54 13,54 10,55 8,56 6,56 4,57 1,56 -1,57 -4,56 -5,57 -8,55 -11,56 -12,54 -15,54 -17,52 -20,52 -21,50 -23,49 -25,47 -28,46 -29,44 -30,42 -33,40 -34,38 -36,35 -37,34 -38,31 -40,29 -40,26 -42,24 -43,21 -43,18 -45,16 -44,13 -46,10 -45,7 -46,5 -46,1 46,-45 44,-47 41,-51 40,-52 38,-55 35,-58 32,-60 30,-61 28,-64 25,-65 22,-67 19,-67 16,-70 14,-70 10,-70 8,-72 4,-71 2,-72 -1,-72 -5,-72 -7,-71 -11,-71 -13,-70 -17,-69 -19,-68 -22,-67 -24,-65 -28,-63 -30,-62 -33,-60 -35,-57 -37,-56 -40,-52 -41,-51 -44,-47 -46,-45 -2,-1 z"
       id="path179"
       inkscape:connector-curvature="0"
       style="fill:none;stroke:#325490;stroke-width:35" />
  </g>
  <g
     class="com.sun.star.drawing.CustomShape"
     id="g181"
     transform="matrix(0.03543,0,0,0.03543,-32.577885,-35.781587)">
    <path
       d="m 6514,5781 46,1 46,5 45,7 46,10 45,13 44,15 43,19 43,21 42,23 41,26 39,29 39,31 37,34 35,36 34,37 33,41 31,42 29,43 27,46 25,47 24,49 21,50 19,52 17,52 15,54 13,54 10,55 8,56 6,56 4,57 1,56 -1,57 -4,56 -5,57 -8,55 -11,56 -12,54 -15,54 -17,52 -20,52 -21,50 -23,49 -25,47 -28,46 -29,44 -30,42 -33,40 -34,38 -36,35 -37,34 -38,31 -40,29 -40,26 -42,24 -43,21 -43,18 -45,16 -44,13 -46,10 -45,7 -46,5 -46,1 46,-45 44,-47 41,-51 40,-52 38,-55 35,-58 32,-60 30,-61 28,-64 25,-65 22,-67 19,-67 16,-70 14,-70 10,-70 8,-72 4,-71 2,-72 -1,-72 -5,-72 -7,-71 -11,-71 -13,-70 -17,-69 -19,-68 -22,-67 -24,-65 -28,-63 -30,-62 -33,-60 -35,-57 -37,-56 -40,-52 -41,-51 -44,-47 -46,-45 -2,-1 z m 908,2236 z M 6514,5781 z"
       id="path183"
       inkscape:connector-curvature="0"
       style="fill:#4472c4" />
    <path
       d="m 6514,5781 46,1 46,5 45,7 46,10 45,13 44,15 43,19 43,21 42,23 41,26 39,29 39,31 37,34 35,36 34,37 33,41 31,42 29,43 27,46 25,47 24,49 21,50 19,52 17,52 15,54 13,54 10,55 8,56 6,56 4,57 1,56 -1,57 -4,56 -5,57 -8,55 -11,56 -12,54 -15,54 -17,52 -20,52 -21,50 -23,49 -25,47 -28,46 -29,44 -30,42 -33,40 -34,38 -36,35 -37,34 -38,31 -40,29 -40,26 -42,24 -43,21 -43,18 -45,16 -44,13 -46,10 -45,7 -46,5 -46,1 46,-45 44,-47 41,-51 40,-52 38,-55 35,-58 32,-60 30,-61 28,-64 25,-65 22,-67 19,-67 16,-70 14,-70 10,-70 8,-72 4,-71 2,-72 -1,-72 -5,-72 -7,-71 -11,-71 -13,-70 -17,-69 -19,-68 -22,-67 -24,-65 -28,-63 -30,-62 -33,-60 -35,-57 -37,-56 -40,-52 -41,-51 -44,-47 -46,-45 -2,-1 z"
       id="path185"
       inkscape:connector-curvature="0"
       style="fill:none;stroke:#325490;stroke-width:35" />
  </g>
  <g
     class="com.sun.star.drawing.CustomShape"
     id="g187"
     transform="matrix(0.03543,0,0,0.03543,-32.577885,-35.781587)">
    <path
       d="m 7485,5781 46,1 46,5 45,7 46,10 45,13 44,15 43,19 43,21 42,23 41,26 39,29 39,31 37,34 35,36 34,37 33,41 31,42 29,43 27,46 25,47 24,49 21,50 19,52 17,52 15,54 13,54 10,55 8,56 6,56 4,57 1,56 -1,57 -4,56 -5,57 -8,55 -11,56 -12,54 -15,54 -17,52 -20,52 -21,50 -23,49 -25,47 -28,46 -29,44 -30,42 -33,40 -34,38 -36,35 -37,34 -38,31 -40,29 -40,26 -42,24 -43,21 -43,18 -45,16 -44,13 -46,10 -45,7 -46,5 -46,1 46,-45 44,-47 41,-51 40,-52 38,-55 35,-58 32,-60 30,-61 28,-64 25,-65 22,-67 19,-67 16,-70 14,-70 10,-70 8,-72 4,-71 2,-72 -1,-72 -5,-72 -7,-71 -11,-71 -13,-70 -17,-69 -19,-68 -22,-67 -24,-65 -28,-63 -30,-62 -33,-60 -35,-57 -37,-56 -40,-52 -41,-51 -44,-47 -46,-45 -2,-1 z m 908,2236 z M 7485,5781 z"
       id="path189"
       inkscape:connector-curvature="0"
       style="fill:#4472c4" />
    <path
       d="m 7485,5781 46,1 46,5 45,7 46,10 45,13 44,15 43,19 43,21 42,23 41,26 39,29 39,31 37,34 35,36 34,37 33,41 31,42 29,43 27,46 25,47 24,49 21,50 19,52 17,52 15,54 13,54 10,55 8,56 6,56 4,57 1,56 -1,57 -4,56 -5,57 -8,55 -11,56 -12,54 -15,54 -17,52 -20,52 -21,50 -23,49 -25,47 -28,46 -29,44 -30,42 -33,40 -34,38 -36,35 -37,34 -38,31 -40,29 -40,26 -42,24 -43,21 -43,18 -45,16 -44,13 -46,10 -45,7 -46,5 -46,1 46,-45 44,-47 41,-51 40,-52 38,-55 35,-58 32,-60 30,-61 28,-64 25,-65 22,-67 19,-67 16,-70 14,-70 10,-70 8,-72 4,-71 2,-72 -1,-72 -5,-72 -7,-71 -11,-71 -13,-70 -17,-69 -19,-68 -22,-67 -24,-65 -28,-63 -30,-62 -33,-60 -35,-57 -37,-56 -40,-52 -41,-51 -44,-47 -46,-45 -2,-1 z"
       id="path191"
       inkscape:connector-curvature="0"
       style="fill:none;stroke:#325490;stroke-width:35" />
  </g>
  <g
     class="com.sun.star.drawing.CustomShape"
     id="g193"
     transform="matrix(0.03543,0,0,0.03543,-32.577885,-35.781587)">
    <path
       d="m 8457,5781 46,1 46,5 45,7 46,10 45,13 44,15 43,19 43,21 42,23 41,26 39,29 39,31 37,34 35,36 34,37 33,41 31,42 29,43 27,46 25,47 24,49 21,50 19,52 17,52 15,54 13,54 10,55 8,56 6,56 4,57 1,56 -1,57 -4,56 -5,57 -8,55 -11,56 -12,54 -15,54 -17,52 -20,52 -21,50 -23,49 -25,47 -28,46 -29,44 -30,42 -33,40 -34,38 -36,35 -37,34 -38,31 -40,29 -40,26 -42,24 -43,21 -43,18 -45,16 -44,13 -46,10 -45,7 -46,5 -46,1 46,-45 44,-47 41,-51 40,-52 38,-55 35,-58 32,-60 30,-61 28,-64 25,-65 22,-67 19,-67 16,-70 14,-70 10,-70 8,-72 4,-71 2,-72 -1,-72 -5,-72 -7,-71 -11,-71 -13,-70 -17,-69 -19,-68 -22,-67 -24,-65 -28,-63 -30,-62 -33,-60 -35,-57 -37,-56 -40,-52 -41,-51 -44,-47 -46,-45 -2,-1 z m 908,2236 z M 8457,5781 z"
       id="path195"
       inkscape:connector-curvature="0"
       style="fill:#4472c4" />
    <path
       d="m 8457,5781 46,1 46,5 45,7 46,10 45,13 44,15 43,19 43,21 42,23 41,26 39,29 39,31 37,34 35,36 34,37 33,41 31,42 29,43 27,46 25,47 24,49 21,50 19,52 17,52 15,54 13,54 10,55 8,56 6,56 4,57 1,56 -1,57 -4,56 -5,57 -8,55 -11,56 -12,54 -15,54 -17,52 -20,52 -21,50 -23,49 -25,47 -28,46 -29,44 -30,42 -33,40 -34,38 -36,35 -37,34 -38,31 -40,29 -40,26 -42,24 -43,21 -43,18 -45,16 -44,13 -46,10 -45,7 -46,5 -46,1 46,-45 44,-47 41,-51 40,-52 38,-55 35,-58 32,-60 30,-61 28,-64 25,-65 22,-67 19,-67 16,-70 14,-70 10,-70 8,-72 4,-71 2,-72 -1,-72 -5,-72 -7,-71 -11,-71 -13,-70 -17,-69 -19,-68 -22,-67 -24,-65 -28,-63 -30,-62 -33,-60 -35,-57 -37,-56 -40,-52 -41,-51 -44,-47 -46,-45 -2,-1 z"
       id="path197"
       inkscape:connector-curvature="0"
       style="fill:none;stroke:#325490;stroke-width:35" />
  </g>
  <g
     class="com.sun.star.drawing.CustomShape"
     id="g199"
     transform="matrix(0.03543,0,0,0.03543,-32.577885,-35.781587)">
    <path
       d="m 9428,5781 46,1 46,5 45,7 46,10 45,13 44,15 43,19 43,21 42,23 41,26 39,29 39,31 37,34 35,36 34,37 33,41 31,42 29,43 27,46 25,47 24,49 21,50 19,52 17,52 15,54 13,54 10,55 8,56 6,56 4,57 1,56 -1,57 -4,56 -5,57 -8,55 -11,56 -12,54 -15,54 -17,52 -20,52 -21,50 -23,49 -25,47 -28,46 -29,44 -30,42 -33,40 -34,38 -36,35 -37,34 -38,31 -40,29 -40,26 -42,24 -43,21 -43,18 -45,16 -44,13 -46,10 -45,7 -46,5 -46,1 46,-45 44,-47 41,-51 40,-52 38,-55 35,-58 32,-60 30,-61 28,-64 25,-65 22,-67 19,-67 16,-70 14,-70 10,-70 8,-72 4,-71 2,-72 -1,-72 -5,-72 -7,-71 -11,-71 -13,-70 -17,-69 -19,-68 -22,-67 -24,-65 -28,-63 -30,-62 -33,-60 -35,-57 -37,-56 -40,-52 -41,-51 -44,-47 -46,-45 -2,-1 z m 908,2236 z M 9428,5781 z"
       id="path201"
       inkscape:connector-curvature="0"
       style="fill:#4472c4" />
    <path
       d="m 9428,5781 46,1 46,5 45,7 46,10 45,13 44,15 43,19 43,21 42,23 41,26 39,29 39,31 37,34 35,36 34,37 33,41 31,42 29,43 27,46 25,47 24,49 21,50 19,52 17,52 15,54 13,54 10,55 8,56 6,56 4,57 1,56 -1,57 -4,56 -5,57 -8,55 -11,56 -12,54 -15,54 -17,52 -20,52 -21,50 -23,49 -25,47 -28,46 -29,44 -30,42 -33,40 -34,38 -36,35 -37,34 -38,31 -40,29 -40,26 -42,24 -43,21 -43,18 -45,16 -44,13 -46,10 -45,7 -46,5 -46,1 46,-45 44,-47 41,-51 40,-52 38,-55 35,-58 32,-60 30,-61 28,-64 25,-65 22,-67 19,-67 16,-70 14,-70 10,-70 8,-72 4,-71 2,-72 -1,-72 -5,-72 -7,-71 -11,-71 -13,-70 -17,-69 -19,-68 -22,-67 -24,-65 -28,-63 -30,-62 -33,-60 -35,-57 -37,-56 -40,-52 -41,-51 -44,-47 -46,-45 -2,-1 z"
       id="path203"
       inkscape:connector-curvature="0"
       style="fill:none;stroke:#325490;stroke-width:35" />
  </g>
  <g
     class="com.sun.star.drawing.CustomShape"
     id="g205"
     transform="matrix(0.03543,0,0,0.03543,-32.577885,-35.781587)">
    <path
       d="m 10400,5781 46,1 46,5 45,7 46,10 45,13 44,15 43,19 43,21 42,23 41,26 39,29 39,31 37,34 35,36 34,37 33,41 31,42 29,43 27,46 25,47 24,49 21,50 19,52 17,52 15,54 13,54 10,55 8,56 6,56 4,57 1,56 -1,57 -4,56 -5,57 -8,55 -11,56 -12,54 -15,54 -17,52 -20,52 -21,50 -23,49 -25,47 -28,46 -29,44 -30,42 -33,40 -34,38 -36,35 -37,34 -38,31 -40,29 -40,26 -42,24 -43,21 -43,18 -45,16 -44,13 -46,10 -45,7 -46,5 -46,1 46,-45 44,-47 41,-51 40,-52 38,-55 35,-58 32,-60 30,-61 28,-64 25,-65 22,-67 19,-67 16,-70 14,-70 10,-70 8,-72 4,-71 2,-72 -1,-72 -5,-72 -7,-71 -11,-71 -13,-70 -17,-69 -19,-68 -22,-67 -24,-65 -28,-63 -30,-62 -33,-60 -35,-57 -37,-56 -40,-52 -41,-51 -44,-47 -46,-45 -2,-1 z m 908,2236 z m -908,-2236 z"
       id="path207"
       inkscape:connector-curvature="0"
       style="fill:#4472c4" />
    <path
       d="m 10400,5781 46,1 46,5 45,7 46,10 45,13 44,15 43,19 43,21 42,23 41,26 39,29 39,31 37,34 35,36 34,37 33,41 31,42 29,43 27,46 25,47 24,49 21,50 19,52 17,52 15,54 13,54 10,55 8,56 6,56 4,57 1,56 -1,57 -4,56 -5,57 -8,55 -11,56 -12,54 -15,54 -17,52 -20,52 -21,50 -23,49 -25,47 -28,46 -29,44 -30,42 -33,40 -34,38 -36,35 -37,34 -38,31 -40,29 -40,26 -42,24 -43,21 -43,18 -45,16 -44,13 -46,10 -45,7 -46,5 -46,1 46,-45 44,-47 41,-51 40,-52 38,-55 35,-58 32,-60 30,-61 28,-64 25,-65 22,-67 19,-67 16,-70 14,-70 10,-70 8,-72 4,-71 2,-72 -1,-72 -5,-72 -7,-71 -11,-71 -13,-70 -17,-69 -19,-68 -22,-67 -24,-65 -28,-63 -30,-62 -33,-60 -35,-57 -37,-56 -40,-52 -41,-51 -44,-47 -46,-45 -2,-1 z"
       id="path209"
       inkscape:connector-curvature="0"
       style="fill:none;stroke:#325490;stroke-width:35" />
  </g>
  <g
     class="com.sun.star.drawing.CustomShape"
     id="g211"
     transform="matrix(0.03543,0,0,0.03543,-32.577885,-35.781587)">
    <path
       d="m 11372,5781 46,1 46,5 45,7 46,10 45,13 44,15 43,19 43,21 42,23 41,26 39,29 39,31 37,34 35,36 34,37 33,41 31,42 29,43 27,46 25,47 24,49 21,50 19,52 17,52 15,54 13,54 10,55 8,56 6,56 4,57 1,56 -1,57 -4,56 -5,57 -8,55 -11,56 -12,54 -15,54 -17,52 -20,52 -21,50 -23,49 -25,47 -28,46 -29,44 -30,42 -33,40 -34,38 -36,35 -37,34 -38,31 -40,29 -40,26 -42,24 -43,21 -43,18 -45,16 -44,13 -46,10 -45,7 -46,5 -46,1 46,-45 44,-47 41,-51 40,-52 38,-55 35,-58 32,-60 30,-61 28,-64 25,-65 22,-67 19,-67 16,-70 14,-70 10,-70 8,-72 4,-71 2,-72 -1,-72 -5,-72 -7,-71 -11,-71 -13,-70 -17,-69 -19,-68 -22,-67 -24,-65 -28,-63 -30,-62 -33,-60 -35,-57 -37,-56 -40,-52 -41,-51 -44,-47 -46,-45 -2,-1 z m 908,2236 z m -908,-2236 z"
       id="path213"
       inkscape:connector-curvature="0"
       style="fill:#4472c4" />
    <path
       d="m 11372,5781 46,1 46,5 45,7 46,10 45,13 44,15 43,19 43,21 42,23 41,26 39,29 39,31 37,34 35,36 34,37 33,41 31,42 29,43 27,46 25,47 24,49 21,50 19,52 17,52 15,54 13,54 10,55 8,56 6,56 4,57 1,56 -1,57 -4,56 -5,57 -8,55 -11,56 -12,54 -15,54 -17,52 -20,52 -21,50 -23,49 -25,47 -28,46 -29,44 -30,42 -33,40 -34,38 -36,35 -37,34 -38,31 -40,29 -40,26 -42,24 -43,21 -43,18 -45,16 -44,13 -46,10 -45,7 -46,5 -46,1 46,-45 44,-47 41,-51 40,-52 38,-55 35,-58 32,-60 30,-61 28,-64 25,-65 22,-67 19,-67 16,-70 14,-70 10,-70 8,-72 4,-71 2,-72 -1,-72 -5,-72 -7,-71 -11,-71 -13,-70 -17,-69 -19,-68 -22,-67 -24,-65 -28,-63 -30,-62 -33,-60 -35,-57 -37,-56 -40,-52 -41,-51 -44,-47 -46,-45 -2,-1 z"
       id="path215"
       inkscape:connector-curvature="0"
       style="fill:none;stroke:#325490;stroke-width:35" />
  </g>
  <g
     class="com.sun.star.drawing.CustomShape"
     id="g217"
     transform="matrix(0.03543,0,0,0.03543,-32.577885,-35.781587)">
    <path
       d="m 12343,5781 46,1 46,5 45,7 46,10 45,13 44,15 43,19 43,21 42,23 41,26 39,29 39,31 37,34 35,36 34,37 33,41 31,42 29,43 27,46 25,47 24,49 21,50 19,52 17,52 15,54 13,54 10,55 8,56 6,56 4,57 1,56 -1,57 -4,56 -5,57 -8,55 -11,56 -12,54 -15,54 -17,52 -20,52 -21,50 -23,49 -25,47 -28,46 -29,44 -30,42 -33,40 -34,38 -36,35 -37,34 -38,31 -40,29 -40,26 -42,24 -43,21 -43,18 -45,16 -44,13 -46,10 -45,7 -46,5 -46,1 46,-45 44,-47 41,-51 40,-52 38,-55 35,-58 32,-60 30,-61 28,-64 25,-65 22,-67 19,-67 16,-70 14,-70 10,-70 8,-72 4,-71 2,-72 -1,-72 -5,-72 -7,-71 -11,-71 -13,-70 -17,-69 -19,-68 -22,-67 -24,-65 -28,-63 -30,-62 -33,-60 -35,-57 -37,-56 -40,-52 -41,-51 -44,-47 -46,-45 -2,-1 z m 908,2236 z m -908,-2236 z"
       id="path219"
       inkscape:connector-curvature="0"
       style="fill:#4472c4" />
    <path
       d="m 12343,5781 46,1 46,5 45,7 46,10 45,13 44,15 43,19 43,21 42,23 41,26 39,29 39,31 37,34 35,36 34,37 33,41 31,42 29,43 27,46 25,47 24,49 21,50 19,52 17,52 15,54 13,54 10,55 8,56 6,56 4,57 1,56 -1,57 -4,56 -5,57 -8,55 -11,56 -12,54 -15,54 -17,52 -20,52 -21,50 -23,49 -25,47 -28,46 -29,44 -30,42 -33,40 -34,38 -36,35 -37,34 -38,31 -40,29 -40,26 -42,24 -43,21 -43,18 -45,16 -44,13 -46,10 -45,7 -46,5 -46,1 46,-45 44,-47 41,-51 40,-52 38,-55 35,-58 32,-60 30,-61 28,-64 25,-65 22,-67 19,-67 16,-70 14,-70 10,-70 8,-72 4,-71 2,-72 -1,-72 -5,-72 -7,-71 -11,-71 -13,-70 -17,-69 -19,-68 -22,-67 -24,-65 -28,-63 -30,-62 -33,-60 -35,-57 -37,-56 -40,-52 -41,-51 -44,-47 -46,-45 -2,-1 z"
       id="path221"
       inkscape:connector-curvature="0"
       style="fill:none;stroke:#325490;stroke-width:35" />
  </g>
  <text
     sodipodi:linespacing="125%"
     id="text3225-2"
     y="70.945053"
     x="5.5320134"
     style="font-size:40px;font-style:normal;font-weight:normal;line-height:125%;letter-spacing:0px;word-spacing:0px;fill:#000000;fill-opacity:1;stroke:none;font-family:Sans"
     xml:space="preserve"><tspan
       style="font-size:22px;font-style:normal;font-variant:normal;font-weight:normal;font-stretch:normal;text-align:start;line-height:125%;writing-mode:lr-tb;text-anchor:start;font-family:Sans;-inkscape-font-specification:Sans"
       y="70.945053"
       x="5.5320134"
       id="tspan3227-0"
       sodipodi:role="line">Home client</tspan><tspan
       style="font-size:22px;font-style:normal;font-variant:normal;font-weight:normal;font-stretch:normal;text-align:start;line-height:125%;writing-mode:lr-tb;text-anchor:start;font-family:Sans;-inkscape-font-specification:Sans"
       y="98.445053"
       x="5.5320134"
       sodipodi:role="line"
       id="tspan3223">video source</tspan></text>
  <text
     xml:space="preserve"
     style="font-size:40px;font-style:normal;font-weight:normal;line-height:125%;letter-spacing:0px;word-spacing:0px;fill:#000000;fill-opacity:1;stroke:none;font-family:Sans"
     x="104.74752"
     y="24.3125"
     id="text3197"
     sodipodi:linespacing="125%"><tspan
       sodipodi:role="line"
       id="tspan3199"
       x="104.74752"
       y="24.3125"
       style="font-size:32px;font-style:normal;font-variant:normal;font-weight:normal;font-stretch:normal;text-align:start;line-height:125%;writing-mode:lr-tb;text-anchor:start;font-family:Sans;-inkscape-font-specification:Sans">Home Client</tspan></text>
  <text
     xml:space="preserve"
     style="font-size:40px;font-style:normal;font-weight:normal;line-height:100%;letter-spacing:0px;word-spacing:0px;fill:#000000;fill-opacity:1;stroke:none;font-family:Sans"
     x="8.07969"
     y="136.58031"
     id="text3244"
     sodipodi:linespacing="100%"><tspan
       sodipodi:role="line"
       x="8.07969"
       y="136.58031"
       style="font-size:14px;font-style:normal;font-variant:normal;font-weight:normal;font-stretch:normal;text-align:start;line-height:100%;writing-mode:lr-tb;text-anchor:start;font-family:Sans;-inkscape-font-specification:Sans"
       id="tspan3252">(no</tspan><tspan
       sodipodi:role="line"
       x="8.07969"
       y="150.58031"
       style="font-size:14px;font-style:normal;font-variant:normal;font-weight:normal;font-stretch:normal;text-align:start;line-height:100%;writing-mode:lr-tb;text-anchor:start;font-family:Sans;-inkscape-font-specification:Sans"
       id="tspan3258">constraints set)</tspan><tspan
       sodipodi:role="line"
       x="8.07969"
       y="164.58031"
       style="font-size:14px;font-style:normal;font-variant:normal;font-weight:normal;font-stretch:normal;text-align:start;line-height:100%;writing-mode:lr-tb;text-anchor:start;font-family:Sans;-inkscape-font-specification:Sans"
       id="tspan3254" /></text>
  <text
     sodipodi:linespacing="100%"
     id="text3626"
     y="238.15623"
     x="14.644266"
     style="font-size:40px;font-style:normal;font-weight:normal;line-height:100%;letter-spacing:0px;word-spacing:0px;fill:#000000;fill-opacity:1;stroke:none;font-family:Sans"
     xml:space="preserve"><tspan
       style="font-size:14px;font-style:normal;font-variant:normal;font-weight:normal;font-stretch:normal;text-align:start;line-height:100%;writing-mode:lr-tb;text-anchor:start;font-family:Sans;-inkscape-font-specification:Sans"
       y="238.15623"
       x="14.644266"
       sodipodi:role="line"
       id="tspan3639">width: 1024</tspan><tspan
       style="font-size:14px;font-style:normal;font-variant:normal;font-weight:normal;font-stretch:normal;text-align:start;line-height:100%;writing-mode:lr-tb;text-anchor:start;font-family:Sans;-inkscape-font-specification:Sans"
       y="252.15623"
       x="14.644266"
       sodipodi:role="line"
       id="tspan3240">height: 768</tspan></text>
  <text
     xml:space="preserve"
     style="font-size:40px;font-style:normal;font-weight:normal;line-height:100%;letter-spacing:0px;word-spacing:0px;fill:#000000;fill-opacity:1;stroke:none;font-family:Sans"
     x="449.66449"
     y="44.885468"
     id="text3610"
     sodipodi:linespacing="100%"><tspan
       sodipodi:role="line"
       id="tspan3612"
       x="449.66449"
       y="44.885468"
       style="font-size:16px;font-style:normal;font-variant:normal;font-weight:normal;font-stretch:normal;text-align:start;line-height:100%;writing-mode:lr-tb;text-anchor:start;font-family:Sans;-inkscape-font-specification:Sans">&lt;video</tspan><tspan
       sodipodi:role="line"
       x="449.66449"
       y="60.885471"
       id="tspan3616"
       style="font-size:16px;font-style:normal;font-variant:normal;font-weight:normal;font-stretch:normal;text-align:start;line-height:100%;writing-mode:lr-tb;text-anchor:start;font-family:Sans;-inkscape-font-specification:Sans">width=1024</tspan><tspan
       sodipodi:role="line"
       x="449.66449"
       y="76.885468"
       style="font-size:16px;font-style:normal;font-variant:normal;font-weight:normal;font-stretch:normal;text-align:start;line-height:100%;writing-mode:lr-tb;text-anchor:start;font-family:Sans;-inkscape-font-specification:Sans"
       id="tspan3578">height=768&gt;</tspan></text>
  <text
     sodipodi:linespacing="100%"
     id="text3641"
     y="191.43999"
     x="455.61499"
     style="font-size:40px;font-style:normal;font-weight:normal;line-height:100%;letter-spacing:0px;word-spacing:0px;fill:#000000;fill-opacity:1;stroke:none;font-family:Sans"
     xml:space="preserve"><tspan
       style="font-size:16px;font-style:normal;font-variant:normal;font-weight:normal;font-stretch:normal;text-align:start;line-height:100%;writing-mode:lr-tb;text-anchor:start;font-family:Sans;-inkscape-font-specification:Sans"
       y="191.43999"
       x="455.61499"
       id="tspan3643"
       sodipodi:role="line">&lt;video</tspan><tspan
       style="font-size:16px;font-style:normal;font-variant:normal;font-weight:normal;font-stretch:normal;text-align:start;line-height:100%;writing-mode:lr-tb;text-anchor:start;font-family:Sans;-inkscape-font-specification:Sans"
       id="tspan3647"
       y="207.43999"
       x="455.61499"
       sodipodi:role="line">width=320</tspan><tspan
       style="font-size:16px;font-style:normal;font-variant:normal;font-weight:normal;font-stretch:normal;text-align:start;line-height:100%;writing-mode:lr-tb;text-anchor:start;font-family:Sans;-inkscape-font-specification:Sans"
       y="223.43999"
       x="455.61499"
       sodipodi:role="line"
       id="tspan3651">height=200&gt;</tspan></text>
  <text
     sodipodi:linespacing="125%"
     id="text3225"
     y="277.44876"
     x="428.73004"
     style="font-size:40px;font-style:normal;font-weight:normal;line-height:125%;letter-spacing:0px;word-spacing:0px;fill:#000000;fill-opacity:1;stroke:none;font-family:Sans"
     xml:space="preserve"><tspan
       style="font-size:22px;font-style:normal;font-variant:normal;font-weight:normal;font-stretch:normal;text-align:start;line-height:125%;writing-mode:lr-tb;text-anchor:start;font-family:Sans;-inkscape-font-specification:Sans"
       y="277.44876"
       x="428.73004"
       id="tspan3227"
       sodipodi:role="line">Home client video sinks</tspan></text>
  <text
     xml:space="preserve"
     style="font-size:40px;font-style:normal;font-weight:normal;line-height:125%;letter-spacing:0px;word-spacing:0px;fill:#000000;fill-opacity:1;stroke:none;font-family:Sans"
     x="579.04315"
     y="205.28099"
     id="text3205"
     sodipodi:linespacing="125%"><tspan
       sodipodi:role="line"
       id="tspan3207"
       x="579.04315"
       y="205.28099"
       style="font-size:24px;font-style:normal;font-variant:normal;font-weight:normal;font-stretch:normal;text-align:start;line-height:125%;writing-mode:lr-tb;text-anchor:start;font-family:Sans;-inkscape-font-specification:Sans">B</tspan></text>
  <text
     xml:space="preserve"
     style="font-size:40px;font-style:normal;font-weight:normal;line-height:125%;letter-spacing:0px;word-spacing:0px;fill:#000000;fill-opacity:1;stroke:none;font-family:Sans"
     x="579.04309"
     y="50.119568"
     id="text3213"
     sodipodi:linespacing="125%"><tspan
       sodipodi:role="line"
       id="tspan3215"
       x="579.04309"
       y="50.119568"
       style="font-size:24px;font-style:normal;font-variant:normal;font-weight:normal;font-stretch:normal;text-align:start;line-height:125%;writing-mode:lr-tb;text-anchor:start;font-family:Sans;-inkscape-font-specification:Sans">A</tspan></text>
</svg>
