<?xml version="1.0" encoding="UTF-8" standalone="no"?>
<svg
   xmlns:dc="http://purl.org/dc/elements/1.1/"
   xmlns:cc="http://creativecommons.org/ns#"
   xmlns:rdf="http://www.w3.org/1999/02/22-rdf-syntax-ns#"
   xmlns:svg="http://www.w3.org/2000/svg"
   xmlns="http://www.w3.org/2000/svg"
   xmlns:sodipodi="http://sodipodi.sourceforge.net/DTD/sodipodi-0.dtd"
   xmlns:inkscape="http://www.inkscape.org/namespaces/inkscape"
   viewBox="0 0 1163.572 497.799"
   height="100%"
   width="100%"
   id="svg2"
   version="1.1"
   inkscape:version="0.48.4 r9939"
   sodipodi:docname="change_states_before.svg">
  <metadata
     id="metadata583">
    <rdf:RDF>
      <cc:Work
         rdf:about="">
        <dc:format>image/svg+xml</dc:format>
        <dc:type
           rdf:resource="http://purl.org/dc/dcmitype/StillImage" />
      </cc:Work>
    </rdf:RDF>
  </metadata>
  <sodipodi:namedview
     pagecolor="#ffffff"
     bordercolor="#666666"
     borderopacity="1"
     objecttolerance="10"
     gridtolerance="10"
     guidetolerance="10"
     inkscape:pageopacity="0"
     inkscape:pageshadow="2"
     inkscape:window-width="1702"
     inkscape:window-height="1054"
     id="namedview581"
     showgrid="false"
     inkscape:zoom="0.78758373"
     inkscape:cx="755.7131"
     inkscape:cy="139.31019"
     inkscape:window-x="53"
     inkscape:window-y="34"
     inkscape:window-maximized="0"
     inkscape:current-layer="g11" />
  <defs
     id="defs4">
    <clipPath
       id="a">
      <path
         d="M0 0h33867v19050H0z"
         id="path7" />
    </clipPath>
  </defs>
  <g
     class="SlideGroup Slide"
     clip-path="url(#a)"
     transform="matrix(.03543 0 0 .03543 -16.51 -11.232)"
     id="g9">
    <g
       class="Page"
       id="g11">
      <path
         d="M19050 317v14049"
         class="com.sun.star.drawing.LineShape"
         id="path13"
         stroke-width="53"
         stroke="#000"
         fill="none" />
      <g
         class="com.sun.star.drawing.CustomShape"
         id="g15"
         transform="matrix(1.1026429,0,0,1,-489.76064,0)">
        <path
           d="M 2345,5098 H 4754 V 8228 H 2345 V 5098 z m 301,1103 v 357 h 121 l 38,-40 h 35 v 545 h 1228 v -188 h 195 l 105,104 h 84 v -665 h -84 l -72,72 h -228 v -72 l -71,-76 H 2805 l -38,-37 H 2646 z M 2345,5098 z m 2409,3130 z"
           id="path17"
           inkscape:connector-curvature="0"
           style="fill:#ffffff" />
        <path
           d="m 2646,6201 v 357 h 121 l 38,-40 h 35 v 545 h 1228 v -188 h 195 l 105,104 h 84 v -665 h -84 l -72,72 h -228 v -72 l -71,-76 H 2805 l -38,-37 H 2646 z M 2345,5098 z m 2409,3130 z"
           id="path19"
           inkscape:connector-curvature="0"
           style="fill:#aaaaaa" />
        <path
           d="m 2646,6201 h 121 l 38,37 h 1192 l 71,76 v 72 h 228 l 72,-72 h 84 v 665 h -84 l -105,-104 h -195 v 188 H 2840 v -545 h -35 l -38,40 h -121 v -357 z"
           id="path21"
           inkscape:connector-curvature="0"
           style="fill:none;stroke:#ed7d31;stroke-width:35" />
        <path
           d="M 2345,5098 H 4754 V 8228 H 2345 V 5098 z"
           id="path23"
           inkscape:connector-curvature="0"
           style="fill:none;stroke:#ed7d31;stroke-width:35" />
      </g>
      <g
         class="com.sun.star.drawing.CustomShape"
         id="g47">
        <path
           d="M12790 896h4363v3825h-4363V896zm0 0zm4363 3825z"
           id="path49"
           fill="#a7c9e8" />
        <path
           d="M12790 896h4363v3825h-4363V896z"
           id="path51"
           stroke-width="35"
           stroke="#43729d"
           fill="none" />
        <flowRoot
           xml:space="preserve"
           id="flowRoot3598"
           style="font-size:40px;font-style:normal;font-weight:normal;line-height:125%;letter-spacing:0px;word-spacing:0px;fill:#000000;fill-opacity:1;stroke:none;font-family:Sans"
           transform="matrix(28.224668,0,0,28.224668,465.98927,317.01948)"><flowRegion
             id="flowRegion3600"><rect
               id="rect3602"
               width="222.19859"
               height="74.912674"
               x="467.25192"
               y="-137.05412" /></flowRegion><flowPara
             id="flowPara3604" /></flowRoot>      </g>
      <g
         class="com.sun.star.drawing.CustomShape"
         id="g81"
         transform="matrix(1.3400099,0,0,1,-4641.9845,0)">
        <path
           d="m 13670,5468 h 2600 V 7859 H 13670 V 5468 z m 0,0 z m 2600,2391 z"
           id="path83"
           inkscape:connector-curvature="0"
           style="fill:#a7c9e8" />
        <path
           d="m 13670,5468 h 2600 V 7859 H 13670 V 5468 z"
           id="path85"
           inkscape:connector-curvature="0"
           style="fill:none;stroke:#43729d;stroke-width:35" />
      </g>
      <g
         class="com.sun.star.drawing.CustomShape"
         id="g115">
        <path
           d="M4491 4488l34-10 34-7 34-6 35-2 36-1 36 2 35 3 36 6 36 9 36 11 35 12 35 14 35 17 35 20 34 20 33 23 32 25 32 26 31 28 30 30 29 32 27 33 26 35 25 35 23 38 23 38 21 39 20 41 17 41 17 42 14 42 13 43 12 44 9 44 8 44 5 44 5 45 2 44 1 43-2 44-3 43-5 42-6 42-8 41-11 40-12 39-13 37-16 38-17 35-18 34-20 33-22 31-23 29-24 27-26 26-26 24-29 22-29 21-30 18-31 15-31 15-34 11 23-45 20-45 18-48 16-49 13-51 12-52 9-53 6-53 5-54 2-56v-55l-3-56-5-56-7-57-10-55-13-56-13-56-17-55-18-54-22-53-22-53-25-51-26-50-29-49-30-47-33-45-34-44-34-42-37-40-38-37-40-35-40-34-42-31-42-28-43-26-45-24-1 1zm1199 1485zM4491 4488z"
           id="path117"
           fill="#a7c9e8" />
        <path
           d="M4491 4488l34-10 34-7 34-6 35-2 36-1 36 2 35 3 36 6 36 9 36 11 35 12 35 14 35 17 35 20 34 20 33 23 32 25 32 26 31 28 30 30 29 32 27 33 26 35 25 35 23 38 23 38 21 39 20 41 17 41 17 42 14 42 13 43 12 44 9 44 8 44 5 44 5 45 2 44 1 43-2 44-3 43-5 42-6 42-8 41-11 40-12 39-13 37-16 38-17 35-18 34-20 33-22 31-23 29-24 27-26 26-26 24-29 22-29 21-30 18-31 15-31 15-34 11 23-45 20-45 18-48 16-49 13-51 12-52 9-53 6-53 5-54 2-56v-55l-3-56-5-56-7-57-10-55-13-56-13-56-17-55-18-54-22-53-22-53-25-51-26-50-29-49-30-47-33-45-34-44-34-42-37-40-38-37-40-35-40-34-42-31-42-28-43-26-45-24-1 1z"
           id="path119"
           stroke-width="35"
           stroke="#43729d"
           fill="none" />
      </g>
      <g
         class="com.sun.star.drawing.CustomShape"
         id="g121">
        <path
           d="M5367 4161l34-10 34-7 34-6 35-2 36-1 36 2 35 3 36 6 36 9 36 11 35 12 35 14 35 17 35 20 34 20 33 23 32 25 32 26 31 28 30 30 29 32 27 33 26 35 25 35 23 38 23 38 21 39 20 41 17 41 17 42 14 42 13 43 12 44 9 44 8 44 5 44 5 45 2 44 1 43-2 44-3 43-5 42-6 42-8 41-11 40-12 39-13 37-16 38-17 35-18 34-20 33-22 31-23 29-24 27-26 26-26 24-29 22-29 21-30 18-31 15-31 15-34 11 23-45 20-45 18-48 16-49 13-51 12-52 9-53 6-53 5-54 2-56v-55l-3-56-5-56-7-57-10-55-13-56-13-56-17-55-18-54-22-53-22-53-25-51-26-50-29-49-30-47-33-45-34-44-34-42-37-40-38-37-40-35-40-34-42-31-42-28-43-26-45-24-1 1zm1199 1485zM5367 4161z"
           id="path123"
           fill="#a7c9e8" />
        <path
           d="M5367 4161l34-10 34-7 34-6 35-2 36-1 36 2 35 3 36 6 36 9 36 11 35 12 35 14 35 17 35 20 34 20 33 23 32 25 32 26 31 28 30 30 29 32 27 33 26 35 25 35 23 38 23 38 21 39 20 41 17 41 17 42 14 42 13 43 12 44 9 44 8 44 5 44 5 45 2 44 1 43-2 44-3 43-5 42-6 42-8 41-11 40-12 39-13 37-16 38-17 35-18 34-20 33-22 31-23 29-24 27-26 26-26 24-29 22-29 21-30 18-31 15-31 15-34 11 23-45 20-45 18-48 16-49 13-51 12-52 9-53 6-53 5-54 2-56v-55l-3-56-5-56-7-57-10-55-13-56-13-56-17-55-18-54-22-53-22-53-25-51-26-50-29-49-30-47-33-45-34-44-34-42-37-40-38-37-40-35-40-34-42-31-42-28-43-26-45-24-1 1z"
           id="path125"
           stroke-width="35"
           stroke="#43729d"
           fill="none" />
      </g>
      <g
         class="com.sun.star.drawing.CustomShape"
         id="g127">
        <path
           d="M6242 3835l34-10 34-7 34-6 35-2 36-1 36 2 35 3 36 6 36 9 36 11 35 12 35 14 35 17 35 20 34 20 33 23 32 25 32 26 31 28 30 30 29 32 27 33 26 35 25 35 23 38 23 38 21 39 20 41 17 41 17 42 14 42 13 43 12 44 9 44 8 44 5 44 5 45 2 44 1 43-2 44-3 43-5 42-6 42-8 41-11 40-12 39-13 37-16 38-17 35-18 34-20 33-22 31-23 29-24 27-26 26-26 24-29 22-29 21-30 18-31 15-31 15-34 11 23-45 20-45 18-48 16-49 13-51 12-52 9-53 6-53 5-54 2-56v-55l-3-56-5-56-7-57-10-55-13-56-13-56-17-55-18-54-22-53-22-53-25-51-26-50-29-49-30-47-33-45-34-44-34-42-37-40-38-37-40-35-40-34-42-31-42-28-43-26-45-24-1 1zm1199 1485zM6242 3835z"
           id="path129"
           fill="#a7c9e8" />
        <path
           d="M6242 3835l34-10 34-7 34-6 35-2 36-1 36 2 35 3 36 6 36 9 36 11 35 12 35 14 35 17 35 20 34 20 33 23 32 25 32 26 31 28 30 30 29 32 27 33 26 35 25 35 23 38 23 38 21 39 20 41 17 41 17 42 14 42 13 43 12 44 9 44 8 44 5 44 5 45 2 44 1 43-2 44-3 43-5 42-6 42-8 41-11 40-12 39-13 37-16 38-17 35-18 34-20 33-22 31-23 29-24 27-26 26-26 24-29 22-29 21-30 18-31 15-31 15-34 11 23-45 20-45 18-48 16-49 13-51 12-52 9-53 6-53 5-54 2-56v-55l-3-56-5-56-7-57-10-55-13-56-13-56-17-55-18-54-22-53-22-53-25-51-26-50-29-49-30-47-33-45-34-44-34-42-37-40-38-37-40-35-40-34-42-31-42-28-43-26-45-24-1 1z"
           id="path131"
           stroke-width="35"
           stroke="#43729d"
           fill="none" />
      </g>
      <g
         class="com.sun.star.drawing.CustomShape"
         id="g133">
        <path
           d="M7117 3508l34-10 34-7 34-6 35-2 36-1 36 2 35 3 36 6 36 9 36 11 35 12 35 14 35 17 35 20 34 20 33 23 32 25 32 26 31 28 30 30 29 32 27 33 26 35 25 35 23 38 23 38 21 39 20 41 17 41 17 42 14 42 13 43 12 44 9 44 8 44 5 44 5 45 2 44 1 43-2 44-3 43-5 42-6 42-8 41-11 40-12 39-13 37-16 38-17 35-18 34-20 33-22 31-23 29-24 27-26 26-26 24-29 22-29 21-30 18-31 15-31 15-34 11 23-45 20-45 18-48 16-49 13-51 12-52 9-53 6-53 5-54 2-56v-55l-3-56-5-56-7-57-10-55-13-56-13-56-17-55-18-54-22-53-22-53-25-51-26-50-29-49-30-47-33-45-34-44-34-42-37-40-38-37-40-35-40-34-42-31-42-28-43-26-45-24-1 1zm1199 1485zM7117 3508z"
           id="path135"
           fill="#a7c9e8" />
        <path
           d="M7117 3508l34-10 34-7 34-6 35-2 36-1 36 2 35 3 36 6 36 9 36 11 35 12 35 14 35 17 35 20 34 20 33 23 32 25 32 26 31 28 30 30 29 32 27 33 26 35 25 35 23 38 23 38 21 39 20 41 17 41 17 42 14 42 13 43 12 44 9 44 8 44 5 44 5 45 2 44 1 43-2 44-3 43-5 42-6 42-8 41-11 40-12 39-13 37-16 38-17 35-18 34-20 33-22 31-23 29-24 27-26 26-26 24-29 22-29 21-30 18-31 15-31 15-34 11 23-45 20-45 18-48 16-49 13-51 12-52 9-53 6-53 5-54 2-56v-55l-3-56-5-56-7-57-10-55-13-56-13-56-17-55-18-54-22-53-22-53-25-51-26-50-29-49-30-47-33-45-34-44-34-42-37-40-38-37-40-35-40-34-42-31-42-28-43-26-45-24-1 1z"
           id="path137"
           stroke-width="35"
           stroke="#43729d"
           fill="none" />
      </g>
      <g
         class="com.sun.star.drawing.CustomShape"
         id="g139">
        <path
           d="M7992 3182l34-10 34-7 34-6 35-2 36-1 36 2 35 3 36 6 36 9 36 11 35 12 35 14 35 17 35 20 34 20 33 23 32 25 32 26 31 28 30 30 29 32 27 33 26 35 25 35 23 38 23 38 21 39 20 41 17 41 17 42 14 42 13 43 12 44 9 44 8 44 5 44 5 45 2 44 1 43-2 44-3 43-5 42-6 42-8 41-11 40-12 39-13 37-16 38-17 35-18 34-20 33-22 31-23 29-24 27-26 26-26 24-29 22-29 21-30 18-31 15-31 15-34 11 23-45 20-45 18-48 16-49 13-51 12-52 9-53 6-53 5-54 2-56v-55l-3-56-5-56-7-57-10-55-13-56-13-56-17-55-18-54-22-53-22-53-25-51-26-50-29-49-30-47-33-45-34-44-34-42-37-40-38-37-40-35-40-34-42-31-42-28-43-26-45-24-1 1zm1199 1485zM7992 3182z"
           id="path141"
           fill="#a7c9e8" />
        <path
           d="M7992 3182l34-10 34-7 34-6 35-2 36-1 36 2 35 3 36 6 36 9 36 11 35 12 35 14 35 17 35 20 34 20 33 23 32 25 32 26 31 28 30 30 29 32 27 33 26 35 25 35 23 38 23 38 21 39 20 41 17 41 17 42 14 42 13 43 12 44 9 44 8 44 5 44 5 45 2 44 1 43-2 44-3 43-5 42-6 42-8 41-11 40-12 39-13 37-16 38-17 35-18 34-20 33-22 31-23 29-24 27-26 26-26 24-29 22-29 21-30 18-31 15-31 15-34 11 23-45 20-45 18-48 16-49 13-51 12-52 9-53 6-53 5-54 2-56v-55l-3-56-5-56-7-57-10-55-13-56-13-56-17-55-18-54-22-53-22-53-25-51-26-50-29-49-30-47-33-45-34-44-34-42-37-40-38-37-40-35-40-34-42-31-42-28-43-26-45-24-1 1z"
           id="path143"
           stroke-width="35"
           stroke="#43729d"
           fill="none" />
      </g>
      <g
         class="com.sun.star.drawing.CustomShape"
         id="g145">
        <path
           d="M8867 2855l34-10 34-7 34-6 35-2 36-1 36 2 35 3 36 6 36 9 36 11 35 12 35 14 35 17 35 20 34 20 33 23 32 25 32 26 31 28 30 30 29 32 27 33 26 35 25 35 23 38 23 38 21 39 20 41 17 41 17 42 14 42 13 43 12 44 9 44 8 44 5 44 5 45 2 44 1 43-2 44-3 43-5 42-6 42-8 41-11 40-12 39-13 37-16 38-17 35-18 34-20 33-22 31-23 29-24 27-26 26-26 24-29 22-29 21-30 18-31 15-31 15-34 11 23-45 20-45 18-48 16-49 13-51 12-52 9-53 6-53 5-54 2-56v-55l-3-56-5-56-7-57-10-55-13-56-13-56-17-55-18-54-22-53-22-53-25-51-26-50-29-49-30-47-33-45-34-44-34-42-37-40-38-37-40-35-40-34-42-31-42-28-43-26-45-24-1 1zm1199 1485zM8867 2855z"
           id="path147"
           fill="#a7c9e8" />
        <path
           d="M8867 2855l34-10 34-7 34-6 35-2 36-1 36 2 35 3 36 6 36 9 36 11 35 12 35 14 35 17 35 20 34 20 33 23 32 25 32 26 31 28 30 30 29 32 27 33 26 35 25 35 23 38 23 38 21 39 20 41 17 41 17 42 14 42 13 43 12 44 9 44 8 44 5 44 5 45 2 44 1 43-2 44-3 43-5 42-6 42-8 41-11 40-12 39-13 37-16 38-17 35-18 34-20 33-22 31-23 29-24 27-26 26-26 24-29 22-29 21-30 18-31 15-31 15-34 11 23-45 20-45 18-48 16-49 13-51 12-52 9-53 6-53 5-54 2-56v-55l-3-56-5-56-7-57-10-55-13-56-13-56-17-55-18-54-22-53-22-53-25-51-26-50-29-49-30-47-33-45-34-44-34-42-37-40-38-37-40-35-40-34-42-31-42-28-43-26-45-24-1 1z"
           id="path149"
           stroke-width="35"
           stroke="#43729d"
           fill="none" />
      </g>
      <g
         class="com.sun.star.drawing.CustomShape"
         id="g151">
        <path
           d="M9743 2528l34-10 34-7 34-6 35-2 36-1 36 2 35 3 36 6 36 9 36 11 35 12 35 14 35 17 35 20 34 20 33 23 32 25 32 26 31 28 30 30 29 32 27 33 26 35 25 35 23 38 23 38 21 39 20 41 17 41 17 42 14 42 13 43 12 44 9 44 8 44 5 44 5 45 2 44 1 43-2 44-3 43-5 42-6 42-8 41-11 40-12 39-13 37-16 38-17 35-18 34-20 33-22 31-23 29-24 27-26 26-26 24-29 22-29 21-30 18-31 15-31 15-34 11 23-45 20-45 18-48 16-49 13-51 12-52 9-53 6-53 5-54 2-56v-55l-3-56-5-56-7-57-10-55-13-56-13-56-17-55-18-54-22-53-22-53-25-51-26-50-29-49-30-47-33-45-34-44-34-42-37-40-38-37-40-35-40-34-42-31-42-28-43-26-45-24-1 1zm1199 1485zM9743 2528z"
           id="path153"
           fill="#a7c9e8" />
        <path
           d="M9743 2528l34-10 34-7 34-6 35-2 36-1 36 2 35 3 36 6 36 9 36 11 35 12 35 14 35 17 35 20 34 20 33 23 32 25 32 26 31 28 30 30 29 32 27 33 26 35 25 35 23 38 23 38 21 39 20 41 17 41 17 42 14 42 13 43 12 44 9 44 8 44 5 44 5 45 2 44 1 43-2 44-3 43-5 42-6 42-8 41-11 40-12 39-13 37-16 38-17 35-18 34-20 33-22 31-23 29-24 27-26 26-26 24-29 22-29 21-30 18-31 15-31 15-34 11 23-45 20-45 18-48 16-49 13-51 12-52 9-53 6-53 5-54 2-56v-55l-3-56-5-56-7-57-10-55-13-56-13-56-17-55-18-54-22-53-22-53-25-51-26-50-29-49-30-47-33-45-34-44-34-42-37-40-38-37-40-35-40-34-42-31-42-28-43-26-45-24-1 1z"
           id="path155"
           stroke-width="35"
           stroke="#43729d"
           fill="none" />
      </g>
      <g
         class="com.sun.star.drawing.CustomShape"
         id="g157">
        <path
           d="M10618 2202l34-10 34-7 34-6 35-2 36-1 36 2 35 3 36 6 36 9 36 11 35 12 35 14 35 17 35 20 34 20 33 23 32 25 32 26 31 28 30 30 29 32 27 33 26 35 25 35 23 38 23 38 21 39 20 41 17 41 17 42 14 42 13 43 12 44 9 44 8 44 5 44 5 45 2 44 1 43-2 44-3 43-5 42-6 42-8 41-11 40-12 39-13 37-16 38-17 35-18 34-20 33-22 31-23 29-24 27-26 26-26 24-29 22-29 21-30 18-31 15-31 15-34 11 23-45 20-45 18-48 16-49 13-51 12-52 9-53 6-53 5-54 2-56v-55l-3-56-5-56-7-57-10-55-13-56-13-56-17-55-18-54-22-53-22-53-25-51-26-50-29-49-30-47-33-45-34-44-34-42-37-40-38-37-40-35-40-34-42-31-42-28-43-26-45-24-1 1zm1199 1485zm-1199-1485z"
           id="path159"
           fill="#a7c9e8" />
        <path
           d="M10618 2202l34-10 34-7 34-6 35-2 36-1 36 2 35 3 36 6 36 9 36 11 35 12 35 14 35 17 35 20 34 20 33 23 32 25 32 26 31 28 30 30 29 32 27 33 26 35 25 35 23 38 23 38 21 39 20 41 17 41 17 42 14 42 13 43 12 44 9 44 8 44 5 44 5 45 2 44 1 43-2 44-3 43-5 42-6 42-8 41-11 40-12 39-13 37-16 38-17 35-18 34-20 33-22 31-23 29-24 27-26 26-26 24-29 22-29 21-30 18-31 15-31 15-34 11 23-45 20-45 18-48 16-49 13-51 12-52 9-53 6-53 5-54 2-56v-55l-3-56-5-56-7-57-10-55-13-56-13-56-17-55-18-54-22-53-22-53-25-51-26-50-29-49-30-47-33-45-34-44-34-42-37-40-38-37-40-35-40-34-42-31-42-28-43-26-45-24-1 1z"
           id="path161"
           stroke-width="35"
           stroke="#43729d"
           fill="none" />
      </g>
      <g
         class="com.sun.star.drawing.CustomShape"
         id="g163">
        <path
           d="M11493 1875l34-10 34-7 34-6 35-2 36-1 36 2 35 3 36 6 36 9 36 11 35 12 35 14 35 17 35 20 34 20 33 23 32 25 32 26 31 28 30 30 29 32 27 33 26 35 25 35 23 38 23 38 21 39 20 41 17 41 17 42 14 42 13 43 12 44 9 44 8 44 5 44 5 45 2 44 1 43-2 44-3 43-5 42-6 42-8 41-11 40-12 39-13 37-16 38-17 35-18 34-20 33-22 31-23 29-24 27-26 26-26 24-29 22-29 21-30 18-31 15-31 15-34 11 23-45 20-45 18-48 16-49 13-51 12-52 9-53 6-53 5-54 2-56v-55l-3-56-5-56-7-57-10-55-13-56-13-56-17-55-18-54-22-53-22-53-25-51-26-50-29-49-30-47-33-45-34-44-34-42-37-40-38-37-40-35-40-34-42-31-42-28-43-26-45-24-1 1zm1199 1485zm-1199-1485z"
           id="path165"
           fill="#a7c9e8" />
        <path
           d="M11493 1875l34-10 34-7 34-6 35-2 36-1 36 2 35 3 36 6 36 9 36 11 35 12 35 14 35 17 35 20 34 20 33 23 32 25 32 26 31 28 30 30 29 32 27 33 26 35 25 35 23 38 23 38 21 39 20 41 17 41 17 42 14 42 13 43 12 44 9 44 8 44 5 44 5 45 2 44 1 43-2 44-3 43-5 42-6 42-8 41-11 40-12 39-13 37-16 38-17 35-18 34-20 33-22 31-23 29-24 27-26 26-26 24-29 22-29 21-30 18-31 15-31 15-34 11 23-45 20-45 18-48 16-49 13-51 12-52 9-53 6-53 5-54 2-56v-55l-3-56-5-56-7-57-10-55-13-56-13-56-17-55-18-54-22-53-22-53-25-51-26-50-29-49-30-47-33-45-34-44-34-42-37-40-38-37-40-35-40-34-42-31-42-28-43-26-45-24-1 1z"
           id="path167"
           stroke-width="35"
           stroke="#43729d"
           fill="none" />
      </g>
      <g
         class="com.sun.star.drawing.CustomShape"
         id="g169">
        <path
           d="M5548 5828l35 1 34 4 35 5 34 8 34 10 34 13 32 14 33 17 31 19 31 21 30 23 29 24 28 27 27 29 26 30 25 32 23 33 22 35 21 36 19 38 18 39 16 40 14 41 13 41 11 43 10 43 8 44 6 45 4 44 3 45 1 45-1 45-2 45-5 45-6 44-8 44-9 44-12 42-12 42-15 41-16 40-18 39-19 38-20 36-22 35-24 33-24 32-26 31-27 28-28 27-29 25-30 23-31 21-31 18-33 17-32 15-34 12-34 11-34 8-35 5-34 4-35 1 35-36 33-37 32-40 30-42 28-44 27-46 25-48 22-49 21-50 19-52 17-53 14-54 13-55 10-56 8-56 5-57 4-57 1-58-1-57-4-57-5-57-8-56-10-56-13-55-14-54-17-53-19-52-20-51-23-49-25-47-27-46-28-44-30-42-32-40-33-38-35-36h-1zm687 1780zm-687-1780z"
           id="path171"
           fill="#a7c9e8" />
        <path
           d="M5548 5828l35 1 34 4 35 5 34 8 34 10 34 13 32 14 33 17 31 19 31 21 30 23 29 24 28 27 27 29 26 30 25 32 23 33 22 35 21 36 19 38 18 39 16 40 14 41 13 41 11 43 10 43 8 44 6 45 4 44 3 45 1 45-1 45-2 45-5 45-6 44-8 44-9 44-12 42-12 42-15 41-16 40-18 39-19 38-20 36-22 35-24 33-24 32-26 31-27 28-28 27-29 25-30 23-31 21-31 18-33 17-32 15-34 12-34 11-34 8-35 5-34 4-35 1 35-36 33-37 32-40 30-42 28-44 27-46 25-48 22-49 21-50 19-52 17-53 14-54 13-55 10-56 8-56 5-57 4-57 1-58-1-57-4-57-5-57-8-56-10-56-13-55-14-54-17-53-19-52-20-51-23-49-25-47-27-46-28-44-30-42-32-40-33-38-35-36h-1z"
           id="path173"
           stroke-width="35"
           stroke="#43729d"
           fill="none" />
      </g>
      <g
         class="com.sun.star.drawing.CustomShape"
         id="g175">
        <path
           d="M6519 5828l35 1 34 4 35 5 34 8 34 10 34 13 32 14 33 17 31 19 31 21 30 23 29 24 28 27 27 29 26 30 25 32 23 33 22 35 21 36 19 38 18 39 16 40 14 41 13 41 11 43 10 43 8 44 6 45 4 44 3 45 1 45-1 45-2 45-5 45-6 44-8 44-9 44-12 42-12 42-15 41-16 40-18 39-19 38-20 36-22 35-24 33-24 32-26 31-27 28-28 27-29 25-30 23-31 21-31 18-33 17-32 15-34 12-34 11-34 8-35 5-34 4-35 1 35-36 33-37 32-40 30-42 28-44 27-46 25-48 22-49 21-50 19-52 17-53 14-54 13-55 10-56 8-56 5-57 4-57 1-58-1-57-4-57-5-57-8-56-10-56-13-55-14-54-17-53-19-52-20-51-23-49-25-47-27-46-28-44-30-42-32-40-33-38-35-36h-1zm687 1780zm-687-1780z"
           id="path177"
           fill="#a7c9e8" />
        <path
           d="M6519 5828l35 1 34 4 35 5 34 8 34 10 34 13 32 14 33 17 31 19 31 21 30 23 29 24 28 27 27 29 26 30 25 32 23 33 22 35 21 36 19 38 18 39 16 40 14 41 13 41 11 43 10 43 8 44 6 45 4 44 3 45 1 45-1 45-2 45-5 45-6 44-8 44-9 44-12 42-12 42-15 41-16 40-18 39-19 38-20 36-22 35-24 33-24 32-26 31-27 28-28 27-29 25-30 23-31 21-31 18-33 17-32 15-34 12-34 11-34 8-35 5-34 4-35 1 35-36 33-37 32-40 30-42 28-44 27-46 25-48 22-49 21-50 19-52 17-53 14-54 13-55 10-56 8-56 5-57 4-57 1-58-1-57-4-57-5-57-8-56-10-56-13-55-14-54-17-53-19-52-20-51-23-49-25-47-27-46-28-44-30-42-32-40-33-38-35-36h-1z"
           id="path179"
           stroke-width="35"
           stroke="#43729d"
           fill="none" />
      </g>
      <g
         class="com.sun.star.drawing.CustomShape"
         id="g181">
        <path
           d="M7491 5828l35 1 34 4 35 5 34 8 34 10 34 13 32 14 33 17 31 19 31 21 30 23 29 24 28 27 27 29 26 30 25 32 23 33 22 35 21 36 19 38 18 39 16 40 14 41 13 41 11 43 10 43 8 44 6 45 4 44 3 45 1 45-1 45-2 45-5 45-6 44-8 44-9 44-12 42-12 42-15 41-16 40-18 39-19 38-20 36-22 35-24 33-24 32-26 31-27 28-28 27-29 25-30 23-31 21-31 18-33 17-32 15-34 12-34 11-34 8-35 5-34 4-35 1 35-36 33-37 32-40 30-42 28-44 27-46 25-48 22-49 21-50 19-52 17-53 14-54 13-55 10-56 8-56 5-57 4-57 1-58-1-57-4-57-5-57-8-56-10-56-13-55-14-54-17-53-19-52-20-51-23-49-25-47-27-46-28-44-30-42-32-40-33-38-35-36h-1zm687 1780zm-687-1780z"
           id="path183"
           fill="#a7c9e8" />
        <path
           d="M7491 5828l35 1 34 4 35 5 34 8 34 10 34 13 32 14 33 17 31 19 31 21 30 23 29 24 28 27 27 29 26 30 25 32 23 33 22 35 21 36 19 38 18 39 16 40 14 41 13 41 11 43 10 43 8 44 6 45 4 44 3 45 1 45-1 45-2 45-5 45-6 44-8 44-9 44-12 42-12 42-15 41-16 40-18 39-19 38-20 36-22 35-24 33-24 32-26 31-27 28-28 27-29 25-30 23-31 21-31 18-33 17-32 15-34 12-34 11-34 8-35 5-34 4-35 1 35-36 33-37 32-40 30-42 28-44 27-46 25-48 22-49 21-50 19-52 17-53 14-54 13-55 10-56 8-56 5-57 4-57 1-58-1-57-4-57-5-57-8-56-10-56-13-55-14-54-17-53-19-52-20-51-23-49-25-47-27-46-28-44-30-42-32-40-33-38-35-36h-1z"
           id="path185"
           stroke-width="35"
           stroke="#43729d"
           fill="none" />
      </g>
      <g
         class="com.sun.star.drawing.CustomShape"
         id="g187">
        <path
           d="M8462 5828l35 1 34 4 35 5 34 8 34 10 34 13 32 14 33 17 31 19 31 21 30 23 29 24 28 27 27 29 26 30 25 32 23 33 22 35 21 36 19 38 18 39 16 40 14 41 13 41 11 43 10 43 8 44 6 45 4 44 3 45 1 45-1 45-2 45-5 45-6 44-8 44-9 44-12 42-12 42-15 41-16 40-18 39-19 38-20 36-22 35-24 33-24 32-26 31-27 28-28 27-29 25-30 23-31 21-31 18-33 17-32 15-34 12-34 11-34 8-35 5-34 4-35 1 35-36 33-37 32-40 30-42 28-44 27-46 25-48 22-49 21-50 19-52 17-53 14-54 13-55 10-56 8-56 5-57 4-57 1-58-1-57-4-57-5-57-8-56-10-56-13-55-14-54-17-53-19-52-20-51-23-49-25-47-27-46-28-44-30-42-32-40-33-38-35-36h-1zm687 1780zm-687-1780z"
           id="path189"
           fill="#a7c9e8" />
        <path
           d="M8462 5828l35 1 34 4 35 5 34 8 34 10 34 13 32 14 33 17 31 19 31 21 30 23 29 24 28 27 27 29 26 30 25 32 23 33 22 35 21 36 19 38 18 39 16 40 14 41 13 41 11 43 10 43 8 44 6 45 4 44 3 45 1 45-1 45-2 45-5 45-6 44-8 44-9 44-12 42-12 42-15 41-16 40-18 39-19 38-20 36-22 35-24 33-24 32-26 31-27 28-28 27-29 25-30 23-31 21-31 18-33 17-32 15-34 12-34 11-34 8-35 5-34 4-35 1 35-36 33-37 32-40 30-42 28-44 27-46 25-48 22-49 21-50 19-52 17-53 14-54 13-55 10-56 8-56 5-57 4-57 1-58-1-57-4-57-5-57-8-56-10-56-13-55-14-54-17-53-19-52-20-51-23-49-25-47-27-46-28-44-30-42-32-40-33-38-35-36h-1z"
           id="path191"
           stroke-width="35"
           stroke="#43729d"
           fill="none" />
      </g>
      <g
         class="com.sun.star.drawing.CustomShape"
         id="g193">
        <path
           d="M9434 5828l35 1 34 4 35 5 34 8 34 10 34 13 32 14 33 17 31 19 31 21 30 23 29 24 28 27 27 29 26 30 25 32 23 33 22 35 21 36 19 38 18 39 16 40 14 41 13 41 11 43 10 43 8 44 6 45 4 44 3 45 1 45-1 45-2 45-5 45-6 44-8 44-9 44-12 42-12 42-15 41-16 40-18 39-19 38-20 36-22 35-24 33-24 32-26 31-27 28-28 27-29 25-30 23-31 21-31 18-33 17-32 15-34 12-34 11-34 8-35 5-34 4-35 1 35-36 33-37 32-40 30-42 28-44 27-46 25-48 22-49 21-50 19-52 17-53 14-54 13-55 10-56 8-56 5-57 4-57 1-58-1-57-4-57-5-57-8-56-10-56-13-55-14-54-17-53-19-52-20-51-23-49-25-47-27-46-28-44-30-42-32-40-33-38-35-36h-1zm687 1780zm-687-1780z"
           id="path195"
           fill="#a7c9e8" />
        <path
           d="M9434 5828l35 1 34 4 35 5 34 8 34 10 34 13 32 14 33 17 31 19 31 21 30 23 29 24 28 27 27 29 26 30 25 32 23 33 22 35 21 36 19 38 18 39 16 40 14 41 13 41 11 43 10 43 8 44 6 45 4 44 3 45 1 45-1 45-2 45-5 45-6 44-8 44-9 44-12 42-12 42-15 41-16 40-18 39-19 38-20 36-22 35-24 33-24 32-26 31-27 28-28 27-29 25-30 23-31 21-31 18-33 17-32 15-34 12-34 11-34 8-35 5-34 4-35 1 35-36 33-37 32-40 30-42 28-44 27-46 25-48 22-49 21-50 19-52 17-53 14-54 13-55 10-56 8-56 5-57 4-57 1-58-1-57-4-57-5-57-8-56-10-56-13-55-14-54-17-53-19-52-20-51-23-49-25-47-27-46-28-44-30-42-32-40-33-38-35-36h-1z"
           id="path197"
           stroke-width="35"
           stroke="#43729d"
           fill="none" />
      </g>
      <g
         class="com.sun.star.drawing.CustomShape"
         id="g199">
        <path
           d="M10405 5828l35 1 34 4 35 5 34 8 34 10 34 13 32 14 33 17 31 19 31 21 30 23 29 24 28 27 27 29 26 30 25 32 23 33 22 35 21 36 19 38 18 39 16 40 14 41 13 41 11 43 10 43 8 44 6 45 4 44 3 45 1 45-1 45-2 45-5 45-6 44-8 44-9 44-12 42-12 42-15 41-16 40-18 39-19 38-20 36-22 35-24 33-24 32-26 31-27 28-28 27-29 25-30 23-31 21-31 18-33 17-32 15-34 12-34 11-34 8-35 5-34 4-35 1 35-36 33-37 32-40 30-42 28-44 27-46 25-48 22-49 21-50 19-52 17-53 14-54 13-55 10-56 8-56 5-57 4-57 1-58-1-57-4-57-5-57-8-56-10-56-13-55-14-54-17-53-19-52-20-51-23-49-25-47-27-46-28-44-30-42-32-40-33-38-35-36h-1zm687 1780zm-687-1780z"
           id="path201"
           fill="#a7c9e8" />
        <path
           d="M10405 5828l35 1 34 4 35 5 34 8 34 10 34 13 32 14 33 17 31 19 31 21 30 23 29 24 28 27 27 29 26 30 25 32 23 33 22 35 21 36 19 38 18 39 16 40 14 41 13 41 11 43 10 43 8 44 6 45 4 44 3 45 1 45-1 45-2 45-5 45-6 44-8 44-9 44-12 42-12 42-15 41-16 40-18 39-19 38-20 36-22 35-24 33-24 32-26 31-27 28-28 27-29 25-30 23-31 21-31 18-33 17-32 15-34 12-34 11-34 8-35 5-34 4-35 1 35-36 33-37 32-40 30-42 28-44 27-46 25-48 22-49 21-50 19-52 17-53 14-54 13-55 10-56 8-56 5-57 4-57 1-58-1-57-4-57-5-57-8-56-10-56-13-55-14-54-17-53-19-52-20-51-23-49-25-47-27-46-28-44-30-42-32-40-33-38-35-36h-1z"
           id="path203"
           stroke-width="35"
           stroke="#43729d"
           fill="none" />
      </g>
      <g
         class="com.sun.star.drawing.CustomShape"
         id="g205">
        <path
           d="M11377 5828l35 1 34 4 35 5 34 8 34 10 34 13 32 14 33 17 31 19 31 21 30 23 29 24 28 27 27 29 26 30 25 32 23 33 22 35 21 36 19 38 18 39 16 40 14 41 13 41 11 43 10 43 8 44 6 45 4 44 3 45 1 45-1 45-2 45-5 45-6 44-8 44-9 44-12 42-12 42-15 41-16 40-18 39-19 38-20 36-22 35-24 33-24 32-26 31-27 28-28 27-29 25-30 23-31 21-31 18-33 17-32 15-34 12-34 11-34 8-35 5-34 4-35 1 35-36 33-37 32-40 30-42 28-44 27-46 25-48 22-49 21-50 19-52 17-53 14-54 13-55 10-56 8-56 5-57 4-57 1-58-1-57-4-57-5-57-8-56-10-56-13-55-14-54-17-53-19-52-20-51-23-49-25-47-27-46-28-44-30-42-32-40-33-38-35-36h-1zm687 1780zm-687-1780z"
           id="path207"
           fill="#a7c9e8" />
        <path
           d="M11377 5828l35 1 34 4 35 5 34 8 34 10 34 13 32 14 33 17 31 19 31 21 30 23 29 24 28 27 27 29 26 30 25 32 23 33 22 35 21 36 19 38 18 39 16 40 14 41 13 41 11 43 10 43 8 44 6 45 4 44 3 45 1 45-1 45-2 45-5 45-6 44-8 44-9 44-12 42-12 42-15 41-16 40-18 39-19 38-20 36-22 35-24 33-24 32-26 31-27 28-28 27-29 25-30 23-31 21-31 18-33 17-32 15-34 12-34 11-34 8-35 5-34 4-35 1 35-36 33-37 32-40 30-42 28-44 27-46 25-48 22-49 21-50 19-52 17-53 14-54 13-55 10-56 8-56 5-57 4-57 1-58-1-57-4-57-5-57-8-56-10-56-13-55-14-54-17-53-19-52-20-51-23-49-25-47-27-46-28-44-30-42-32-40-33-38-35-36h-1z"
           id="path209"
           stroke-width="35"
           stroke="#43729d"
           fill="none" />
      </g>
      <g
         class="com.sun.star.drawing.CustomShape"
         id="g211">
        <path
           d="M12349 5828l35 1 34 4 35 5 34 8 34 10 34 13 32 14 33 17 31 19 31 21 30 23 29 24 28 27 27 29 26 30 25 32 23 33 22 35 21 36 19 38 18 39 16 40 14 41 13 41 11 43 10 43 8 44 6 45 4 44 3 45 1 45-1 45-2 45-5 45-6 44-8 44-9 44-12 42-12 42-15 41-16 40-18 39-19 38-20 36-22 35-24 33-24 32-26 31-27 28-28 27-29 25-30 23-31 21-31 18-33 17-32 15-34 12-34 11-34 8-35 5-34 4-35 1 35-36 33-37 32-40 30-42 28-44 27-46 25-48 22-49 21-50 19-52 17-53 14-54 13-55 10-56 8-56 5-57 4-57 1-58-1-57-4-57-5-57-8-56-10-56-13-55-14-54-17-53-19-52-20-51-23-49-25-47-27-46-28-44-30-42-32-40-33-38-35-36h-1zm687 1780zm-687-1780z"
           id="path213"
           fill="#a7c9e8" />
        <path
           d="M12349 5828l35 1 34 4 35 5 34 8 34 10 34 13 32 14 33 17 31 19 31 21 30 23 29 24 28 27 27 29 26 30 25 32 23 33 22 35 21 36 19 38 18 39 16 40 14 41 13 41 11 43 10 43 8 44 6 45 4 44 3 45 1 45-1 45-2 45-5 45-6 44-8 44-9 44-12 42-12 42-15 41-16 40-18 39-19 38-20 36-22 35-24 33-24 32-26 31-27 28-28 27-29 25-30 23-31 21-31 18-33 17-32 15-34 12-34 11-34 8-35 5-34 4-35 1 35-36 33-37 32-40 30-42 28-44 27-46 25-48 22-49 21-50 19-52 17-53 14-54 13-55 10-56 8-56 5-57 4-57 1-58-1-57-4-57-5-57-8-56-10-56-13-55-14-54-17-53-19-52-20-51-23-49-25-47-27-46-28-44-30-42-32-40-33-38-35-36h-1z"
           id="path215"
           stroke-width="35"
           stroke="#43729d"
           fill="none" />
      </g>
      <g
         class="com.sun.star.drawing.CustomShape"
         id="g217"
         transform="matrix(1.1115905,0,0,1,-2130.9227,0)">
        <path
           d="m 12691,9061 h 4460 v 4037 H 12691 V 9061 z m 0,0 z m 4460,4037 z"
           id="path219"
           inkscape:connector-curvature="0"
           style="fill:#a7c9e8" />
        <path
           d="m 12691,9061 h 4460 v 4037 H 12691 V 9061 z"
           id="path221"
           inkscape:connector-curvature="0"
           style="fill:none;stroke:#43729d;stroke-width:35" />
      </g>
      <g
         class="com.sun.star.drawing.CustomShape"
         id="g235">
        <path
           d="M22231 9061h2542v4037h-2542V9061zm317 1531v377h129l39-43h37v576h1297v-199h205l111 110h89v-702h-89l-77 76h-239v-76l-76-79h-1258l-39-40h-129zm-317-1531zm2542 4037z"
           id="path237"
           fill="#fff" />
        <path
           d="M22548 10592v377h129l39-43h37v576h1297v-199h205l111 110h89v-702h-89l-77 76h-239v-76l-76-79h-1258l-39-40h-129zm-317-1531zm2542 4037z"
           id="path239"
           fill="#aaa" />
        <path
           d="M22548 10592h129l39 40h1258l76 79v76h239l77-76h89v702h-89l-111-110h-205v199h-1297v-576h-37l-39 43h-129v-377z"
           id="path241"
           stroke-width="35"
           stroke="#ed7d31"
           fill="none" />
        <path
           d="M22231 9061h2542v4037h-2542V9061z"
           id="path243"
           stroke-width="35"
           stroke="#ed7d31"
           fill="none" />
      </g>
      <g
         class="com.sun.star.drawing.CustomShape"
         id="g267">
        <path
           d="M5018 7608l34 7 33 10 34 12 32 14 31 16 31 19 29 20 29 23 27 24 27 26 25 28 24 29 23 32 21 34 20 34 19 36 16 37 15 38 14 39 12 41 10 42 9 42 6 43 5 43 3 44 2 44v45l-3 45-4 44-5 45-8 44-9 44-10 44-14 44-14 42-16 41-16 42-20 39-20 39-22 38-23 36-25 35-26 34-26 32-28 30-30 28-29 27-31 26-32 22-33 21-33 20-33 17-35 15-34 12-35 10-34 9-36 6-35 4-35 2-36-2-34-2-34-6 41-29 39-30 39-33 37-36 36-38 35-40 33-43 31-44 30-45 28-48 26-49 24-50 23-52 20-53 18-54 16-55 14-55 12-57 10-56 6-57 6-57 2-56 1-57-3-57-4-55-7-55-9-55-10-54-13-52-16-51-18-50-20-49-22-47-24-45-25-43-28-42h-1zm347 1876zm-347-1876z"
           id="path269"
           fill="#a7c9e8" />
        <path
           d="M5018 7608l34 7 33 10 34 12 32 14 31 16 31 19 29 20 29 23 27 24 27 26 25 28 24 29 23 32 21 34 20 34 19 36 16 37 15 38 14 39 12 41 10 42 9 42 6 43 5 43 3 44 2 44v45l-3 45-4 44-5 45-8 44-9 44-10 44-14 44-14 42-16 41-16 42-20 39-20 39-22 38-23 36-25 35-26 34-26 32-28 30-30 28-29 27-31 26-32 22-33 21-33 20-33 17-35 15-34 12-35 10-34 9-36 6-35 4-35 2-36-2-34-2-34-6 41-29 39-30 39-33 37-36 36-38 35-40 33-43 31-44 30-45 28-48 26-49 24-50 23-52 20-53 18-54 16-55 14-55 12-57 10-56 6-57 6-57 2-56 1-57-3-57-4-55-7-55-9-55-10-54-13-52-16-51-18-50-20-49-22-47-24-45-25-43-28-42h-1z"
           id="path271"
           stroke-width="35"
           stroke="#43729d"
           fill="none" />
      </g>
      <g
         class="com.sun.star.drawing.CustomShape"
         id="g273">
        <path
           d="M5869 7849l34 7 33 10 34 12 32 14 31 16 31 19 29 20 29 23 27 24 27 26 25 28 24 29 23 32 21 34 20 34 19 36 16 37 15 38 14 39 12 41 10 42 9 42 6 43 5 43 3 44 2 44v45l-3 45-4 44-5 45-8 44-9 44-10 44-14 44-14 42-16 41-16 42-20 39-20 39-22 38-23 36-25 35-26 34-26 32-28 30-30 28-29 27-31 26-32 22-33 21-33 20-33 17-35 15-34 12-35 10-34 9-36 6-35 4-35 2-36-2-34-2-34-6 41-29 39-30 39-33 37-36 36-38 35-40 33-43 31-44 30-45 28-48 26-49 24-50 23-52 20-53 18-54 16-55 14-55 12-57 10-56 6-57 6-57 2-56 1-57-3-57-4-55-7-55-9-55-10-54-13-52-16-51-18-50-20-49-22-47-24-45-25-43-28-42h-1zm347 1876zm-347-1876z"
           id="path275"
           fill="#a7c9e8" />
        <path
           d="M5869 7849l34 7 33 10 34 12 32 14 31 16 31 19 29 20 29 23 27 24 27 26 25 28 24 29 23 32 21 34 20 34 19 36 16 37 15 38 14 39 12 41 10 42 9 42 6 43 5 43 3 44 2 44v45l-3 45-4 44-5 45-8 44-9 44-10 44-14 44-14 42-16 41-16 42-20 39-20 39-22 38-23 36-25 35-26 34-26 32-28 30-30 28-29 27-31 26-32 22-33 21-33 20-33 17-35 15-34 12-35 10-34 9-36 6-35 4-35 2-36-2-34-2-34-6 41-29 39-30 39-33 37-36 36-38 35-40 33-43 31-44 30-45 28-48 26-49 24-50 23-52 20-53 18-54 16-55 14-55 12-57 10-56 6-57 6-57 2-56 1-57-3-57-4-55-7-55-9-55-10-54-13-52-16-51-18-50-20-49-22-47-24-45-25-43-28-42h-1z"
           id="path277"
           stroke-width="35"
           stroke="#43729d"
           fill="none" />
      </g>
      <g
         class="com.sun.star.drawing.CustomShape"
         id="g279">
        <path
           d="M6719 8091l34 7 33 10 34 12 32 14 31 16 31 19 29 20 29 23 27 24 27 26 25 28 24 29 23 32 21 34 20 34 19 36 16 37 15 38 14 39 12 41 10 42 9 42 6 43 5 43 3 44 2 44v45l-3 45-4 44-5 45-8 44-9 44-10 44-14 44-14 42-16 41-16 42-20 39-20 39-22 38-23 36-25 35-26 34-26 32-28 30-30 28-29 27-31 26-32 22-33 21-33 20-33 17-35 15-34 12-35 10-34 9-36 6-35 4-35 2-36-2-34-2-34-6 41-29 39-30 39-33 37-36 36-38 35-40 33-43 31-44 30-45 28-48 26-49 24-50 23-52 20-53 18-54 16-55 14-55 12-57 10-56 6-57 6-57 2-56 1-57-3-57-4-55-7-55-9-55-10-54-13-52-16-51-18-50-20-49-22-47-24-45-25-43-28-42h-1zm347 1876zm-347-1876z"
           id="path281"
           fill="#a7c9e8" />
        <path
           d="M6719 8091l34 7 33 10 34 12 32 14 31 16 31 19 29 20 29 23 27 24 27 26 25 28 24 29 23 32 21 34 20 34 19 36 16 37 15 38 14 39 12 41 10 42 9 42 6 43 5 43 3 44 2 44v45l-3 45-4 44-5 45-8 44-9 44-10 44-14 44-14 42-16 41-16 42-20 39-20 39-22 38-23 36-25 35-26 34-26 32-28 30-30 28-29 27-31 26-32 22-33 21-33 20-33 17-35 15-34 12-35 10-34 9-36 6-35 4-35 2-36-2-34-2-34-6 41-29 39-30 39-33 37-36 36-38 35-40 33-43 31-44 30-45 28-48 26-49 24-50 23-52 20-53 18-54 16-55 14-55 12-57 10-56 6-57 6-57 2-56 1-57-3-57-4-55-7-55-9-55-10-54-13-52-16-51-18-50-20-49-22-47-24-45-25-43-28-42h-1z"
           id="path283"
           stroke-width="35"
           stroke="#43729d"
           fill="none" />
      </g>
      <g
         class="com.sun.star.drawing.CustomShape"
         id="g285">
        <path
           d="M7570 8333l34 7 33 10 34 12 32 14 31 16 31 19 29 20 29 23 27 24 27 26 25 28 24 29 23 32 21 34 20 34 19 36 16 37 15 38 14 39 12 41 10 42 9 42 6 43 5 43 3 44 2 44v45l-3 45-4 44-5 45-8 44-9 44-10 44-14 44-14 42-16 41-16 42-20 39-20 39-22 38-23 36-25 35-26 34-26 32-28 30-30 28-29 27-31 26-32 22-33 21-33 20-33 17-35 15-34 12-35 10-34 9-36 6-35 4-35 2-36-2-34-2-34-6 41-29 39-30 39-33 37-36 36-38 35-40 33-43 31-44 30-45 28-48 26-49 24-50 23-52 20-53 18-54 16-55 14-55 12-57 10-56 6-57 6-57 2-56 1-57-3-57-4-55-7-55-9-55-10-54-13-52-16-51-18-50-20-49-22-47-24-45-25-43-28-42h-1zm347 1876zm-347-1876z"
           id="path287"
           fill="#a7c9e8" />
        <path
           d="M7570 8333l34 7 33 10 34 12 32 14 31 16 31 19 29 20 29 23 27 24 27 26 25 28 24 29 23 32 21 34 20 34 19 36 16 37 15 38 14 39 12 41 10 42 9 42 6 43 5 43 3 44 2 44v45l-3 45-4 44-5 45-8 44-9 44-10 44-14 44-14 42-16 41-16 42-20 39-20 39-22 38-23 36-25 35-26 34-26 32-28 30-30 28-29 27-31 26-32 22-33 21-33 20-33 17-35 15-34 12-35 10-34 9-36 6-35 4-35 2-36-2-34-2-34-6 41-29 39-30 39-33 37-36 36-38 35-40 33-43 31-44 30-45 28-48 26-49 24-50 23-52 20-53 18-54 16-55 14-55 12-57 10-56 6-57 6-57 2-56 1-57-3-57-4-55-7-55-9-55-10-54-13-52-16-51-18-50-20-49-22-47-24-45-25-43-28-42h-1z"
           id="path289"
           stroke-width="35"
           stroke="#43729d"
           fill="none" />
      </g>
      <g
         class="com.sun.star.drawing.CustomShape"
         id="g291">
        <path
           d="M8420 8574l34 7 33 10 34 12 32 14 31 16 31 19 29 20 29 23 27 24 27 26 25 28 24 29 23 32 21 34 20 34 19 36 16 37 15 38 14 39 12 41 10 42 9 42 6 43 5 43 3 44 2 44v45l-3 45-4 44-5 45-8 44-9 44-10 44-14 44-14 42-16 41-16 42-20 39-20 39-22 38-23 36-25 35-26 34-26 32-28 30-30 28-29 27-31 26-32 22-33 21-33 20-33 17-35 15-34 12-35 10-34 9-36 6-35 4-35 2-36-2-34-2-34-6 41-29 39-30 39-33 37-36 36-38 35-40 33-43 31-44 30-45 28-48 26-49 24-50 23-52 20-53 18-54 16-55 14-55 12-57 10-56 6-57 6-57 2-56 1-57-3-57-4-55-7-55-9-55-10-54-13-52-16-51-18-50-20-49-22-47-24-45-25-43-28-42h-1zm347 1876zm-347-1876z"
           id="path293"
           fill="#a7c9e8" />
        <path
           d="M8420 8574l34 7 33 10 34 12 32 14 31 16 31 19 29 20 29 23 27 24 27 26 25 28 24 29 23 32 21 34 20 34 19 36 16 37 15 38 14 39 12 41 10 42 9 42 6 43 5 43 3 44 2 44v45l-3 45-4 44-5 45-8 44-9 44-10 44-14 44-14 42-16 41-16 42-20 39-20 39-22 38-23 36-25 35-26 34-26 32-28 30-30 28-29 27-31 26-32 22-33 21-33 20-33 17-35 15-34 12-35 10-34 9-36 6-35 4-35 2-36-2-34-2-34-6 41-29 39-30 39-33 37-36 36-38 35-40 33-43 31-44 30-45 28-48 26-49 24-50 23-52 20-53 18-54 16-55 14-55 12-57 10-56 6-57 6-57 2-56 1-57-3-57-4-55-7-55-9-55-10-54-13-52-16-51-18-50-20-49-22-47-24-45-25-43-28-42h-1z"
           id="path295"
           stroke-width="35"
           stroke="#43729d"
           fill="none" />
      </g>
      <g
         class="com.sun.star.drawing.CustomShape"
         id="g297">
        <path
           d="M9271 8816l34 7 33 10 34 12 32 14 31 16 31 19 29 20 29 23 27 24 27 26 25 28 24 29 23 32 21 34 20 34 19 36 16 37 15 38 14 39 12 41 10 42 9 42 6 43 5 43 3 44 2 44v45l-3 45-4 44-5 45-8 44-9 44-10 44-14 44-14 42-16 41-16 42-20 39-20 39-22 38-23 36-25 35-26 34-26 32-28 30-30 28-29 27-31 26-32 22-33 21-33 20-33 17-35 15-34 12-35 10-34 9-36 6-35 4-35 2-36-2-34-2-34-6 41-29 39-30 39-33 37-36 36-38 35-40 33-43 31-44 30-45 28-48 26-49 24-50 23-52 20-53 18-54 16-55 14-55 12-57 10-56 6-57 6-57 2-56 1-57-3-57-4-55-7-55-9-55-10-54-13-52-16-51-18-50-20-49-22-47-24-45-25-43-28-42h-1zm347 1876zm-347-1876z"
           id="path299"
           fill="#a7c9e8" />
        <path
           d="M9271 8816l34 7 33 10 34 12 32 14 31 16 31 19 29 20 29 23 27 24 27 26 25 28 24 29 23 32 21 34 20 34 19 36 16 37 15 38 14 39 12 41 10 42 9 42 6 43 5 43 3 44 2 44v45l-3 45-4 44-5 45-8 44-9 44-10 44-14 44-14 42-16 41-16 42-20 39-20 39-22 38-23 36-25 35-26 34-26 32-28 30-30 28-29 27-31 26-32 22-33 21-33 20-33 17-35 15-34 12-35 10-34 9-36 6-35 4-35 2-36-2-34-2-34-6 41-29 39-30 39-33 37-36 36-38 35-40 33-43 31-44 30-45 28-48 26-49 24-50 23-52 20-53 18-54 16-55 14-55 12-57 10-56 6-57 6-57 2-56 1-57-3-57-4-55-7-55-9-55-10-54-13-52-16-51-18-50-20-49-22-47-24-45-25-43-28-42h-1z"
           id="path301"
           stroke-width="35"
           stroke="#43729d"
           fill="none" />
      </g>
      <g
         class="com.sun.star.drawing.CustomShape"
         id="g303">
        <path
           d="M10121 9058l34 7 33 10 34 12 32 14 31 16 31 19 29 20 29 23 27 24 27 26 25 28 24 29 23 32 21 34 20 34 19 36 16 37 15 38 14 39 12 41 10 42 9 42 6 43 5 43 3 44 2 44v45l-3 45-4 44-5 45-8 44-9 44-10 44-14 44-14 42-16 41-16 42-20 39-20 39-22 38-23 36-25 35-26 34-26 32-28 30-30 28-29 27-31 26-32 22-33 21-33 20-33 17-35 15-34 12-35 10-34 9-36 6-35 4-35 2-36-2-34-2-34-6 41-29 39-30 39-33 37-36 36-38 35-40 33-43 31-44 30-45 28-48 26-49 24-50 23-52 20-53 18-54 16-55 14-55 12-57 10-56 6-57 6-57 2-56 1-57-3-57-4-55-7-55-9-55-10-54-13-52-16-51-18-50-20-49-22-47-24-45-25-43-28-42h-1zm347 1876zm-347-1876z"
           id="path305"
           fill="#a7c9e8" />
        <path
           d="M10121 9058l34 7 33 10 34 12 32 14 31 16 31 19 29 20 29 23 27 24 27 26 25 28 24 29 23 32 21 34 20 34 19 36 16 37 15 38 14 39 12 41 10 42 9 42 6 43 5 43 3 44 2 44v45l-3 45-4 44-5 45-8 44-9 44-10 44-14 44-14 42-16 41-16 42-20 39-20 39-22 38-23 36-25 35-26 34-26 32-28 30-30 28-29 27-31 26-32 22-33 21-33 20-33 17-35 15-34 12-35 10-34 9-36 6-35 4-35 2-36-2-34-2-34-6 41-29 39-30 39-33 37-36 36-38 35-40 33-43 31-44 30-45 28-48 26-49 24-50 23-52 20-53 18-54 16-55 14-55 12-57 10-56 6-57 6-57 2-56 1-57-3-57-4-55-7-55-9-55-10-54-13-52-16-51-18-50-20-49-22-47-24-45-25-43-28-42h-1z"
           id="path307"
           stroke-width="35"
           stroke="#43729d"
           fill="none" />
      </g>
      <g
         class="com.sun.star.drawing.CustomShape"
         id="g309">
        <path
           d="M10972 9299l34 7 33 10 34 12 32 14 31 16 31 19 29 20 29 23 27 24 27 26 25 28 24 29 23 32 21 34 20 34 19 36 16 37 15 38 14 39 12 41 10 42 9 42 6 43 5 43 3 44 2 44v45l-3 45-4 44-5 45-8 44-9 44-10 44-14 44-14 42-16 41-16 42-20 39-20 39-22 38-23 36-25 35-26 34-26 32-28 30-30 28-29 27-31 26-32 22-33 21-33 20-33 17-35 15-34 12-35 10-34 9-36 6-35 4-35 2-36-2-34-2-34-6 41-29 39-30 39-33 37-36 36-38 35-40 33-43 31-44 30-45 28-48 26-49 24-50 23-52 20-53 18-54 16-55 14-55 12-57 10-56 6-57 6-57 2-56 1-57-3-57-4-55-7-55-9-55-10-54-13-52-16-51-18-50-20-49-22-47-24-45-25-43-28-42h-1zm347 1876zm-347-1876z"
           id="path311"
           fill="#a7c9e8" />
        <path
           d="M10972 9299l34 7 33 10 34 12 32 14 31 16 31 19 29 20 29 23 27 24 27 26 25 28 24 29 23 32 21 34 20 34 19 36 16 37 15 38 14 39 12 41 10 42 9 42 6 43 5 43 3 44 2 44v45l-3 45-4 44-5 45-8 44-9 44-10 44-14 44-14 42-16 41-16 42-20 39-20 39-22 38-23 36-25 35-26 34-26 32-28 30-30 28-29 27-31 26-32 22-33 21-33 20-33 17-35 15-34 12-35 10-34 9-36 6-35 4-35 2-36-2-34-2-34-6 41-29 39-30 39-33 37-36 36-38 35-40 33-43 31-44 30-45 28-48 26-49 24-50 23-52 20-53 18-54 16-55 14-55 12-57 10-56 6-57 6-57 2-56 1-57-3-57-4-55-7-55-9-55-10-54-13-52-16-51-18-50-20-49-22-47-24-45-25-43-28-42h-1z"
           id="path313"
           stroke-width="35"
           stroke="#43729d"
           fill="none" />
      </g>
      <g
         class="com.sun.star.drawing.CustomShape"
         id="g321">
        <path
           d="M17606 10462l-6-39-5-39-2-39-1-39 2-39 3-39 6-39 8-38 10-38 12-38 14-36 15-36 18-36 19-34 22-33 23-32 24-31 27-30 28-29 29-27 31-25 31-24 34-22 34-21 35-19 37-17 37-15 38-13 39-12 39-9 39-8 40-6 41-3 40-2h40l41 3 40 4 40 7 39 8 39 10 38 13 38 14h-1l20-25 21-23 22-22 24-22 24-19 26-19 26-18 27-16 29-14 28-13 30-12 30-11 31-8 31-8 31-5 32-4 32-3 32-1 32 1 31 2 32 4 32 5 31 7 31 8 30 10 29 12 29 13 29 14 27 16 27 17h-1l16-21 17-20 18-18 19-18 19-17 21-16 21-15 23-14 22-12 24-12 24-10 25-9 25-8 25-7 26-5 26-4 26-3 27-1h26l26 1 27 3 26 4 26 5 25 7 25 8 25 9 24 10 23 11 23 13 23 14 21 15 21 16 19 17-1-1 23-17 23-16 24-15 25-14 25-13 26-11 27-10 27-9 28-7 28-6 28-4 28-4 29-2h28l29 1 28 2 29 4 28 5 28 7 27 8 27 9 27 10 26 12 25 13 24 14 24 16 23 16 22 18 21 18 20 20 19 21 18 21 17 23 15 23 15 24 13 24 12 26 10 25 9 27 8 26v-1l31 7 30 8 30 9 29 11 29 13 28 14 27 15 27 17 25 17 25 19 23 21 23 21 21 22 20 24 19 24 18 25 16 26 15 27 14 28 12 28 10 29 9 29 8 30 6 30 4 30 3 30 1 31v30l-2 31-4 30-5 30-7 30-8 30-10 29-11 28-13 28-14 27-15 27 28 27 28 29 25 30 24 31 23 33 20 33 19 34 17 35 16 36 13 37 11 38 10 37 7 39 5 38 4 39 1 39-1 39-3 39-4 38-7 39-9 38-11 37-13 37-14 36-17 36-18 34-21 34-22 33-23 31-26 30-26 29-29 28-29 26-31 25-33 23-33 21-35 20-35 18-37 17-37 14-38 13-39 10-39 9-39 7-40 5h-1l-1 33-3 33-5 33-7 32-8 32-9 32-12 31-13 31-15 30-16 29-18 28-19 28-20 26-22 26-23 24-25 23-25 22-27 20-28 20-29 17-29 17-31 15-31 13-32 12-32 10-33 9-34 7-33 6-34 3-35 3h-34l-34-1-34-3-34-5-33-6-33-8-33-10-32-11-32-12h-1l-17 35-18 35-20 33-22 33-24 31-25 30-27 29-28 28-30 26-31 25-32 23-34 21-34 20-36 18-36 16-37 15-38 12-39 11-39 9-39 6-40 5-40 3-40 1-40-1-40-3-40-5-39-7-39-9-38-11-38-13-37-14-37-17-35-18-35-20-33-21-32-24-31-24-30-27-28-27v-1l-44 17-44 15-45 12-45 10-47 8-46 5-47 3-46 1-47-2-46-4-47-6-46-9-45-11-45-13-43-15-44-18-42-20-40-22-40-24-39-26-36-27-36-30-34-31-32-33-30-35v-1l-26 2h-25l-26-1-25-2-26-4-25-5-25-6-25-7-24-8-23-10-23-10-23-12-22-13-21-14-21-15-19-16-19-17-18-18-17-18-16-20-15-20-14-21-12-21-12-22-10-23-10-23-8-24-6-24-6-24-4-24-3-25-2-25v-24l1-25 2-25 4-24 4-25 7-24 7-24 8-23 10-23 11-22 12-22 13-22 15-20 15-20 16-19 18-18 18-18 19-16 20-16v-1l-23-10-23-11-22-12-22-14-20-14-20-16-20-16-18-17-17-19-17-19-15-20-14-20-14-21-12-22-11-23-10-23-8-23-8-24-6-24-5-24-3-25-3-25-1-25v-25l2-24 3-25 4-25 5-24 7-24 7-24 9-23 11-23 11-22 13-22 13-21 15-20 16-20 16-19 18-18 19-17 19-16 21-15 21-14 21-13 23-12 23-11 23-10 24-8 25-7 24-7 25-5 26-3 25-3-64-178zm-454-1192zm5037 3586z"
           id="path323"
           fill="#fff" />
        <path
           d="M17606 10462l-6-39-5-39-2-39-1-39 2-39 3-39 6-39 8-38 10-38 12-38 14-36 15-36 18-36 19-34 22-33 23-32 24-31 27-30 28-29 29-27 31-25 31-24 34-22 34-21 35-19 37-17 37-15 38-13 39-12 39-9 39-8 40-6 41-3 40-2h40l41 3 40 4 40 7 39 8 39 10 38 13 38 14h-1l20-25 21-23 22-22 24-22 24-19 26-19 26-18 27-16 29-14 28-13 30-12 30-11 31-8 31-8 31-5 32-4 32-3 32-1 32 1 31 2 32 4 32 5 31 7 31 8 30 10 29 12 29 13 29 14 27 16 27 17h-1l16-21 17-20 18-18 19-18 19-17 21-16 21-15 23-14 22-12 24-12 24-10 25-9 25-8 25-7 26-5 26-4 26-3 27-1h26l26 1 27 3 26 4 26 5 25 7 25 8 25 9 24 10 23 11 23 13 23 14 21 15 21 16 19 17-1-1 23-17 23-16 24-15 25-14 25-13 26-11 27-10 27-9 28-7 28-6 28-4 28-4 29-2h28l29 1 28 2 29 4 28 5 28 7 27 8 27 9 27 10 26 12 25 13 24 14 24 16 23 16 22 18 21 18 20 20 19 21 18 21 17 23 15 23 15 24 13 24 12 26 10 25 9 27 8 26v-1l31 7 30 8 30 9 29 11 29 13 28 14 27 15 27 17 25 17 25 19 23 21 23 21 21 22 20 24 19 24 18 25 16 26 15 27 14 28 12 28 10 29 9 29 8 30 6 30 4 30 3 30 1 31v30l-2 31-4 30-5 30-7 30-8 30-10 29-11 28-13 28-14 27-15 27 28 27 28 29 25 30 24 31 23 33 20 33 19 34 17 35 16 36 13 37 11 38 10 37 7 39 5 38 4 39 1 39-1 39-3 39-4 38-7 39-9 38-11 37-13 37-14 36-17 36-18 34-21 34-22 33-23 31-26 30-26 29-29 28-29 26-31 25-33 23-33 21-35 20-35 18-37 17-37 14-38 13-39 10-39 9-39 7-40 5h-1l-1 33-3 33-5 33-7 32-8 32-9 32-12 31-13 31-15 30-16 29-18 28-19 28-20 26-22 26-23 24-25 23-25 22-27 20-28 20-29 17-29 17-31 15-31 13-32 12-32 10-33 9-34 7-33 6-34 3-35 3h-34l-34-1-34-3-34-5-33-6-33-8-33-10-32-11-32-12h-1l-17 35-18 35-20 33-22 33-24 31-25 30-27 29-28 28-30 26-31 25-32 23-34 21-34 20-36 18-36 16-37 15-38 12-39 11-39 9-39 6-40 5-40 3-40 1-40-1-40-3-40-5-39-7-39-9-38-11-38-13-37-14-37-17-35-18-35-20-33-21-32-24-31-24-30-27-28-27v-1l-44 17-44 15-45 12-45 10-47 8-46 5-47 3-46 1-47-2-46-4-47-6-46-9-45-11-45-13-43-15-44-18-42-20-40-22-40-24-39-26-36-27-36-30-34-31-32-33-30-35v-1l-26 2h-25l-26-1-25-2-26-4-25-5-25-6-25-7-24-8-23-10-23-10-23-12-22-13-21-14-21-15-19-16-19-17-18-18-17-18-16-20-15-20-14-21-12-21-12-22-10-23-10-23-8-24-6-24-6-24-4-24-3-25-2-25v-24l1-25 2-25 4-24 4-25 7-24 7-24 8-23 10-23 11-22 12-22 13-22 15-20 15-20 16-19 18-18 18-18 19-16 20-16v-1l-23-10-23-11-22-12-22-14-20-14-20-16-20-16-18-17-17-19-17-19-15-20-14-20-14-21-12-22-11-23-10-23-8-23-8-24-6-24-5-24-3-25-3-25-1-25v-25l2-24 3-25 4-25 5-24 7-24 7-24 9-23 11-23 11-22 13-22 13-21 15-20 16-20 16-19 18-18 19-17 19-16 21-15 21-14 21-13 23-12 23-11 23-10 24-8 25-7 24-7 25-5 26-3 25-3-64-178z"
           id="path325"
           stroke-width="35"
           stroke="#000"
           fill="none" />
        <path
           d="M17699 11442v-2l-15 1h-31l-15-1-15-1-15-2-15-2-16-2-14-3-15-4-15-3-15-5-14-4-14-5-15-6M17959 12166v-1l-7 2-6 1-6 2-7 1-6 2-7 1-6 1-6 1-7 2-6 1h-7l-6 1-7 1-7 1h-6M19073 12514l-9-9-9-10-8-9-9-10-8-10-8-10-8-10-7-10-8-10-7-11-7-10-7-11-7-11-7-11-6-11M20513 12154h-1l-2 14-2 15-3 14-3 14-3 14-3 15-3 14-4 14-4 14-5 14-4 13-5 14-5 14-6 13-6 14M21131 11175v-1l33 13 32 13 31 15 31 17 29 18 29 20 27 21 26 23 25 24 24 25 22 26 21 27 19 28 18 30 16 30 15 31 13 31 11 32 9 33 8 33 6 34 4 33 2 34 1 34M22025 10544l-11 16-11 17-12 15-12 16-13 15-13 15-14 14-14 14-15 13-15 13-15 12-16 12-16 12-17 10-17 11M21620 9720h-1l2 10 3 9 2 10 1 9 2 10 2 10 1 9 1 10 1 10 1 9v10l1 10v29M20542 9598h-1l7-10 6-10 7-9 7-10 8-9 7-9 8-9 8-9 8-9 8-8 9-9 8-8 9-8 9-7 9-8M19733 9661h-1l3-10 4-10 3-10 4-9 4-10 4-9 5-10 5-9 4-9 5-9 6-9 5-9 6-9 6-9 6-8M18784 9700l10 4 10 5 10 4 10 5 10 4 10 5 10 5 9 6 10 5 9 5 10 6 9 5 10 6 9 6 9 6M17633 10580l-4-10-4-10-4-10-4-10-4-11-4-10-3-10-3-10-3-11-3-10-3-11-3-10-2-11-3-10-2-11M17152 9270zM22189 12856z"
           id="path327"
           stroke-width="35"
           stroke="#000"
           fill="none" />
      </g>
      <g
         class="com.sun.star.drawing.CustomShape"
         id="g329">
        <path
           d="M17613 11063h159M17931 11063h159M18249 11063h159M18567 11064h159M18885 11064h159M19203 11064h159M19521 11064h159M19839 11064h159M20157 11064h159M20475 11064h159M20793 11064l159 1M21111 11065h159M21429 11065h159"
           id="path331"
           stroke-width="159"
           stroke="#a7c9e8"
           fill="none" />
        <path
           d="M17168 11063l477-238v477l-477-239zM22185 11065l-477 238v-477l477 239z"
           id="path333"
           fill="#a7c9e8" />
      </g>
      <path
         d="M 11745.938,8816.5161 H 25002.484 V 13308.484 H 11745.938 V 8816.5161 z"
         class="com.sun.star.drawing.CustomShape"
         id="path335"
         inkscape:connector-curvature="0"
         style="fill:none;stroke:#43729d;stroke-width:36.03225708" />
      <g
         class="com.sun.star.drawing.CustomShape"
         id="g337"
         transform="matrix(1.1683885,0,0,1,-5823.1176,71.674077)">
        <path
           d="m 29704,9224 h 3583 v 3419 H 29704 V 9224 z m 0,0 z m 3583,3419 z"
           id="path339"
           inkscape:connector-curvature="0"
           style="fill:#a7c9e8" />
        <path
           d="m 29704,9224 h 3583 v 3419 H 29704 V 9224 z"
           id="path341"
           inkscape:connector-curvature="0"
           style="fill:none;stroke:#43729d;stroke-width:35" />
      </g>
      <g
         class="com.sun.star.drawing.CustomShape"
         id="g371"
         transform="matrix(1.2995364,0,0,1.3491287,-8354.3335,-1412.0512)">
        <path
           d="m 25157,2317 h 2716 V 4027 H 25157 V 2317 z m 0,0 z m 2716,1710 z"
           id="path373"
           inkscape:connector-curvature="0"
           style="fill:#a7c9e8" />
        <path
           d="m 25157,2317 h 2716 V 4027 H 25157 V 2317 z"
           id="path375"
           inkscape:connector-curvature="0"
           style="fill:none;stroke:#43729d;stroke-width:35" />
      </g>
      <g
         class="com.sun.star.drawing.CustomShape"
         id="g401">
        <path
           d="M22824 8113l23-57 27-57 29-55 36-52 37-51 42-49 46-46 49-44 52-42 55-39 59-35 62-34 63-31 67-27 70-25 71-22 74-18 76-15 77-13 79-8 79-6 82-3 82 2 83 4 83 8 83 11 83 14 83 17 83 20 83 25 81 26 80 30 79 32 78 35 75 38 75 41 72 43 70 45 68 48 64 50 62 53 60 53 57 56 53 58 49 58 47 61 42 61 40 63 35 63 31 63 28 65 23 65 20 65 15 65 11 64 7 65 3 65-2 63-6 62-10 62-14 61-18 59-44-80-48-79-53-79-58-77-62-75-67-73-71-72-74-69-78-66-83-65-85-60-88-59-92-55-94-53-97-48-97-45-101-41-103-38-102-34-105-30-106-26-105-22-106-18-106-12-105-10-106-5h-103l-103 3-102 7-100 12-98 17-94 20-94 24-90 29-88 32-84 36-1 1zm3596-46zm-3596 46z"
           id="path403"
           fill="#70ad47" />
        <path
           d="M22824 8113l23-57 27-57 29-55 36-52 37-51 42-49 46-46 49-44 52-42 55-39 59-35 62-34 63-31 67-27 70-25 71-22 74-18 76-15 77-13 79-8 79-6 82-3 82 2 83 4 83 8 83 11 83 14 83 17 83 20 83 25 81 26 80 30 79 32 78 35 75 38 75 41 72 43 70 45 68 48 64 50 62 53 60 53 57 56 53 58 49 58 47 61 42 61 40 63 35 63 31 63 28 65 23 65 20 65 15 65 11 64 7 65 3 65-2 63-6 62-10 62-14 61-18 59-44-80-48-79-53-79-58-77-62-75-67-73-71-72-74-69-78-66-83-65-85-60-88-59-92-55-94-53-97-48-97-45-101-41-103-38-102-34-105-30-106-26-105-22-106-18-106-12-105-10-106-5h-103l-103 3-102 7-100 12-98 17-94 20-94 24-90 29-88 32-84 36-1 1z"
           id="path405"
           stroke-width="35"
           stroke="#527f34"
           fill="none" />
      </g>
      <g
         class="com.sun.star.drawing.CustomShape"
         id="g407">
        <path
           d="M23168 7099l23-57 27-57 29-55 36-52 37-51 42-49 46-46 49-44 52-42 55-39 59-35 62-34 63-31 67-27 70-25 71-22 74-18 76-15 77-13 79-8 79-6 82-3 82 2 83 4 83 8 83 11 83 14 83 17 83 20 83 25 81 26 80 30 79 32 78 35 75 38 75 41 72 43 70 45 68 48 64 50 62 53 60 53 57 56 53 58 49 58 47 61 42 61 40 63 35 63 31 63 28 65 23 65 20 65 15 65 11 64 7 65 3 65-2 63-6 62-10 62-14 61-18 59-44-80-48-79-53-79-58-77-62-75-67-73-71-72-74-69-78-66-83-65-85-60-88-59-92-55-94-53-97-48-97-45-101-41-103-38-102-34-105-30-106-26-105-22-106-18-106-12-105-10-106-5h-103l-103 3-102 7-100 12-98 17-94 20-94 24-90 29-88 32-84 36-1 1zm3596-46zm-3596 46z"
           id="path409"
           fill="#70ad47" />
        <path
           d="M23168 7099l23-57 27-57 29-55 36-52 37-51 42-49 46-46 49-44 52-42 55-39 59-35 62-34 63-31 67-27 70-25 71-22 74-18 76-15 77-13 79-8 79-6 82-3 82 2 83 4 83 8 83 11 83 14 83 17 83 20 83 25 81 26 80 30 79 32 78 35 75 38 75 41 72 43 70 45 68 48 64 50 62 53 60 53 57 56 53 58 49 58 47 61 42 61 40 63 35 63 31 63 28 65 23 65 20 65 15 65 11 64 7 65 3 65-2 63-6 62-10 62-14 61-18 59-44-80-48-79-53-79-58-77-62-75-67-73-71-72-74-69-78-66-83-65-85-60-88-59-92-55-94-53-97-48-97-45-101-41-103-38-102-34-105-30-106-26-105-22-106-18-106-12-105-10-106-5h-103l-103 3-102 7-100 12-98 17-94 20-94 24-90 29-88 32-84 36-1 1z"
           id="path411"
           stroke-width="35"
           stroke="#527f34"
           fill="none" />
      </g>
      <g
         class="com.sun.star.drawing.CustomShape"
         id="g413">
        <path
           d="M23512 6084l23-57 27-57 29-55 36-52 37-51 42-49 46-46 49-44 52-42 55-39 59-35 62-34 63-31 67-27 70-25 71-22 74-18 76-15 77-13 79-8 79-6 82-3 82 2 83 4 83 8 83 11 83 14 83 17 83 20 83 25 81 26 80 30 79 32 78 35 75 38 75 41 72 43 70 45 68 48 64 50 62 53 60 53 57 56 53 58 49 58 47 61 42 61 40 63 35 63 31 63 28 65 23 65 20 65 15 65 11 64 7 65 3 65-2 63-6 62-10 62-14 61-18 59-44-80-48-79-53-79-58-77-62-75-67-73-71-72-74-69-78-66-83-65-85-60-88-59-92-55-94-53-97-48-97-45-101-41-103-38-102-34-105-30-106-26-105-22-106-18-106-12-105-10-106-5h-103l-103 3-102 7-100 12-98 17-94 20-94 24-90 29-88 32-84 36-1 1zm3596-46zm-3596 46z"
           id="path415"
           fill="#70ad47" />
        <path
           d="M23512 6084l23-57 27-57 29-55 36-52 37-51 42-49 46-46 49-44 52-42 55-39 59-35 62-34 63-31 67-27 70-25 71-22 74-18 76-15 77-13 79-8 79-6 82-3 82 2 83 4 83 8 83 11 83 14 83 17 83 20 83 25 81 26 80 30 79 32 78 35 75 38 75 41 72 43 70 45 68 48 64 50 62 53 60 53 57 56 53 58 49 58 47 61 42 61 40 63 35 63 31 63 28 65 23 65 20 65 15 65 11 64 7 65 3 65-2 63-6 62-10 62-14 61-18 59-44-80-48-79-53-79-58-77-62-75-67-73-71-72-74-69-78-66-83-65-85-60-88-59-92-55-94-53-97-48-97-45-101-41-103-38-102-34-105-30-106-26-105-22-106-18-106-12-105-10-106-5h-103l-103 3-102 7-100 12-98 17-94 20-94 24-90 29-88 32-84 36-1 1z"
           id="path417"
           stroke-width="35"
           stroke="#527f34"
           fill="none" />
      </g>
      <g
         class="com.sun.star.drawing.CustomShape"
         id="g419">
        <path
           d="M23856 5070l23-57 27-57 29-55 36-52 37-51 42-49 46-46 49-44 52-42 55-39 59-35 62-34 63-31 67-27 70-25 71-22 74-18 76-15 77-13 79-8 79-6 82-3 82 2 83 4 83 8 83 11 83 14 83 17 83 20 83 25 81 26 80 30 79 32 78 35 75 38 75 41 72 43 70 45 68 48 64 50 62 53 60 53 57 56 53 58 49 58 47 61 42 61 40 63 35 63 31 63 28 65 23 65 20 65 15 65 11 64 7 65 3 65-2 63-6 62-10 62-14 61-18 59-44-80-48-79-53-79-58-77-62-75-67-73-71-72-74-69-78-66-83-65-85-60-88-59-92-55-94-53-97-48-97-45-101-41-103-38-102-34-105-30-106-26-105-22-106-18-106-12-105-10-106-5h-103l-103 3-102 7-100 12-98 17-94 20-94 24-90 29-88 32-84 36-1 1zm3596-46zm-3596 46z"
           id="path421"
           fill="#70ad47" />
        <path
           d="M23856 5070l23-57 27-57 29-55 36-52 37-51 42-49 46-46 49-44 52-42 55-39 59-35 62-34 63-31 67-27 70-25 71-22 74-18 76-15 77-13 79-8 79-6 82-3 82 2 83 4 83 8 83 11 83 14 83 17 83 20 83 25 81 26 80 30 79 32 78 35 75 38 75 41 72 43 70 45 68 48 64 50 62 53 60 53 57 56 53 58 49 58 47 61 42 61 40 63 35 63 31 63 28 65 23 65 20 65 15 65 11 64 7 65 3 65-2 63-6 62-10 62-14 61-18 59-44-80-48-79-53-79-58-77-62-75-67-73-71-72-74-69-78-66-83-65-85-60-88-59-92-55-94-53-97-48-97-45-101-41-103-38-102-34-105-30-106-26-105-22-106-18-106-12-105-10-106-5h-103l-103 3-102 7-100 12-98 17-94 20-94 24-90 29-88 32-84 36-1 1z"
           id="path423"
           stroke-width="35"
           stroke="#527f34"
           fill="none" />
      </g>
      <g
         class="com.sun.star.drawing.CustomShape"
         id="g425">
        <path
           d="M25495 9486l62 2 62 7 62 10 61 16 60 19 60 23 59 28 57 32 57 36 55 39 53 44 52 47 50 50 48 54 46 58 44 60 42 64 39 66 37 69 34 72 32 73 29 76 25 78 24 80 20 81 17 82 14 83 11 84 8 85 4 86 2 85-2 86-4 85-8 85-11 84-14 84-17 82-20 81-23 80-26 77-29 76-31 74-34 72-37 69-39 66-42 64-44 60-46 58-48 54-50 50-52 48-53 43-55 40-57 36-57 31-59 28-60 24-60 19-61 15-62 11-62 7-62 2 62-68 59-71 57-76 53-80 51-84 47-87 44-90 41-93 37-96 34-99 29-100 26-103 22-105 19-106 14-107 10-107 6-109 2-109-2-108-6-109-10-108-14-107-18-106-23-104-25-103-30-101-34-98-37-96-40-94-44-90-48-87-50-83-54-80-57-76-59-72-62-68h-1zm1226 3380zm-1226-3380z"
           id="path427"
           fill="#70ad47" />
        <path
           d="M25495 9486l62 2 62 7 62 10 61 16 60 19 60 23 59 28 57 32 57 36 55 39 53 44 52 47 50 50 48 54 46 58 44 60 42 64 39 66 37 69 34 72 32 73 29 76 25 78 24 80 20 81 17 82 14 83 11 84 8 85 4 86 2 85-2 86-4 85-8 85-11 84-14 84-17 82-20 81-23 80-26 77-29 76-31 74-34 72-37 69-39 66-42 64-44 60-46 58-48 54-50 50-52 48-53 43-55 40-57 36-57 31-59 28-60 24-60 19-61 15-62 11-62 7-62 2 62-68 59-71 57-76 53-80 51-84 47-87 44-90 41-93 37-96 34-99 29-100 26-103 22-105 19-106 14-107 10-107 6-109 2-109-2-108-6-109-10-108-14-107-18-106-23-104-25-103-30-101-34-98-37-96-40-94-44-90-48-87-50-83-54-80-57-76-59-72-62-68h-1z"
           id="path429"
           stroke-width="35"
           stroke="#527f34"
           fill="none" />
      </g>
      <g
         class="com.sun.star.drawing.CustomShape"
         id="g431">
        <path
           d="M26411 9486l62 2 62 7 62 10 61 16 60 19 60 23 59 28 57 32 57 36 55 39 53 44 52 47 50 50 48 54 46 58 44 60 42 64 39 66 37 69 34 72 32 73 29 76 25 78 24 80 20 81 17 82 14 83 11 84 8 85 4 86 2 85-2 86-4 85-8 85-11 84-14 84-17 82-20 81-23 80-26 77-29 76-31 74-34 72-37 69-39 66-42 64-44 60-46 58-48 54-50 50-52 48-53 43-55 40-57 36-57 31-59 28-60 24-60 19-61 15-62 11-62 7-62 2 62-68 59-71 57-76 53-80 51-84 47-87 44-90 41-93 37-96 34-99 29-100 26-103 22-105 19-106 14-107 10-107 6-109 2-109-2-108-6-109-10-108-14-107-18-106-23-104-25-103-30-101-34-98-37-96-40-94-44-90-48-87-50-83-54-80-57-76-59-72-62-68h-1zm1226 3380zm-1226-3380z"
           id="path433"
           fill="#70ad47" />
        <path
           d="M26411 9486l62 2 62 7 62 10 61 16 60 19 60 23 59 28 57 32 57 36 55 39 53 44 52 47 50 50 48 54 46 58 44 60 42 64 39 66 37 69 34 72 32 73 29 76 25 78 24 80 20 81 17 82 14 83 11 84 8 85 4 86 2 85-2 86-4 85-8 85-11 84-14 84-17 82-20 81-23 80-26 77-29 76-31 74-34 72-37 69-39 66-42 64-44 60-46 58-48 54-50 50-52 48-53 43-55 40-57 36-57 31-59 28-60 24-60 19-61 15-62 11-62 7-62 2 62-68 59-71 57-76 53-80 51-84 47-87 44-90 41-93 37-96 34-99 29-100 26-103 22-105 19-106 14-107 10-107 6-109 2-109-2-108-6-109-10-108-14-107-18-106-23-104-25-103-30-101-34-98-37-96-40-94-44-90-48-87-50-83-54-80-57-76-59-72-62-68h-1z"
           id="path435"
           stroke-width="35"
           stroke="#527f34"
           fill="none" />
      </g>
      <g
         class="com.sun.star.drawing.CustomShape"
         id="g437">
        <path
           d="M27328 9486l62 2 62 7 62 10 61 16 60 19 60 23 59 28 57 32 57 36 55 39 53 44 52 47 50 50 48 54 46 58 44 60 42 64 39 66 37 69 34 72 32 73 29 76 25 78 24 80 20 81 17 82 14 83 11 84 8 85 4 86 2 85-2 86-4 85-8 85-11 84-14 84-17 82-20 81-23 80-26 77-29 76-31 74-34 72-37 69-39 66-42 64-44 60-46 58-48 54-50 50-52 48-53 43-55 40-57 36-57 31-59 28-60 24-60 19-61 15-62 11-62 7-62 2 62-68 59-71 57-76 53-80 51-84 47-87 44-90 41-93 37-96 34-99 29-100 26-103 22-105 19-106 14-107 10-107 6-109 2-109-2-108-6-109-10-108-14-107-18-106-23-104-25-103-30-101-34-98-37-96-40-94-44-90-48-87-50-83-54-80-57-76-59-72-62-68h-1zm1226 3380zm-1226-3380z"
           id="path439"
           fill="#70ad47" />
        <path
           d="M27328 9486l62 2 62 7 62 10 61 16 60 19 60 23 59 28 57 32 57 36 55 39 53 44 52 47 50 50 48 54 46 58 44 60 42 64 39 66 37 69 34 72 32 73 29 76 25 78 24 80 20 81 17 82 14 83 11 84 8 85 4 86 2 85-2 86-4 85-8 85-11 84-14 84-17 82-20 81-23 80-26 77-29 76-31 74-34 72-37 69-39 66-42 64-44 60-46 58-48 54-50 50-52 48-53 43-55 40-57 36-57 31-59 28-60 24-60 19-61 15-62 11-62 7-62 2 62-68 59-71 57-76 53-80 51-84 47-87 44-90 41-93 37-96 34-99 29-100 26-103 22-105 19-106 14-107 10-107 6-109 2-109-2-108-6-109-10-108-14-107-18-106-23-104-25-103-30-101-34-98-37-96-40-94-44-90-48-87-50-83-54-80-57-76-59-72-62-68h-1z"
           id="path441"
           stroke-width="35"
           stroke="#527f34"
           fill="none" />
      </g>
      <g
         class="com.sun.star.drawing.CustomShape"
         id="g509">
        <path
           d="M1945 10933h1166l511-2646 1238 2646h4081v2974H1945v-2974zm0 0zm6996 2974z"
           id="path511"
           fill="#ffc000" />
        <path
           d="M1945 10933h1166l511-2646 1238 2646h4081v2974H1945v-2974z"
           id="path513"
           stroke-width="35"
           stroke="#bc8e00"
           fill="none" />
        <text
           xml:space="preserve"
           style="font-size:1128.98669434px;font-style:normal;font-weight:normal;line-height:125%;letter-spacing:0px;word-spacing:0px;fill:#000000;fill-opacity:1;stroke:none;font-family:Sans"
           x="2329.5149"
           y="11607.779"
           id="text3580"
           sodipodi:linespacing="125%"><tspan
             sodipodi:role="line"
             x="2329.5149"
             y="11607.779"
             id="tspan3584"
             style="font-size:451.59469604px;font-style:normal;font-variant:normal;font-weight:normal;font-stretch:normal;text-align:start;line-height:125%;writing-mode:lr-tb;text-anchor:start;font-family:Sans;-inkscape-font-specification:Sans">Request home client</tspan><tspan
             sodipodi:role="line"
             x="2329.5149"
             y="12172.273"
             id="tspan3590"
             style="font-size:451.59469604px;font-style:normal;font-variant:normal;font-weight:normal;font-stretch:normal;text-align:start;line-height:125%;writing-mode:lr-tb;text-anchor:start;font-family:Sans;-inkscape-font-specification:Sans">video source settings</tspan><tspan
             sodipodi:role="line"
             x="2329.5149"
             y="12736.766"
             id="tspan3594"
             style="font-size:451.59469604px;font-style:normal;font-variant:normal;font-weight:normal;font-stretch:normal;text-align:start;line-height:125%;writing-mode:lr-tb;text-anchor:start;font-family:Sans;-inkscape-font-specification:Sans">change to:</tspan><tspan
             sodipodi:role="line"
             x="2329.5149"
             y="13301.26"
             id="tspan3596"
             style="font-size:451.59469604px;font-style:normal;font-variant:normal;font-weight:normal;font-stretch:normal;text-align:start;line-height:125%;writing-mode:lr-tb;text-anchor:start;font-family:Sans;-inkscape-font-specification:Sans">width: 1920, height: 1200</tspan></text>
      </g>
      <text
         xml:space="preserve"
         style="font-size:1128.98669434px;font-style:normal;font-weight:normal;line-height:100%;letter-spacing:0px;word-spacing:0px;fill:#000000;fill-opacity:1;stroke:none;font-family:Sans"
         x="645.17444"
         y="3472.772"
         id="text3564"
         sodipodi:linespacing="100%"><tspan
           sodipodi:role="line"
           id="tspan3566"
           x="645.17444"
           y="3472.772"
           style="font-size:620.94268799px;font-style:normal;font-variant:normal;font-weight:normal;font-stretch:normal;text-align:start;line-height:100%;writing-mode:lr-tb;text-anchor:start;font-family:Sans;-inkscape-font-specification:Sans">Home client</tspan><tspan
           sodipodi:role="line"
           x="645.17444"
           y="4093.7146"
           id="tspan3568"
           style="font-size:620.94268799px;font-style:normal;font-variant:normal;font-weight:normal;font-stretch:normal;text-align:start;line-height:100%;writing-mode:lr-tb;text-anchor:start;font-family:Sans;-inkscape-font-specification:Sans">video source</tspan></text>
      <text
         sodipodi:linespacing="100%"
         id="text3570"
         y="5909.6904"
         x="28418.879"
         style="font-size:1128.98669434px;font-style:normal;font-weight:normal;line-height:100%;letter-spacing:0px;word-spacing:0px;fill:#000000;fill-opacity:1;stroke:none;font-family:Sans"
         xml:space="preserve"><tspan
           style="font-size:620.94268799px;font-style:normal;font-variant:normal;font-weight:normal;font-stretch:normal;text-align:start;line-height:100%;writing-mode:lr-tb;text-anchor:start;font-family:Sans;-inkscape-font-specification:Sans"
           id="tspan3574"
           y="5909.6904"
           x="28418.879"
           sodipodi:role="line">Remote client</tspan><tspan
           style="font-size:620.94268799px;font-style:normal;font-variant:normal;font-weight:normal;font-stretch:normal;text-align:start;line-height:100%;writing-mode:lr-tb;text-anchor:start;font-family:Sans;-inkscape-font-specification:Sans"
           y="6530.6338"
           x="28418.879"
           sodipodi:role="line"
           id="tspan3578">video sinks</tspan></text>
    </g>
    <text
       xml:space="preserve"
       style="font-size:40px;font-style:normal;font-weight:normal;line-height:125%;letter-spacing:0px;word-spacing:0px;fill:#000000;fill-opacity:1;stroke:none;font-family:Sans"
       x="-281.87479"
       y="182.91185"
       id="text3560"
       sodipodi:linespacing="125%"
       transform="matrix(28.224668,0,0,28.224668,465.98927,317.01948)"><tspan
         sodipodi:role="line"
         id="tspan3562"
         x="-281.87479"
         y="182.91185">Hoe</tspan></text>
    <text
       xml:space="preserve"
       style="font-size:1128.98669434px;font-style:normal;font-weight:normal;line-height:100%;letter-spacing:0px;word-spacing:0px;fill:#000000;fill-opacity:1;stroke:none;font-family:Sans"
       x="13301.036"
       y="2080.5146"
       id="text3610"
       sodipodi:linespacing="100%"><tspan
         sodipodi:role="line"
         id="tspan3612"
         x="13301.036"
         y="2080.5146"
         style="font-size:451.59469604px;font-style:normal;font-variant:normal;font-weight:normal;font-stretch:normal;text-align:start;line-height:100%;writing-mode:lr-tb;text-anchor:start;font-family:Sans;-inkscape-font-specification:Sans">&lt;video</tspan><tspan
         sodipodi:role="line"
         x="13301.036"
         y="2532.1094"
         id="tspan3614"
         style="font-size:451.59469604px;font-style:normal;font-variant:normal;font-weight:normal;font-stretch:normal;text-align:start;line-height:100%;writing-mode:lr-tb;text-anchor:start;font-family:Sans;-inkscape-font-specification:Sans">width=1920</tspan><tspan
         sodipodi:role="line"
         x="13301.036"
         y="2983.7041"
         id="tspan3616"
         style="font-size:451.59469604px;font-style:normal;font-variant:normal;font-weight:normal;font-stretch:normal;text-align:start;line-height:100%;writing-mode:lr-tb;text-anchor:start;font-family:Sans;-inkscape-font-specification:Sans">height=1200&gt;</tspan></text>
    <text
       sodipodi:linespacing="100%"
       id="text3626"
       y="7665.7061"
       x="2333.9653"
       style="font-size:1128.98669434px;font-style:normal;font-weight:normal;line-height:100%;letter-spacing:0px;word-spacing:0px;fill:#000000;fill-opacity:1;stroke:none;font-family:Sans"
       xml:space="preserve"><tspan
         style="font-size:395.14535522px;font-style:normal;font-variant:normal;font-weight:normal;font-stretch:normal;text-align:start;line-height:100%;writing-mode:lr-tb;text-anchor:start;font-family:Sans;-inkscape-font-specification:Sans"
         id="tspan3632"
         y="7665.7061"
         x="2333.9653"
         sodipodi:role="line">width: 800</tspan><tspan
         style="font-size:395.14535522px;font-style:normal;font-variant:normal;font-weight:normal;font-stretch:normal;text-align:start;line-height:100%;writing-mode:lr-tb;text-anchor:start;font-family:Sans;-inkscape-font-specification:Sans"
         y="8060.8516"
         x="2333.9653"
         sodipodi:role="line"
         id="tspan3639">height: 600</tspan></text>
    <text
       sodipodi:linespacing="100%"
       id="text3641"
       y="6339.7344"
       x="13904.879"
       style="font-size:1128.98669434px;font-style:normal;font-weight:normal;line-height:100%;letter-spacing:0px;word-spacing:0px;fill:#000000;fill-opacity:1;stroke:none;font-family:Sans"
       xml:space="preserve"><tspan
         style="font-size:451.59469604px;font-style:normal;font-variant:normal;font-weight:normal;font-stretch:normal;text-align:start;line-height:100%;writing-mode:lr-tb;text-anchor:start;font-family:Sans;-inkscape-font-specification:Sans"
         y="6339.7344"
         x="13904.879"
         id="tspan3643"
         sodipodi:role="line">&lt;video</tspan><tspan
         style="font-size:451.59469604px;font-style:normal;font-variant:normal;font-weight:normal;font-stretch:normal;text-align:start;line-height:100%;writing-mode:lr-tb;text-anchor:start;font-family:Sans;-inkscape-font-specification:Sans"
         id="tspan3647"
         y="6791.3281"
         x="13904.879"
         sodipodi:role="line">width=320</tspan><tspan
         style="font-size:451.59469604px;font-style:normal;font-variant:normal;font-weight:normal;font-stretch:normal;text-align:start;line-height:100%;writing-mode:lr-tb;text-anchor:start;font-family:Sans;-inkscape-font-specification:Sans"
         y="7242.9238"
         x="13904.879"
         sodipodi:role="line"
         id="tspan3651">height=200&gt;</tspan></text>
    <text
       xml:space="preserve"
       style="font-size:395.14535522px;font-style:normal;font-variant:normal;font-weight:normal;font-stretch:normal;text-align:start;line-height:100%;letter-spacing:0px;word-spacing:0px;writing-mode:lr-tb;text-anchor:start;fill:#000000;fill-opacity:1;stroke:none;font-family:Sans;-inkscape-font-specification:Sans"
       x="12297.599"
       y="11141.897"
       id="text3653"
       sodipodi:linespacing="100%"><tspan
         id="tspan3659"
         sodipodi:role="line"
         x="12297.599"
         y="11141.897"
         style="font-size:451.59469604px;font-style:normal;font-variant:normal;font-weight:normal;font-stretch:normal;text-align:start;line-height:100%;writing-mode:lr-tb;text-anchor:start;font-family:Sans;-inkscape-font-specification:Sans">RTCPeerConnection</tspan></text>
    <text
       xml:space="preserve"
       style="font-size:1128.98669434px;font-style:normal;font-weight:normal;line-height:100%;letter-spacing:0px;word-spacing:0px;fill:#000000;fill-opacity:1;stroke:none;font-family:Sans"
       x="24727.664"
       y="2541.0083"
       id="text3666"
       sodipodi:linespacing="100%"><tspan
         sodipodi:role="line"
         id="tspan3668"
         x="24727.664"
         y="2541.0083"
         style="font-size:451.59469604px;font-style:normal;font-variant:normal;font-weight:normal;font-stretch:normal;text-align:start;line-height:100%;writing-mode:lr-tb;text-anchor:start;font-family:Sans;-inkscape-font-specification:Sans">&lt;video</tspan><tspan
         sodipodi:role="line"
         x="24727.664"
         y="2992.603"
         id="tspan3670"
         style="font-size:451.59469604px;font-style:normal;font-variant:normal;font-weight:normal;font-stretch:normal;text-align:start;line-height:100%;writing-mode:lr-tb;text-anchor:start;font-family:Sans;-inkscape-font-specification:Sans">width=150</tspan><tspan
         id="tspan3672"
         sodipodi:role="line"
         x="24727.664"
         y="3444.1978"
         style="font-size:451.59469604px;font-style:normal;font-variant:normal;font-weight:normal;font-stretch:normal;text-align:start;line-height:100%;writing-mode:lr-tb;text-anchor:start;font-family:Sans;-inkscape-font-specification:Sans">height=100&gt;</tspan></text>
    <text
       sodipodi:linespacing="100%"
       id="text3674"
       y="10532.668"
       x="29422.316"
       style="font-size:1128.98669434px;font-style:normal;font-weight:normal;line-height:100%;letter-spacing:0px;word-spacing:0px;fill:#000000;fill-opacity:1;stroke:none;font-family:Sans"
       xml:space="preserve"><tspan
         style="font-size:451.59469604px;font-style:normal;font-variant:normal;font-weight:normal;font-stretch:normal;text-align:start;line-height:100%;writing-mode:lr-tb;text-anchor:start;font-family:Sans;-inkscape-font-specification:Sans"
         y="10532.668"
         x="29422.316"
         id="tspan3676"
         sodipodi:role="line">&lt;video</tspan><tspan
         style="font-size:451.59469604px;font-style:normal;font-variant:normal;font-weight:normal;font-stretch:normal;text-align:start;line-height:100%;writing-mode:lr-tb;text-anchor:start;font-family:Sans;-inkscape-font-specification:Sans"
         id="tspan3678"
         y="10984.263"
         x="29422.316"
         sodipodi:role="line">width=1024</tspan><tspan
         style="font-size:451.59469604px;font-style:normal;font-variant:normal;font-weight:normal;font-stretch:normal;text-align:start;line-height:100%;writing-mode:lr-tb;text-anchor:start;font-family:Sans;-inkscape-font-specification:Sans"
         y="11435.857"
         x="29422.316"
         sodipodi:role="line"
         id="tspan3680">height=768&gt;</tspan></text>
    <text
       xml:space="preserve"
       style="font-size:1128.98669434px;font-style:normal;font-weight:normal;line-height:100%;letter-spacing:0px;word-spacing:0px;fill:#000000;fill-opacity:1;stroke:none;font-family:Sans"
       x="22311.357"
       y="12217.009"
       id="text3682"
       sodipodi:linespacing="100%"><tspan
         sodipodi:role="line"
         x="22311.357"
         y="12217.009"
         id="tspan3684"
         style="font-size:395.14535522px;font-style:normal;font-variant:normal;font-weight:normal;font-stretch:normal;text-align:start;line-height:100%;writing-mode:lr-tb;text-anchor:start;font-family:Sans;-inkscape-font-specification:Sans">width: 1024</tspan><tspan
         id="tspan3686"
         sodipodi:role="line"
         x="22311.357"
         y="12612.154"
         style="font-size:395.14535522px;font-style:normal;font-variant:normal;font-weight:normal;font-stretch:normal;text-align:start;line-height:100%;writing-mode:lr-tb;text-anchor:start;font-family:Sans;-inkscape-font-specification:Sans">height: 768</tspan></text>
    <text
       xml:space="preserve"
       style="font-size:1128.98669434px;font-style:normal;font-weight:normal;line-height:125%;letter-spacing:0px;word-spacing:0px;fill:#000000;fill-opacity:1;stroke:none;font-family:Sans"
       x="5088.9673"
       y="1322.549"
       id="text3197"
       sodipodi:linespacing="125%"><tspan
         sodipodi:role="line"
         id="tspan3199"
         x="5088.9673"
         y="1322.549"
         style="font-size:903.18939209px;font-style:normal;font-variant:normal;font-weight:normal;font-stretch:normal;text-align:start;line-height:125%;writing-mode:lr-tb;text-anchor:start;font-family:Sans;-inkscape-font-specification:Sans">Home Client</tspan></text>
    <text
       sodipodi:linespacing="125%"
       id="text3201"
       y="1286.7119"
       x="21358.982"
       style="font-size:1128.98669434px;font-style:normal;font-weight:normal;line-height:125%;letter-spacing:0px;word-spacing:0px;fill:#000000;fill-opacity:1;stroke:none;font-family:Sans"
       xml:space="preserve"><tspan
         style="font-size:903.18939209px;font-style:normal;font-variant:normal;font-weight:normal;font-stretch:normal;text-align:start;line-height:125%;writing-mode:lr-tb;text-anchor:start;font-family:Sans;-inkscape-font-specification:Sans"
         y="1286.7119"
         x="21358.982"
         id="tspan3203"
         sodipodi:role="line">Remote Client</tspan></text>
    <text
       xml:space="preserve"
       style="font-size:1128.98669434px;font-style:normal;font-weight:normal;line-height:125%;letter-spacing:0px;word-spacing:0px;fill:#000000;fill-opacity:1;stroke:none;font-family:Sans"
       x="17452.746"
       y="6662.2676"
       id="text3205"
       sodipodi:linespacing="125%"><tspan
         sodipodi:role="line"
         id="tspan3207"
         x="17452.746"
         y="6662.2676"
         style="font-size:677.39202881px;font-style:normal;font-variant:normal;font-weight:normal;font-stretch:normal;text-align:start;line-height:125%;writing-mode:lr-tb;text-anchor:start;font-family:Sans;-inkscape-font-specification:Sans">B</tspan></text>
    <text
       sodipodi:linespacing="125%"
       id="text3209"
       y="9613.5537"
       x="17309.396"
       style="font-size:1128.98669434px;font-style:normal;font-weight:normal;line-height:125%;letter-spacing:0px;word-spacing:0px;fill:#000000;fill-opacity:1;stroke:none;font-family:Sans"
       xml:space="preserve"><tspan
         style="font-size:677.39202881px;font-style:normal;font-variant:normal;font-weight:normal;font-stretch:normal;text-align:start;line-height:125%;writing-mode:lr-tb;text-anchor:start;font-family:Sans;-inkscape-font-specification:Sans"
         y="9613.5537"
         x="17309.396"
         id="tspan3211"
         sodipodi:role="line">C</tspan></text>
    <text
       xml:space="preserve"
       style="font-size:1128.98669434px;font-style:normal;font-weight:normal;line-height:125%;letter-spacing:0px;word-spacing:0px;fill:#000000;fill-opacity:1;stroke:none;font-family:Sans"
       x="17452.744"
       y="2282.8879"
       id="text3213"
       sodipodi:linespacing="125%"><tspan
         sodipodi:role="line"
         id="tspan3215"
         x="17452.744"
         y="2282.8879"
         style="font-size:677.39202881px;font-style:normal;font-variant:normal;font-weight:normal;font-stretch:normal;text-align:start;line-height:125%;writing-mode:lr-tb;text-anchor:start;font-family:Sans;-inkscape-font-specification:Sans">A</tspan></text>
    <text
       sodipodi:linespacing="125%"
       id="text3217"
       y="2963.7917"
       x="28155.605"
       style="font-size:1128.98669434px;font-style:normal;font-weight:normal;line-height:125%;letter-spacing:0px;word-spacing:0px;fill:#000000;fill-opacity:1;stroke:none;font-family:Sans"
       xml:space="preserve"><tspan
         style="font-size:677.39202881px;font-style:normal;font-variant:normal;font-weight:normal;font-stretch:normal;text-align:start;line-height:125%;writing-mode:lr-tb;text-anchor:start;font-family:Sans;-inkscape-font-specification:Sans"
         y="2963.7917"
         x="28155.605"
         id="tspan3219"
         sodipodi:role="line">Y</tspan></text>
    <text
       xml:space="preserve"
       style="font-size:1128.98669434px;font-style:normal;font-weight:normal;line-height:125%;letter-spacing:0px;word-spacing:0px;fill:#000000;fill-opacity:1;stroke:none;font-family:Sans"
       x="31810.982"
       y="9053.5127"
       id="text3221"
       sodipodi:linespacing="125%"><tspan
         sodipodi:role="line"
         id="tspan3223"
         x="31810.982"
         y="9053.5127"
         style="font-size:677.39202881px;font-style:normal;font-variant:normal;font-weight:normal;font-stretch:normal;text-align:start;line-height:125%;writing-mode:lr-tb;text-anchor:start;font-family:Sans;-inkscape-font-specification:Sans">Z</tspan></text>
    <text
       sodipodi:linespacing="125%"
       id="text3225"
       y="14100.677"
       x="11145.427"
       style="font-size:1128.98669434px;font-style:normal;font-weight:normal;line-height:125%;letter-spacing:0px;word-spacing:0px;fill:#000000;fill-opacity:1;stroke:none;font-family:Sans"
       xml:space="preserve"><tspan
         style="font-size:620.94268799px;font-style:normal;font-variant:normal;font-weight:normal;font-stretch:normal;text-align:start;line-height:125%;writing-mode:lr-tb;text-anchor:start;font-family:Sans;-inkscape-font-specification:Sans"
         y="14100.677"
         x="11145.427"
         id="tspan3227"
         sodipodi:role="line">Home client video sinks</tspan></text>
    <text
       xml:space="preserve"
       style="font-size:1128.98669434px;font-style:normal;font-weight:normal;line-height:125%;letter-spacing:0px;word-spacing:0px;fill:#000000;fill-opacity:1;stroke:none;font-family:Sans"
       x="19567.131"
       y="14100.677"
       id="text3229"
       sodipodi:linespacing="125%"><tspan
         sodipodi:role="line"
         id="tspan3231"
         x="19567.131"
         y="14100.677"
         style="font-size:620.94268799px;font-style:normal;font-variant:normal;font-weight:normal;font-stretch:normal;text-align:start;line-height:125%;writing-mode:lr-tb;text-anchor:start;font-family:Sans;-inkscape-font-specification:Sans">Remote client video source</tspan></text>
  </g>
</svg>
