<?xml version="1.0" encoding="UTF-8" standalone="no"?>
<svg
   xmlns:dc="http://purl.org/dc/elements/1.1/"
   xmlns:cc="http://creativecommons.org/ns#"
   xmlns:rdf="http://www.w3.org/1999/02/22-rdf-syntax-ns#"
   xmlns:svg="http://www.w3.org/2000/svg"
   xmlns="http://www.w3.org/2000/svg"
   xmlns:sodipodi="http://sodipodi.sourceforge.net/DTD/sodipodi-0.dtd"
   xmlns:inkscape="http://www.inkscape.org/namespaces/inkscape"
   viewBox="0 0 1163.572 499.677"
   height="100%"
   width="100%"
   id="svg2"
   version="1.1"
   inkscape:version="0.48.4 r9939"
   sodipodi:docname="change_states_after.svg">
  <metadata
     id="metadata515">
    <rdf:RDF>
      <cc:Work
         rdf:about="">
        <dc:format>image/svg+xml</dc:format>
        <dc:type
           rdf:resource="http://purl.org/dc/dcmitype/StillImage" />
      </cc:Work>
    </rdf:RDF>
  </metadata>
  <sodipodi:namedview
     pagecolor="#ffffff"
     bordercolor="#666666"
     borderopacity="1"
     objecttolerance="10"
     gridtolerance="10"
     guidetolerance="10"
     inkscape:pageopacity="0"
     inkscape:pageshadow="2"
     inkscape:window-width="1734"
     inkscape:window-height="1084"
     id="namedview513"
     showgrid="false"
     inkscape:zoom="0.78758373"
     inkscape:cx="514.74587"
     inkscape:cy="331.15588"
     inkscape:window-x="53"
     inkscape:window-y="65"
     inkscape:window-maximized="0"
     inkscape:current-layer="svg2" />
  <defs
     id="defs4">
    <clipPath
       id="a">
      <path
         d="M0 0h33867v19050H0z"
         id="path7" />
    </clipPath>
  </defs>
  <path
     d="M 658.4315,0.93831 V 498.69438"
     class="com.sun.star.drawing.LineShape"
     id="path13"
     inkscape:connector-curvature="0"
     style="fill:none;stroke:#000000;stroke-width:1.87778997" />
  <g
     class="com.sun.star.drawing.CustomShape"
     id="g15"
     transform="matrix(0.03543,0,0,0.03543,-16.51,-10.293)">
    <path
       d="M 1832,5726 H 4620 V 9707 H 1832 V 5726 z m 348,1456 v 413 h 141 l 43,-47 h 41 v 632 h 1422 v -218 h 225 l 122,120 h 97 v -770 h -97 l -85,84 h -262 v -84 l -83,-87 H 2364 l -43,-43 H 2180 z M 1832,5726 z m 2788,3981 z"
       id="path17"
       inkscape:connector-curvature="0"
       style="fill:#ffffff" />
    <path
       d="m 2180,7182 v 413 h 141 l 43,-47 h 41 v 632 h 1422 v -218 h 225 l 122,120 h 97 v -770 h -97 l -85,84 h -262 v -84 l -83,-87 H 2364 l -43,-43 H 2180 z M 1832,5726 z m 2788,3981 z"
       id="path19"
       inkscape:connector-curvature="0"
       style="fill:#aaaaaa" />
    <path
       d="m 2180,7182 h 141 l 43,43 h 1380 l 83,87 v 84 h 262 l 85,-84 h 97 v 770 h -97 l -122,-120 h -225 v 218 H 2405 v -632 h -41 l -43,47 h -141 v -413 z"
       id="path21"
       inkscape:connector-curvature="0"
       style="fill:none;stroke:#ed7d31;stroke-width:35" />
    <path
       d="M 1832,5726 H 4620 V 9707 H 1832 V 5726 z"
       id="path23"
       inkscape:connector-curvature="0"
       style="fill:none;stroke:#ed7d31;stroke-width:35" />
  </g>
  <g
     class="com.sun.star.drawing.CustomShape"
     id="g47"
     transform="matrix(0.03543,0,0,0.03543,-16.51,-10.293)">
    <path
       d="m 12790,896 h 4363 V 4721 H 12790 V 896 z m 0,0 z m 4363,3825 z"
       id="path49"
       inkscape:connector-curvature="0"
       style="fill:#a7c9e8" />
    <path
       d="m 12790,896 h 4363 V 4721 H 12790 V 896 z"
       id="path51"
       inkscape:connector-curvature="0"
       style="fill:none;stroke:#43729d;stroke-width:35" />
  </g>
  <g
     class="com.sun.star.drawing.CustomShape"
     id="g81"
     transform="matrix(0.04844626,0,0,0.03543,-194.22231,-10.293)">
    <path
       d="m 13670,5468 h 2600 V 7859 H 13670 V 5468 z m 0,0 z m 2600,2391 z"
       id="path83"
       inkscape:connector-curvature="0"
       style="fill:#a7c9e8" />
    <path
       d="m 13670,5468 h 2600 V 7859 H 13670 V 5468 z"
       id="path85"
       inkscape:connector-curvature="0"
       style="fill:none;stroke:#43729d;stroke-width:35" />
  </g>
  <g
     class="com.sun.star.drawing.CustomShape"
     id="g115"
     transform="matrix(0.03543,0,0,0.03543,-16.51,-10.293)">
    <path
       d="m 4201,4581 48,-13 50,-9 51,-3 h 52 l 53,4 53,9 55,13 55,18 55,22 55,25 56,31 55,35 55,39 54,42 55,46 53,50 53,54 52,57 51,60 48,64 49,66 46,69 46,73 43,74 42,76 39,78 39,81 35,83 34,82 31,86 29,85 27,87 23,87 22,88 19,87 15,87 15,87 10,87 8,86 5,84 2,84 v 82 l -3,81 -7,78 -8,76 -12,75 -14,72 -17,69 -20,66 -21,64 -26,61 -27,57 -29,53 -32,50 -35,46 -36,43 -38,39 -41,34 -43,30 -43,27 -46,22 -47,17 26,-84 22,-86 19,-91 17,-93 12,-97 8,-99 5,-102 1,-105 -2,-105 -6,-107 -10,-110 -14,-110 -16,-110 -20,-111 -24,-111 -27,-111 -31,-111 -33,-110 -37,-109 -40,-108 -42,-106 -46,-104 -48,-103 -51,-99 -53,-97 -56,-95 -57,-90 -60,-87 -61,-85 -64,-80 -64,-76 -66,-71 -68,-67 -68,-63 -69,-57 -70,-53 z M 6239,7681 z M 4201,4581 z"
       id="path117"
       inkscape:connector-curvature="0"
       style="fill:#ed7d31" />
    <path
       d="m 4201,4581 48,-13 50,-9 51,-3 h 52 l 53,4 53,9 55,13 55,18 55,22 55,25 56,31 55,35 55,39 54,42 55,46 53,50 53,54 52,57 51,60 48,64 49,66 46,69 46,73 43,74 42,76 39,78 39,81 35,83 34,82 31,86 29,85 27,87 23,87 22,88 19,87 15,87 15,87 10,87 8,86 5,84 2,84 v 82 l -3,81 -7,78 -8,76 -12,75 -14,72 -17,69 -20,66 -21,64 -26,61 -27,57 -29,53 -32,50 -35,46 -36,43 -38,39 -41,34 -43,30 -43,27 -46,22 -47,17 26,-84 22,-86 19,-91 17,-93 12,-97 8,-99 5,-102 1,-105 -2,-105 -6,-107 -10,-110 -14,-110 -16,-110 -20,-111 -24,-111 -27,-111 -31,-111 -33,-110 -37,-109 -40,-108 -42,-106 -46,-104 -48,-103 -51,-99 -53,-97 -56,-95 -57,-90 -60,-87 -61,-85 -64,-80 -64,-76 -66,-71 -68,-67 -68,-63 -69,-57 -70,-53 z"
       id="path119"
       inkscape:connector-curvature="0"
       style="fill:none;stroke:#af5c24;stroke-width:35" />
  </g>
  <g
     class="com.sun.star.drawing.CustomShape"
     id="g121"
     transform="matrix(0.03543,0,0,0.03543,-16.51,-10.293)">
    <path
       d="m 5317,4138 48,-13 50,-9 51,-3 h 52 l 53,4 53,9 55,13 55,18 55,22 55,25 56,31 55,35 55,39 54,42 55,46 53,50 53,54 52,57 51,60 48,64 49,66 46,69 46,73 43,74 42,76 39,78 39,81 35,83 34,82 31,86 29,85 27,87 23,87 22,88 19,87 15,87 15,87 10,87 8,86 5,84 2,84 v 82 l -3,81 -7,78 -8,76 -12,75 -14,72 -17,69 -20,66 -21,64 -26,61 -27,57 -29,53 -32,50 -35,46 -36,43 -38,39 -41,34 -43,30 -43,27 -46,22 -47,17 26,-84 22,-86 19,-91 17,-93 12,-97 8,-99 5,-102 1,-105 -2,-105 -6,-107 -10,-110 -14,-110 -16,-110 -20,-111 -24,-111 -27,-111 -31,-111 -33,-110 -37,-109 -40,-108 -42,-106 -46,-104 -48,-103 -51,-99 -53,-97 -56,-95 -57,-90 -60,-87 -61,-85 -64,-80 -64,-76 -66,-71 -68,-67 -68,-63 -69,-57 -70,-53 z M 7355,7238 z M 5317,4138 z"
       id="path123"
       inkscape:connector-curvature="0"
       style="fill:#ed7d31" />
    <path
       d="m 5317,4138 48,-13 50,-9 51,-3 h 52 l 53,4 53,9 55,13 55,18 55,22 55,25 56,31 55,35 55,39 54,42 55,46 53,50 53,54 52,57 51,60 48,64 49,66 46,69 46,73 43,74 42,76 39,78 39,81 35,83 34,82 31,86 29,85 27,87 23,87 22,88 19,87 15,87 15,87 10,87 8,86 5,84 2,84 v 82 l -3,81 -7,78 -8,76 -12,75 -14,72 -17,69 -20,66 -21,64 -26,61 -27,57 -29,53 -32,50 -35,46 -36,43 -38,39 -41,34 -43,30 -43,27 -46,22 -47,17 26,-84 22,-86 19,-91 17,-93 12,-97 8,-99 5,-102 1,-105 -2,-105 -6,-107 -10,-110 -14,-110 -16,-110 -20,-111 -24,-111 -27,-111 -31,-111 -33,-110 -37,-109 -40,-108 -42,-106 -46,-104 -48,-103 -51,-99 -53,-97 -56,-95 -57,-90 -60,-87 -61,-85 -64,-80 -64,-76 -66,-71 -68,-67 -68,-63 -69,-57 -70,-53 z"
       id="path125"
       inkscape:connector-curvature="0"
       style="fill:none;stroke:#af5c24;stroke-width:35" />
  </g>
  <g
     class="com.sun.star.drawing.CustomShape"
     id="g127"
     transform="matrix(0.03543,0,0,0.03543,-16.51,-10.293)">
    <path
       d="m 6434,3695 48,-13 50,-9 51,-3 h 52 l 53,4 53,9 55,13 55,18 55,22 55,25 56,31 55,35 55,39 54,42 55,46 53,50 53,54 52,57 51,60 48,64 49,66 46,69 46,73 43,74 42,76 39,78 39,81 35,83 34,82 31,86 29,85 27,87 23,87 22,88 19,87 15,87 15,87 10,87 8,86 5,84 2,84 v 82 l -3,81 -7,78 -8,76 -12,75 -14,72 -17,69 -20,66 -21,64 -26,61 -27,57 -29,53 -32,50 -35,46 -36,43 -38,39 -41,34 -43,30 -43,27 -46,22 -47,17 26,-84 22,-86 19,-91 17,-93 12,-97 8,-99 5,-102 1,-105 -2,-105 -6,-107 -10,-110 -14,-110 -16,-110 -20,-111 -24,-111 -27,-111 -31,-111 -33,-110 -37,-109 -40,-108 -42,-106 -46,-104 -48,-103 -51,-99 -53,-97 -56,-95 -57,-90 -60,-87 -61,-85 -64,-80 -64,-76 -66,-71 -68,-67 -68,-63 -69,-57 -70,-53 z M 8472,6795 z M 6434,3695 z"
       id="path129"
       inkscape:connector-curvature="0"
       style="fill:#ed7d31" />
    <path
       d="m 6434,3695 48,-13 50,-9 51,-3 h 52 l 53,4 53,9 55,13 55,18 55,22 55,25 56,31 55,35 55,39 54,42 55,46 53,50 53,54 52,57 51,60 48,64 49,66 46,69 46,73 43,74 42,76 39,78 39,81 35,83 34,82 31,86 29,85 27,87 23,87 22,88 19,87 15,87 15,87 10,87 8,86 5,84 2,84 v 82 l -3,81 -7,78 -8,76 -12,75 -14,72 -17,69 -20,66 -21,64 -26,61 -27,57 -29,53 -32,50 -35,46 -36,43 -38,39 -41,34 -43,30 -43,27 -46,22 -47,17 26,-84 22,-86 19,-91 17,-93 12,-97 8,-99 5,-102 1,-105 -2,-105 -6,-107 -10,-110 -14,-110 -16,-110 -20,-111 -24,-111 -27,-111 -31,-111 -33,-110 -37,-109 -40,-108 -42,-106 -46,-104 -48,-103 -51,-99 -53,-97 -56,-95 -57,-90 -60,-87 -61,-85 -64,-80 -64,-76 -66,-71 -68,-67 -68,-63 -69,-57 -70,-53 z"
       id="path131"
       inkscape:connector-curvature="0"
       style="fill:none;stroke:#af5c24;stroke-width:35" />
  </g>
  <g
     class="com.sun.star.drawing.CustomShape"
     id="g133"
     transform="matrix(0.03543,0,0,0.03543,-16.51,-10.293)">
    <path
       d="m 7550,3252 48,-13 50,-9 51,-3 h 52 l 53,4 53,9 55,13 55,18 55,22 55,25 56,31 55,35 55,39 54,42 55,46 53,50 53,54 52,57 51,60 48,64 49,66 46,69 46,73 43,74 42,76 39,78 39,81 35,83 34,82 31,86 29,85 27,87 23,87 22,88 19,87 15,87 15,87 10,87 8,86 5,84 2,84 v 82 l -3,81 -7,78 -8,76 -12,75 -14,72 -17,69 -20,66 -21,64 -26,61 -27,57 -29,53 -32,50 -35,46 -36,43 -38,39 -41,34 -43,30 -43,27 -46,22 -47,17 26,-84 22,-86 19,-91 17,-93 12,-97 8,-99 5,-102 1,-105 -2,-105 -6,-107 -10,-110 -14,-110 -16,-110 -20,-111 -24,-111 -27,-111 -31,-111 -33,-110 -37,-109 -40,-108 -42,-106 -46,-104 -48,-103 -51,-99 -53,-97 -56,-95 -57,-90 -60,-87 -61,-85 -64,-80 -64,-76 -66,-71 -68,-67 -68,-63 -69,-57 -70,-53 z M 9588,6352 z M 7550,3252 z"
       id="path135"
       inkscape:connector-curvature="0"
       style="fill:#ed7d31" />
    <path
       d="m 7550,3252 48,-13 50,-9 51,-3 h 52 l 53,4 53,9 55,13 55,18 55,22 55,25 56,31 55,35 55,39 54,42 55,46 53,50 53,54 52,57 51,60 48,64 49,66 46,69 46,73 43,74 42,76 39,78 39,81 35,83 34,82 31,86 29,85 27,87 23,87 22,88 19,87 15,87 15,87 10,87 8,86 5,84 2,84 v 82 l -3,81 -7,78 -8,76 -12,75 -14,72 -17,69 -20,66 -21,64 -26,61 -27,57 -29,53 -32,50 -35,46 -36,43 -38,39 -41,34 -43,30 -43,27 -46,22 -47,17 26,-84 22,-86 19,-91 17,-93 12,-97 8,-99 5,-102 1,-105 -2,-105 -6,-107 -10,-110 -14,-110 -16,-110 -20,-111 -24,-111 -27,-111 -31,-111 -33,-110 -37,-109 -40,-108 -42,-106 -46,-104 -48,-103 -51,-99 -53,-97 -56,-95 -57,-90 -60,-87 -61,-85 -64,-80 -64,-76 -66,-71 -68,-67 -68,-63 -69,-57 -70,-53 z"
       id="path137"
       inkscape:connector-curvature="0"
       style="fill:none;stroke:#af5c24;stroke-width:35" />
  </g>
  <g
     class="com.sun.star.drawing.CustomShape"
     id="g139"
     transform="matrix(0.03543,0,0,0.03543,-16.51,-10.293)">
    <path
       d="m 8667,2809 48,-13 50,-9 51,-3 h 52 l 53,4 53,9 55,13 55,18 55,22 55,25 56,31 55,35 55,39 54,42 55,46 53,50 53,54 52,57 51,60 48,64 49,66 46,69 46,73 43,74 42,76 39,78 39,81 35,83 34,82 31,86 29,85 27,87 23,87 22,88 19,87 15,87 15,87 10,87 8,86 5,84 2,84 v 82 l -3,81 -7,78 -8,76 -12,75 -14,72 -17,69 -20,66 -21,64 -26,61 -27,57 -29,53 -32,50 -35,46 -36,43 -38,39 -41,34 -43,30 -43,27 -46,22 -47,17 26,-84 22,-86 19,-91 17,-93 12,-97 8,-99 5,-102 1,-105 -2,-105 -6,-107 -10,-110 -14,-110 -16,-110 -20,-111 -24,-111 -27,-111 -31,-111 -33,-110 -37,-109 -40,-108 -42,-106 -46,-104 -48,-103 -51,-99 -53,-97 -56,-95 -57,-90 -60,-87 -61,-85 -64,-80 -64,-76 -66,-71 -68,-67 -68,-63 -69,-57 -70,-53 z m 2038,3100 z M 8667,2809 z"
       id="path141"
       inkscape:connector-curvature="0"
       style="fill:#ed7d31" />
    <path
       d="m 8667,2809 48,-13 50,-9 51,-3 h 52 l 53,4 53,9 55,13 55,18 55,22 55,25 56,31 55,35 55,39 54,42 55,46 53,50 53,54 52,57 51,60 48,64 49,66 46,69 46,73 43,74 42,76 39,78 39,81 35,83 34,82 31,86 29,85 27,87 23,87 22,88 19,87 15,87 15,87 10,87 8,86 5,84 2,84 v 82 l -3,81 -7,78 -8,76 -12,75 -14,72 -17,69 -20,66 -21,64 -26,61 -27,57 -29,53 -32,50 -35,46 -36,43 -38,39 -41,34 -43,30 -43,27 -46,22 -47,17 26,-84 22,-86 19,-91 17,-93 12,-97 8,-99 5,-102 1,-105 -2,-105 -6,-107 -10,-110 -14,-110 -16,-110 -20,-111 -24,-111 -27,-111 -31,-111 -33,-110 -37,-109 -40,-108 -42,-106 -46,-104 -48,-103 -51,-99 -53,-97 -56,-95 -57,-90 -60,-87 -61,-85 -64,-80 -64,-76 -66,-71 -68,-67 -68,-63 -69,-57 -70,-53 z"
       id="path143"
       inkscape:connector-curvature="0"
       style="fill:none;stroke:#af5c24;stroke-width:35" />
  </g>
  <g
     class="com.sun.star.drawing.CustomShape"
     id="g145"
     transform="matrix(0.03543,0,0,0.03543,-16.51,-10.293)">
    <path
       d="m 9783,2367 48,-13 50,-9 51,-3 h 52 l 53,4 53,9 55,13 55,18 55,22 55,25 56,31 55,35 55,39 54,42 55,46 53,50 53,54 52,57 51,60 48,64 49,66 46,69 46,73 43,74 42,76 39,78 39,81 35,83 34,82 31,86 29,85 27,87 23,87 22,88 19,87 15,87 15,87 10,87 8,86 5,84 2,84 v 82 l -3,81 -7,78 -8,76 -12,75 -14,72 -17,69 -20,66 -21,64 -26,61 -27,57 -29,53 -32,50 -35,46 -36,43 -38,39 -41,34 -43,30 -43,27 -46,22 -47,17 26,-84 22,-86 19,-91 17,-93 12,-97 8,-99 5,-102 1,-105 -2,-105 -6,-107 -10,-110 -14,-110 -16,-110 -20,-111 -24,-111 -27,-111 -31,-111 -33,-110 -37,-109 -40,-108 -42,-106 -46,-104 -48,-103 -51,-99 -53,-97 -56,-95 -57,-90 -60,-87 -61,-85 -64,-80 -64,-76 -66,-71 -68,-67 -68,-63 -69,-57 -70,-53 z m 2038,3100 z M 9783,2367 z"
       id="path147"
       inkscape:connector-curvature="0"
       style="fill:#ed7d31" />
    <path
       d="m 9783,2367 48,-13 50,-9 51,-3 h 52 l 53,4 53,9 55,13 55,18 55,22 55,25 56,31 55,35 55,39 54,42 55,46 53,50 53,54 52,57 51,60 48,64 49,66 46,69 46,73 43,74 42,76 39,78 39,81 35,83 34,82 31,86 29,85 27,87 23,87 22,88 19,87 15,87 15,87 10,87 8,86 5,84 2,84 v 82 l -3,81 -7,78 -8,76 -12,75 -14,72 -17,69 -20,66 -21,64 -26,61 -27,57 -29,53 -32,50 -35,46 -36,43 -38,39 -41,34 -43,30 -43,27 -46,22 -47,17 26,-84 22,-86 19,-91 17,-93 12,-97 8,-99 5,-102 1,-105 -2,-105 -6,-107 -10,-110 -14,-110 -16,-110 -20,-111 -24,-111 -27,-111 -31,-111 -33,-110 -37,-109 -40,-108 -42,-106 -46,-104 -48,-103 -51,-99 -53,-97 -56,-95 -57,-90 -60,-87 -61,-85 -64,-80 -64,-76 -66,-71 -68,-67 -68,-63 -69,-57 -70,-53 z"
       id="path149"
       inkscape:connector-curvature="0"
       style="fill:none;stroke:#af5c24;stroke-width:35" />
  </g>
  <g
     class="com.sun.star.drawing.CustomShape"
     id="g151"
     transform="matrix(0.03543,0,0,0.03543,-16.51,-10.293)">
    <path
       d="m 10900,1924 48,-13 50,-9 51,-3 h 52 l 53,4 53,9 55,13 55,18 55,22 55,25 56,31 55,35 55,39 54,42 55,46 53,50 53,54 52,57 51,60 48,64 49,66 46,69 46,73 43,74 42,76 39,78 39,81 35,83 34,82 31,86 29,85 27,87 23,87 22,88 19,87 15,87 15,87 10,87 8,86 5,84 2,84 v 82 l -3,81 -7,78 -8,76 -12,75 -14,72 -17,69 -20,66 -21,64 -26,61 -27,57 -29,53 -32,50 -35,46 -36,43 -38,39 -41,34 -43,30 -43,27 -46,22 -47,17 26,-84 22,-86 19,-91 17,-93 12,-97 8,-99 5,-102 1,-105 -2,-105 -6,-107 -10,-110 -14,-110 -16,-110 -20,-111 -24,-111 -27,-111 -31,-111 -33,-110 -37,-109 -40,-108 -42,-106 -46,-104 -48,-103 -51,-99 -53,-97 -56,-95 -57,-90 -60,-87 -61,-85 -64,-80 -64,-76 -66,-71 -68,-67 -68,-63 -69,-57 -70,-53 z m 2038,3100 z M 10900,1924 z"
       id="path153"
       inkscape:connector-curvature="0"
       style="fill:#ed7d31" />
    <path
       d="m 10900,1924 48,-13 50,-9 51,-3 h 52 l 53,4 53,9 55,13 55,18 55,22 55,25 56,31 55,35 55,39 54,42 55,46 53,50 53,54 52,57 51,60 48,64 49,66 46,69 46,73 43,74 42,76 39,78 39,81 35,83 34,82 31,86 29,85 27,87 23,87 22,88 19,87 15,87 15,87 10,87 8,86 5,84 2,84 v 82 l -3,81 -7,78 -8,76 -12,75 -14,72 -17,69 -20,66 -21,64 -26,61 -27,57 -29,53 -32,50 -35,46 -36,43 -38,39 -41,34 -43,30 -43,27 -46,22 -47,17 26,-84 22,-86 19,-91 17,-93 12,-97 8,-99 5,-102 1,-105 -2,-105 -6,-107 -10,-110 -14,-110 -16,-110 -20,-111 -24,-111 -27,-111 -31,-111 -33,-110 -37,-109 -40,-108 -42,-106 -46,-104 -48,-103 -51,-99 -53,-97 -56,-95 -57,-90 -60,-87 -61,-85 -64,-80 -64,-76 -66,-71 -68,-67 -68,-63 -69,-57 -70,-53 z"
       id="path155"
       inkscape:connector-curvature="0"
       style="fill:none;stroke:#af5c24;stroke-width:35" />
  </g>
  <g
     class="com.sun.star.drawing.CustomShape"
     id="g157"
     transform="matrix(0.03543,0,0,0.03543,-16.51,-10.293)">
    <path
       d="m 5241,5828 50,2 51,7 49,12 50,16 49,20 48,25 48,29 47,34 46,38 44,41 44,46 42,50 40,54 39,57 38,60 35,64 34,68 32,70 30,73 27,75 26,78 23,80 21,83 19,84 16,85 14,87 12,89 8,89 7,89 4,91 1,90 -1,91 -4,90 -6,90 -9,89 -12,88 -13,87 -17,86 -18,84 -21,82 -24,80 -25,78 -28,76 -30,73 -31,70 -34,67 -36,64 -37,61 -39,57 -40,54 -43,50 -43,46 -44,42 -46,38 -47,33 -48,30 -48,25 -49,20 -50,16 -49,12 -51,7 -50,2 50,-72 48,-75 46,-81 44,-84 41,-88 38,-92 36,-96 33,-99 30,-101 27,-104 24,-107 21,-109 18,-110 15,-112 11,-113 8,-114 5,-115 2,-115 -2,-115 -5,-115 -8,-114 -11,-113 -15,-112 -18,-110 -21,-109 -24,-107 -27,-104 -30,-101 -33,-99 -36,-96 -38,-92 -41,-88 -44,-84 -46,-81 -48,-75 -50,-72 h -1 z m 994,3574 z M 5241,5828 z"
       id="path159"
       inkscape:connector-curvature="0"
       style="fill:#ed7d31" />
    <path
       d="m 5241,5828 50,2 51,7 49,12 50,16 49,20 48,25 48,29 47,34 46,38 44,41 44,46 42,50 40,54 39,57 38,60 35,64 34,68 32,70 30,73 27,75 26,78 23,80 21,83 19,84 16,85 14,87 12,89 8,89 7,89 4,91 1,90 -1,91 -4,90 -6,90 -9,89 -12,88 -13,87 -17,86 -18,84 -21,82 -24,80 -25,78 -28,76 -30,73 -31,70 -34,67 -36,64 -37,61 -39,57 -40,54 -43,50 -43,46 -44,42 -46,38 -47,33 -48,30 -48,25 -49,20 -50,16 -49,12 -51,7 -50,2 50,-72 48,-75 46,-81 44,-84 41,-88 38,-92 36,-96 33,-99 30,-101 27,-104 24,-107 21,-109 18,-110 15,-112 11,-113 8,-114 5,-115 2,-115 -2,-115 -5,-115 -8,-114 -11,-113 -15,-112 -18,-110 -21,-109 -24,-107 -27,-104 -30,-101 -33,-99 -36,-96 -38,-92 -41,-88 -44,-84 -46,-81 -48,-75 -50,-72 h -1 z"
       id="path161"
       inkscape:connector-curvature="0"
       style="fill:none;stroke:#af5c24;stroke-width:35" />
  </g>
  <g
     class="com.sun.star.drawing.CustomShape"
     id="g163"
     transform="matrix(0.03543,0,0,0.03543,-16.51,-10.293)">
    <path
       d="m 6654,5653 50,2 51,7 49,12 50,16 49,20 48,25 48,29 47,34 46,38 44,41 44,46 42,50 40,54 39,57 38,60 35,64 34,68 32,70 30,73 27,75 26,78 23,80 21,83 19,84 16,85 14,87 12,89 8,89 7,89 4,91 1,90 -1,91 -4,90 -6,90 -9,89 -12,88 -13,87 -17,86 -18,84 -21,82 -24,80 -25,78 -28,76 -30,73 -31,70 -34,67 -36,64 -37,61 -39,57 -40,54 -43,50 -43,46 -44,42 -46,38 -47,33 -48,30 -48,25 -49,20 -50,16 -49,12 -51,7 -50,2 50,-72 48,-75 46,-81 44,-84 41,-88 38,-92 36,-96 33,-99 30,-101 27,-104 24,-107 21,-109 18,-110 15,-112 11,-113 8,-114 5,-115 2,-115 -2,-115 -5,-115 -8,-114 -11,-113 -15,-112 -18,-110 -21,-109 -24,-107 -27,-104 -30,-101 -33,-99 -36,-96 -38,-92 -41,-88 -44,-84 -46,-81 -48,-75 -50,-72 h -1 z m 994,3574 z M 6654,5653 z"
       id="path165"
       inkscape:connector-curvature="0"
       style="fill:#ed7d31" />
    <path
       d="m 6654,5653 50,2 51,7 49,12 50,16 49,20 48,25 48,29 47,34 46,38 44,41 44,46 42,50 40,54 39,57 38,60 35,64 34,68 32,70 30,73 27,75 26,78 23,80 21,83 19,84 16,85 14,87 12,89 8,89 7,89 4,91 1,90 -1,91 -4,90 -6,90 -9,89 -12,88 -13,87 -17,86 -18,84 -21,82 -24,80 -25,78 -28,76 -30,73 -31,70 -34,67 -36,64 -37,61 -39,57 -40,54 -43,50 -43,46 -44,42 -46,38 -47,33 -48,30 -48,25 -49,20 -50,16 -49,12 -51,7 -50,2 50,-72 48,-75 46,-81 44,-84 41,-88 38,-92 36,-96 33,-99 30,-101 27,-104 24,-107 21,-109 18,-110 15,-112 11,-113 8,-114 5,-115 2,-115 -2,-115 -5,-115 -8,-114 -11,-113 -15,-112 -18,-110 -21,-109 -24,-107 -27,-104 -30,-101 -33,-99 -36,-96 -38,-92 -41,-88 -44,-84 -46,-81 -48,-75 -50,-72 h -1 z"
       id="path167"
       inkscape:connector-curvature="0"
       style="fill:none;stroke:#af5c24;stroke-width:35" />
  </g>
  <g
     class="com.sun.star.drawing.CustomShape"
     id="g169"
     transform="matrix(0.03543,0,0,0.03543,-16.51,-10.293)">
    <path
       d="m 8068,5523 50,2 51,7 49,12 50,16 49,20 48,25 48,29 47,34 46,38 44,41 44,46 42,50 40,54 39,57 38,60 35,64 34,68 32,70 30,73 27,75 26,78 23,80 21,83 19,84 16,85 14,87 12,89 8,89 7,89 4,91 1,90 -1,91 -4,90 -6,90 -9,89 -12,88 -13,87 -17,86 -18,84 -21,82 -24,80 -25,78 -28,76 -30,73 -31,70 -34,67 -36,64 -37,61 -39,57 -40,54 -43,50 -43,46 -44,42 -46,38 -47,33 -48,30 -48,25 -49,20 -50,16 -49,12 -51,7 -50,2 50,-72 48,-75 46,-81 44,-84 41,-88 38,-92 36,-96 33,-99 30,-101 27,-104 24,-107 21,-109 18,-110 15,-112 11,-113 8,-114 5,-115 2,-115 -2,-115 -5,-115 -8,-114 -11,-113 -15,-112 -18,-110 -21,-109 -24,-107 -27,-104 -30,-101 -33,-99 -36,-96 -38,-92 -41,-88 -44,-84 -46,-81 -48,-75 -50,-72 h -1 z m 994,3574 z M 8068,5523 z"
       id="path171"
       inkscape:connector-curvature="0"
       style="fill:#ed7d31" />
    <path
       d="m 8068,5523 50,2 51,7 49,12 50,16 49,20 48,25 48,29 47,34 46,38 44,41 44,46 42,50 40,54 39,57 38,60 35,64 34,68 32,70 30,73 27,75 26,78 23,80 21,83 19,84 16,85 14,87 12,89 8,89 7,89 4,91 1,90 -1,91 -4,90 -6,90 -9,89 -12,88 -13,87 -17,86 -18,84 -21,82 -24,80 -25,78 -28,76 -30,73 -31,70 -34,67 -36,64 -37,61 -39,57 -40,54 -43,50 -43,46 -44,42 -46,38 -47,33 -48,30 -48,25 -49,20 -50,16 -49,12 -51,7 -50,2 50,-72 48,-75 46,-81 44,-84 41,-88 38,-92 36,-96 33,-99 30,-101 27,-104 24,-107 21,-109 18,-110 15,-112 11,-113 8,-114 5,-115 2,-115 -2,-115 -5,-115 -8,-114 -11,-113 -15,-112 -18,-110 -21,-109 -24,-107 -27,-104 -30,-101 -33,-99 -36,-96 -38,-92 -41,-88 -44,-84 -46,-81 -48,-75 -50,-72 h -1 z"
       id="path173"
       inkscape:connector-curvature="0"
       style="fill:none;stroke:#af5c24;stroke-width:35" />
  </g>
  <g
     class="com.sun.star.drawing.CustomShape"
     id="g175"
     transform="matrix(0.03543,0,0,0.03543,-16.51,-10.293)">
    <path
       d="m 9482,5394 50,2 51,7 49,12 50,16 49,20 48,25 48,29 47,34 46,38 44,41 44,46 42,50 40,54 39,57 38,60 35,64 34,68 32,70 30,73 27,75 26,78 23,80 21,83 19,84 16,85 14,87 12,89 8,89 7,89 4,91 1,90 -1,91 -4,90 -6,90 -9,89 -12,88 -13,87 -17,86 -18,84 -21,82 -24,80 -25,78 -28,76 -30,73 -31,70 -34,67 -36,64 -37,61 -39,57 -40,54 -43,50 -43,46 -44,42 -46,38 -47,33 -48,30 -48,25 -49,20 -50,16 -49,12 -51,7 -50,2 50,-72 48,-75 46,-81 44,-84 41,-88 38,-92 36,-96 33,-99 30,-101 27,-104 24,-107 21,-109 18,-110 15,-112 11,-113 8,-114 5,-115 2,-115 -2,-115 -5,-115 -8,-114 -11,-113 -15,-112 -18,-110 -21,-109 -24,-107 -27,-104 -30,-101 -33,-99 -36,-96 -38,-92 -41,-88 -44,-84 -46,-81 -48,-75 -50,-72 h -1 z m 994,3574 z M 9482,5394 z"
       id="path177"
       inkscape:connector-curvature="0"
       style="fill:#ed7d31" />
    <path
       d="m 9482,5394 50,2 51,7 49,12 50,16 49,20 48,25 48,29 47,34 46,38 44,41 44,46 42,50 40,54 39,57 38,60 35,64 34,68 32,70 30,73 27,75 26,78 23,80 21,83 19,84 16,85 14,87 12,89 8,89 7,89 4,91 1,90 -1,91 -4,90 -6,90 -9,89 -12,88 -13,87 -17,86 -18,84 -21,82 -24,80 -25,78 -28,76 -30,73 -31,70 -34,67 -36,64 -37,61 -39,57 -40,54 -43,50 -43,46 -44,42 -46,38 -47,33 -48,30 -48,25 -49,20 -50,16 -49,12 -51,7 -50,2 50,-72 48,-75 46,-81 44,-84 41,-88 38,-92 36,-96 33,-99 30,-101 27,-104 24,-107 21,-109 18,-110 15,-112 11,-113 8,-114 5,-115 2,-115 -2,-115 -5,-115 -8,-114 -11,-113 -15,-112 -18,-110 -21,-109 -24,-107 -27,-104 -30,-101 -33,-99 -36,-96 -38,-92 -41,-88 -44,-84 -46,-81 -48,-75 -50,-72 h -1 z"
       id="path179"
       inkscape:connector-curvature="0"
       style="fill:none;stroke:#af5c24;stroke-width:35" />
  </g>
  <g
     class="com.sun.star.drawing.CustomShape"
     id="g181"
     transform="matrix(0.03543,0,0,0.03543,-16.51,-10.293)">
    <path
       d="m 10896,5298 50,2 51,7 49,12 50,16 49,20 48,25 48,29 47,34 46,38 44,41 44,46 42,50 40,54 39,57 38,60 35,64 34,68 32,70 30,73 27,75 26,78 23,80 21,83 19,84 16,85 14,87 12,89 8,89 7,89 4,91 1,90 -1,91 -4,90 -6,90 -9,89 -12,88 -13,87 -17,86 -18,84 -21,82 -24,80 -25,78 -28,76 -30,73 -31,70 -34,67 -36,64 -37,61 -39,57 -40,54 -43,50 -43,46 -44,42 -46,38 -47,33 -48,30 -48,25 -49,20 -50,16 -49,12 -51,7 -50,2 50,-72 48,-75 46,-81 44,-84 41,-88 38,-92 36,-96 33,-99 30,-101 27,-104 24,-107 21,-109 18,-110 15,-112 11,-113 8,-114 5,-115 2,-115 -2,-115 -5,-115 -8,-114 -11,-113 -15,-112 -18,-110 -21,-109 -24,-107 -27,-104 -30,-101 -33,-99 -36,-96 -38,-92 -41,-88 -44,-84 -46,-81 -48,-75 -50,-72 h -1 z m 994,3574 z m -994,-3574 z"
       id="path183"
       inkscape:connector-curvature="0"
       style="fill:#ed7d31" />
    <path
       d="m 10896,5298 50,2 51,7 49,12 50,16 49,20 48,25 48,29 47,34 46,38 44,41 44,46 42,50 40,54 39,57 38,60 35,64 34,68 32,70 30,73 27,75 26,78 23,80 21,83 19,84 16,85 14,87 12,89 8,89 7,89 4,91 1,90 -1,91 -4,90 -6,90 -9,89 -12,88 -13,87 -17,86 -18,84 -21,82 -24,80 -25,78 -28,76 -30,73 -31,70 -34,67 -36,64 -37,61 -39,57 -40,54 -43,50 -43,46 -44,42 -46,38 -47,33 -48,30 -48,25 -49,20 -50,16 -49,12 -51,7 -50,2 50,-72 48,-75 46,-81 44,-84 41,-88 38,-92 36,-96 33,-99 30,-101 27,-104 24,-107 21,-109 18,-110 15,-112 11,-113 8,-114 5,-115 2,-115 -2,-115 -5,-115 -8,-114 -11,-113 -15,-112 -18,-110 -21,-109 -24,-107 -27,-104 -30,-101 -33,-99 -36,-96 -38,-92 -41,-88 -44,-84 -46,-81 -48,-75 -50,-72 h -1 z"
       id="path185"
       inkscape:connector-curvature="0"
       style="fill:none;stroke:#af5c24;stroke-width:35" />
  </g>
  <g
     class="com.sun.star.drawing.CustomShape"
     id="g187"
     transform="matrix(0.03543,0,0,0.03543,-16.51,-10.293)">
    <path
       d="m 12310,5155 50,2 51,7 49,12 50,16 49,20 48,25 48,29 47,34 46,38 44,41 44,46 42,50 40,54 39,57 38,60 35,64 34,68 32,70 30,73 27,75 26,78 23,80 21,83 19,84 16,85 14,87 12,89 8,89 7,89 4,91 1,90 -1,91 -4,90 -6,90 -9,89 -12,88 -13,87 -17,86 -18,84 -21,82 -24,80 -25,78 -28,76 -30,73 -31,70 -34,67 -36,64 -37,61 -39,57 -40,54 -43,50 -43,46 -44,42 -46,38 -47,33 -48,30 -48,25 -49,20 -50,16 -49,12 -51,7 -50,2 50,-72 48,-75 46,-81 44,-84 41,-88 38,-92 36,-96 33,-99 30,-101 27,-104 24,-107 21,-109 18,-110 15,-112 11,-113 8,-114 5,-115 2,-115 -2,-115 -5,-115 -8,-114 -11,-113 -15,-112 -18,-110 -21,-109 -24,-107 -27,-104 -30,-101 -33,-99 -36,-96 -38,-92 -41,-88 -44,-84 -46,-81 -48,-75 -50,-72 h -1 z m 994,3574 z m -994,-3574 z"
       id="path189"
       inkscape:connector-curvature="0"
       style="fill:#ed7d31" />
    <path
       d="m 12310,5155 50,2 51,7 49,12 50,16 49,20 48,25 48,29 47,34 46,38 44,41 44,46 42,50 40,54 39,57 38,60 35,64 34,68 32,70 30,73 27,75 26,78 23,80 21,83 19,84 16,85 14,87 12,89 8,89 7,89 4,91 1,90 -1,91 -4,90 -6,90 -9,89 -12,88 -13,87 -17,86 -18,84 -21,82 -24,80 -25,78 -28,76 -30,73 -31,70 -34,67 -36,64 -37,61 -39,57 -40,54 -43,50 -43,46 -44,42 -46,38 -47,33 -48,30 -48,25 -49,20 -50,16 -49,12 -51,7 -50,2 50,-72 48,-75 46,-81 44,-84 41,-88 38,-92 36,-96 33,-99 30,-101 27,-104 24,-107 21,-109 18,-110 15,-112 11,-113 8,-114 5,-115 2,-115 -2,-115 -5,-115 -8,-114 -11,-113 -15,-112 -18,-110 -21,-109 -24,-107 -27,-104 -30,-101 -33,-99 -36,-96 -38,-92 -41,-88 -44,-84 -46,-81 -48,-75 -50,-72 h -1 z"
       id="path191"
       inkscape:connector-curvature="0"
       style="fill:none;stroke:#af5c24;stroke-width:35" />
  </g>
  <g
     class="com.sun.star.drawing.CustomShape"
     id="g193"
     transform="matrix(0.03797181,0,0,0.03543,-65.228908,-10.293)">
    <path
       d="m 12691,9061 h 4460 v 4037 H 12691 V 9061 z m 0,0 z m 4460,4037 z"
       id="path195"
       inkscape:connector-curvature="0"
       style="fill:#a7c9e8" />
    <path
       d="m 12691,9061 h 4460 v 4037 H 12691 V 9061 z"
       id="path197"
       inkscape:connector-curvature="0"
       style="fill:none;stroke:#43729d;stroke-width:35" />
  </g>
  <path
     style="fill:#ffffff"
     inkscape:connector-curvature="0"
     id="path213"
     d="m 771.13433,310.73823 h 90.06306 V 453.76914 H 771.13433 V 310.73823 z m 11.23131,54.24333 v 13.35711 h 4.57047 l 1.38177,-1.52349 h 1.31091 v 20.40768 h 45.95271 v -7.05057 h 7.26315 l 3.93273,3.8973 h 3.15327 v -24.87186 h -3.15327 l -2.72811,2.69268 h -8.46777 v -2.69268 l -2.69268,-2.79897 h -44.57094 l -1.38177,-1.4172 h -4.57047 z m -11.23131,-54.24333 z m 90.06306,143.03091 z" />
  <path
     style="fill:#aaaaaa"
     inkscape:connector-curvature="0"
     id="path215"
     d="m 782.36564,364.98156 v 13.35711 h 4.57047 l 1.38177,-1.52349 h 1.31091 v 20.40768 h 45.95271 v -7.05057 h 7.26315 l 3.93273,3.8973 h 3.15327 v -24.87186 h -3.15327 l -2.72811,2.69268 h -8.46777 v -2.69268 l -2.69268,-2.79897 h -44.57094 l -1.38177,-1.4172 h -4.57047 z m -11.23131,-54.24333 z m 90.06306,143.03091 z" />
  <path
     style="fill:none;stroke:#ed7d31;stroke-width:1.24004996"
     inkscape:connector-curvature="0"
     id="path217"
     d="m 782.36564,364.98156 h 4.57047 l 1.38177,1.4172 h 44.57094 l 2.69268,2.79897 v 2.69268 h 8.46777 l 2.72811,-2.69268 h 3.15327 v 24.87186 h -3.15327 l -3.93273,-3.8973 h -7.26315 v 7.05057 h -45.95271 v -20.40768 h -1.31091 l -1.38177,1.52349 h -4.57047 v -13.35711 z" />
  <path
     style="fill:none;stroke:#ed7d31;stroke-width:1.24004996"
     inkscape:connector-curvature="0"
     id="path219"
     d="m 771.13433,310.73823 h 90.06306 V 453.76914 H 771.13433 V 310.73823 z" />
  <g
     class="com.sun.star.drawing.CustomShape"
     id="g243"
     transform="matrix(0.03543,0,0,0.03543,-16.51,-10.293)">
    <path
       d="m 4717,7551 49,11 49,16 46,21 46,25 45,29 42,33 42,38 40,42 38,46 36,48 35,53 32,57 29,61 28,63 26,66 23,69 20,73 19,75 16,77 13,79 11,82 8,82 5,86 3,86 v 86 l -2,89 -5,89 -8,89 -10,89 -13,90 -15,89 -18,89 -21,88 -22,87 -25,86 -29,84 -28,83 -33,82 -33,79 -36,77 -38,74 -39,72 -42,69 -43,67 -43,63 -46,59 -47,56 -48,54 -49,48 -49,46 -51,41 -51,38 -51,33 -52,29 -53,23 -52,21 -52,16 -52,10 -52,7 -50,2 -52,-2 -49,-7 62,-62 61,-65 60,-71 59,-74 56,-79 55,-84 53,-87 51,-91 48,-94 46,-97 43,-101 41,-103 38,-105 35,-107 32,-109 29,-111 26,-112 23,-113 19,-113 17,-114 13,-114 10,-113 6,-113 2,-111 v -111 l -4,-110 -7,-107 -11,-105 -14,-103 -18,-101 -20,-97 -24,-95 -28,-90 -30,-88 -34,-83 -36,-80 h -1 z m 318,3696 z M 4717,7551 z"
       id="path245"
       inkscape:connector-curvature="0"
       style="fill:#ed7d31" />
    <path
       d="m 4717,7551 49,11 49,16 46,21 46,25 45,29 42,33 42,38 40,42 38,46 36,48 35,53 32,57 29,61 28,63 26,66 23,69 20,73 19,75 16,77 13,79 11,82 8,82 5,86 3,86 v 86 l -2,89 -5,89 -8,89 -10,89 -13,90 -15,89 -18,89 -21,88 -22,87 -25,86 -29,84 -28,83 -33,82 -33,79 -36,77 -38,74 -39,72 -42,69 -43,67 -43,63 -46,59 -47,56 -48,54 -49,48 -49,46 -51,41 -51,38 -51,33 -52,29 -53,23 -52,21 -52,16 -52,10 -52,7 -50,2 -52,-2 -49,-7 62,-62 61,-65 60,-71 59,-74 56,-79 55,-84 53,-87 51,-91 48,-94 46,-97 43,-101 41,-103 38,-105 35,-107 32,-109 29,-111 26,-112 23,-113 19,-113 17,-114 13,-114 10,-113 6,-113 2,-111 v -111 l -4,-110 -7,-107 -11,-105 -14,-103 -18,-101 -20,-97 -24,-95 -28,-90 -30,-88 -34,-83 -36,-80 h -1 z"
       id="path247"
       inkscape:connector-curvature="0"
       style="fill:none;stroke:#af5c24;stroke-width:35" />
  </g>
  <g
     class="com.sun.star.drawing.CustomShape"
     id="g249"
     transform="matrix(0.03543,0,0,0.03543,-16.51,-10.293)">
    <path
       d="m 5870,7803 49,11 49,16 46,21 46,25 45,29 42,33 42,38 40,42 38,46 36,48 35,53 32,57 29,61 28,63 26,66 23,69 20,73 19,75 16,77 13,79 11,82 8,82 5,86 3,86 v 86 l -2,89 -5,89 -8,89 -10,89 -13,90 -15,89 -18,89 -21,88 -22,87 -25,86 -29,84 -28,83 -33,82 -33,79 -36,77 -38,74 -39,72 -42,69 -43,67 -43,63 -46,59 -47,56 -48,54 -49,48 -49,46 -51,41 -51,38 -51,33 -52,29 -53,23 -52,21 -52,16 -52,10 -52,7 -50,2 -52,-2 -49,-7 62,-62 61,-65 60,-71 59,-74 56,-79 55,-84 53,-87 51,-91 48,-94 46,-97 43,-101 41,-103 38,-105 35,-107 32,-109 29,-111 26,-112 23,-113 19,-113 17,-114 13,-114 10,-113 6,-113 2,-111 v -111 l -4,-110 -7,-107 -11,-105 -14,-103 -18,-101 -20,-97 -24,-95 -28,-90 -30,-88 -34,-83 -36,-80 h -1 z m 318,3696 z M 5870,7803 z"
       id="path251"
       inkscape:connector-curvature="0"
       style="fill:#ed7d31" />
    <path
       d="m 5870,7803 49,11 49,16 46,21 46,25 45,29 42,33 42,38 40,42 38,46 36,48 35,53 32,57 29,61 28,63 26,66 23,69 20,73 19,75 16,77 13,79 11,82 8,82 5,86 3,86 v 86 l -2,89 -5,89 -8,89 -10,89 -13,90 -15,89 -18,89 -21,88 -22,87 -25,86 -29,84 -28,83 -33,82 -33,79 -36,77 -38,74 -39,72 -42,69 -43,67 -43,63 -46,59 -47,56 -48,54 -49,48 -49,46 -51,41 -51,38 -51,33 -52,29 -53,23 -52,21 -52,16 -52,10 -52,7 -50,2 -52,-2 -49,-7 62,-62 61,-65 60,-71 59,-74 56,-79 55,-84 53,-87 51,-91 48,-94 46,-97 43,-101 41,-103 38,-105 35,-107 32,-109 29,-111 26,-112 23,-113 19,-113 17,-114 13,-114 10,-113 6,-113 2,-111 v -111 l -4,-110 -7,-107 -11,-105 -14,-103 -18,-101 -20,-97 -24,-95 -28,-90 -30,-88 -34,-83 -36,-80 h -1 z"
       id="path253"
       inkscape:connector-curvature="0"
       style="fill:none;stroke:#af5c24;stroke-width:35" />
  </g>
  <g
     class="com.sun.star.drawing.CustomShape"
     id="g255"
     transform="matrix(0.03543,0,0,0.03543,-16.51,-10.293)">
    <path
       d="m 7023,8054 49,11 49,16 46,21 46,25 45,29 42,33 42,38 40,42 38,46 36,48 35,53 32,57 29,61 28,63 26,66 23,69 20,73 19,75 16,77 13,79 11,82 8,82 5,86 3,86 v 86 l -2,89 -5,89 -8,89 -10,89 -13,90 -15,89 -18,89 -21,88 -22,87 -25,86 -29,84 -28,83 -33,82 -33,79 -36,77 -38,74 -39,72 -42,69 -43,67 -43,63 -46,59 -47,56 -48,54 -49,48 -49,46 -51,41 -51,38 -51,33 -52,29 -53,23 -52,21 -52,16 -52,10 -52,7 -50,2 -52,-2 -49,-7 62,-62 61,-65 60,-71 59,-74 56,-79 55,-84 53,-87 51,-91 48,-94 46,-97 43,-101 41,-103 38,-105 35,-107 32,-109 29,-111 26,-112 23,-113 19,-113 17,-114 13,-114 10,-113 6,-113 2,-111 v -111 l -4,-110 -7,-107 -11,-105 -14,-103 -18,-101 -20,-97 -24,-95 -28,-90 -30,-88 -34,-83 -36,-80 h -1 z m 318,3696 z M 7023,8054 z"
       id="path257"
       inkscape:connector-curvature="0"
       style="fill:#ed7d31" />
    <path
       d="m 7023,8054 49,11 49,16 46,21 46,25 45,29 42,33 42,38 40,42 38,46 36,48 35,53 32,57 29,61 28,63 26,66 23,69 20,73 19,75 16,77 13,79 11,82 8,82 5,86 3,86 v 86 l -2,89 -5,89 -8,89 -10,89 -13,90 -15,89 -18,89 -21,88 -22,87 -25,86 -29,84 -28,83 -33,82 -33,79 -36,77 -38,74 -39,72 -42,69 -43,67 -43,63 -46,59 -47,56 -48,54 -49,48 -49,46 -51,41 -51,38 -51,33 -52,29 -53,23 -52,21 -52,16 -52,10 -52,7 -50,2 -52,-2 -49,-7 62,-62 61,-65 60,-71 59,-74 56,-79 55,-84 53,-87 51,-91 48,-94 46,-97 43,-101 41,-103 38,-105 35,-107 32,-109 29,-111 26,-112 23,-113 19,-113 17,-114 13,-114 10,-113 6,-113 2,-111 v -111 l -4,-110 -7,-107 -11,-105 -14,-103 -18,-101 -20,-97 -24,-95 -28,-90 -30,-88 -34,-83 -36,-80 h -1 z"
       id="path259"
       inkscape:connector-curvature="0"
       style="fill:none;stroke:#af5c24;stroke-width:35" />
  </g>
  <g
     class="com.sun.star.drawing.CustomShape"
     id="g261"
     transform="matrix(0.03543,0,0,0.03543,-16.51,-10.293)">
    <path
       d="m 8176,8306 49,11 49,16 46,21 46,25 45,29 42,33 42,38 40,42 38,46 36,48 35,53 32,57 29,61 28,63 26,66 23,69 20,73 19,75 16,77 13,79 11,82 8,82 5,86 3,86 v 86 l -2,89 -5,89 -8,89 -10,89 -13,90 -15,89 -18,89 -21,88 -22,87 -25,86 -29,84 -28,83 -33,82 -33,79 -36,77 -38,74 -39,72 -42,69 -43,67 -43,63 -46,59 -47,56 -48,54 -49,48 -49,46 -51,41 -51,38 -51,33 -52,29 -53,23 -52,21 -52,16 -52,10 -52,7 -50,2 -52,-2 -49,-7 62,-62 61,-65 60,-71 59,-74 56,-79 55,-84 53,-87 51,-91 48,-94 46,-97 43,-101 41,-103 38,-105 35,-107 32,-109 29,-111 26,-112 23,-113 19,-113 17,-114 13,-114 10,-113 6,-113 2,-111 v -111 l -4,-110 -7,-107 -11,-105 -14,-103 -18,-101 -20,-97 -24,-95 -28,-90 -30,-88 -34,-83 -36,-80 h -1 z m 318,3696 z M 8176,8306 z"
       id="path263"
       inkscape:connector-curvature="0"
       style="fill:#ed7d31" />
    <path
       d="m 8176,8306 49,11 49,16 46,21 46,25 45,29 42,33 42,38 40,42 38,46 36,48 35,53 32,57 29,61 28,63 26,66 23,69 20,73 19,75 16,77 13,79 11,82 8,82 5,86 3,86 v 86 l -2,89 -5,89 -8,89 -10,89 -13,90 -15,89 -18,89 -21,88 -22,87 -25,86 -29,84 -28,83 -33,82 -33,79 -36,77 -38,74 -39,72 -42,69 -43,67 -43,63 -46,59 -47,56 -48,54 -49,48 -49,46 -51,41 -51,38 -51,33 -52,29 -53,23 -52,21 -52,16 -52,10 -52,7 -50,2 -52,-2 -49,-7 62,-62 61,-65 60,-71 59,-74 56,-79 55,-84 53,-87 51,-91 48,-94 46,-97 43,-101 41,-103 38,-105 35,-107 32,-109 29,-111 26,-112 23,-113 19,-113 17,-114 13,-114 10,-113 6,-113 2,-111 v -111 l -4,-110 -7,-107 -11,-105 -14,-103 -18,-101 -20,-97 -24,-95 -28,-90 -30,-88 -34,-83 -36,-80 h -1 z"
       id="path265"
       inkscape:connector-curvature="0"
       style="fill:none;stroke:#af5c24;stroke-width:35" />
  </g>
  <g
     class="com.sun.star.drawing.CustomShape"
     id="g267"
     transform="matrix(0.03543,0,0,0.03543,-16.51,-10.293)">
    <path
       d="m 9329,8557 49,11 49,16 46,21 46,25 45,29 42,33 42,38 40,42 38,46 36,48 35,53 32,57 29,61 28,63 26,66 23,69 20,73 19,75 16,77 13,79 11,82 8,82 5,86 3,86 v 86 l -2,89 -5,89 -8,89 -10,89 -13,90 -15,89 -18,89 -21,88 -22,87 -25,86 -29,84 -28,83 -33,82 -33,79 -36,77 -38,74 -39,72 -42,69 -43,67 -43,63 -46,59 -47,56 -48,54 -49,48 -49,46 -51,41 -51,38 -51,33 -52,29 -53,23 -52,21 -52,16 -52,10 -52,7 -50,2 -52,-2 -49,-7 62,-62 61,-65 60,-71 59,-74 56,-79 55,-84 53,-87 51,-91 48,-94 46,-97 43,-101 41,-103 38,-105 35,-107 32,-109 29,-111 26,-112 23,-113 19,-113 17,-114 13,-114 10,-113 6,-113 2,-111 v -111 l -4,-110 -7,-107 -11,-105 -14,-103 -18,-101 -20,-97 -24,-95 -28,-90 -30,-88 -34,-83 -36,-80 h -1 z m 318,3696 z M 9329,8557 z"
       id="path269"
       inkscape:connector-curvature="0"
       style="fill:#ed7d31" />
    <path
       d="m 9329,8557 49,11 49,16 46,21 46,25 45,29 42,33 42,38 40,42 38,46 36,48 35,53 32,57 29,61 28,63 26,66 23,69 20,73 19,75 16,77 13,79 11,82 8,82 5,86 3,86 v 86 l -2,89 -5,89 -8,89 -10,89 -13,90 -15,89 -18,89 -21,88 -22,87 -25,86 -29,84 -28,83 -33,82 -33,79 -36,77 -38,74 -39,72 -42,69 -43,67 -43,63 -46,59 -47,56 -48,54 -49,48 -49,46 -51,41 -51,38 -51,33 -52,29 -53,23 -52,21 -52,16 -52,10 -52,7 -50,2 -52,-2 -49,-7 62,-62 61,-65 60,-71 59,-74 56,-79 55,-84 53,-87 51,-91 48,-94 46,-97 43,-101 41,-103 38,-105 35,-107 32,-109 29,-111 26,-112 23,-113 19,-113 17,-114 13,-114 10,-113 6,-113 2,-111 v -111 l -4,-110 -7,-107 -11,-105 -14,-103 -18,-101 -20,-97 -24,-95 -28,-90 -30,-88 -34,-83 -36,-80 h -1 z"
       id="path271"
       inkscape:connector-curvature="0"
       style="fill:none;stroke:#af5c24;stroke-width:35" />
  </g>
  <g
     class="com.sun.star.drawing.CustomShape"
     id="g273"
     transform="matrix(0.03543,0,0,0.03543,-16.51,-10.293)">
    <path
       d="m 10482,8809 49,11 49,16 46,21 46,25 45,29 42,33 42,38 40,42 38,46 36,48 35,53 32,57 29,61 28,63 26,66 23,69 20,73 19,75 16,77 13,79 11,82 8,82 5,86 3,86 v 86 l -2,89 -5,89 -8,89 -10,89 -13,90 -15,89 -18,89 -21,88 -22,87 -25,86 -29,84 -28,83 -33,82 -33,79 -36,77 -38,74 -39,72 -42,69 -43,67 -43,63 -46,59 -47,56 -48,54 -49,48 -49,46 -51,41 -51,38 -51,33 -52,29 -53,23 -52,21 -52,16 -52,10 -52,7 -50,2 -52,-2 -49,-7 62,-62 61,-65 60,-71 59,-74 56,-79 55,-84 53,-87 51,-91 48,-94 46,-97 43,-101 41,-103 38,-105 35,-107 32,-109 29,-111 26,-112 23,-113 19,-113 17,-114 13,-114 10,-113 6,-113 2,-111 v -111 l -4,-110 -7,-107 -11,-105 -14,-103 -18,-101 -20,-97 -24,-95 -28,-90 -30,-88 -34,-83 -36,-80 h -1 z m 318,3696 z m -318,-3696 z"
       id="path275"
       inkscape:connector-curvature="0"
       style="fill:#ed7d31" />
    <path
       d="m 10482,8809 49,11 49,16 46,21 46,25 45,29 42,33 42,38 40,42 38,46 36,48 35,53 32,57 29,61 28,63 26,66 23,69 20,73 19,75 16,77 13,79 11,82 8,82 5,86 3,86 v 86 l -2,89 -5,89 -8,89 -10,89 -13,90 -15,89 -18,89 -21,88 -22,87 -25,86 -29,84 -28,83 -33,82 -33,79 -36,77 -38,74 -39,72 -42,69 -43,67 -43,63 -46,59 -47,56 -48,54 -49,48 -49,46 -51,41 -51,38 -51,33 -52,29 -53,23 -52,21 -52,16 -52,10 -52,7 -50,2 -52,-2 -49,-7 62,-62 61,-65 60,-71 59,-74 56,-79 55,-84 53,-87 51,-91 48,-94 46,-97 43,-101 41,-103 38,-105 35,-107 32,-109 29,-111 26,-112 23,-113 19,-113 17,-114 13,-114 10,-113 6,-113 2,-111 v -111 l -4,-110 -7,-107 -11,-105 -14,-103 -18,-101 -20,-97 -24,-95 -28,-90 -30,-88 -34,-83 -36,-80 h -1 z"
       id="path277"
       inkscape:connector-curvature="0"
       style="fill:none;stroke:#af5c24;stroke-width:35" />
  </g>
  <g
     class="com.sun.star.drawing.CustomShape"
     id="g285"
     transform="matrix(0.03543,0,0,0.03543,-16.51,-10.293)">
    <path
       d="m 17606,10462 -6,-39 -5,-39 -2,-39 -1,-39 2,-39 3,-39 6,-39 8,-38 10,-38 12,-38 14,-36 15,-36 18,-36 19,-34 22,-33 23,-32 24,-31 27,-30 28,-29 29,-27 31,-25 31,-24 34,-22 34,-21 35,-19 37,-17 37,-15 38,-13 39,-12 39,-9 39,-8 40,-6 41,-3 40,-2 h 40 l 41,3 40,4 40,7 39,8 39,10 38,13 38,14 h -1 l 20,-25 21,-23 22,-22 24,-22 24,-19 26,-19 26,-18 27,-16 29,-14 28,-13 30,-12 30,-11 31,-8 31,-8 31,-5 32,-4 32,-3 32,-1 32,1 31,2 32,4 32,5 31,7 31,8 30,10 29,12 29,13 29,14 27,16 27,17 h -1 l 16,-21 17,-20 18,-18 19,-18 19,-17 21,-16 21,-15 23,-14 22,-12 24,-12 24,-10 25,-9 25,-8 25,-7 26,-5 26,-4 26,-3 27,-1 h 26 l 26,1 27,3 26,4 26,5 25,7 25,8 25,9 24,10 23,11 23,13 23,14 21,15 21,16 19,17 -1,-1 23,-17 23,-16 24,-15 25,-14 25,-13 26,-11 27,-10 27,-9 28,-7 28,-6 28,-4 28,-4 29,-2 h 28 l 29,1 28,2 29,4 28,5 28,7 27,8 27,9 27,10 26,12 25,13 24,14 24,16 23,16 22,18 21,18 20,20 19,21 18,21 17,23 15,23 15,24 13,24 12,26 10,25 9,27 8,26 v -1 l 31,7 30,8 30,9 29,11 29,13 28,14 27,15 27,17 25,17 25,19 23,21 23,21 21,22 20,24 19,24 18,25 16,26 15,27 14,28 12,28 10,29 9,29 8,30 6,30 4,30 3,30 1,31 v 30 l -2,31 -4,30 -5,30 -7,30 -8,30 -10,29 -11,28 -13,28 -14,27 -15,27 28,27 28,29 25,30 24,31 23,33 20,33 19,34 17,35 16,36 13,37 11,38 10,37 7,39 5,38 4,39 1,39 -1,39 -3,39 -4,38 -7,39 -9,38 -11,37 -13,37 -14,36 -17,36 -18,34 -21,34 -22,33 -23,31 -26,30 -26,29 -29,28 -29,26 -31,25 -33,23 -33,21 -35,20 -35,18 -37,17 -37,14 -38,13 -39,10 -39,9 -39,7 -40,5 h -1 l -1,33 -3,33 -5,33 -7,32 -8,32 -9,32 -12,31 -13,31 -15,30 -16,29 -18,28 -19,28 -20,26 -22,26 -23,24 -25,23 -25,22 -27,20 -28,20 -29,17 -29,17 -31,15 -31,13 -32,12 -32,10 -33,9 -34,7 -33,6 -34,3 -35,3 h -34 l -34,-1 -34,-3 -34,-5 -33,-6 -33,-8 -33,-10 -32,-11 -32,-12 h -1 l -17,35 -18,35 -20,33 -22,33 -24,31 -25,30 -27,29 -28,28 -30,26 -31,25 -32,23 -34,21 -34,20 -36,18 -36,16 -37,15 -38,12 -39,11 -39,9 -39,6 -40,5 -40,3 -40,1 -40,-1 -40,-3 -40,-5 -39,-7 -39,-9 -38,-11 -38,-13 -37,-14 -37,-17 -35,-18 -35,-20 -33,-21 -32,-24 -31,-24 -30,-27 -28,-27 v -1 l -44,17 -44,15 -45,12 -45,10 -47,8 -46,5 -47,3 -46,1 -47,-2 -46,-4 -47,-6 -46,-9 -45,-11 -45,-13 -43,-15 -44,-18 -42,-20 -40,-22 -40,-24 -39,-26 -36,-27 -36,-30 -34,-31 -32,-33 -30,-35 v -1 l -26,2 h -25 l -26,-1 -25,-2 -26,-4 -25,-5 -25,-6 -25,-7 -24,-8 -23,-10 -23,-10 -23,-12 -22,-13 -21,-14 -21,-15 -19,-16 -19,-17 -18,-18 -17,-18 -16,-20 -15,-20 -14,-21 -12,-21 -12,-22 -10,-23 -10,-23 -8,-24 -6,-24 -6,-24 -4,-24 -3,-25 -2,-25 v -24 l 1,-25 2,-25 4,-24 4,-25 7,-24 7,-24 8,-23 10,-23 11,-22 12,-22 13,-22 15,-20 15,-20 16,-19 18,-18 18,-18 19,-16 20,-16 v -1 l -23,-10 -23,-11 -22,-12 -22,-14 -20,-14 -20,-16 -20,-16 -18,-17 -17,-19 -17,-19 -15,-20 -14,-20 -14,-21 -12,-22 -11,-23 -10,-23 -8,-23 -8,-24 -6,-24 -5,-24 -3,-25 -3,-25 -1,-25 v -25 l 2,-24 3,-25 4,-25 5,-24 7,-24 7,-24 9,-23 11,-23 11,-22 13,-22 13,-21 15,-20 16,-20 16,-19 18,-18 19,-17 19,-16 21,-15 21,-14 21,-13 23,-12 23,-11 23,-10 24,-8 25,-7 24,-7 25,-5 26,-3 25,-3 -64,-178 z m -454,-1192 z m 5037,3586 z"
       id="path287"
       inkscape:connector-curvature="0"
       style="fill:#ffffff" />
    <path
       d="m 17606,10462 -6,-39 -5,-39 -2,-39 -1,-39 2,-39 3,-39 6,-39 8,-38 10,-38 12,-38 14,-36 15,-36 18,-36 19,-34 22,-33 23,-32 24,-31 27,-30 28,-29 29,-27 31,-25 31,-24 34,-22 34,-21 35,-19 37,-17 37,-15 38,-13 39,-12 39,-9 39,-8 40,-6 41,-3 40,-2 h 40 l 41,3 40,4 40,7 39,8 39,10 38,13 38,14 h -1 l 20,-25 21,-23 22,-22 24,-22 24,-19 26,-19 26,-18 27,-16 29,-14 28,-13 30,-12 30,-11 31,-8 31,-8 31,-5 32,-4 32,-3 32,-1 32,1 31,2 32,4 32,5 31,7 31,8 30,10 29,12 29,13 29,14 27,16 27,17 h -1 l 16,-21 17,-20 18,-18 19,-18 19,-17 21,-16 21,-15 23,-14 22,-12 24,-12 24,-10 25,-9 25,-8 25,-7 26,-5 26,-4 26,-3 27,-1 h 26 l 26,1 27,3 26,4 26,5 25,7 25,8 25,9 24,10 23,11 23,13 23,14 21,15 21,16 19,17 -1,-1 23,-17 23,-16 24,-15 25,-14 25,-13 26,-11 27,-10 27,-9 28,-7 28,-6 28,-4 28,-4 29,-2 h 28 l 29,1 28,2 29,4 28,5 28,7 27,8 27,9 27,10 26,12 25,13 24,14 24,16 23,16 22,18 21,18 20,20 19,21 18,21 17,23 15,23 15,24 13,24 12,26 10,25 9,27 8,26 v -1 l 31,7 30,8 30,9 29,11 29,13 28,14 27,15 27,17 25,17 25,19 23,21 23,21 21,22 20,24 19,24 18,25 16,26 15,27 14,28 12,28 10,29 9,29 8,30 6,30 4,30 3,30 1,31 v 30 l -2,31 -4,30 -5,30 -7,30 -8,30 -10,29 -11,28 -13,28 -14,27 -15,27 28,27 28,29 25,30 24,31 23,33 20,33 19,34 17,35 16,36 13,37 11,38 10,37 7,39 5,38 4,39 1,39 -1,39 -3,39 -4,38 -7,39 -9,38 -11,37 -13,37 -14,36 -17,36 -18,34 -21,34 -22,33 -23,31 -26,30 -26,29 -29,28 -29,26 -31,25 -33,23 -33,21 -35,20 -35,18 -37,17 -37,14 -38,13 -39,10 -39,9 -39,7 -40,5 h -1 l -1,33 -3,33 -5,33 -7,32 -8,32 -9,32 -12,31 -13,31 -15,30 -16,29 -18,28 -19,28 -20,26 -22,26 -23,24 -25,23 -25,22 -27,20 -28,20 -29,17 -29,17 -31,15 -31,13 -32,12 -32,10 -33,9 -34,7 -33,6 -34,3 -35,3 h -34 l -34,-1 -34,-3 -34,-5 -33,-6 -33,-8 -33,-10 -32,-11 -32,-12 h -1 l -17,35 -18,35 -20,33 -22,33 -24,31 -25,30 -27,29 -28,28 -30,26 -31,25 -32,23 -34,21 -34,20 -36,18 -36,16 -37,15 -38,12 -39,11 -39,9 -39,6 -40,5 -40,3 -40,1 -40,-1 -40,-3 -40,-5 -39,-7 -39,-9 -38,-11 -38,-13 -37,-14 -37,-17 -35,-18 -35,-20 -33,-21 -32,-24 -31,-24 -30,-27 -28,-27 v -1 l -44,17 -44,15 -45,12 -45,10 -47,8 -46,5 -47,3 -46,1 -47,-2 -46,-4 -47,-6 -46,-9 -45,-11 -45,-13 -43,-15 -44,-18 -42,-20 -40,-22 -40,-24 -39,-26 -36,-27 -36,-30 -34,-31 -32,-33 -30,-35 v -1 l -26,2 h -25 l -26,-1 -25,-2 -26,-4 -25,-5 -25,-6 -25,-7 -24,-8 -23,-10 -23,-10 -23,-12 -22,-13 -21,-14 -21,-15 -19,-16 -19,-17 -18,-18 -17,-18 -16,-20 -15,-20 -14,-21 -12,-21 -12,-22 -10,-23 -10,-23 -8,-24 -6,-24 -6,-24 -4,-24 -3,-25 -2,-25 v -24 l 1,-25 2,-25 4,-24 4,-25 7,-24 7,-24 8,-23 10,-23 11,-22 12,-22 13,-22 15,-20 15,-20 16,-19 18,-18 18,-18 19,-16 20,-16 v -1 l -23,-10 -23,-11 -22,-12 -22,-14 -20,-14 -20,-16 -20,-16 -18,-17 -17,-19 -17,-19 -15,-20 -14,-20 -14,-21 -12,-22 -11,-23 -10,-23 -8,-23 -8,-24 -6,-24 -5,-24 -3,-25 -3,-25 -1,-25 v -25 l 2,-24 3,-25 4,-25 5,-24 7,-24 7,-24 9,-23 11,-23 11,-22 13,-22 13,-21 15,-20 16,-20 16,-19 18,-18 19,-17 19,-16 21,-15 21,-14 21,-13 23,-12 23,-11 23,-10 24,-8 25,-7 24,-7 25,-5 26,-3 25,-3 -64,-178 z"
       id="path289"
       inkscape:connector-curvature="0"
       style="fill:none;stroke:#000000;stroke-width:35" />
    <path
       d="m 17699,11442 v -2 l -15,1 h -31 l -15,-1 -15,-1 -15,-2 -15,-2 -16,-2 -14,-3 -15,-4 -15,-3 -15,-5 -14,-4 -14,-5 -15,-6 m 484,763 v -1 l -7,2 -6,1 -6,2 -7,1 -6,2 -7,1 -6,1 -6,1 -7,2 -6,1 h -7 l -6,1 -7,1 -7,1 h -6 m 1211,332 -9,-9 -9,-10 -8,-9 -9,-10 -8,-10 -8,-10 -8,-10 -7,-10 -8,-10 -7,-11 -7,-10 -7,-11 -7,-11 -7,-11 -6,-11 m 1555,-207 h -1 l -2,14 -2,15 -3,14 -3,14 -3,14 -3,15 -3,14 -4,14 -4,14 -5,14 -4,13 -5,14 -5,14 -6,13 -6,14 m 677,-1189 v -1 l 33,13 32,13 31,15 31,17 29,18 29,20 27,21 26,23 25,24 24,25 22,26 21,27 19,28 18,30 16,30 15,31 13,31 11,32 9,33 8,33 6,34 4,33 2,34 1,34 m 442,-1255 -11,16 -11,17 -12,15 -12,16 -13,15 -13,15 -14,14 -14,14 -15,13 -15,13 -15,12 -16,12 -16,12 -17,10 -17,11 m -194,-1029 h -1 l 2,10 3,9 2,10 1,9 2,10 2,10 1,9 1,10 1,10 1,9 v 10 l 1,10 v 29 m -1094,-267 h -1 l 7,-10 6,-10 7,-9 7,-10 8,-9 7,-9 8,-9 8,-9 8,-9 8,-8 9,-9 8,-8 9,-8 9,-7 9,-8 m -926,195 h -1 l 3,-10 4,-10 3,-10 4,-9 4,-10 4,-9 5,-10 5,-9 4,-9 5,-9 6,-9 5,-9 6,-9 6,-9 6,-8 m -1018,178 10,4 10,5 10,4 10,5 10,4 10,5 10,5 9,6 10,5 9,5 10,6 9,5 10,6 9,6 9,6 m -1296,803 -4,-10 -4,-10 -4,-10 -4,-10 -4,-11 -4,-10 -3,-10 -3,-10 -3,-11 -3,-10 -3,-11 -3,-10 -2,-11 -3,-10 -2,-11 m -432,-1155 z m 5037,3586 z"
       id="path291"
       inkscape:connector-curvature="0"
       style="fill:none;stroke:#000000;stroke-width:35" />
  </g>
  <g
     class="com.sun.star.drawing.CustomShape"
     id="g293"
     transform="matrix(0.03543,0,0,0.03543,-16.51,-10.293)">
    <path
       d="m 17613,11063 h 159 m 159,0 h 159 m 159,0 h 159 m 159,1 h 159 m 159,0 h 159 m 159,0 h 159 m 159,0 h 159 m 159,0 h 159 m 159,0 h 159 m 159,0 h 159 m 159,0 159,1 m 159,0 h 159 m 159,0 h 159"
       id="path295"
       inkscape:connector-curvature="0"
       style="fill:none;stroke:#a7c9e8;stroke-width:159" />
    <path
       d="m 17168,11063 477,-238 v 477 l -477,-239 z m 5017,2 -477,238 v -477 l 477,239 z"
       id="path297"
       inkscape:connector-curvature="0"
       style="fill:#a7c9e8" />
  </g>
  <path
     d="M 408.53049,302.07013 H 869.33403 V 461.23261 H 408.53049 V 302.07013 z"
     class="com.sun.star.drawing.CustomShape"
     id="path299"
     inkscape:connector-curvature="0"
     style="fill:none;stroke:#43729d;stroke-width:1.26455069" />
  <g
     class="com.sun.star.drawing.CustomShape"
     id="g301"
     transform="matrix(0.03543,0,0,0.03543,-16.51,-10.293)">
    <path
       d="m 29704,9224 h 3583 v 3419 H 29704 V 9224 z m 0,0 z m 3583,3419 z"
       id="path303"
       inkscape:connector-curvature="0"
       style="fill:#a7c9e8" />
    <path
       d="m 29704,9224 h 3583 v 3419 H 29704 V 9224 z"
       id="path305"
       inkscape:connector-curvature="0"
       style="fill:none;stroke:#43729d;stroke-width:35" />
  </g>
  <g
     class="com.sun.star.drawing.CustomShape"
     id="g335"
     transform="matrix(0.04373658,0,0,0.04488913,-225.3317,-48.550452)">
    <path
       d="m 25157,2317 h 2716 V 4027 H 25157 V 2317 z m 0,0 z m 2716,1710 z"
       id="path337"
       inkscape:connector-curvature="0"
       style="fill:#a7c9e8" />
    <path
       d="m 25157,2317 h 2716 V 4027 H 25157 V 2317 z"
       id="path339"
       inkscape:connector-curvature="0"
       style="fill:none;stroke:#43729d;stroke-width:35" />
  </g>
  <g
     class="com.sun.star.drawing.CustomShape"
     id="g365"
     transform="matrix(0.03543,0,0,0.03543,-16.51,-10.293)">
    <path
       d="m 22824,8113 23,-57 27,-57 29,-55 36,-52 37,-51 42,-49 46,-46 49,-44 52,-42 55,-39 59,-35 62,-34 63,-31 67,-27 70,-25 71,-22 74,-18 76,-15 77,-13 79,-8 79,-6 82,-3 82,2 83,4 83,8 83,11 83,14 83,17 83,20 83,25 81,26 80,30 79,32 78,35 75,38 75,41 72,43 70,45 68,48 64,50 62,53 60,53 57,56 53,58 49,58 47,61 42,61 40,63 35,63 31,63 28,65 23,65 20,65 15,65 11,64 7,65 3,65 -2,63 -6,62 -10,62 -14,61 -18,59 -44,-80 -48,-79 -53,-79 -58,-77 -62,-75 -67,-73 -71,-72 -74,-69 -78,-66 -83,-65 -85,-60 -88,-59 -92,-55 -94,-53 -97,-48 -97,-45 -101,-41 -103,-38 -102,-34 -105,-30 -106,-26 -105,-22 -106,-18 -106,-12 -105,-10 -106,-5 h -103 l -103,3 -102,7 -100,12 -98,17 -94,20 -94,24 -90,29 -88,32 -84,36 -1,1 z m 3596,-46 z m -3596,46 z"
       id="path367"
       inkscape:connector-curvature="0"
       style="fill:#70ad47" />
    <path
       d="m 22824,8113 23,-57 27,-57 29,-55 36,-52 37,-51 42,-49 46,-46 49,-44 52,-42 55,-39 59,-35 62,-34 63,-31 67,-27 70,-25 71,-22 74,-18 76,-15 77,-13 79,-8 79,-6 82,-3 82,2 83,4 83,8 83,11 83,14 83,17 83,20 83,25 81,26 80,30 79,32 78,35 75,38 75,41 72,43 70,45 68,48 64,50 62,53 60,53 57,56 53,58 49,58 47,61 42,61 40,63 35,63 31,63 28,65 23,65 20,65 15,65 11,64 7,65 3,65 -2,63 -6,62 -10,62 -14,61 -18,59 -44,-80 -48,-79 -53,-79 -58,-77 -62,-75 -67,-73 -71,-72 -74,-69 -78,-66 -83,-65 -85,-60 -88,-59 -92,-55 -94,-53 -97,-48 -97,-45 -101,-41 -103,-38 -102,-34 -105,-30 -106,-26 -105,-22 -106,-18 -106,-12 -105,-10 -106,-5 h -103 l -103,3 -102,7 -100,12 -98,17 -94,20 -94,24 -90,29 -88,32 -84,36 -1,1 z"
       id="path369"
       inkscape:connector-curvature="0"
       style="fill:none;stroke:#527f34;stroke-width:35" />
  </g>
  <g
     class="com.sun.star.drawing.CustomShape"
     id="g371"
     transform="matrix(0.03543,0,0,0.03543,-16.51,-10.293)">
    <path
       d="m 23168,7099 23,-57 27,-57 29,-55 36,-52 37,-51 42,-49 46,-46 49,-44 52,-42 55,-39 59,-35 62,-34 63,-31 67,-27 70,-25 71,-22 74,-18 76,-15 77,-13 79,-8 79,-6 82,-3 82,2 83,4 83,8 83,11 83,14 83,17 83,20 83,25 81,26 80,30 79,32 78,35 75,38 75,41 72,43 70,45 68,48 64,50 62,53 60,53 57,56 53,58 49,58 47,61 42,61 40,63 35,63 31,63 28,65 23,65 20,65 15,65 11,64 7,65 3,65 -2,63 -6,62 -10,62 -14,61 -18,59 -44,-80 -48,-79 -53,-79 -58,-77 -62,-75 -67,-73 -71,-72 -74,-69 -78,-66 -83,-65 -85,-60 -88,-59 -92,-55 -94,-53 -97,-48 -97,-45 -101,-41 -103,-38 -102,-34 -105,-30 -106,-26 -105,-22 -106,-18 -106,-12 -105,-10 -106,-5 h -103 l -103,3 -102,7 -100,12 -98,17 -94,20 -94,24 -90,29 -88,32 -84,36 -1,1 z m 3596,-46 z m -3596,46 z"
       id="path373"
       inkscape:connector-curvature="0"
       style="fill:#70ad47" />
    <path
       d="m 23168,7099 23,-57 27,-57 29,-55 36,-52 37,-51 42,-49 46,-46 49,-44 52,-42 55,-39 59,-35 62,-34 63,-31 67,-27 70,-25 71,-22 74,-18 76,-15 77,-13 79,-8 79,-6 82,-3 82,2 83,4 83,8 83,11 83,14 83,17 83,20 83,25 81,26 80,30 79,32 78,35 75,38 75,41 72,43 70,45 68,48 64,50 62,53 60,53 57,56 53,58 49,58 47,61 42,61 40,63 35,63 31,63 28,65 23,65 20,65 15,65 11,64 7,65 3,65 -2,63 -6,62 -10,62 -14,61 -18,59 -44,-80 -48,-79 -53,-79 -58,-77 -62,-75 -67,-73 -71,-72 -74,-69 -78,-66 -83,-65 -85,-60 -88,-59 -92,-55 -94,-53 -97,-48 -97,-45 -101,-41 -103,-38 -102,-34 -105,-30 -106,-26 -105,-22 -106,-18 -106,-12 -105,-10 -106,-5 h -103 l -103,3 -102,7 -100,12 -98,17 -94,20 -94,24 -90,29 -88,32 -84,36 -1,1 z"
       id="path375"
       inkscape:connector-curvature="0"
       style="fill:none;stroke:#527f34;stroke-width:35" />
  </g>
  <g
     class="com.sun.star.drawing.CustomShape"
     id="g377"
     transform="matrix(0.03543,0,0,0.03543,-16.51,-10.293)">
    <path
       d="m 23512,6084 23,-57 27,-57 29,-55 36,-52 37,-51 42,-49 46,-46 49,-44 52,-42 55,-39 59,-35 62,-34 63,-31 67,-27 70,-25 71,-22 74,-18 76,-15 77,-13 79,-8 79,-6 82,-3 82,2 83,4 83,8 83,11 83,14 83,17 83,20 83,25 81,26 80,30 79,32 78,35 75,38 75,41 72,43 70,45 68,48 64,50 62,53 60,53 57,56 53,58 49,58 47,61 42,61 40,63 35,63 31,63 28,65 23,65 20,65 15,65 11,64 7,65 3,65 -2,63 -6,62 -10,62 -14,61 -18,59 -44,-80 -48,-79 -53,-79 -58,-77 -62,-75 -67,-73 -71,-72 -74,-69 -78,-66 -83,-65 -85,-60 -88,-59 -92,-55 -94,-53 -97,-48 -97,-45 -101,-41 -103,-38 -102,-34 -105,-30 -106,-26 -105,-22 -106,-18 -106,-12 -105,-10 -106,-5 h -103 l -103,3 -102,7 -100,12 -98,17 -94,20 -94,24 -90,29 -88,32 -84,36 -1,1 z m 3596,-46 z m -3596,46 z"
       id="path379"
       inkscape:connector-curvature="0"
       style="fill:#70ad47" />
    <path
       d="m 23512,6084 23,-57 27,-57 29,-55 36,-52 37,-51 42,-49 46,-46 49,-44 52,-42 55,-39 59,-35 62,-34 63,-31 67,-27 70,-25 71,-22 74,-18 76,-15 77,-13 79,-8 79,-6 82,-3 82,2 83,4 83,8 83,11 83,14 83,17 83,20 83,25 81,26 80,30 79,32 78,35 75,38 75,41 72,43 70,45 68,48 64,50 62,53 60,53 57,56 53,58 49,58 47,61 42,61 40,63 35,63 31,63 28,65 23,65 20,65 15,65 11,64 7,65 3,65 -2,63 -6,62 -10,62 -14,61 -18,59 -44,-80 -48,-79 -53,-79 -58,-77 -62,-75 -67,-73 -71,-72 -74,-69 -78,-66 -83,-65 -85,-60 -88,-59 -92,-55 -94,-53 -97,-48 -97,-45 -101,-41 -103,-38 -102,-34 -105,-30 -106,-26 -105,-22 -106,-18 -106,-12 -105,-10 -106,-5 h -103 l -103,3 -102,7 -100,12 -98,17 -94,20 -94,24 -90,29 -88,32 -84,36 -1,1 z"
       id="path381"
       inkscape:connector-curvature="0"
       style="fill:none;stroke:#527f34;stroke-width:35" />
  </g>
  <g
     class="com.sun.star.drawing.CustomShape"
     id="g383"
     transform="matrix(0.03543,0,0,0.03543,-16.51,-10.293)">
    <path
       d="m 23856,5070 23,-57 27,-57 29,-55 36,-52 37,-51 42,-49 46,-46 49,-44 52,-42 55,-39 59,-35 62,-34 63,-31 67,-27 70,-25 71,-22 74,-18 76,-15 77,-13 79,-8 79,-6 82,-3 82,2 83,4 83,8 83,11 83,14 83,17 83,20 83,25 81,26 80,30 79,32 78,35 75,38 75,41 72,43 70,45 68,48 64,50 62,53 60,53 57,56 53,58 49,58 47,61 42,61 40,63 35,63 31,63 28,65 23,65 20,65 15,65 11,64 7,65 3,65 -2,63 -6,62 -10,62 -14,61 -18,59 -44,-80 -48,-79 -53,-79 -58,-77 -62,-75 -67,-73 -71,-72 -74,-69 -78,-66 -83,-65 -85,-60 -88,-59 -92,-55 -94,-53 -97,-48 -97,-45 -101,-41 -103,-38 -102,-34 -105,-30 -106,-26 -105,-22 -106,-18 -106,-12 -105,-10 -106,-5 h -103 l -103,3 -102,7 -100,12 -98,17 -94,20 -94,24 -90,29 -88,32 -84,36 -1,1 z m 3596,-46 z m -3596,46 z"
       id="path385"
       inkscape:connector-curvature="0"
       style="fill:#70ad47" />
    <path
       d="m 23856,5070 23,-57 27,-57 29,-55 36,-52 37,-51 42,-49 46,-46 49,-44 52,-42 55,-39 59,-35 62,-34 63,-31 67,-27 70,-25 71,-22 74,-18 76,-15 77,-13 79,-8 79,-6 82,-3 82,2 83,4 83,8 83,11 83,14 83,17 83,20 83,25 81,26 80,30 79,32 78,35 75,38 75,41 72,43 70,45 68,48 64,50 62,53 60,53 57,56 53,58 49,58 47,61 42,61 40,63 35,63 31,63 28,65 23,65 20,65 15,65 11,64 7,65 3,65 -2,63 -6,62 -10,62 -14,61 -18,59 -44,-80 -48,-79 -53,-79 -58,-77 -62,-75 -67,-73 -71,-72 -74,-69 -78,-66 -83,-65 -85,-60 -88,-59 -92,-55 -94,-53 -97,-48 -97,-45 -101,-41 -103,-38 -102,-34 -105,-30 -106,-26 -105,-22 -106,-18 -106,-12 -105,-10 -106,-5 h -103 l -103,3 -102,7 -100,12 -98,17 -94,20 -94,24 -90,29 -88,32 -84,36 -1,1 z"
       id="path387"
       inkscape:connector-curvature="0"
       style="fill:none;stroke:#527f34;stroke-width:35" />
  </g>
  <g
     class="com.sun.star.drawing.CustomShape"
     id="g389"
     transform="matrix(0.03543,0,0,0.03543,-16.51,-10.293)">
    <path
       d="m 25495,9486 62,2 62,7 62,10 61,16 60,19 60,23 59,28 57,32 57,36 55,39 53,44 52,47 50,50 48,54 46,58 44,60 42,64 39,66 37,69 34,72 32,73 29,76 25,78 24,80 20,81 17,82 14,83 11,84 8,85 4,86 2,85 -2,86 -4,85 -8,85 -11,84 -14,84 -17,82 -20,81 -23,80 -26,77 -29,76 -31,74 -34,72 -37,69 -39,66 -42,64 -44,60 -46,58 -48,54 -50,50 -52,48 -53,43 -55,40 -57,36 -57,31 -59,28 -60,24 -60,19 -61,15 -62,11 -62,7 -62,2 62,-68 59,-71 57,-76 53,-80 51,-84 47,-87 44,-90 41,-93 37,-96 34,-99 29,-100 26,-103 22,-105 19,-106 14,-107 10,-107 6,-109 2,-109 -2,-108 -6,-109 -10,-108 -14,-107 -18,-106 -23,-104 -25,-103 -30,-101 -34,-98 -37,-96 -40,-94 -44,-90 -48,-87 -50,-83 -54,-80 -57,-76 -59,-72 -62,-68 h -1 z m 1226,3380 z M 25495,9486 z"
       id="path391"
       inkscape:connector-curvature="0"
       style="fill:#70ad47" />
    <path
       d="m 25495,9486 62,2 62,7 62,10 61,16 60,19 60,23 59,28 57,32 57,36 55,39 53,44 52,47 50,50 48,54 46,58 44,60 42,64 39,66 37,69 34,72 32,73 29,76 25,78 24,80 20,81 17,82 14,83 11,84 8,85 4,86 2,85 -2,86 -4,85 -8,85 -11,84 -14,84 -17,82 -20,81 -23,80 -26,77 -29,76 -31,74 -34,72 -37,69 -39,66 -42,64 -44,60 -46,58 -48,54 -50,50 -52,48 -53,43 -55,40 -57,36 -57,31 -59,28 -60,24 -60,19 -61,15 -62,11 -62,7 -62,2 62,-68 59,-71 57,-76 53,-80 51,-84 47,-87 44,-90 41,-93 37,-96 34,-99 29,-100 26,-103 22,-105 19,-106 14,-107 10,-107 6,-109 2,-109 -2,-108 -6,-109 -10,-108 -14,-107 -18,-106 -23,-104 -25,-103 -30,-101 -34,-98 -37,-96 -40,-94 -44,-90 -48,-87 -50,-83 -54,-80 -57,-76 -59,-72 -62,-68 h -1 z"
       id="path393"
       inkscape:connector-curvature="0"
       style="fill:none;stroke:#527f34;stroke-width:35" />
  </g>
  <g
     class="com.sun.star.drawing.CustomShape"
     id="g395"
     transform="matrix(0.03543,0,0,0.03543,-16.51,-10.293)">
    <path
       d="m 26411,9486 62,2 62,7 62,10 61,16 60,19 60,23 59,28 57,32 57,36 55,39 53,44 52,47 50,50 48,54 46,58 44,60 42,64 39,66 37,69 34,72 32,73 29,76 25,78 24,80 20,81 17,82 14,83 11,84 8,85 4,86 2,85 -2,86 -4,85 -8,85 -11,84 -14,84 -17,82 -20,81 -23,80 -26,77 -29,76 -31,74 -34,72 -37,69 -39,66 -42,64 -44,60 -46,58 -48,54 -50,50 -52,48 -53,43 -55,40 -57,36 -57,31 -59,28 -60,24 -60,19 -61,15 -62,11 -62,7 -62,2 62,-68 59,-71 57,-76 53,-80 51,-84 47,-87 44,-90 41,-93 37,-96 34,-99 29,-100 26,-103 22,-105 19,-106 14,-107 10,-107 6,-109 2,-109 -2,-108 -6,-109 -10,-108 -14,-107 -18,-106 -23,-104 -25,-103 -30,-101 -34,-98 -37,-96 -40,-94 -44,-90 -48,-87 -50,-83 -54,-80 -57,-76 -59,-72 -62,-68 h -1 z m 1226,3380 z M 26411,9486 z"
       id="path397"
       inkscape:connector-curvature="0"
       style="fill:#70ad47" />
    <path
       d="m 26411,9486 62,2 62,7 62,10 61,16 60,19 60,23 59,28 57,32 57,36 55,39 53,44 52,47 50,50 48,54 46,58 44,60 42,64 39,66 37,69 34,72 32,73 29,76 25,78 24,80 20,81 17,82 14,83 11,84 8,85 4,86 2,85 -2,86 -4,85 -8,85 -11,84 -14,84 -17,82 -20,81 -23,80 -26,77 -29,76 -31,74 -34,72 -37,69 -39,66 -42,64 -44,60 -46,58 -48,54 -50,50 -52,48 -53,43 -55,40 -57,36 -57,31 -59,28 -60,24 -60,19 -61,15 -62,11 -62,7 -62,2 62,-68 59,-71 57,-76 53,-80 51,-84 47,-87 44,-90 41,-93 37,-96 34,-99 29,-100 26,-103 22,-105 19,-106 14,-107 10,-107 6,-109 2,-109 -2,-108 -6,-109 -10,-108 -14,-107 -18,-106 -23,-104 -25,-103 -30,-101 -34,-98 -37,-96 -40,-94 -44,-90 -48,-87 -50,-83 -54,-80 -57,-76 -59,-72 -62,-68 h -1 z"
       id="path399"
       inkscape:connector-curvature="0"
       style="fill:none;stroke:#527f34;stroke-width:35" />
  </g>
  <g
     class="com.sun.star.drawing.CustomShape"
     id="g401"
     transform="matrix(0.03543,0,0,0.03543,-16.51,-10.293)">
    <path
       d="m 27328,9486 62,2 62,7 62,10 61,16 60,19 60,23 59,28 57,32 57,36 55,39 53,44 52,47 50,50 48,54 46,58 44,60 42,64 39,66 37,69 34,72 32,73 29,76 25,78 24,80 20,81 17,82 14,83 11,84 8,85 4,86 2,85 -2,86 -4,85 -8,85 -11,84 -14,84 -17,82 -20,81 -23,80 -26,77 -29,76 -31,74 -34,72 -37,69 -39,66 -42,64 -44,60 -46,58 -48,54 -50,50 -52,48 -53,43 -55,40 -57,36 -57,31 -59,28 -60,24 -60,19 -61,15 -62,11 -62,7 -62,2 62,-68 59,-71 57,-76 53,-80 51,-84 47,-87 44,-90 41,-93 37,-96 34,-99 29,-100 26,-103 22,-105 19,-106 14,-107 10,-107 6,-109 2,-109 -2,-108 -6,-109 -10,-108 -14,-107 -18,-106 -23,-104 -25,-103 -30,-101 -34,-98 -37,-96 -40,-94 -44,-90 -48,-87 -50,-83 -54,-80 -57,-76 -59,-72 -62,-68 h -1 z m 1226,3380 z M 27328,9486 z"
       id="path403"
       inkscape:connector-curvature="0"
       style="fill:#70ad47" />
    <path
       d="m 27328,9486 62,2 62,7 62,10 61,16 60,19 60,23 59,28 57,32 57,36 55,39 53,44 52,47 50,50 48,54 46,58 44,60 42,64 39,66 37,69 34,72 32,73 29,76 25,78 24,80 20,81 17,82 14,83 11,84 8,85 4,86 2,85 -2,86 -4,85 -8,85 -11,84 -14,84 -17,82 -20,81 -23,80 -26,77 -29,76 -31,74 -34,72 -37,69 -39,66 -42,64 -44,60 -46,58 -48,54 -50,50 -52,48 -53,43 -55,40 -57,36 -57,31 -59,28 -60,24 -60,19 -61,15 -62,11 -62,7 -62,2 62,-68 59,-71 57,-76 53,-80 51,-84 47,-87 44,-90 41,-93 37,-96 34,-99 29,-100 26,-103 22,-105 19,-106 14,-107 10,-107 6,-109 2,-109 -2,-108 -6,-109 -10,-108 -14,-107 -18,-106 -23,-104 -25,-103 -30,-101 -34,-98 -37,-96 -40,-94 -44,-90 -48,-87 -50,-83 -54,-80 -57,-76 -59,-72 -62,-68 h -1 z"
       id="path405"
       inkscape:connector-curvature="0"
       style="fill:none;stroke:#527f34;stroke-width:35" />
  </g>
  <g
     class="com.sun.star.drawing.CustomShape"
     id="g407"
     transform="matrix(0.03543,0,0,0.03543,-16.51,-10.293)">
    <path
       d="m 28244,9486 62,2 62,7 62,10 61,16 60,19 60,23 59,28 57,32 57,36 55,39 53,44 52,47 50,50 48,54 46,58 44,60 42,64 39,66 37,69 34,72 32,73 29,76 25,78 24,80 20,81 17,82 14,83 11,84 8,85 4,86 2,85 -2,86 -4,85 -8,85 -11,84 -14,84 -17,82 -20,81 -23,80 -26,77 -29,76 -31,74 -34,72 -37,69 -39,66 -42,64 -44,60 -46,58 -48,54 -50,50 -52,48 -53,43 -55,40 -57,36 -57,31 -59,28 -60,24 -60,19 -61,15 -62,11 -62,7 -62,2 62,-68 59,-71 57,-76 53,-80 51,-84 47,-87 44,-90 41,-93 37,-96 34,-99 29,-100 26,-103 22,-105 19,-106 14,-107 10,-107 6,-109 2,-109 -2,-108 -6,-109 -10,-108 -14,-107 -18,-106 -23,-104 -25,-103 -30,-101 -34,-98 -37,-96 -40,-94 -44,-90 -48,-87 -50,-83 -54,-80 -57,-76 -59,-72 -62,-68 h -1 z m 1226,3380 z M 28244,9486 z"
       id="path409"
       inkscape:connector-curvature="0"
       style="fill:#70ad47" />
    <path
       d="m 28244,9486 62,2 62,7 62,10 61,16 60,19 60,23 59,28 57,32 57,36 55,39 53,44 52,47 50,50 48,54 46,58 44,60 42,64 39,66 37,69 34,72 32,73 29,76 25,78 24,80 20,81 17,82 14,83 11,84 8,85 4,86 2,85 -2,86 -4,85 -8,85 -11,84 -14,84 -17,82 -20,81 -23,80 -26,77 -29,76 -31,74 -34,72 -37,69 -39,66 -42,64 -44,60 -46,58 -48,54 -50,50 -52,48 -53,43 -55,40 -57,36 -57,31 -59,28 -60,24 -60,19 -61,15 -62,11 -62,7 -62,2 62,-68 59,-71 57,-76 53,-80 51,-84 47,-87 44,-90 41,-93 37,-96 34,-99 29,-100 26,-103 22,-105 19,-106 14,-107 10,-107 6,-109 2,-109 -2,-108 -6,-109 -10,-108 -14,-107 -18,-106 -23,-104 -25,-103 -30,-101 -34,-98 -37,-96 -40,-94 -44,-90 -48,-87 -50,-83 -54,-80 -57,-76 -59,-72 -62,-68 h -1 z"
       id="path411"
       inkscape:connector-curvature="0"
       style="fill:none;stroke:#527f34;stroke-width:35" />
  </g>
  <text
     xml:space="preserve"
     style="font-size:40px;font-style:normal;font-weight:normal;line-height:125%;letter-spacing:0px;word-spacing:0px;fill:#000000;fill-opacity:1;stroke:none;font-family:Sans"
     x="147.10738"
     y="38.878548"
     id="text3197"
     sodipodi:linespacing="125%"><tspan
       sodipodi:role="line"
       id="tspan3199"
       x="147.10738"
       y="38.878548"
       style="font-size:32px;font-style:normal;font-variant:normal;font-weight:normal;font-stretch:normal;text-align:start;line-height:125%;writing-mode:lr-tb;text-anchor:start;font-family:Sans;-inkscape-font-specification:Sans">Home Client</tspan></text>
  <text
     sodipodi:linespacing="125%"
     id="text3201"
     y="37.608833"
     x="723.55402"
     style="font-size:40px;font-style:normal;font-weight:normal;line-height:125%;letter-spacing:0px;word-spacing:0px;fill:#000000;fill-opacity:1;stroke:none;font-family:Sans"
     xml:space="preserve"><tspan
       style="font-size:32px;font-style:normal;font-variant:normal;font-weight:normal;font-stretch:normal;text-align:start;line-height:125%;writing-mode:lr-tb;text-anchor:start;font-family:Sans;-inkscape-font-specification:Sans"
       y="37.608833"
       x="723.55402"
       id="tspan3203"
       sodipodi:role="line">Remote Client</tspan></text>
  <text
     xml:space="preserve"
     style="font-size:40px;font-style:normal;font-weight:normal;line-height:100%;letter-spacing:0px;word-spacing:0px;fill:#000000;fill-opacity:1;stroke:none;font-family:Sans"
     x="4.3836761"
     y="123.58993"
     id="text3564"
     sodipodi:linespacing="100%"><tspan
       sodipodi:role="line"
       id="tspan3566"
       x="4.3836761"
       y="123.58993"
       style="font-size:22px;font-style:normal;font-variant:normal;font-weight:normal;font-stretch:normal;text-align:start;line-height:100%;writing-mode:lr-tb;text-anchor:start;font-family:Sans;-inkscape-font-specification:Sans">Home client</tspan><tspan
       sodipodi:role="line"
       x="4.3836761"
       y="145.58994"
       id="tspan3568"
       style="font-size:22px;font-style:normal;font-variant:normal;font-weight:normal;font-stretch:normal;text-align:start;line-height:100%;writing-mode:lr-tb;text-anchor:start;font-family:Sans;-inkscape-font-specification:Sans">video source</tspan></text>
  <text
     sodipodi:linespacing="100%"
     id="text3570"
     y="223.89673"
     x="985.86658"
     style="font-size:40px;font-style:normal;font-weight:normal;line-height:100%;letter-spacing:0px;word-spacing:0px;fill:#000000;fill-opacity:1;stroke:none;font-family:Sans"
     xml:space="preserve"><tspan
       style="font-size:22px;font-style:normal;font-variant:normal;font-weight:normal;font-stretch:normal;text-align:start;line-height:100%;writing-mode:lr-tb;text-anchor:start;font-family:Sans;-inkscape-font-specification:Sans"
       id="tspan3574"
       y="223.89673"
       x="985.86658"
       sodipodi:role="line">Remote client</tspan><tspan
       style="font-size:22px;font-style:normal;font-variant:normal;font-weight:normal;font-stretch:normal;text-align:start;line-height:100%;writing-mode:lr-tb;text-anchor:start;font-family:Sans;-inkscape-font-specification:Sans"
       y="245.89673"
       x="985.86658"
       sodipodi:role="line"
       id="tspan3578">video sinks</tspan></text>
  <text
     xml:space="preserve"
     style="font-size:40px;font-style:normal;font-weight:normal;line-height:100%;letter-spacing:0px;word-spacing:0px;fill:#000000;fill-opacity:1;stroke:none;font-family:Sans"
     x="451.51117"
     y="72.992554"
     id="text3610"
     sodipodi:linespacing="100%"><tspan
       sodipodi:role="line"
       id="tspan3612"
       x="451.51117"
       y="72.992554"
       style="font-size:16px;font-style:normal;font-variant:normal;font-weight:normal;font-stretch:normal;text-align:start;line-height:100%;writing-mode:lr-tb;text-anchor:start;font-family:Sans;-inkscape-font-specification:Sans">&lt;video</tspan><tspan
       sodipodi:role="line"
       x="451.51117"
       y="88.992523"
       id="tspan3614"
       style="font-size:16px;font-style:normal;font-variant:normal;font-weight:normal;font-stretch:normal;text-align:start;line-height:100%;writing-mode:lr-tb;text-anchor:start;font-family:Sans;-inkscape-font-specification:Sans">width=1920</tspan><tspan
       sodipodi:role="line"
       x="451.51117"
       y="104.99252"
       id="tspan3616"
       style="font-size:16px;font-style:normal;font-variant:normal;font-weight:normal;font-stretch:normal;text-align:start;line-height:100%;writing-mode:lr-tb;text-anchor:start;font-family:Sans;-inkscape-font-specification:Sans">height=1200&gt;</tspan></text>
  <text
     sodipodi:linespacing="100%"
     id="text3626"
     y="305.15796"
     x="54.059902"
     style="font-size:40px;font-style:normal;font-weight:normal;line-height:100%;letter-spacing:0px;word-spacing:0px;fill:#000000;fill-opacity:1;stroke:none;font-family:Sans"
     xml:space="preserve"><tspan
       style="font-size:14px;font-style:normal;font-variant:normal;font-weight:normal;font-stretch:normal;text-align:start;line-height:100%;writing-mode:lr-tb;text-anchor:start;font-family:Sans;-inkscape-font-specification:Sans"
       id="tspan3632"
       y="305.15796"
       x="54.059902"
       sodipodi:role="line">width: 1920</tspan><tspan
       style="font-size:14px;font-style:normal;font-variant:normal;font-weight:normal;font-stretch:normal;text-align:start;line-height:100%;writing-mode:lr-tb;text-anchor:start;font-family:Sans;-inkscape-font-specification:Sans"
       y="319.15796"
       x="54.059902"
       sodipodi:role="line"
       id="tspan3639">height: 1200</tspan></text>
  <text
     sodipodi:linespacing="100%"
     id="text3641"
     y="211.19963"
     x="475.44473"
     style="font-size:40px;font-style:normal;font-weight:normal;line-height:100%;letter-spacing:0px;word-spacing:0px;fill:#000000;fill-opacity:1;stroke:none;font-family:Sans"
     xml:space="preserve"><tspan
       style="font-size:16px;font-style:normal;font-variant:normal;font-weight:normal;font-stretch:normal;text-align:start;line-height:100%;writing-mode:lr-tb;text-anchor:start;font-family:Sans;-inkscape-font-specification:Sans"
       y="211.19963"
       x="475.44473"
       id="tspan3643"
       sodipodi:role="line">&lt;video</tspan><tspan
       style="font-size:16px;font-style:normal;font-variant:normal;font-weight:normal;font-stretch:normal;text-align:start;line-height:100%;writing-mode:lr-tb;text-anchor:start;font-family:Sans;-inkscape-font-specification:Sans"
       id="tspan3647"
       y="227.19963"
       x="475.44473"
       sodipodi:role="line">width=320</tspan><tspan
       style="font-size:16px;font-style:normal;font-variant:normal;font-weight:normal;font-stretch:normal;text-align:start;line-height:100%;writing-mode:lr-tb;text-anchor:start;font-family:Sans;-inkscape-font-specification:Sans"
       y="243.19963"
       x="475.44473"
       sodipodi:role="line"
       id="tspan3651">height=200&gt;</tspan></text>
  <text
     xml:space="preserve"
     style="font-size:14px;font-style:normal;font-variant:normal;font-weight:normal;font-stretch:normal;text-align:start;line-height:100%;letter-spacing:0px;word-spacing:0px;writing-mode:lr-tb;text-anchor:start;fill:#000000;fill-opacity:1;stroke:none;font-family:Sans;-inkscape-font-specification:Sans"
     x="421.03818"
     y="387.68884"
     id="text3653"
     sodipodi:linespacing="100%"><tspan
       id="tspan3659"
       sodipodi:role="line"
       x="421.03818"
       y="387.68884"
       style="font-size:16px;font-style:normal;font-variant:normal;font-weight:normal;font-stretch:normal;text-align:start;line-height:100%;writing-mode:lr-tb;text-anchor:start;font-family:Sans;-inkscape-font-specification:Sans">RTCPeerConnection</tspan></text>
  <text
     xml:space="preserve"
     style="font-size:40px;font-style:normal;font-weight:normal;line-height:100%;letter-spacing:0px;word-spacing:0px;fill:#000000;fill-opacity:1;stroke:none;font-family:Sans"
     x="879.2113"
     y="81.689598"
     id="text3666"
     sodipodi:linespacing="100%"><tspan
       sodipodi:role="line"
       id="tspan3668"
       x="879.2113"
       y="81.689598"
       style="font-size:16px;font-style:normal;font-variant:normal;font-weight:normal;font-stretch:normal;text-align:start;line-height:100%;writing-mode:lr-tb;text-anchor:start;font-family:Sans;-inkscape-font-specification:Sans">&lt;video</tspan><tspan
       sodipodi:role="line"
       x="879.2113"
       y="97.689598"
       id="tspan3670"
       style="font-size:16px;font-style:normal;font-variant:normal;font-weight:normal;font-stretch:normal;text-align:start;line-height:100%;writing-mode:lr-tb;text-anchor:start;font-family:Sans;-inkscape-font-specification:Sans">width=150</tspan><tspan
       id="tspan3672"
       sodipodi:role="line"
       x="879.2113"
       y="113.6896"
       style="font-size:16px;font-style:normal;font-variant:normal;font-weight:normal;font-stretch:normal;text-align:start;line-height:100%;writing-mode:lr-tb;text-anchor:start;font-family:Sans;-inkscape-font-specification:Sans">height=100&gt;</tspan></text>
  <text
     sodipodi:linespacing="100%"
     id="text3674"
     y="366.10385"
     x="1044.2731"
     style="font-size:40px;font-style:normal;font-weight:normal;line-height:100%;letter-spacing:0px;word-spacing:0px;fill:#000000;fill-opacity:1;stroke:none;font-family:Sans"
     xml:space="preserve"><tspan
       style="font-size:16px;font-style:normal;font-variant:normal;font-weight:normal;font-stretch:normal;text-align:start;line-height:100%;writing-mode:lr-tb;text-anchor:start;font-family:Sans;-inkscape-font-specification:Sans"
       y="366.10385"
       x="1044.2731"
       id="tspan3676"
       sodipodi:role="line">&lt;video</tspan><tspan
       style="font-size:16px;font-style:normal;font-variant:normal;font-weight:normal;font-stretch:normal;text-align:start;line-height:100%;writing-mode:lr-tb;text-anchor:start;font-family:Sans;-inkscape-font-specification:Sans"
       id="tspan3678"
       y="382.10385"
       x="1044.2731"
       sodipodi:role="line">width=1024</tspan><tspan
       style="font-size:16px;font-style:normal;font-variant:normal;font-weight:normal;font-stretch:normal;text-align:start;line-height:100%;writing-mode:lr-tb;text-anchor:start;font-family:Sans;-inkscape-font-specification:Sans"
       y="398.10385"
       x="1044.2731"
       sodipodi:role="line"
       id="tspan3680">height=768&gt;</tspan></text>
  <text
     xml:space="preserve"
     style="font-size:40px;font-style:normal;font-weight:normal;line-height:125%;letter-spacing:0px;word-spacing:0px;fill:#000000;fill-opacity:1;stroke:none;font-family:Sans"
     x="598.86359"
     y="235.32407"
     id="text3205"
     sodipodi:linespacing="125%"><tspan
       sodipodi:role="line"
       id="tspan3207"
       x="598.86359"
       y="235.32407"
       style="font-size:24px;font-style:normal;font-variant:normal;font-weight:normal;font-stretch:normal;text-align:start;line-height:125%;writing-mode:lr-tb;text-anchor:start;font-family:Sans;-inkscape-font-specification:Sans">B</tspan></text>
  <text
     sodipodi:linespacing="125%"
     id="text3209"
     y="331.00021"
     x="594.79706"
     style="font-size:40px;font-style:normal;font-weight:normal;line-height:125%;letter-spacing:0px;word-spacing:0px;fill:#000000;fill-opacity:1;stroke:none;font-family:Sans"
     xml:space="preserve"><tspan
       style="font-size:24px;font-style:normal;font-variant:normal;font-weight:normal;font-stretch:normal;text-align:start;line-height:125%;writing-mode:lr-tb;text-anchor:start;font-family:Sans;-inkscape-font-specification:Sans"
       y="331.00021"
       x="594.79706"
       id="tspan3211"
       sodipodi:role="line">C</tspan></text>
  <text
     xml:space="preserve"
     style="font-size:40px;font-style:normal;font-weight:normal;line-height:125%;letter-spacing:0px;word-spacing:0px;fill:#000000;fill-opacity:1;stroke:none;font-family:Sans"
     x="602.41528"
     y="83.971748"
     id="text3213"
     sodipodi:linespacing="125%"><tspan
       sodipodi:role="line"
       id="tspan3215"
       x="602.41528"
       y="83.971748"
       style="font-size:24px;font-style:normal;font-variant:normal;font-weight:normal;font-stretch:normal;text-align:start;line-height:125%;writing-mode:lr-tb;text-anchor:start;font-family:Sans;-inkscape-font-specification:Sans">A</tspan></text>
  <text
     sodipodi:linespacing="125%"
     id="text3217"
     y="101.74767"
     x="1005.7753"
     style="font-size:40px;font-style:normal;font-weight:normal;line-height:125%;letter-spacing:0px;word-spacing:0px;fill:#000000;fill-opacity:1;stroke:none;font-family:Sans"
     xml:space="preserve"><tspan
       style="font-size:24px;font-style:normal;font-variant:normal;font-weight:normal;font-stretch:normal;text-align:start;line-height:125%;writing-mode:lr-tb;text-anchor:start;font-family:Sans;-inkscape-font-specification:Sans"
       y="101.74767"
       x="1005.7753"
       id="tspan3219"
       sodipodi:role="line">Y</tspan></text>
  <text
     xml:space="preserve"
     style="font-size:40px;font-style:normal;font-weight:normal;line-height:125%;letter-spacing:0px;word-spacing:0px;fill:#000000;fill-opacity:1;stroke:none;font-family:Sans"
     x="1116.2065"
     y="301.00027"
     id="text3221"
     sodipodi:linespacing="125%"><tspan
       sodipodi:role="line"
       id="tspan3223"
       x="1116.2065"
       y="301.00027"
       style="font-size:24px;font-style:normal;font-variant:normal;font-weight:normal;font-stretch:normal;text-align:start;line-height:125%;writing-mode:lr-tb;text-anchor:start;font-family:Sans;-inkscape-font-specification:Sans">Z</tspan></text>
  <text
     xml:space="preserve"
     style="font-size:40px;font-style:normal;font-weight:normal;line-height:100%;letter-spacing:0px;word-spacing:0px;fill:#000000;fill-opacity:1;stroke:none;font-family:Sans"
     x="775.0954"
     y="424.98328"
     id="text4254"
     sodipodi:linespacing="100%"><tspan
       sodipodi:role="line"
       x="775.0954"
       y="424.98328"
       id="tspan4256"
       style="font-size:14px;font-style:normal;font-variant:normal;font-weight:normal;font-stretch:normal;text-align:start;line-height:100%;writing-mode:lr-tb;text-anchor:start;font-family:Sans;-inkscape-font-specification:Sans">width: 1024</tspan><tspan
       id="tspan4258"
       sodipodi:role="line"
       x="775.0954"
       y="438.98328"
       style="font-size:14px;font-style:normal;font-variant:normal;font-weight:normal;font-stretch:normal;text-align:start;line-height:100%;writing-mode:lr-tb;text-anchor:start;font-family:Sans;-inkscape-font-specification:Sans">height: 768</tspan></text>
  <text
     sodipodi:linespacing="125%"
     id="text3225"
     y="491.37247"
     x="380.2009"
     style="font-size:40px;font-style:normal;font-weight:normal;line-height:125%;letter-spacing:0px;word-spacing:0px;fill:#000000;fill-opacity:1;stroke:none;font-family:Sans"
     xml:space="preserve"><tspan
       style="font-size:22px;font-style:normal;font-variant:normal;font-weight:normal;font-stretch:normal;text-align:start;line-height:125%;writing-mode:lr-tb;text-anchor:start;font-family:Sans;-inkscape-font-specification:Sans"
       y="491.37247"
       x="380.2009"
       id="tspan3227"
       sodipodi:role="line">Home client video sinks</tspan></text>
  <text
     xml:space="preserve"
     style="font-size:40px;font-style:normal;font-weight:normal;line-height:125%;letter-spacing:0px;word-spacing:0px;fill:#000000;fill-opacity:1;stroke:none;font-family:Sans"
     x="678.58185"
     y="491.37247"
     id="text3229"
     sodipodi:linespacing="125%"><tspan
       sodipodi:role="line"
       id="tspan3231"
       x="678.58185"
       y="491.37247"
       style="font-size:22px;font-style:normal;font-variant:normal;font-weight:normal;font-stretch:normal;text-align:start;line-height:125%;writing-mode:lr-tb;text-anchor:start;font-family:Sans;-inkscape-font-specification:Sans">Remote client video source</tspan></text>
</svg>
