<?xml version="1.0" encoding="UTF-8" standalone="no"?>
<svg
   xmlns:dc="http://purl.org/dc/elements/1.1/"
   xmlns:cc="http://creativecommons.org/ns#"
   xmlns:rdf="http://www.w3.org/1999/02/22-rdf-syntax-ns#"
   xmlns:svg="http://www.w3.org/2000/svg"
   xmlns="http://www.w3.org/2000/svg"
   xmlns:sodipodi="http://sodipodi.sourceforge.net/DTD/sodipodi-0.dtd"
   xmlns:inkscape="http://www.inkscape.org/namespaces/inkscape"
   width="650.29865"
   height="333.99152"
   id="svg2"
   version="1.1"
   inkscape:version="0.48.4 r9939"
   sodipodi:docname="overconstrained_apply.svg">
  <metadata
     id="metadata297">
    <rdf:RDF>
      <cc:Work
         rdf:about="">
        <dc:format>image/svg+xml</dc:format>
        <dc:type
           rdf:resource="http://purl.org/dc/dcmitype/StillImage" />
      </cc:Work>
    </rdf:RDF>
  </metadata>
  <sodipodi:namedview
     pagecolor="#ffffff"
     bordercolor="#666666"
     borderopacity="1"
     objecttolerance="10"
     gridtolerance="10"
     guidetolerance="10"
     inkscape:pageopacity="0"
     inkscape:pageshadow="2"
     inkscape:window-width="1553"
     inkscape:window-height="918"
     id="namedview295"
     showgrid="false"
     fit-margin-top="0"
     fit-margin-left="0"
     fit-margin-right="0"
     fit-margin-bottom="0"
     inkscape:zoom="1.3901793"
     inkscape:cx="241.26985"
     inkscape:cy="176.6864"
     inkscape:window-x="262"
     inkscape:window-y="73"
     inkscape:window-maximized="0"
     inkscape:current-layer="svg2" />
  <defs
     id="defs4">
    <clipPath
       id="a">
      <path
         d="M 0,0 H 33867 V 19050 H 0 z"
         id="path7"
         inkscape:connector-curvature="0" />
    </clipPath>
  </defs>
  <g
     class="com.sun.star.drawing.CustomShape"
     id="g13"
     transform="matrix(0.03754917,0,0,0.03543,-32.93066,-31.809336)">
    <path
       d="M 894,4265 H 4593 V 9166 H 894 V 4265 z m 462,1741 v 549 h 187 l 58,-63 h 53 v 838 h 1887 v -289 h 298 l 162,159 h 129 V 6179 h -129 l -112,111 H 3541 V 6179 L 3431,6064 H 1601 l -58,-58 H 1356 z M 894,4265 z m 3699,4901 z"
       id="path15"
       inkscape:connector-curvature="0"
       style="fill:#ffffff" />
    <path
       d="m 1356,6006 v 549 h 187 l 58,-63 h 53 v 838 h 1887 v -289 h 298 l 162,159 h 129 V 6179 h -129 l -112,111 H 3541 V 6179 L 3431,6064 H 1601 l -58,-58 H 1356 z M 894,4265 z m 3699,4901 z"
       id="path17"
       inkscape:connector-curvature="0"
       style="fill:#aaaaaa" />
    <path
       d="m 1356,6006 h 187 l 58,58 h 1830 l 110,115 v 111 h 348 l 112,-111 h 129 v 1021 h -129 l -162,-159 h -298 v 289 H 1654 v -838 h -53 l -58,63 h -187 v -549 z"
       id="path19"
       inkscape:connector-curvature="0"
       style="fill:none;stroke:#ed7d31;stroke-width:35" />
    <path
       d="M 894,4265 H 4593 V 9166 H 894 V 4265 z"
       id="path21"
       inkscape:connector-curvature="0"
       style="fill:none;stroke:#ed7d31;stroke-width:35" />
  </g>
  <g
     class="com.sun.star.drawing.CustomShape"
     id="g47"
     transform="matrix(0.03543,0,0,0.03543,-24.599061,-31.809336)">
    <path
       d="m 12466,6450 h 3481 V 9166 H 12466 V 6450 z m 0,0 z m 3481,2716 z"
       id="path49"
       inkscape:connector-curvature="0"
       style="fill:#a7c9e8" />
    <path
       d="m 12466,6450 h 3481 V 9166 H 12466 V 6450 z"
       id="path51"
       inkscape:connector-curvature="0"
       style="fill:none;stroke:#43729d;stroke-width:35" />
  </g>
  <g
     class="com.sun.star.drawing.CustomShape"
     id="g81"
     transform="matrix(0.03828755,0,0,0.03543,-60.1713,-31.809336)">
    <path
       d="m 12466,916 h 3169 V 3487 H 12466 V 916 z m 0,0 z m 3169,2571 z"
       id="path83"
       inkscape:connector-curvature="0"
       style="fill:#a7c9e8" />
    <path
       d="m 12466,916 h 3169 V 3487 H 12466 V 916 z"
       id="path85"
       inkscape:connector-curvature="0"
       style="fill:none;stroke:#43729d;stroke-width:35" />
  </g>
  <g
     class="com.sun.star.drawing.CustomShape"
     id="g153"
     transform="matrix(0.03543,0,0,0.03543,-24.599061,-31.809336)">
    <path
       d="m 4544,3968 39,-11 40,-7 41,-4 h 40 l 42,3 44,7 43,10 43,14 43,17 45,20 43,24 44,26 43,30 43,33 43,36 42,39 42,41 41,45 40,46 39,49 37,52 37,53 36,56 34,58 33,60 31,61 30,63 28,63 26,65 24,67 23,66 21,68 18,68 17,68 14,68 13,68 10,68 8,67 6,68 3,66 2,65 -1,63 -2,63 -6,62 -7,60 -10,58 -11,56 -14,54 -16,52 -18,50 -20,47 -22,44 -24,43 -25,39 -27,36 -29,34 -32,30 -32,27 -33,24 -36,21 -36,17 -38,14 21,-65 19,-68 16,-71 12,-73 10,-76 8,-77 4,-80 1,-80 -1,-83 -4,-84 -7,-85 -10,-85 -13,-86 -15,-87 -19,-87 -20,-86 -23,-87 -27,-85 -28,-86 -31,-83 -34,-83 -36,-81 -38,-79 -39,-78 -41,-76 -45,-73 -45,-70 -47,-68 -48,-66 -50,-61 -51,-60 -52,-55 -54,-52 -53,-48 -54,-45 -55,-41 h -3 z M 6149,6377 z M 4544,3968 z"
       id="path155"
       inkscape:connector-curvature="0"
       style="fill:#a5a5a5" />
    <path
       d="m 4544,3968 39,-11 40,-7 41,-4 h 40 l 42,3 44,7 43,10 43,14 43,17 45,20 43,24 44,26 43,30 43,33 43,36 42,39 42,41 41,45 40,46 39,49 37,52 37,53 36,56 34,58 33,60 31,61 30,63 28,63 26,65 24,67 23,66 21,68 18,68 17,68 14,68 13,68 10,68 8,67 6,68 3,66 2,65 -1,63 -2,63 -6,62 -7,60 -10,58 -11,56 -14,54 -16,52 -18,50 -20,47 -22,44 -24,43 -25,39 -27,36 -29,34 -32,30 -32,27 -33,24 -36,21 -36,17 -38,14 21,-65 19,-68 16,-71 12,-73 10,-76 8,-77 4,-80 1,-80 -1,-83 -4,-84 -7,-85 -10,-85 -13,-86 -15,-87 -19,-87 -20,-86 -23,-87 -27,-85 -28,-86 -31,-83 -34,-83 -36,-81 -38,-79 -39,-78 -41,-76 -45,-73 -45,-70 -47,-68 -48,-66 -50,-61 -51,-60 -52,-55 -54,-52 -53,-48 -54,-45 -55,-41 h -3 z"
       id="path157"
       inkscape:connector-curvature="0"
       style="fill:none;stroke:#7a7a7a;stroke-width:35" />
  </g>
  <g
     class="com.sun.star.drawing.CustomShape"
     id="g159"
     transform="matrix(0.03543,0,0,0.03543,-24.599061,-31.809336)">
    <path
       d="m 5430,3586 39,-11 40,-7 41,-4 h 40 l 42,3 44,7 43,10 43,14 43,17 45,20 43,24 44,26 43,30 43,33 43,36 42,39 42,41 41,45 40,46 39,49 37,52 37,53 36,56 34,58 33,60 31,61 30,63 28,63 26,65 24,67 23,66 21,68 18,68 17,68 14,68 13,68 10,68 8,67 6,68 3,66 2,65 -1,63 -2,63 -6,62 -7,60 -10,58 -11,56 -14,54 -16,52 -18,50 -20,47 -22,44 -24,43 -25,39 -27,36 -29,34 -32,30 -32,27 -33,24 -36,21 -36,17 -38,14 21,-65 19,-68 16,-71 12,-73 10,-76 8,-77 4,-80 1,-80 -1,-83 -4,-84 -7,-85 -10,-85 -13,-86 -15,-87 -19,-87 -20,-86 -23,-87 -27,-85 -28,-86 -31,-83 -34,-83 -36,-81 -38,-79 -39,-78 -41,-76 -45,-73 -45,-70 -47,-68 -48,-66 -50,-61 -51,-60 -52,-55 -54,-52 -53,-48 -54,-45 -55,-41 h -3 z M 7035,5995 z M 5430,3586 z"
       id="path161"
       inkscape:connector-curvature="0"
       style="fill:#a5a5a5" />
    <path
       d="m 5430,3586 39,-11 40,-7 41,-4 h 40 l 42,3 44,7 43,10 43,14 43,17 45,20 43,24 44,26 43,30 43,33 43,36 42,39 42,41 41,45 40,46 39,49 37,52 37,53 36,56 34,58 33,60 31,61 30,63 28,63 26,65 24,67 23,66 21,68 18,68 17,68 14,68 13,68 10,68 8,67 6,68 3,66 2,65 -1,63 -2,63 -6,62 -7,60 -10,58 -11,56 -14,54 -16,52 -18,50 -20,47 -22,44 -24,43 -25,39 -27,36 -29,34 -32,30 -32,27 -33,24 -36,21 -36,17 -38,14 21,-65 19,-68 16,-71 12,-73 10,-76 8,-77 4,-80 1,-80 -1,-83 -4,-84 -7,-85 -10,-85 -13,-86 -15,-87 -19,-87 -20,-86 -23,-87 -27,-85 -28,-86 -31,-83 -34,-83 -36,-81 -38,-79 -39,-78 -41,-76 -45,-73 -45,-70 -47,-68 -48,-66 -50,-61 -51,-60 -52,-55 -54,-52 -53,-48 -54,-45 -55,-41 h -3 z"
       id="path163"
       inkscape:connector-curvature="0"
       style="fill:none;stroke:#7a7a7a;stroke-width:35" />
  </g>
  <g
     class="com.sun.star.drawing.CustomShape"
     id="g165"
     transform="matrix(0.03543,0,0,0.03543,-24.599061,-31.809336)">
    <path
       d="m 6316,3205 39,-11 40,-7 41,-4 h 40 l 42,3 44,7 43,10 43,14 43,17 45,20 43,24 44,26 43,30 43,33 43,36 42,39 42,41 41,45 40,46 39,49 37,52 37,53 36,56 34,58 33,60 31,61 30,63 28,63 26,65 24,67 23,66 21,68 18,68 17,68 14,68 13,68 10,68 8,67 6,68 3,66 2,65 -1,63 -2,63 -6,62 -7,60 -10,58 -11,56 -14,54 -16,52 -18,50 -20,47 -22,44 -24,43 -25,39 -27,36 -29,34 -32,30 -32,27 -33,24 -36,21 -36,17 -38,14 21,-65 19,-68 16,-71 12,-73 10,-76 8,-77 4,-80 1,-80 -1,-83 -4,-84 -7,-85 -10,-85 -13,-86 -15,-87 -19,-87 -20,-86 -23,-87 -27,-85 -28,-86 -31,-83 -34,-83 -36,-81 -38,-79 -39,-78 -41,-76 -45,-73 -45,-70 -47,-68 -48,-66 -50,-61 -51,-60 -52,-55 -54,-52 -53,-48 -54,-45 -55,-41 h -3 z M 7921,5614 z M 6316,3205 z"
       id="path167"
       inkscape:connector-curvature="0"
       style="fill:#a5a5a5" />
    <path
       d="m 6316,3205 39,-11 40,-7 41,-4 h 40 l 42,3 44,7 43,10 43,14 43,17 45,20 43,24 44,26 43,30 43,33 43,36 42,39 42,41 41,45 40,46 39,49 37,52 37,53 36,56 34,58 33,60 31,61 30,63 28,63 26,65 24,67 23,66 21,68 18,68 17,68 14,68 13,68 10,68 8,67 6,68 3,66 2,65 -1,63 -2,63 -6,62 -7,60 -10,58 -11,56 -14,54 -16,52 -18,50 -20,47 -22,44 -24,43 -25,39 -27,36 -29,34 -32,30 -32,27 -33,24 -36,21 -36,17 -38,14 21,-65 19,-68 16,-71 12,-73 10,-76 8,-77 4,-80 1,-80 -1,-83 -4,-84 -7,-85 -10,-85 -13,-86 -15,-87 -19,-87 -20,-86 -23,-87 -27,-85 -28,-86 -31,-83 -34,-83 -36,-81 -38,-79 -39,-78 -41,-76 -45,-73 -45,-70 -47,-68 -48,-66 -50,-61 -51,-60 -52,-55 -54,-52 -53,-48 -54,-45 -55,-41 h -3 z"
       id="path169"
       inkscape:connector-curvature="0"
       style="fill:none;stroke:#7a7a7a;stroke-width:35" />
  </g>
  <g
     class="com.sun.star.drawing.CustomShape"
     id="g171"
     transform="matrix(0.03543,0,0,0.03543,-24.599061,-31.809336)">
    <path
       d="m 7202,2824 39,-11 40,-7 41,-4 h 40 l 42,3 44,7 43,10 43,14 43,17 45,20 43,24 44,26 43,30 43,33 43,36 42,39 42,41 41,45 40,46 39,49 37,52 37,53 36,56 34,58 33,60 31,61 30,63 28,63 26,65 24,67 23,66 21,68 18,68 17,68 14,68 13,68 10,68 8,67 6,68 3,66 2,65 -1,63 -2,63 -6,62 -7,60 -10,58 -11,56 -14,54 -16,52 -18,50 -20,47 -22,44 -24,43 -25,39 -27,36 -29,34 -32,30 -32,27 -33,24 -36,21 -36,17 -38,14 21,-65 19,-68 16,-71 12,-73 10,-76 8,-77 4,-80 1,-80 -1,-83 -4,-84 -7,-85 -10,-85 -13,-86 -15,-87 -19,-87 -20,-86 -23,-87 -27,-85 -28,-86 -31,-83 -34,-83 -36,-81 -38,-79 -39,-78 -41,-76 -45,-73 -45,-70 -47,-68 -48,-66 -50,-61 -51,-60 -52,-55 -54,-52 -53,-48 -54,-45 -55,-41 h -3 z M 8807,5233 z M 7202,2824 z"
       id="path173"
       inkscape:connector-curvature="0"
       style="fill:#a5a5a5" />
    <path
       d="m 7202,2824 39,-11 40,-7 41,-4 h 40 l 42,3 44,7 43,10 43,14 43,17 45,20 43,24 44,26 43,30 43,33 43,36 42,39 42,41 41,45 40,46 39,49 37,52 37,53 36,56 34,58 33,60 31,61 30,63 28,63 26,65 24,67 23,66 21,68 18,68 17,68 14,68 13,68 10,68 8,67 6,68 3,66 2,65 -1,63 -2,63 -6,62 -7,60 -10,58 -11,56 -14,54 -16,52 -18,50 -20,47 -22,44 -24,43 -25,39 -27,36 -29,34 -32,30 -32,27 -33,24 -36,21 -36,17 -38,14 21,-65 19,-68 16,-71 12,-73 10,-76 8,-77 4,-80 1,-80 -1,-83 -4,-84 -7,-85 -10,-85 -13,-86 -15,-87 -19,-87 -20,-86 -23,-87 -27,-85 -28,-86 -31,-83 -34,-83 -36,-81 -38,-79 -39,-78 -41,-76 -45,-73 -45,-70 -47,-68 -48,-66 -50,-61 -51,-60 -52,-55 -54,-52 -53,-48 -54,-45 -55,-41 h -3 z"
       id="path175"
       inkscape:connector-curvature="0"
       style="fill:none;stroke:#7a7a7a;stroke-width:35" />
  </g>
  <g
     class="com.sun.star.drawing.CustomShape"
     id="g177"
     transform="matrix(0.03543,0,0,0.03543,-24.599061,-31.809336)">
    <path
       d="m 8088,2443 39,-11 40,-7 41,-4 h 40 l 42,3 44,7 43,10 43,14 43,17 45,20 43,24 44,26 43,30 43,33 43,36 42,39 42,41 41,45 40,46 39,49 37,52 37,53 36,56 34,58 33,60 31,61 30,63 28,63 26,65 24,67 23,66 21,68 18,68 17,68 14,68 13,68 10,68 8,67 6,68 3,66 2,65 -1,63 -2,63 -6,62 -7,60 -10,58 -11,56 -14,54 -16,52 -18,50 -20,47 -22,44 -24,43 -25,39 -27,36 -29,34 -32,30 -32,27 -33,24 -36,21 -36,17 -38,14 21,-65 19,-68 16,-71 12,-73 10,-76 8,-77 4,-80 1,-80 -1,-83 -4,-84 -7,-85 -10,-85 -13,-86 -15,-87 -19,-87 -20,-86 -23,-87 -27,-85 -28,-86 -31,-83 -34,-83 -36,-81 -38,-79 -39,-78 -41,-76 -45,-73 -45,-70 -47,-68 -48,-66 -50,-61 -51,-60 -52,-55 -54,-52 -53,-48 -54,-45 -55,-41 h -3 z M 9693,4852 z M 8088,2443 z"
       id="path179"
       inkscape:connector-curvature="0"
       style="fill:#a5a5a5" />
    <path
       d="m 8088,2443 39,-11 40,-7 41,-4 h 40 l 42,3 44,7 43,10 43,14 43,17 45,20 43,24 44,26 43,30 43,33 43,36 42,39 42,41 41,45 40,46 39,49 37,52 37,53 36,56 34,58 33,60 31,61 30,63 28,63 26,65 24,67 23,66 21,68 18,68 17,68 14,68 13,68 10,68 8,67 6,68 3,66 2,65 -1,63 -2,63 -6,62 -7,60 -10,58 -11,56 -14,54 -16,52 -18,50 -20,47 -22,44 -24,43 -25,39 -27,36 -29,34 -32,30 -32,27 -33,24 -36,21 -36,17 -38,14 21,-65 19,-68 16,-71 12,-73 10,-76 8,-77 4,-80 1,-80 -1,-83 -4,-84 -7,-85 -10,-85 -13,-86 -15,-87 -19,-87 -20,-86 -23,-87 -27,-85 -28,-86 -31,-83 -34,-83 -36,-81 -38,-79 -39,-78 -41,-76 -45,-73 -45,-70 -47,-68 -48,-66 -50,-61 -51,-60 -52,-55 -54,-52 -53,-48 -54,-45 -55,-41 h -3 z"
       id="path181"
       inkscape:connector-curvature="0"
       style="fill:none;stroke:#7a7a7a;stroke-width:35" />
  </g>
  <g
     class="com.sun.star.drawing.CustomShape"
     id="g183"
     transform="matrix(0.03543,0,0,0.03543,-24.599061,-31.809336)">
    <path
       d="m 8974,2062 39,-11 40,-7 41,-4 h 40 l 42,3 44,7 43,10 43,14 43,17 45,20 43,24 44,26 43,30 43,33 43,36 42,39 42,41 41,45 40,46 39,49 37,52 37,53 36,56 34,58 33,60 31,61 30,63 28,63 26,65 24,67 23,66 21,68 18,68 17,68 14,68 13,68 10,68 8,67 6,68 3,66 2,65 -1,63 -2,63 -6,62 -7,60 -10,58 -11,56 -14,54 -16,52 -18,50 -20,47 -22,44 -24,43 -25,39 -27,36 -29,34 -32,30 -32,27 -33,24 -36,21 -36,17 -38,14 21,-65 19,-68 16,-71 12,-73 10,-76 8,-77 4,-80 1,-80 -1,-83 -4,-84 -7,-85 -10,-85 -13,-86 -15,-87 -19,-87 -20,-86 -23,-87 -27,-85 -28,-86 -31,-83 -34,-83 -36,-81 -38,-79 -39,-78 -41,-76 -45,-73 -45,-70 -47,-68 -48,-66 -50,-61 -51,-60 -52,-55 -54,-52 -53,-48 -54,-45 -55,-41 h -3 z m 1605,2409 z M 8974,2062 z"
       id="path185"
       inkscape:connector-curvature="0"
       style="fill:#a5a5a5" />
    <path
       d="m 8974,2062 39,-11 40,-7 41,-4 h 40 l 42,3 44,7 43,10 43,14 43,17 45,20 43,24 44,26 43,30 43,33 43,36 42,39 42,41 41,45 40,46 39,49 37,52 37,53 36,56 34,58 33,60 31,61 30,63 28,63 26,65 24,67 23,66 21,68 18,68 17,68 14,68 13,68 10,68 8,67 6,68 3,66 2,65 -1,63 -2,63 -6,62 -7,60 -10,58 -11,56 -14,54 -16,52 -18,50 -20,47 -22,44 -24,43 -25,39 -27,36 -29,34 -32,30 -32,27 -33,24 -36,21 -36,17 -38,14 21,-65 19,-68 16,-71 12,-73 10,-76 8,-77 4,-80 1,-80 -1,-83 -4,-84 -7,-85 -10,-85 -13,-86 -15,-87 -19,-87 -20,-86 -23,-87 -27,-85 -28,-86 -31,-83 -34,-83 -36,-81 -38,-79 -39,-78 -41,-76 -45,-73 -45,-70 -47,-68 -48,-66 -50,-61 -51,-60 -52,-55 -54,-52 -53,-48 -54,-45 -55,-41 h -3 z"
       id="path187"
       inkscape:connector-curvature="0"
       style="fill:none;stroke:#7a7a7a;stroke-width:35" />
  </g>
  <g
     class="com.sun.star.drawing.CustomShape"
     id="g189"
     transform="matrix(0.03543,0,0,0.03543,-24.599061,-31.809336)">
    <path
       d="m 9860,1680 39,-11 40,-7 41,-4 h 40 l 42,3 44,7 43,10 43,14 43,17 45,20 43,24 44,26 43,30 43,33 43,36 42,39 42,41 41,45 40,46 39,49 37,52 37,53 36,56 34,58 33,60 31,61 30,63 28,63 26,65 24,67 23,66 21,68 18,68 17,68 14,68 13,68 10,68 8,67 6,68 3,66 2,65 -1,63 -2,63 -6,62 -7,60 -10,58 -11,56 -14,54 -16,52 -18,50 -20,47 -22,44 -24,43 -25,39 -27,36 -29,34 -32,30 -32,27 -33,24 -36,21 -36,17 -38,14 21,-65 19,-68 16,-71 12,-73 10,-76 8,-77 4,-80 1,-80 -1,-83 -4,-84 -7,-85 -10,-85 -13,-86 -15,-87 -19,-87 -20,-86 -23,-87 -27,-85 -28,-86 -31,-83 -34,-83 -36,-81 -38,-79 -39,-78 -41,-76 -45,-73 -45,-70 -47,-68 -48,-66 -50,-61 -51,-60 -52,-55 -54,-52 -53,-48 -54,-45 -55,-41 h -3 z m 1605,2409 z M 9860,1680 z"
       id="path191"
       inkscape:connector-curvature="0"
       style="fill:#a5a5a5" />
    <path
       d="m 9860,1680 39,-11 40,-7 41,-4 h 40 l 42,3 44,7 43,10 43,14 43,17 45,20 43,24 44,26 43,30 43,33 43,36 42,39 42,41 41,45 40,46 39,49 37,52 37,53 36,56 34,58 33,60 31,61 30,63 28,63 26,65 24,67 23,66 21,68 18,68 17,68 14,68 13,68 10,68 8,67 6,68 3,66 2,65 -1,63 -2,63 -6,62 -7,60 -10,58 -11,56 -14,54 -16,52 -18,50 -20,47 -22,44 -24,43 -25,39 -27,36 -29,34 -32,30 -32,27 -33,24 -36,21 -36,17 -38,14 21,-65 19,-68 16,-71 12,-73 10,-76 8,-77 4,-80 1,-80 -1,-83 -4,-84 -7,-85 -10,-85 -13,-86 -15,-87 -19,-87 -20,-86 -23,-87 -27,-85 -28,-86 -31,-83 -34,-83 -36,-81 -38,-79 -39,-78 -41,-76 -45,-73 -45,-70 -47,-68 -48,-66 -50,-61 -51,-60 -52,-55 -54,-52 -53,-48 -54,-45 -55,-41 h -3 z"
       id="path193"
       inkscape:connector-curvature="0"
       style="fill:none;stroke:#7a7a7a;stroke-width:35" />
  </g>
  <g
     class="com.sun.star.drawing.CustomShape"
     id="g195"
     transform="matrix(0.03543,0,0,0.03543,-24.599061,-31.809336)">
    <path
       d="m 10746,1299 39,-11 40,-7 41,-4 h 40 l 42,3 44,7 43,10 43,14 43,17 45,20 43,24 44,26 43,30 43,33 43,36 42,39 42,41 41,45 40,46 39,49 37,52 37,53 36,56 34,58 33,60 31,61 30,63 28,63 26,65 24,67 23,66 21,68 18,68 17,68 14,68 13,68 10,68 8,67 6,68 3,66 2,65 -1,63 -2,63 -6,62 -7,60 -10,58 -11,56 -14,54 -16,52 -18,50 -20,47 -22,44 -24,43 -25,39 -27,36 -29,34 -32,30 -32,27 -33,24 -36,21 -36,17 -38,14 21,-65 19,-68 16,-71 12,-73 10,-76 8,-77 4,-80 1,-80 -1,-83 -4,-84 -7,-85 -10,-85 -13,-86 -15,-87 -19,-87 -20,-86 -23,-87 -27,-85 -28,-86 -31,-83 -34,-83 -36,-81 -38,-79 -39,-78 -41,-76 -45,-73 -45,-70 -47,-68 -48,-66 -50,-61 -51,-60 -52,-55 -54,-52 -53,-48 -54,-45 -55,-41 h -3 z m 1605,2409 z M 10746,1299 z"
       id="path197"
       inkscape:connector-curvature="0"
       style="fill:#a5a5a5" />
    <path
       d="m 10746,1299 39,-11 40,-7 41,-4 h 40 l 42,3 44,7 43,10 43,14 43,17 45,20 43,24 44,26 43,30 43,33 43,36 42,39 42,41 41,45 40,46 39,49 37,52 37,53 36,56 34,58 33,60 31,61 30,63 28,63 26,65 24,67 23,66 21,68 18,68 17,68 14,68 13,68 10,68 8,67 6,68 3,66 2,65 -1,63 -2,63 -6,62 -7,60 -10,58 -11,56 -14,54 -16,52 -18,50 -20,47 -22,44 -24,43 -25,39 -27,36 -29,34 -32,30 -32,27 -33,24 -36,21 -36,17 -38,14 21,-65 19,-68 16,-71 12,-73 10,-76 8,-77 4,-80 1,-80 -1,-83 -4,-84 -7,-85 -10,-85 -13,-86 -15,-87 -19,-87 -20,-86 -23,-87 -27,-85 -28,-86 -31,-83 -34,-83 -36,-81 -38,-79 -39,-78 -41,-76 -45,-73 -45,-70 -47,-68 -48,-66 -50,-61 -51,-60 -52,-55 -54,-52 -53,-48 -54,-45 -55,-41 h -3 z"
       id="path199"
       inkscape:connector-curvature="0"
       style="fill:none;stroke:#7a7a7a;stroke-width:35" />
  </g>
  <g
     class="com.sun.star.drawing.CustomShape"
     id="g201"
     transform="matrix(0.03543,0,0,0.03543,-24.599061,-31.809336)">
    <path
       d="m 5261,6041 40,4 40,7 39,10 39,14 38,18 38,22 37,25 36,27 34,31 35,35 32,37 32,40 30,43 29,47 28,48 25,51 25,54 22,56 21,57 20,60 17,62 16,63 14,64 11,67 10,67 8,68 6,69 4,69 1,71 v 71 l -2,70 -5,71 -6,69 -8,70 -11,69 -12,68 -14,68 -16,65 -18,65 -20,63 -21,62 -23,59 -25,58 -26,56 -28,54 -29,50 -31,49 -32,45 -33,44 -34,40 -36,38 -35,33 -38,31 -37,29 -39,24 -39,21 -39,17 -40,14 -40,11 -40,8 -40,3 h -40 l 42,-54 41,-57 40,-61 37,-64 36,-67 34,-70 32,-73 30,-75 27,-79 26,-80 23,-82 21,-83 18,-85 16,-86 13,-89 11,-87 9,-90 5,-89 3,-90 v -89 l -2,-89 -5,-89 -8,-87 -10,-87 -12,-85 -16,-84 -17,-82 -20,-80 -23,-78 -25,-75 -27,-74 -29,-70 -32,-68 -33,-64 -35,-60 -38,-58 -2,-1 z m 659,2818 z M 5261,6041 z"
       id="path203"
       inkscape:connector-curvature="0"
       style="fill:#a5a5a5" />
    <path
       d="m 5261,6041 40,4 40,7 39,10 39,14 38,18 38,22 37,25 36,27 34,31 35,35 32,37 32,40 30,43 29,47 28,48 25,51 25,54 22,56 21,57 20,60 17,62 16,63 14,64 11,67 10,67 8,68 6,69 4,69 1,71 v 71 l -2,70 -5,71 -6,69 -8,70 -11,69 -12,68 -14,68 -16,65 -18,65 -20,63 -21,62 -23,59 -25,58 -26,56 -28,54 -29,50 -31,49 -32,45 -33,44 -34,40 -36,38 -35,33 -38,31 -37,29 -39,24 -39,21 -39,17 -40,14 -40,11 -40,8 -40,3 h -40 l 42,-54 41,-57 40,-61 37,-64 36,-67 34,-70 32,-73 30,-75 27,-79 26,-80 23,-82 21,-83 18,-85 16,-86 13,-89 11,-87 9,-90 5,-89 3,-90 v -89 l -2,-89 -5,-89 -8,-87 -10,-87 -12,-85 -16,-84 -17,-82 -20,-80 -23,-78 -25,-75 -27,-74 -29,-70 -32,-68 -33,-64 -35,-60 -38,-58 -2,-1 z"
       id="path205"
       inkscape:connector-curvature="0"
       style="fill:none;stroke:#7a7a7a;stroke-width:35" />
  </g>
  <g
     class="com.sun.star.drawing.CustomShape"
     id="g207"
     transform="matrix(0.03543,0,0,0.03543,-24.599061,-31.809336)">
    <path
       d="m 6147,6133 40,4 40,7 39,10 39,14 38,18 38,22 37,25 36,27 34,31 35,35 32,37 32,40 30,43 29,47 28,48 25,51 25,54 22,56 21,57 20,60 17,62 16,63 14,64 11,67 10,67 8,68 6,69 4,69 1,71 v 71 l -2,70 -5,71 -6,69 -8,70 -11,69 -12,68 -14,68 -16,65 -18,65 -20,63 -21,62 -23,59 -25,58 -26,56 -28,54 -29,50 -31,49 -32,45 -33,44 -34,40 -36,38 -35,33 -38,31 -37,29 -39,24 -39,21 -39,17 -40,14 -40,11 -40,8 -40,3 h -40 l 42,-54 41,-57 40,-61 37,-64 36,-67 34,-70 32,-73 30,-75 27,-79 26,-80 23,-82 21,-83 18,-85 16,-86 13,-89 11,-87 9,-90 5,-89 3,-90 v -89 l -2,-89 -5,-89 -8,-87 -10,-87 -12,-85 -16,-84 -17,-82 -20,-80 -23,-78 -25,-75 -27,-74 -29,-70 -32,-68 -33,-64 -35,-60 -38,-58 -2,-1 z m 659,2818 z M 6147,6133 z"
       id="path209"
       inkscape:connector-curvature="0"
       style="fill:#a5a5a5" />
    <path
       d="m 6147,6133 40,4 40,7 39,10 39,14 38,18 38,22 37,25 36,27 34,31 35,35 32,37 32,40 30,43 29,47 28,48 25,51 25,54 22,56 21,57 20,60 17,62 16,63 14,64 11,67 10,67 8,68 6,69 4,69 1,71 v 71 l -2,70 -5,71 -6,69 -8,70 -11,69 -12,68 -14,68 -16,65 -18,65 -20,63 -21,62 -23,59 -25,58 -26,56 -28,54 -29,50 -31,49 -32,45 -33,44 -34,40 -36,38 -35,33 -38,31 -37,29 -39,24 -39,21 -39,17 -40,14 -40,11 -40,8 -40,3 h -40 l 42,-54 41,-57 40,-61 37,-64 36,-67 34,-70 32,-73 30,-75 27,-79 26,-80 23,-82 21,-83 18,-85 16,-86 13,-89 11,-87 9,-90 5,-89 3,-90 v -89 l -2,-89 -5,-89 -8,-87 -10,-87 -12,-85 -16,-84 -17,-82 -20,-80 -23,-78 -25,-75 -27,-74 -29,-70 -32,-68 -33,-64 -35,-60 -38,-58 -2,-1 z"
       id="path211"
       inkscape:connector-curvature="0"
       style="fill:none;stroke:#7a7a7a;stroke-width:35" />
  </g>
  <g
     class="com.sun.star.drawing.CustomShape"
     id="g213"
     transform="matrix(0.03543,0,0,0.03543,-24.599061,-31.809336)">
    <path
       d="m 7033,6225 40,4 40,7 39,10 39,14 38,18 38,22 37,25 36,27 34,31 35,35 32,37 32,40 30,43 29,47 28,48 25,51 25,54 22,56 21,57 20,60 17,62 16,63 14,64 11,67 10,67 8,68 6,69 4,69 1,71 v 71 l -2,70 -5,71 -6,69 -8,70 -11,69 -12,68 -14,68 -16,65 -18,65 -20,63 -21,62 -23,59 -25,58 -26,56 -28,54 -29,50 -31,49 -32,45 -33,44 -34,40 -36,38 -35,33 -38,31 -37,29 -39,24 -39,21 -39,17 -40,14 -40,11 -40,8 -40,3 h -40 l 42,-54 41,-57 40,-61 37,-64 36,-67 34,-70 32,-73 30,-75 27,-79 26,-80 23,-82 21,-83 18,-85 16,-86 13,-89 11,-87 9,-90 5,-89 3,-90 v -89 l -2,-89 -5,-89 -8,-87 -10,-87 -12,-85 -16,-84 -17,-82 -20,-80 -23,-78 -25,-75 -27,-74 -29,-70 -32,-68 -33,-64 -35,-60 -38,-58 -2,-1 z m 659,2818 z M 7033,6225 z"
       id="path215"
       inkscape:connector-curvature="0"
       style="fill:#a5a5a5" />
    <path
       d="m 7033,6225 40,4 40,7 39,10 39,14 38,18 38,22 37,25 36,27 34,31 35,35 32,37 32,40 30,43 29,47 28,48 25,51 25,54 22,56 21,57 20,60 17,62 16,63 14,64 11,67 10,67 8,68 6,69 4,69 1,71 v 71 l -2,70 -5,71 -6,69 -8,70 -11,69 -12,68 -14,68 -16,65 -18,65 -20,63 -21,62 -23,59 -25,58 -26,56 -28,54 -29,50 -31,49 -32,45 -33,44 -34,40 -36,38 -35,33 -38,31 -37,29 -39,24 -39,21 -39,17 -40,14 -40,11 -40,8 -40,3 h -40 l 42,-54 41,-57 40,-61 37,-64 36,-67 34,-70 32,-73 30,-75 27,-79 26,-80 23,-82 21,-83 18,-85 16,-86 13,-89 11,-87 9,-90 5,-89 3,-90 v -89 l -2,-89 -5,-89 -8,-87 -10,-87 -12,-85 -16,-84 -17,-82 -20,-80 -23,-78 -25,-75 -27,-74 -29,-70 -32,-68 -33,-64 -35,-60 -38,-58 -2,-1 z"
       id="path217"
       inkscape:connector-curvature="0"
       style="fill:none;stroke:#7a7a7a;stroke-width:35" />
  </g>
  <g
     class="com.sun.star.drawing.CustomShape"
     id="g219"
     transform="matrix(0.03543,0,0,0.03543,-24.599061,-31.809336)">
    <path
       d="m 7919,6316 40,4 40,7 39,10 39,14 38,18 38,22 37,25 36,27 34,31 35,35 32,37 32,40 30,43 29,47 28,48 25,51 25,54 22,56 21,57 20,60 17,62 16,63 14,64 11,67 10,67 8,68 6,69 4,69 1,71 v 71 l -2,70 -5,71 -6,69 -8,70 -11,69 -12,68 -14,68 -16,65 -18,65 -20,63 -21,62 -23,59 -25,58 -26,56 -28,54 -29,50 -31,49 -32,45 -33,44 -34,40 -36,38 -35,33 -38,31 -37,29 -39,24 -39,21 -39,17 -40,14 -40,11 -40,8 -40,3 h -40 l 42,-54 41,-57 40,-61 37,-64 36,-67 34,-70 32,-73 30,-75 27,-79 26,-80 23,-82 21,-83 18,-85 16,-86 13,-89 11,-87 9,-90 5,-89 3,-90 v -89 l -2,-89 -5,-89 -8,-87 -10,-87 -12,-85 -16,-84 -17,-82 -20,-80 -23,-78 -25,-75 -27,-74 -29,-70 -32,-68 -33,-64 -35,-60 -38,-58 -2,-1 z m 659,2818 z M 7919,6316 z"
       id="path221"
       inkscape:connector-curvature="0"
       style="fill:#a5a5a5" />
    <path
       d="m 7919,6316 40,4 40,7 39,10 39,14 38,18 38,22 37,25 36,27 34,31 35,35 32,37 32,40 30,43 29,47 28,48 25,51 25,54 22,56 21,57 20,60 17,62 16,63 14,64 11,67 10,67 8,68 6,69 4,69 1,71 v 71 l -2,70 -5,71 -6,69 -8,70 -11,69 -12,68 -14,68 -16,65 -18,65 -20,63 -21,62 -23,59 -25,58 -26,56 -28,54 -29,50 -31,49 -32,45 -33,44 -34,40 -36,38 -35,33 -38,31 -37,29 -39,24 -39,21 -39,17 -40,14 -40,11 -40,8 -40,3 h -40 l 42,-54 41,-57 40,-61 37,-64 36,-67 34,-70 32,-73 30,-75 27,-79 26,-80 23,-82 21,-83 18,-85 16,-86 13,-89 11,-87 9,-90 5,-89 3,-90 v -89 l -2,-89 -5,-89 -8,-87 -10,-87 -12,-85 -16,-84 -17,-82 -20,-80 -23,-78 -25,-75 -27,-74 -29,-70 -32,-68 -33,-64 -35,-60 -38,-58 -2,-1 z"
       id="path223"
       inkscape:connector-curvature="0"
       style="fill:none;stroke:#7a7a7a;stroke-width:35" />
  </g>
  <g
     class="com.sun.star.drawing.CustomShape"
     id="g225"
     transform="matrix(0.03543,0,0,0.03543,-24.599061,-31.809336)">
    <path
       d="m 8805,6408 40,4 40,7 39,10 39,14 38,18 38,22 37,25 36,27 34,31 35,35 32,37 32,40 30,43 29,47 28,48 25,51 25,54 22,56 21,57 20,60 17,62 16,63 14,64 11,67 10,67 8,68 6,69 4,69 1,71 v 71 l -2,70 -5,71 -6,69 -8,70 -11,69 -12,68 -14,68 -16,65 -18,65 -20,63 -21,62 -23,59 -25,58 -26,56 -28,54 -29,50 -31,49 -32,45 -33,44 -34,40 -36,38 -35,33 -38,31 -37,29 -39,24 -39,21 -39,17 -40,14 -40,11 -40,8 -40,3 h -40 l 42,-54 41,-57 40,-61 37,-64 36,-67 34,-70 32,-73 30,-75 27,-79 26,-80 23,-82 21,-83 18,-85 16,-86 13,-89 11,-87 9,-90 5,-89 3,-90 v -89 l -2,-89 -5,-89 -8,-87 -10,-87 -12,-85 -16,-84 -17,-82 -20,-80 -23,-78 -25,-75 -27,-74 -29,-70 -32,-68 -33,-64 -35,-60 -38,-58 -2,-1 z m 659,2818 z M 8805,6408 z"
       id="path227"
       inkscape:connector-curvature="0"
       style="fill:#a5a5a5" />
    <path
       d="m 8805,6408 40,4 40,7 39,10 39,14 38,18 38,22 37,25 36,27 34,31 35,35 32,37 32,40 30,43 29,47 28,48 25,51 25,54 22,56 21,57 20,60 17,62 16,63 14,64 11,67 10,67 8,68 6,69 4,69 1,71 v 71 l -2,70 -5,71 -6,69 -8,70 -11,69 -12,68 -14,68 -16,65 -18,65 -20,63 -21,62 -23,59 -25,58 -26,56 -28,54 -29,50 -31,49 -32,45 -33,44 -34,40 -36,38 -35,33 -38,31 -37,29 -39,24 -39,21 -39,17 -40,14 -40,11 -40,8 -40,3 h -40 l 42,-54 41,-57 40,-61 37,-64 36,-67 34,-70 32,-73 30,-75 27,-79 26,-80 23,-82 21,-83 18,-85 16,-86 13,-89 11,-87 9,-90 5,-89 3,-90 v -89 l -2,-89 -5,-89 -8,-87 -10,-87 -12,-85 -16,-84 -17,-82 -20,-80 -23,-78 -25,-75 -27,-74 -29,-70 -32,-68 -33,-64 -35,-60 -38,-58 -2,-1 z"
       id="path229"
       inkscape:connector-curvature="0"
       style="fill:none;stroke:#7a7a7a;stroke-width:35" />
  </g>
  <g
     class="com.sun.star.drawing.CustomShape"
     id="g231"
     transform="matrix(0.03543,0,0,0.03543,-24.599061,-31.809336)">
    <path
       d="m 9691,6500 40,4 40,7 39,10 39,14 38,18 38,22 37,25 36,27 34,31 35,35 32,37 32,40 30,43 29,47 28,48 25,51 25,54 22,56 21,57 20,60 17,62 16,63 14,64 11,67 10,67 8,68 6,69 4,69 1,71 v 71 l -2,70 -5,71 -6,69 -8,70 -11,69 -12,68 -14,68 -16,65 -18,65 -20,63 -21,62 -23,59 -25,58 -26,56 -28,54 -29,50 -31,49 -32,45 -33,44 -34,40 -36,38 -35,33 -38,31 -37,29 -39,24 -39,21 -39,17 -40,14 -40,11 -40,8 -40,3 h -40 l 42,-54 41,-57 40,-61 37,-64 36,-67 34,-70 32,-73 30,-75 27,-79 26,-80 23,-82 21,-83 18,-85 16,-86 13,-89 11,-87 9,-90 5,-89 3,-90 v -89 l -2,-89 -5,-89 -8,-87 -10,-87 -12,-85 -16,-84 -17,-82 -20,-80 -23,-78 -25,-75 -27,-74 -29,-70 -32,-68 -33,-64 -35,-60 -38,-58 -2,-1 z m 659,2818 z M 9691,6500 z"
       id="path233"
       inkscape:connector-curvature="0"
       style="fill:#a5a5a5" />
    <path
       d="m 9691,6500 40,4 40,7 39,10 39,14 38,18 38,22 37,25 36,27 34,31 35,35 32,37 32,40 30,43 29,47 28,48 25,51 25,54 22,56 21,57 20,60 17,62 16,63 14,64 11,67 10,67 8,68 6,69 4,69 1,71 v 71 l -2,70 -5,71 -6,69 -8,70 -11,69 -12,68 -14,68 -16,65 -18,65 -20,63 -21,62 -23,59 -25,58 -26,56 -28,54 -29,50 -31,49 -32,45 -33,44 -34,40 -36,38 -35,33 -38,31 -37,29 -39,24 -39,21 -39,17 -40,14 -40,11 -40,8 -40,3 h -40 l 42,-54 41,-57 40,-61 37,-64 36,-67 34,-70 32,-73 30,-75 27,-79 26,-80 23,-82 21,-83 18,-85 16,-86 13,-89 11,-87 9,-90 5,-89 3,-90 v -89 l -2,-89 -5,-89 -8,-87 -10,-87 -12,-85 -16,-84 -17,-82 -20,-80 -23,-78 -25,-75 -27,-74 -29,-70 -32,-68 -33,-64 -35,-60 -38,-58 -2,-1 z"
       id="path235"
       inkscape:connector-curvature="0"
       style="fill:none;stroke:#7a7a7a;stroke-width:35" />
  </g>
  <g
     class="com.sun.star.drawing.CustomShape"
     id="g237"
     transform="matrix(0.03543,0,0,0.03543,-24.599061,-31.809336)">
    <path
       d="m 10578,6591 40,4 40,7 39,10 39,14 38,18 38,22 37,25 36,27 34,31 35,35 32,37 32,40 30,43 29,47 28,48 25,51 25,54 22,56 21,57 20,60 17,62 16,63 14,64 11,67 10,67 8,68 6,69 4,69 1,71 v 71 l -2,70 -5,71 -6,69 -8,70 -11,69 -12,68 -14,68 -16,65 -18,65 -20,63 -21,62 -23,59 -25,58 -26,56 -28,54 -29,50 -31,49 -32,45 -33,44 -34,40 -36,38 -35,33 -38,31 -37,29 -39,24 -39,21 -39,17 -40,14 -40,11 -40,8 -40,3 h -40 l 42,-54 41,-57 40,-61 37,-64 36,-67 34,-70 32,-73 30,-75 27,-79 26,-80 23,-82 21,-83 18,-85 16,-86 13,-89 11,-87 9,-90 5,-89 3,-90 v -89 l -2,-89 -5,-89 -8,-87 -10,-87 -12,-85 -16,-84 -17,-82 -20,-80 -23,-78 -25,-75 -27,-74 -29,-70 -32,-68 -33,-64 -35,-60 -38,-58 -2,-1 z m 659,2818 z m -659,-2818 z"
       id="path239"
       inkscape:connector-curvature="0"
       style="fill:#a5a5a5" />
    <path
       d="m 10578,6591 40,4 40,7 39,10 39,14 38,18 38,22 37,25 36,27 34,31 35,35 32,37 32,40 30,43 29,47 28,48 25,51 25,54 22,56 21,57 20,60 17,62 16,63 14,64 11,67 10,67 8,68 6,69 4,69 1,71 v 71 l -2,70 -5,71 -6,69 -8,70 -11,69 -12,68 -14,68 -16,65 -18,65 -20,63 -21,62 -23,59 -25,58 -26,56 -28,54 -29,50 -31,49 -32,45 -33,44 -34,40 -36,38 -35,33 -38,31 -37,29 -39,24 -39,21 -39,17 -40,14 -40,11 -40,8 -40,3 h -40 l 42,-54 41,-57 40,-61 37,-64 36,-67 34,-70 32,-73 30,-75 27,-79 26,-80 23,-82 21,-83 18,-85 16,-86 13,-89 11,-87 9,-90 5,-89 3,-90 v -89 l -2,-89 -5,-89 -8,-87 -10,-87 -12,-85 -16,-84 -17,-82 -20,-80 -23,-78 -25,-75 -27,-74 -29,-70 -32,-68 -33,-64 -35,-60 -38,-58 -2,-1 z"
       id="path241"
       inkscape:connector-curvature="0"
       style="fill:none;stroke:#7a7a7a;stroke-width:35" />
  </g>
  <g
     class="com.sun.star.drawing.CustomShape"
     id="g243"
     transform="matrix(0.03543,0,0,0.03543,-24.599061,-31.809336)">
    <path
       d="m 11464,6683 40,4 40,7 39,10 39,14 38,18 38,22 37,25 36,27 34,31 35,35 32,37 32,40 30,43 29,47 28,48 25,51 25,54 22,56 21,57 20,60 17,62 16,63 14,64 11,67 10,67 8,68 6,69 4,69 1,71 v 71 l -2,70 -5,71 -6,69 -8,70 -11,69 -12,68 -14,68 -16,65 -18,65 -20,63 -21,62 -23,59 -25,58 -26,56 -28,54 -29,50 -31,49 -32,45 -33,44 -34,40 -36,38 -35,33 -38,31 -37,29 -39,24 -39,21 -39,17 -40,14 -40,11 -40,8 -40,3 h -40 l 42,-54 41,-57 40,-61 37,-64 36,-67 34,-70 32,-73 30,-75 27,-79 26,-80 23,-82 21,-83 18,-85 16,-86 13,-89 11,-87 9,-90 5,-89 3,-90 v -89 l -2,-89 -5,-89 -8,-87 -10,-87 -12,-85 -16,-84 -17,-82 -20,-80 -23,-78 -25,-75 -27,-74 -29,-70 -32,-68 -33,-64 -35,-60 -38,-58 -2,-1 z m 659,2818 z m -659,-2818 z"
       id="path245"
       inkscape:connector-curvature="0"
       style="fill:#a5a5a5" />
    <path
       d="m 11464,6683 40,4 40,7 39,10 39,14 38,18 38,22 37,25 36,27 34,31 35,35 32,37 32,40 30,43 29,47 28,48 25,51 25,54 22,56 21,57 20,60 17,62 16,63 14,64 11,67 10,67 8,68 6,69 4,69 1,71 v 71 l -2,70 -5,71 -6,69 -8,70 -11,69 -12,68 -14,68 -16,65 -18,65 -20,63 -21,62 -23,59 -25,58 -26,56 -28,54 -29,50 -31,49 -32,45 -33,44 -34,40 -36,38 -35,33 -38,31 -37,29 -39,24 -39,21 -39,17 -40,14 -40,11 -40,8 -40,3 h -40 l 42,-54 41,-57 40,-61 37,-64 36,-67 34,-70 32,-73 30,-75 27,-79 26,-80 23,-82 21,-83 18,-85 16,-86 13,-89 11,-87 9,-90 5,-89 3,-90 v -89 l -2,-89 -5,-89 -8,-87 -10,-87 -12,-85 -16,-84 -17,-82 -20,-80 -23,-78 -25,-75 -27,-74 -29,-70 -32,-68 -33,-64 -35,-60 -38,-58 -2,-1 z"
       id="path247"
       inkscape:connector-curvature="0"
       style="fill:none;stroke:#7a7a7a;stroke-width:35" />
  </g>
  <g
     class="com.sun.star.drawing.CustomShape"
     id="g249"
     transform="matrix(0.03550432,0,0,0.03161778,-25.967628,-9.3202865)">
    <path
       d="m 11713,3580 h 6686 V 6112 H 11713 V 4635 l -2960,-1130 2960,497 v -422 z m 0,0 z m 6686,2532 z"
       id="path251"
       inkscape:connector-curvature="0"
       style="fill:#ffc000" />
    <path
       d="m 11713,3580 h 6686 V 6112 H 11713 V 4635 l -2960,-1130 2960,497 v -422 z"
       id="path253"
       inkscape:connector-curvature="0"
       style="fill:none;stroke:#bc8e00;stroke-width:35" />
  </g>
  <g
     class="com.sun.star.drawing.CustomShape"
     id="g275"
     transform="matrix(0.03980591,5.9597427e-4,-5.8819516e-4,0.0354256,-36.830428,-35.327988)">
    <path
       d="m 8086,6931 -3670,-323 -526,769 384,851 3670,323 142,-1620 z m 0,0 z M 3819,8188 z"
       id="path277"
       inkscape:connector-curvature="0"
       style="fill:#a7c9e8" />
    <path
       d="m 8086,6931 -3670,-323 -526,769 384,851 3670,323 142,-1620 z"
       id="path279"
       inkscape:connector-curvature="0"
       style="fill:none;stroke:#43729d;stroke-width:35" />
  </g>
  <text
     xml:space="preserve"
     style="font-size:40px;font-style:normal;font-weight:normal;line-height:100%;letter-spacing:0px;word-spacing:0px;fill:#000000;fill-opacity:1;stroke:none;font-family:Sans"
     x="426.71927"
     y="34.82745"
     id="text3610"
     sodipodi:linespacing="100%"><tspan
       sodipodi:role="line"
       id="tspan3612"
       x="426.71927"
       y="34.82745"
       style="font-size:16px;font-style:normal;font-variant:normal;font-weight:normal;font-stretch:normal;text-align:start;line-height:100%;writing-mode:lr-tb;text-anchor:start;font-family:Sans;-inkscape-font-specification:Sans">&lt;video</tspan><tspan
       sodipodi:role="line"
       x="426.71927"
       y="50.82745"
       style="font-size:16px;font-style:normal;font-variant:normal;font-weight:normal;font-stretch:normal;text-align:start;line-height:100%;writing-mode:lr-tb;text-anchor:start;font-family:Sans;-inkscape-font-specification:Sans"
       id="tspan3578">width=800</tspan><tspan
       sodipodi:role="line"
       x="426.71927"
       y="66.827446"
       style="font-size:16px;font-style:normal;font-variant:normal;font-weight:normal;font-stretch:normal;text-align:start;line-height:100%;writing-mode:lr-tb;text-anchor:start;font-family:Sans;-inkscape-font-specification:Sans"
       id="tspan3572">height=600&gt;</tspan></text>
  <text
     xml:space="preserve"
     style="font-size:40px;font-style:normal;font-weight:normal;line-height:125%;letter-spacing:0px;word-spacing:0px;fill:#000000;fill-opacity:1;stroke:none;font-family:Sans"
     x="550.64258"
     y="263.97235"
     id="text3205"
     sodipodi:linespacing="125%"><tspan
       sodipodi:role="line"
       id="tspan3207"
       x="550.64258"
       y="263.97235"
       style="font-size:24px;font-style:normal;font-variant:normal;font-weight:normal;font-stretch:normal;text-align:start;line-height:125%;writing-mode:lr-tb;text-anchor:start;font-family:Sans;-inkscape-font-specification:Sans">P</tspan></text>
  <text
     xml:space="preserve"
     style="font-size:40px;font-style:normal;font-weight:normal;line-height:125%;letter-spacing:0px;word-spacing:0px;fill:#000000;fill-opacity:1;stroke:none;font-family:Sans"
     x="549.729"
     y="34.618034"
     id="text3213"
     sodipodi:linespacing="125%"><tspan
       sodipodi:role="line"
       id="tspan3215"
       x="549.729"
       y="34.618034"
       style="font-size:24px;font-style:normal;font-variant:normal;font-weight:normal;font-stretch:normal;text-align:start;line-height:125%;writing-mode:lr-tb;text-anchor:start;font-family:Sans;-inkscape-font-specification:Sans">N</tspan></text>
  <text
     xml:space="preserve"
     style="font-size:40px;font-style:normal;font-weight:normal;line-height:100%;letter-spacing:0px;word-spacing:0px;fill:#000000;fill-opacity:1;stroke:none;font-family:Sans"
     x="425.87488"
     y="232.42348"
     id="text3610-4"
     sodipodi:linespacing="100%"><tspan
       sodipodi:role="line"
       id="tspan3612-4"
       x="425.87488"
       y="232.42348"
       style="font-size:16px;font-style:normal;font-variant:normal;font-weight:normal;font-stretch:normal;text-align:start;line-height:100%;writing-mode:lr-tb;text-anchor:start;font-family:Sans;-inkscape-font-specification:Sans">&lt;video</tspan><tspan
       sodipodi:role="line"
       x="425.87488"
       y="248.42348"
       id="tspan3616"
       style="font-size:16px;font-style:normal;font-variant:normal;font-weight:normal;font-stretch:normal;text-align:start;line-height:100%;writing-mode:lr-tb;text-anchor:start;font-family:Sans;-inkscape-font-specification:Sans">width=1024</tspan><tspan
       sodipodi:role="line"
       x="425.87488"
       y="264.42346"
       style="font-size:16px;font-style:normal;font-variant:normal;font-weight:normal;font-stretch:normal;text-align:start;line-height:100%;writing-mode:lr-tb;text-anchor:start;font-family:Sans;-inkscape-font-specification:Sans"
       id="tspan3578-5">height=768&gt;</tspan></text>
  <text
     xml:space="preserve"
     style="font-size:40px;font-style:normal;font-weight:normal;line-height:125%;letter-spacing:0px;word-spacing:0px;fill:#000000;fill-opacity:1;stroke:none;font-family:Sans"
     x="403.78293"
     y="132.17625"
     id="text3580"
     sodipodi:linespacing="125%"><tspan
       sodipodi:role="line"
       x="403.78293"
       y="132.17625"
       style="font-size:16px;font-style:normal;font-variant:normal;font-weight:normal;font-stretch:normal;text-align:start;line-height:125%;writing-mode:lr-tb;text-anchor:start;font-family:Sans;-inkscape-font-specification:Sans"
       id="tspan3152">Mandatory [contradictory]</tspan><tspan
       sodipodi:role="line"
       x="403.78293"
       y="152.17625"
       style="font-size:16px;font-style:normal;font-variant:normal;font-weight:normal;font-stretch:normal;text-align:start;line-height:125%;writing-mode:lr-tb;text-anchor:start;font-family:Sans;-inkscape-font-specification:Sans"
       id="tspan3624">fillLightMode: on applied</tspan><tspan
       sodipodi:role="line"
       x="403.78293"
       y="172.17625"
       style="font-size:16px;font-style:normal;font-variant:normal;font-weight:normal;font-stretch:normal;text-align:start;line-height:125%;writing-mode:lr-tb;text-anchor:start;font-family:Sans;-inkscape-font-specification:Sans"
       id="tspan3626">to track</tspan></text>
  <text
     sodipodi:linespacing="125%"
     id="text3225-2"
     y="72.340469"
     x="8.991848"
     style="font-size:40px;font-style:normal;font-weight:normal;line-height:125%;letter-spacing:0px;word-spacing:0px;fill:#000000;fill-opacity:1;stroke:none;font-family:Sans"
     xml:space="preserve"><tspan
       style="font-size:22px;font-style:normal;font-variant:normal;font-weight:normal;font-stretch:normal;text-align:start;line-height:125%;writing-mode:lr-tb;text-anchor:start;font-family:Sans;-inkscape-font-specification:Sans"
       y="72.340469"
       x="8.991848"
       id="tspan3227-0"
       sodipodi:role="line">Home client</tspan><tspan
       style="font-size:22px;font-style:normal;font-variant:normal;font-weight:normal;font-stretch:normal;text-align:start;line-height:125%;writing-mode:lr-tb;text-anchor:start;font-family:Sans;-inkscape-font-specification:Sans"
       y="99.840469"
       x="8.991848"
       sodipodi:role="line"
       id="tspan3223">video source</tspan></text>
  <text
     xml:space="preserve"
     style="font-size:40px;font-style:normal;font-weight:normal;line-height:125%;letter-spacing:0px;word-spacing:0px;fill:#000000;fill-opacity:1;stroke:none;font-family:Sans"
     x="108.20735"
     y="25.707911"
     id="text3197"
     sodipodi:linespacing="125%"><tspan
       sodipodi:role="line"
       id="tspan3199"
       x="108.20735"
       y="25.707911"
       style="font-size:32px;font-style:normal;font-variant:normal;font-weight:normal;font-stretch:normal;text-align:start;line-height:125%;writing-mode:lr-tb;text-anchor:start;font-family:Sans;-inkscape-font-specification:Sans">Home Client</tspan></text>
  <text
     sodipodi:linespacing="125%"
     id="text3643"
     y="210.83452"
     x="159.25702"
     style="font-size:40px;font-style:normal;font-weight:normal;line-height:125%;letter-spacing:0px;word-spacing:0px;fill:#000000;fill-opacity:1;stroke:none;font-family:Sans"
     xml:space="preserve"
     transform="matrix(0.9952479,0.0973736,-0.0973736,0.9952479,0,0)"><tspan
       style="font-size:16px;font-style:normal;font-variant:normal;font-weight:normal;font-stretch:normal;text-align:start;line-height:125%;writing-mode:lr-tb;text-anchor:start;font-family:Sans;-inkscape-font-specification:Sans"
       y="210.83452"
       x="159.25702"
       sodipodi:role="line"
       id="tspan3656">mandatory:</tspan><tspan
       style="font-size:16px;font-style:normal;font-variant:normal;font-weight:normal;font-stretch:normal;text-align:start;line-height:125%;writing-mode:lr-tb;text-anchor:start;font-family:Sans;-inkscape-font-specification:Sans"
       y="230.83452"
       x="159.25702"
       sodipodi:role="line"
       id="tspan3660">fillLightMode: off</tspan></text>
  <text
     sodipodi:linespacing="100%"
     id="text3626"
     y="248.46275"
     x="4.5580635"
     style="font-size:40px;font-style:normal;font-weight:normal;line-height:100%;letter-spacing:0px;word-spacing:0px;fill:#000000;fill-opacity:1;stroke:none;font-family:Sans"
     xml:space="preserve"><tspan
       style="font-size:14px;font-style:normal;font-variant:normal;font-weight:normal;font-stretch:normal;text-align:start;line-height:100%;writing-mode:lr-tb;text-anchor:start;font-family:Sans;-inkscape-font-specification:Sans"
       y="248.46275"
       x="4.5580635"
       sodipodi:role="line"
       id="tspan3240">width: 1024</tspan><tspan
       style="font-size:14px;font-style:normal;font-variant:normal;font-weight:normal;font-stretch:normal;text-align:start;line-height:100%;writing-mode:lr-tb;text-anchor:start;font-family:Sans;-inkscape-font-specification:Sans"
       y="262.46274"
       x="4.5580635"
       sodipodi:role="line"
       id="tspan3675">height: 768</tspan><tspan
       style="font-size:14px;font-style:normal;font-variant:normal;font-weight:normal;font-stretch:normal;text-align:start;line-height:100%;writing-mode:lr-tb;text-anchor:start;font-family:Sans;-inkscape-font-specification:Sans"
       y="276.46274"
       x="4.5580635"
       sodipodi:role="line"
       id="tspan3677"><tspan
   style="font-size:14px;font-style:normal;font-variant:normal;font-weight:bold;font-stretch:normal;text-align:start;line-height:100%;writing-mode:lr-tb;text-anchor:start;font-family:Sans;-inkscape-font-specification:Sans Bold"
   id="tspan3679">fillLightMode</tspan>: off</tspan></text>
  <text
     sodipodi:linespacing="125%"
     id="text3225"
     y="333.67999"
     x="389.10236"
     style="font-size:40px;font-style:normal;font-weight:normal;line-height:125%;letter-spacing:0px;word-spacing:0px;fill:#000000;fill-opacity:1;stroke:none;font-family:Sans"
     xml:space="preserve"><tspan
       style="font-size:22px;font-style:normal;font-variant:normal;font-weight:normal;font-stretch:normal;text-align:start;line-height:125%;writing-mode:lr-tb;text-anchor:start;font-family:Sans;-inkscape-font-specification:Sans"
       y="333.67999"
       x="389.10236"
       id="tspan3227"
       sodipodi:role="line">Home client video sinks</tspan></text>
</svg>
